<svg width="30" height="30" viewBox="0 0 43 29" fill="none" xmlns="http://www.w3.org/2000/svg">
<path d="M41.2083 12.6875H1.79167C0.802156 12.6875 0 13.499 0 14.5C0 15.501 0.802156 16.3125 1.79167 16.3125H41.2083C42.1978 16.3125 43 15.501 43 14.5C43 13.499 42.1978 12.6875 41.2083 12.6875Z" fill="#29A1DC"/>
<path d="M41.2083 0H1.79167C0.802156 0 0 0.811484 0 1.8125C0 2.81352 0.802156 3.625 1.79167 3.625H41.2083C42.1978 3.625 43 2.81352 43 1.8125C43 0.811484 42.1978 0 41.2083 0Z" fill="#29A1DC"/>
<path d="M41.2083 25.375H1.79167C0.802156 25.375 0 26.1865 0 27.1875C0 28.1885 0.802156 29 1.79167 29H41.2083C42.1978 29 43 28.1885 43 27.1875C43 26.1865 42.1978 25.375 41.2083 25.375Z" fill="#29A1DC"/>
</svg>