<svg width="35" height="35" viewBox="0 0 40 53" fill="none" xmlns="http://www.w3.org/2000/svg">
<path d="M20 26.5C22.6371 26.5 25.2149 25.7229 27.4076 24.267C29.6003 22.811 31.3092 20.7417 32.3184 18.3206C33.3276 15.8994 33.5916 13.2353 33.0771 10.6651C32.5627 8.09481 31.2928 5.73388 29.4281 3.88084C27.5634 2.02779 25.1876 0.765855 22.6012 0.254601C20.0148 -0.256653 17.3339 0.00574107 14.8976 1.0086C12.4612 2.01146 10.3788 3.70975 8.91374 5.8887C7.44865 8.06765 6.66667 10.6294 6.66667 13.25C6.6702 16.763 8.07609 20.1312 10.5758 22.6153C13.0755 25.0994 16.4649 26.4965 20 26.5ZM20 4.41667C21.7581 4.41667 23.4766 4.93474 24.9384 5.90535C26.4002 6.87597 27.5395 8.25555 28.2123 9.86963C28.885 11.4837 29.0611 13.2598 28.7181 14.9733C28.3751 16.6868 27.5285 18.2607 26.2854 19.4961C25.0423 20.7315 23.4584 21.5728 21.7341 21.9136C20.0099 22.2544 18.2226 22.0795 16.5984 21.4109C14.9741 20.7424 13.5859 19.6102 12.6092 18.1575C11.6324 16.7049 11.1111 14.9971 11.1111 13.25C11.1111 10.9073 12.0476 8.66046 13.7146 7.00389C15.3816 5.34732 17.6425 4.41667 20 4.41667Z" fill="black"/>
<path d="M20 30.9167C14.6975 30.9225 9.61381 33.0184 5.86436 36.7444C2.11491 40.4704 0.0058819 45.5223 0 50.7917C0 51.3774 0.234126 51.9391 0.650874 52.3532C1.06762 52.7673 1.63285 53 2.22222 53C2.81159 53 3.37682 52.7673 3.79357 52.3532C4.21032 51.9391 4.44444 51.3774 4.44444 50.7917C4.44444 46.6919 6.08333 42.76 9.00056 39.861C11.9178 36.962 15.8744 35.3333 20 35.3333C24.1256 35.3333 28.0822 36.962 30.9994 39.861C33.9167 42.76 35.5556 46.6919 35.5556 50.7917C35.5556 51.3774 35.7897 51.9391 36.2064 52.3532C36.6232 52.7673 37.1884 53 37.7778 53C38.3671 53 38.9324 52.7673 39.3491 52.3532C39.7659 51.9391 40 51.3774 40 50.7917C39.9941 45.5223 37.8851 40.4704 34.1356 36.7444C30.3862 33.0184 25.3025 30.9225 20 30.9167Z" fill="black"/>
</svg>