<svg width="106" height="100" viewBox="0 0 106 100" fill="none" xmlns="http://www.w3.org/2000/svg">
<path d="M19.6279 89.7529C19.6279 90.7946 19.335 91.7142 18.749 92.5117C17.7887 93.8301 16.2018 94.4893 13.9883 94.4893H6.10254V94.001C7.11165 93.9359 7.80339 93.7161 8.17773 93.3418C8.53581 92.9674 8.71484 92.2757 8.71484 91.2666V79.3525C8.71484 78.376 8.52767 77.7412 8.15332 77.4482C7.84408 77.2204 7.16048 77.0739 6.10254 77.0088V76.5205H12.6699C16.7878 76.5205 18.8467 78.0179 18.8467 81.0127C18.8467 83.0309 17.6667 84.3656 15.3066 85.0166L15.7217 85.1143C18.3258 85.7327 19.6279 87.279 19.6279 89.7529ZM17.2598 81.208C17.2598 78.6201 15.502 77.3262 11.9863 77.3262C11.3027 77.3262 10.9284 77.3343 10.8633 77.3506C10.5703 77.3831 10.3913 77.4401 10.3262 77.5215C10.2611 77.6029 10.2285 77.7738 10.2285 78.0342V84.3574L12.9873 84.333C14.0941 84.3167 14.8997 84.2272 15.4043 84.0645C16.6413 83.6087 17.2598 82.6566 17.2598 81.208ZM17.748 89.6553C17.748 87.751 16.7227 86.4489 14.6719 85.749C13.9069 85.4886 12.4258 85.3584 10.2285 85.3584V92.3896C10.2285 92.9593 10.4889 93.3418 11.0098 93.5371C11.319 93.6348 11.8317 93.6836 12.5479 93.6836C16.0146 93.6836 17.748 92.3408 17.748 89.6553ZM31.3955 93.3906C30.7607 94.2533 30.0853 94.6846 29.3691 94.6846C28.653 94.6846 28.2624 93.8952 28.1973 92.3164C26.4557 93.8952 25.1455 94.6846 24.2666 94.6846C23.5993 94.6846 23.054 94.4567 22.6309 94.001C22.1426 93.4964 21.8984 92.821 21.8984 91.9746C21.8984 90.7376 22.4437 89.6878 23.5342 88.8252C24.2992 88.2393 25.821 87.4417 28.0996 86.4326L28.1729 84.8945C28.2542 83.3158 27.4974 82.5264 25.9023 82.5264C25.4303 82.5264 24.9827 82.6566 24.5596 82.917C24.0876 83.1774 23.8516 83.4948 23.8516 83.8691C23.8516 83.7878 23.8841 84.1051 23.9492 84.8213C23.9818 85.1305 23.9248 85.3991 23.7783 85.627C23.6318 85.8385 23.4284 85.9443 23.168 85.9443C22.6146 85.9443 22.3379 85.5781 22.3379 84.8457C22.3379 84.1947 22.6309 83.5924 23.2168 83.0391C23.9492 82.3229 24.9176 81.9648 26.1221 81.9648C27.6195 81.9648 28.596 82.4694 29.0518 83.4785C29.2633 83.9831 29.3691 84.9027 29.3691 86.2373V91.3398C29.3691 92.6257 29.7191 93.2686 30.4189 93.2686C30.6794 93.2686 31.0049 93.1139 31.3955 92.8047V93.3906ZM28.1729 90.7783V87.1162C25.0479 88.3369 23.4854 89.6309 23.4854 90.998V91.0713C23.4854 92.4385 24.0957 93.1872 25.3164 93.3174C25.8372 93.3662 26.4639 93.1383 27.1963 92.6338C27.8473 92.1781 28.1729 91.5596 28.1729 90.7783ZM39.2812 83.3809C39.2812 83.9505 39.0371 84.2354 38.5488 84.2354C38.2559 84.2354 37.9385 84.1377 37.5967 83.9424C37.2549 83.7308 36.9782 83.6331 36.7666 83.6494C36.4574 83.682 36.0423 84.0645 35.5215 84.7969C35.0169 85.5293 34.7646 86.1234 34.7646 86.5791L34.7891 91.7793C34.7891 92.6908 35.0088 93.3174 35.4482 93.6592C35.7575 93.9033 36.2865 94.0417 37.0352 94.0742V94.4893H31.5176V94.0742C32.25 93.944 32.7383 93.765 32.9824 93.5371C33.3079 93.2279 33.4707 92.6989 33.4707 91.9502V85.7002C33.4707 84.4469 33.0719 83.8203 32.2744 83.8203C31.9814 83.8203 31.7454 83.8447 31.5664 83.8936V83.4785C32.2826 83.2181 33.3568 82.7542 34.7891 82.0869V85.2119L35.0576 84.7969C35.79 83.7552 36.3271 83.0553 36.6689 82.6973C37.1247 82.2415 37.5967 82.0137 38.085 82.0137C38.8825 82.0137 39.2812 82.4694 39.2812 83.3809ZM50.2432 87.9951C50.2432 89.5739 49.82 90.998 48.9736 92.2676C47.932 93.8789 46.4346 94.6846 44.4814 94.6846C43.7816 94.6846 43.0736 94.5381 42.3574 94.2451C41.5273 93.9359 41.1123 93.5534 41.1123 93.0977V79.1816C41.1123 78.0749 40.624 77.5215 39.6475 77.5215C39.501 77.5215 39.387 77.5296 39.3057 77.5459V77.082C40.0055 76.903 41.0472 76.5286 42.4307 75.959V84.8945L42.626 84.5283C42.9027 84.0238 43.2933 83.5436 43.7979 83.0879C44.5628 82.4043 45.3278 82.0706 46.0928 82.0869C47.3949 82.1032 48.4365 82.7461 49.2178 84.0156C49.9014 85.1224 50.2432 86.4489 50.2432 87.9951ZM48.7295 88.874C48.7295 85.391 47.5413 83.6494 45.165 83.6494C44.5791 83.6494 44.0013 83.9098 43.4316 84.4307C42.7643 85.0166 42.4307 85.6921 42.4307 86.457V92.292C42.4307 92.7477 42.7887 93.1546 43.5049 93.5127C44.1071 93.7894 44.6361 93.9277 45.0918 93.9277C46.3776 93.9277 47.346 93.3174 47.9971 92.0967C48.4854 91.2015 48.7295 90.1273 48.7295 88.874ZM60.9365 90.3389C60.6436 91.2992 60.1797 92.1536 59.5449 92.9023C58.5684 94.0905 57.3883 94.6846 56.0049 94.6846C54.654 94.6846 53.5716 94.1393 52.7578 93.0488C51.9603 91.9909 51.5615 90.5179 51.5615 88.6299C51.5615 86.4001 52.1312 84.6667 53.2705 83.4297C54.182 82.4694 55.2236 81.9811 56.3955 81.9648C57.5023 81.9648 58.4056 82.3148 59.1055 83.0146C59.9193 83.8122 60.3913 85.0085 60.5215 86.6035H52.6846C52.7171 88.9473 53.1403 90.7051 53.9541 91.877C54.6214 92.8535 55.4922 93.3418 56.5664 93.3418C58.2266 93.3418 59.5856 92.3001 60.6436 90.2168L60.9365 90.3389ZM58.7881 85.9199C58.5602 83.8529 57.5999 82.8112 55.9072 82.7949C54.4098 82.7786 53.36 83.8203 52.7578 85.9199H58.7881ZM71.8252 93.3906C71.1904 94.2533 70.515 94.6846 69.7988 94.6846C69.0827 94.6846 68.6921 93.8952 68.627 92.3164C66.8854 93.8952 65.5752 94.6846 64.6963 94.6846C64.029 94.6846 63.4837 94.4567 63.0605 94.001C62.5723 93.4964 62.3281 92.821 62.3281 91.9746C62.3281 90.7376 62.8734 89.6878 63.9639 88.8252C64.7288 88.2393 66.2507 87.4417 68.5293 86.4326L68.6025 84.8945C68.6839 83.3158 67.9271 82.5264 66.332 82.5264C65.86 82.5264 65.4124 82.6566 64.9893 82.917C64.5173 83.1774 64.2812 83.4948 64.2812 83.8691C64.2812 83.7878 64.3138 84.1051 64.3789 84.8213C64.4115 85.1305 64.3545 85.3991 64.208 85.627C64.0615 85.8385 63.8581 85.9443 63.5977 85.9443C63.0443 85.9443 62.7676 85.5781 62.7676 84.8457C62.7676 84.1947 63.0605 83.5924 63.6465 83.0391C64.3789 82.3229 65.3473 81.9648 66.5518 81.9648C68.0492 81.9648 69.0257 82.4694 69.4814 83.4785C69.693 83.9831 69.7988 84.9027 69.7988 86.2373V91.3398C69.7988 92.6257 70.1488 93.2686 70.8486 93.2686C71.109 93.2686 71.4346 93.1139 71.8252 92.8047V93.3906ZM68.6025 90.7783V87.1162C65.4775 88.3369 63.915 89.6309 63.915 90.998V91.0713C63.915 92.4385 64.5254 93.1872 65.7461 93.3174C66.2669 93.3662 66.8936 93.1383 67.626 92.6338C68.277 92.1781 68.6025 91.5596 68.6025 90.7783ZM79.7109 83.3809C79.7109 83.9505 79.4668 84.2354 78.9785 84.2354C78.6855 84.2354 78.3682 84.1377 78.0264 83.9424C77.6846 83.7308 77.4079 83.6331 77.1963 83.6494C76.887 83.682 76.472 84.0645 75.9512 84.7969C75.4466 85.5293 75.1943 86.1234 75.1943 86.5791L75.2188 91.7793C75.2188 92.6908 75.4385 93.3174 75.8779 93.6592C76.1872 93.9033 76.7161 94.0417 77.4648 94.0742V94.4893H71.9473V94.0742C72.6797 93.944 73.168 93.765 73.4121 93.5371C73.7376 93.2279 73.9004 92.6989 73.9004 91.9502V85.7002C73.9004 84.4469 73.5016 83.8203 72.7041 83.8203C72.4111 83.8203 72.1751 83.8447 71.9961 83.8936V83.4785C72.7122 83.2181 73.7865 82.7542 75.2188 82.0869V85.2119L75.4873 84.7969C76.2197 83.7552 76.7568 83.0553 77.0986 82.6973C77.5544 82.2415 78.0264 82.0137 78.5146 82.0137C79.3122 82.0137 79.7109 82.4694 79.7109 83.3809ZM83.666 77.1797C83.666 77.9447 83.3324 78.3271 82.665 78.3271C82.3558 78.3271 82.1117 78.1888 81.9326 77.9121C81.7861 77.6842 81.7129 77.4401 81.7129 77.1797C81.7129 76.9518 81.7943 76.7077 81.957 76.4473C82.1198 76.2031 82.3558 76.0811 82.665 76.0811C82.9417 76.0811 83.1859 76.1868 83.3975 76.3984C83.5765 76.6263 83.666 76.8867 83.666 77.1797ZM85.6191 94.4893H80.0283V94.0742C80.8747 94.0417 81.4362 93.8789 81.7129 93.5859C82.0547 93.2279 82.2256 92.5199 82.2256 91.4619V85.749C82.2256 84.4958 81.8105 83.8691 80.9805 83.8691C80.7852 83.8691 80.5166 83.9098 80.1748 83.9912V83.5518C80.9561 83.3076 82.0872 82.8519 83.5684 82.1846V91.4619C83.5684 92.4059 83.7067 93.0651 83.9834 93.4395C84.2438 93.7975 84.7891 94.0091 85.6191 94.0742V94.4893ZM96.6055 93.3906C95.9707 94.2533 95.2952 94.6846 94.5791 94.6846C93.863 94.6846 93.4723 93.8952 93.4072 92.3164C91.6657 93.8952 90.3555 94.6846 89.4766 94.6846C88.8092 94.6846 88.264 94.4567 87.8408 94.001C87.3525 93.4964 87.1084 92.821 87.1084 91.9746C87.1084 90.7376 87.6536 89.6878 88.7441 88.8252C89.5091 88.2393 91.0309 87.4417 93.3096 86.4326L93.3828 84.8945C93.4642 83.3158 92.7074 82.5264 91.1123 82.5264C90.6403 82.5264 90.1927 82.6566 89.7695 82.917C89.2975 83.1774 89.0615 83.4948 89.0615 83.8691C89.0615 83.7878 89.0941 84.1051 89.1592 84.8213C89.1917 85.1305 89.1348 85.3991 88.9883 85.627C88.8418 85.8385 88.6383 85.9443 88.3779 85.9443C87.8245 85.9443 87.5479 85.5781 87.5479 84.8457C87.5479 84.1947 87.8408 83.5924 88.4268 83.0391C89.1592 82.3229 90.1276 81.9648 91.332 81.9648C92.8294 81.9648 93.806 82.4694 94.2617 83.4785C94.4733 83.9831 94.5791 84.9027 94.5791 86.2373V91.3398C94.5791 92.6257 94.929 93.2686 95.6289 93.2686C95.8893 93.2686 96.2148 93.1139 96.6055 92.8047V93.3906ZM93.3828 90.7783V87.1162C90.2578 88.3369 88.6953 89.6309 88.6953 90.998V91.0713C88.6953 92.4385 89.3057 93.1872 90.5264 93.3174C91.0472 93.3662 91.6738 93.1383 92.4062 92.6338C93.0573 92.1781 93.3828 91.5596 93.3828 90.7783Z" fill="#D9D9D9"/>
<path d="M62.5882 41.3468C63.7076 41.363 64.9258 41.5 66.24 41.783C76.7534 44.0464 80.5042 54.7998 87.263 59.1381C94.0219 63.4763 100.885 61.3905 101.909 59.5112C102.933 57.632 102.663 55.5542 100.973 54.4224C98.2048 52.5685 97.9676 56.4967 97.9676 56.4967C97.9676 56.4967 97.3975 49.9515 103.038 53.0994C106.417 54.9856 106.332 62.3145 100.597 66.4903C93.3834 71.7421 83.2048 70.5897 74.6871 68.9426C66.8814 67.4333 57.5524 62.6907 53.4709 58.0045C53.1563 57.6432 52.8813 57.267 52.646 56.8801C52.411 57.2662 52.1401 57.6438 51.8259 58.0045C47.7442 62.691 38.4152 67.434 30.6098 68.9426C22.0916 70.5897 11.9177 71.7421 4.70485 66.4903C-1.03028 62.3148 -1.11552 54.9859 2.26388 53.0994C7.904 49.9515 7.32915 56.4967 7.32915 56.4967C7.32915 56.4967 7.09672 52.5684 4.32857 54.4224C2.63887 55.5541 2.36397 57.6319 3.38783 59.5112C4.41168 61.3905 11.2747 63.4762 18.0337 59.138C24.7925 54.7979 28.5471 44.0445 39.0613 41.7811C46.4999 40.1801 50.7383 43.3112 52.6504 45.9393C54.2254 43.7767 57.3727 41.2698 62.588 41.3454L62.5883 41.3468L62.5882 41.3468Z" fill="#D9D9D9"/>
<path d="M62.5882 41.3468C63.7076 41.363 64.9258 41.5 66.24 41.783C76.7534 44.0464 80.5042 54.7998 87.263 59.1381C94.0219 63.4763 100.885 61.3905 101.909 59.5112C102.933 57.632 102.663 55.5542 100.973 54.4224C98.2048 52.5685 97.9676 56.4967 97.9676 56.4967C97.9676 56.4967 97.3975 49.9515 103.038 53.0994C106.417 54.9856 106.332 62.3145 100.597 66.4903C93.3834 71.7421 83.2048 70.5897 74.6871 68.9426C66.8814 67.4333 57.5524 62.6907 53.4709 58.0045C53.1563 57.6432 52.8813 57.267 52.646 56.8801C52.411 57.2662 52.1401 57.6438 51.8259 58.0045C47.7442 62.691 38.4152 67.434 30.6098 68.9426C22.0916 70.5897 11.9177 71.7421 4.70485 66.4903C-1.03028 62.3148 -1.11552 54.9859 2.26388 53.0994C7.904 49.9515 7.32915 56.4967 7.32915 56.4967C7.32915 56.4967 7.09672 52.5684 4.32857 54.4224C2.63887 55.5541 2.36397 57.6319 3.38783 59.5112C4.41168 61.3905 11.2747 63.4762 18.0337 59.138C24.7925 54.7979 28.5471 44.0445 39.0613 41.7811C46.4999 40.1801 50.7383 43.3112 52.6504 45.9393C54.2254 43.7767 57.3727 41.2698 62.588 41.3454L62.5883 41.3468L62.5882 41.3468Z" fill="#D9D9D9"/>
<path d="M77.2506 0.12833C77.7325 0.176454 78.2144 0.256661 78.6964 0.35291C78.857 0.384992 79.0337 0.417075 79.1944 0.449158C79.4675 0.497282 79.7405 0.577489 80.0136 0.657696C80.9293 0.914359 81.845 1.26727 82.7125 1.6683C82.7285 1.68435 82.7446 1.68435 82.7767 1.70039C83.0498 1.82872 83.3068 1.95705 83.5639 2.10142C84.5277 2.63079 85.4273 3.27244 86.2627 3.96223C86.8892 4.47555 87.4675 5.05304 88.0137 5.64657C88.094 5.74282 88.1904 5.83907 88.2707 5.93532C88.7848 6.54489 89.2667 7.18655 89.6844 7.86029C90.0218 8.37361 90.3109 8.91902 90.584 9.48047C90.825 9.97775 91.0338 10.475 91.2266 10.9884C91.3551 11.3573 91.4836 11.7263 91.5961 12.0952C91.9495 13.2662 92.1423 14.4693 92.2386 15.6885C92.2708 16.0093 92.2708 16.3141 92.2868 16.6349C92.2868 16.667 92.2868 16.6831 92.2868 16.7151C92.3029 17.7257 92.2065 18.7364 92.0459 19.7309C91.9977 20.0678 91.9174 20.4207 91.837 20.7576C91.7085 21.303 91.5479 21.8323 91.3712 22.3617C91.3069 22.5542 91.2266 22.7467 91.1623 22.9392C91.0338 23.244 90.9053 23.5648 90.7768 23.8536C90.7447 23.9338 90.7125 24.014 90.6643 24.0942C90.4073 24.6396 90.1181 25.185 89.7969 25.6983C89.7165 25.8267 89.6362 25.9389 89.572 26.0673C89.0579 26.8533 88.4796 27.5912 87.8531 28.2649C87.3229 28.8424 86.7607 29.3718 86.1663 29.8691C85.8289 30.1578 85.4755 30.4145 85.1061 30.6712C84.9454 30.7834 84.7848 30.8957 84.6081 31.008C84.2546 31.2486 83.8852 31.4572 83.4996 31.6657C83.4996 31.6657 83.4835 31.6657 83.4835 31.6818C82.7446 32.0828 81.9896 32.4197 81.2024 32.7084C80.094 33.1255 78.9373 33.3982 77.7486 33.5586C76.4795 33.7351 75.2265 33.7671 73.9574 33.6549C72.6401 33.5426 71.3549 33.2699 70.1019 32.8688C67.7404 32.0988 65.5878 30.7834 63.7886 29.0831C62.889 28.2489 62.1179 27.2864 61.4271 26.2919C60.7042 25.2492 60.142 24.1102 59.6761 22.9392C59.2103 21.7682 58.905 20.533 58.7283 19.2818C58.5516 17.9824 58.5034 16.6831 58.6159 15.3677C58.8408 12.8652 59.6279 10.4269 60.9131 8.26132C61.4914 7.23467 62.2304 6.27218 63.0496 5.38991C63.8689 4.50763 64.7846 3.73764 65.7645 3.03182C66.6963 2.37412 67.7083 1.81268 68.7686 1.36352C69.877 0.898316 71.0176 0.529364 72.2063 0.304785C73.1863 0.112288 74.1662 0.0160398 75.1622 -1.49724e-06C75.1943 -1.49443e-06 75.2264 -1.49162e-06 75.2746 -1.4874e-06C75.3068 -1.4846e-06 75.3228 -1.48319e-06 75.355 -1.48038e-06C75.9815 0.01604 76.608 0.0481229 77.2506 0.12833ZM73.4272 2.14955C72.126 2.34204 70.8569 2.67891 69.6521 3.1762C68.4633 3.68952 67.3549 4.33118 66.3268 5.1172C65.3308 5.90323 64.4312 6.80155 63.644 7.79612C62.8569 8.82277 62.2143 9.92962 61.7002 11.1167C61.2022 12.3358 60.8488 13.6031 60.6721 14.9185C60.5115 16.2339 60.5115 17.5653 60.6721 18.8968C60.8649 20.1961 61.2183 21.4634 61.7163 22.6825C62.2304 23.8536 62.8729 24.9604 63.644 25.971C64.4312 26.9656 65.3308 27.8639 66.3268 28.6499C67.3549 29.4199 68.4633 30.0776 69.636 30.5909C70.8569 31.0882 72.126 31.4411 73.4433 31.6176C74.7606 31.778 76.0779 31.778 77.3951 31.6176C78.616 31.4411 79.8048 31.1203 80.9614 30.6712C81.0418 30.6391 81.1221 30.607 81.1863 30.5749C81.4594 30.4626 81.7325 30.3343 81.9896 30.1899C82.0056 30.1739 82.0217 30.1739 82.0378 30.1578C82.0538 30.1578 82.0538 30.1418 82.0699 30.1418C82.0859 30.1418 82.0859 30.1257 82.102 30.1257C82.9374 29.6926 83.7406 29.1953 84.4956 28.6179C85.2185 28.0404 85.8932 27.4148 86.5037 26.725C86.5037 26.725 86.5037 26.725 86.5037 26.7089C86.5197 26.6929 86.5197 26.6929 86.5358 26.6768C86.5518 26.6608 86.5518 26.6608 86.5679 26.6448C86.5679 26.6448 86.5679 26.6287 86.584 26.6287C86.7928 26.4041 86.9856 26.1635 87.1784 25.9229C87.9173 24.9444 88.5438 23.8856 89.0579 22.7627L89.0579 22.7467C89.0579 22.7467 89.0579 22.7307 89.074 22.7307C89.09 22.6986 89.1061 22.6505 89.1222 22.6184C89.1864 22.474 89.2346 22.3457 89.2828 22.2013C89.2828 22.1853 89.2989 22.1692 89.2989 22.1532C89.2989 22.1532 89.2989 22.1532 89.2989 22.1371C89.6683 21.1586 89.9254 20.164 90.1021 19.1374L90.1021 19.1213C90.1021 19.1053 90.1021 19.0893 90.1021 19.0893C90.1021 19.0732 90.1021 19.0732 90.1021 19.0572L90.1021 19.0411C90.1181 18.977 90.1181 18.8968 90.1342 18.8326C90.2949 17.5012 90.2949 16.1697 90.1342 14.8543C90.0218 14.1485 89.8772 13.4427 89.6844 12.769C89.6844 12.7529 89.6683 12.7369 89.6683 12.7208C89.6683 12.7048 89.6683 12.6887 89.6523 12.6887L89.6523 12.6727C89.4916 12.1433 89.3149 11.63 89.1061 11.1167C88.592 9.94567 87.9495 8.83881 87.1623 7.81216C86.9053 7.47529 86.6322 7.1705 86.343 6.84968C86.3269 6.83363 86.3269 6.81759 86.3109 6.81759C86.3109 6.81759 86.3109 6.80155 86.2948 6.80155C86.2788 6.78551 86.2788 6.78551 86.2627 6.76947L86.2466 6.75343L86.2306 6.73738C86.2145 6.72134 86.2145 6.72134 86.1984 6.7053L86.1824 6.68926C86.1663 6.67322 86.1663 6.67322 86.1502 6.65718C86.1502 6.65718 86.1502 6.65718 86.1342 6.64114C86.1181 6.6251 86.102 6.60905 86.102 6.60905C85.6201 6.11177 85.1061 5.64657 84.5759 5.21345C84.5599 5.19741 84.5438 5.18137 84.5277 5.18137C84.5117 5.16533 84.4956 5.16533 84.4795 5.14929C83.4514 4.3793 82.343 3.7216 81.1703 3.20828C81.0257 3.16015 80.8972 3.09599 80.7526 3.04786C80.7365 3.04786 80.7365 3.04786 80.7205 3.03182C80.7044 3.03182 80.7044 3.03182 80.6883 3.01578C79.7887 2.67891 78.8731 2.43829 77.9413 2.26183L77.9253 2.26183C77.9253 2.26183 77.9253 2.26183 77.9092 2.26183C77.7325 2.22975 77.5719 2.19767 77.3951 2.18163C77.2024 2.14954 76.9935 2.1335 76.8008 2.11746C75.6923 1.98913 74.5517 2.00517 73.4272 2.14955ZM61.7324 22.7467C61.7484 22.7788 61.7484 22.7948 61.7645 22.8269C61.7484 22.7948 61.7324 22.7627 61.7324 22.7467Z" fill="#D9D9D9"/>
<path d="M34.4068 1.39531C35.6117 1.68405 36.7844 2.14925 37.9089 2.69466C38.3105 2.88716 38.696 3.11174 39.0816 3.33631C39.1619 3.38444 39.2583 3.4486 39.3386 3.49673C40.0133 3.91381 40.6559 4.39505 41.2663 4.90837C41.6197 5.21316 41.9731 5.53399 42.3105 5.87086C43.1459 6.70501 43.9009 7.65145 44.5434 8.64602C44.8647 9.1433 45.1539 9.65663 45.427 10.186C45.4752 10.2662 45.5073 10.3624 45.5555 10.4427C45.7804 10.9239 45.9892 11.4051 46.182 11.9024C46.182 11.9185 46.182 11.9185 46.1981 11.9345C46.6318 13.0574 46.9049 14.2445 47.0656 15.4315C47.2423 16.7148 47.2744 17.9982 47.1619 19.2975C46.937 21.7839 46.1499 24.1901 44.8969 26.3397C44.2864 27.3824 43.5475 28.3449 42.7442 29.2271C41.9249 30.1255 40.9772 30.9115 39.9972 31.6173C38.9852 32.3392 37.8928 32.9006 36.7522 33.3819C35.6116 33.8471 34.4389 34.1839 33.218 34.3925C30.6477 34.8256 28.0132 34.6652 25.5071 33.9273C23.0654 33.2054 20.8324 31.89 18.9368 30.1896C17.1215 28.5373 15.7079 26.468 14.7601 24.2062C13.7962 21.8962 13.3785 19.3617 13.507 16.8432C13.6356 14.3247 14.3585 11.8703 15.5633 9.65662C16.1416 8.59789 16.8484 7.61936 17.6356 6.705C18.4227 5.7746 19.3384 4.97253 20.3023 4.23463C21.234 3.52881 22.2621 2.93528 23.3224 2.43799C24.463 1.92467 25.6357 1.52363 26.8566 1.26697C27.9971 1.02635 29.1538 0.914061 30.3104 0.914061C31.6759 0.914063 33.0574 1.07448 34.4068 1.39531ZM28.3345 3.03153C27.0333 3.22402 25.7642 3.56089 24.5433 4.05818C23.3706 4.5715 22.2782 5.21316 21.2501 5.9671C20.238 6.75313 19.3384 7.66749 18.5352 8.66206C17.7641 9.67266 17.1215 10.7795 16.6075 11.9505C16.1095 13.1697 15.7561 14.453 15.5633 15.7524C15.4026 17.0838 15.4026 18.4152 15.5633 19.7306C15.7561 21.03 16.0934 22.2972 16.5914 23.5164C17.1055 24.6874 17.748 25.7943 18.5191 26.8209C19.3224 27.8315 20.222 28.7298 21.218 29.5159C22.2461 30.2859 23.3706 30.9436 24.5433 31.4569C25.7642 31.9542 27.0172 32.291 28.3184 32.4835C29.6357 32.644 30.969 32.644 32.3024 32.4835C33.5875 32.291 34.8566 31.9542 36.0614 31.4569C37.2502 30.9436 38.3587 30.3019 39.3868 29.5159C40.3988 28.7138 41.2984 27.8155 42.1017 26.8049C42.8727 25.7782 43.5153 24.6874 44.0294 23.5004C44.5274 22.2812 44.8647 21.0139 45.0575 19.7146C45.2182 18.3831 45.2182 17.0517 45.0575 15.7363C44.8808 14.5011 44.5595 13.298 44.0936 12.143C44.0936 12.143 44.0936 12.143 44.0936 12.127L44.0936 12.111C44.0776 12.0628 44.0615 12.0147 44.0294 11.9666C43.933 11.742 43.8366 11.5174 43.7242 11.3089L43.7242 11.2929C43.7242 11.2768 43.7081 11.2608 43.7081 11.2447C43.2583 10.3304 42.7282 9.46413 42.1017 8.64602C41.3145 7.65145 40.3988 6.73709 39.4028 5.95106C39.3707 5.91898 39.3386 5.90294 39.3065 5.87086C39.3065 5.87086 39.2904 5.87086 39.2904 5.85482C39.2743 5.85482 39.2743 5.83877 39.2583 5.83877C38.3105 5.14899 37.2984 4.55546 36.2221 4.07422C36.206 4.07422 36.19 4.05818 36.1739 4.05818C36.1739 4.05818 36.1578 4.05818 36.1578 4.04214C36.1418 4.04214 36.1418 4.0261 36.1257 4.0261C36.1096 4.0261 36.0936 4.01005 36.0936 4.01005C36.0454 3.99401 35.9972 3.97797 35.949 3.94589C34.7763 3.48069 33.5554 3.15986 32.3024 2.96736C30.9851 2.87111 29.6518 2.87111 28.3345 3.03153L28.3345 3.03153Z" fill="#D9D9D9"/>
<path d="M53.4593 11.2291C54.0055 11.2612 54.5678 11.3414 55.0979 11.4857C55.2907 11.5339 55.4674 11.582 55.6601 11.6462C56.1581 11.8066 56.6561 12.0472 57.1059 12.3039C57.2987 12.4161 57.4915 12.5445 57.6682 12.6728L57.6843 12.6888C57.7003 12.7049 57.7164 12.7209 57.7485 12.737C57.9092 12.8653 58.0698 12.9776 58.2304 13.122C58.8088 13.5872 59.2746 14.1486 59.7084 14.7421C59.9815 15.1432 60.2224 15.5603 60.4152 16.0094C60.4152 16.0094 60.4152 16.0255 60.4313 16.0255L60.4313 16.0415C60.4313 16.0575 60.4473 16.0736 60.4473 16.0736C60.4955 16.1538 60.5276 16.234 60.5437 16.3142C60.5437 16.3302 60.5598 16.3302 60.5598 16.3463C60.6562 16.5869 60.5758 16.9077 60.4634 17.1163C60.3349 17.3409 60.11 17.5013 59.869 17.5815C59.612 17.6456 59.3228 17.6136 59.0979 17.4852C59.0337 17.4371 58.9694 17.3729 58.8891 17.3248C58.7766 17.1965 58.6802 17.0682 58.632 16.9077C58.4232 16.4425 58.1662 16.0094 57.861 15.5923C57.5397 15.1913 57.1702 14.8224 56.7686 14.5015C56.3509 14.1967 55.9011 13.9401 55.4352 13.7155C54.9372 13.523 54.4392 13.3786 53.9091 13.2984C53.3629 13.2343 52.8328 13.2343 52.2866 13.2984C51.9653 13.3465 51.644 13.4268 51.3388 13.523C51.3227 13.523 51.3227 13.523 51.3067 13.523L51.2906 13.523C51.1139 13.5711 50.9211 13.6353 50.7444 13.7155C50.2625 13.924 49.8127 14.1967 49.395 14.5015C49.3629 14.5336 49.3147 14.5657 49.2826 14.5978C48.9292 14.9026 48.6079 15.2234 48.3187 15.5763C48.0617 15.9292 47.8207 16.3142 47.6279 16.6992C47.6279 16.6992 47.6279 16.7152 47.6119 16.7152C47.5797 16.7794 47.5476 16.8436 47.5155 16.9238C47.387 17.2606 47.2745 17.5815 47.1942 17.9344C47.146 18.1108 47.1139 18.2873 47.0817 18.4798C47.0657 18.6242 47.0496 18.7846 47.0496 18.929L47.0496 18.945C47.0496 18.961 47.0496 18.9771 47.0496 18.9931L47.0496 19.0092C47.0496 19.0252 47.0496 19.0412 47.0496 19.0573L47.0496 19.0733C47.0496 19.0894 47.0496 19.1054 47.0496 19.1215L47.0496 19.1375C47.0496 19.1535 47.0496 19.1696 47.0496 19.1856C47.0496 19.1856 47.0496 19.1856 47.0496 19.2017C47.0496 19.2177 47.0496 19.2337 47.0496 19.2658C47.0496 19.2819 47.0496 19.314 47.0496 19.33C47.0496 19.8754 46.5838 20.3406 46.0376 20.3406C45.4914 20.3406 45.0416 19.8914 45.0255 19.33C45.0255 18.56 45.1219 17.774 45.3468 17.02L45.3468 17.004C45.395 16.8436 45.4432 16.6671 45.5074 16.5067C45.636 16.1698 45.7805 15.833 45.9572 15.5282C46.0858 15.2876 46.2303 15.0309 46.391 14.8063C46.6319 14.4534 46.905 14.1005 47.2103 13.7957C47.2424 13.7636 47.2745 13.7155 47.3067 13.6834C47.403 13.5872 47.4994 13.4909 47.6119 13.3947C47.9332 13.0899 48.2866 12.8172 48.6561 12.5766C48.897 12.4162 49.138 12.2718 49.395 12.1595C49.5075 12.0953 49.6199 12.0472 49.7484 11.9991C49.7966 11.983 49.8448 11.9509 49.893 11.9349C50.3107 11.7585 50.7444 11.6141 51.1942 11.5018C51.3388 11.4697 51.4834 11.4376 51.644 11.4055C51.9814 11.3414 52.3348 11.3093 52.6882 11.2933C52.7043 11.2933 52.7364 11.2933 52.7525 11.2933C52.8489 11.2933 52.9613 11.2933 53.0577 11.2933C53.2023 11.213 53.3308 11.213 53.4593 11.2291L53.4593 11.2291Z" fill="#D9D9D9"/>
</svg>