<svg width="149" height="88" viewBox="0 0 149 88" fill="none" xmlns="http://www.w3.org/2000/svg">
<g clip-path="url(#clip0_432_721)">
<path fill-rule="evenodd" clip-rule="evenodd" d="M7.43726 40.5428V45.7006H11.8948C14.6231 45.7006 15.5792 46.3358 15.5792 48.7212V77.9762C15.5792 80.2921 14.6231 81.1809 11.8948 81.1809H7.43726V86.0068H33.1545V81.1809H29.6167C26.8906 81.1809 25.9334 80.2987 25.9334 77.974V64.9323H30.5001C35.4108 64.9323 38.9971 67.7091 39.2695 72.8912L39.7106 78.8595C39.9841 84.3151 43.6587 87.2607 50.1376 87.2607C57.0257 87.2607 58.6479 83.8894 58.6479 76.7962V73.0015H54.8157V75.3229C54.8157 78.1185 53.1934 79.5598 51.8326 79.5598C49.6479 79.5598 49.5377 76.891 49.4064 75.3229V73.4481C49.4064 67.2173 46.5392 64.7625 42.9584 62.8734C49.6424 61.3052 54.0856 57.3065 54.0856 51.7836C54.0856 44.6221 49.1815 40.5472 40.4528 40.5472L7.43726 40.5428ZM95.2789 41.1692V46.2156H98.8156C101.544 46.2156 102.5 47.0361 102.5 49.4225V63.9938V78.5651C102.5 80.881 101.544 81.7698 98.8156 81.7698H95.2789V86.6332H138.313V66.6648H133.414C133.275 74.5057 133.345 81.697 123.796 81.697H112.891V49.4225C112.891 47.0361 113.849 46.2156 116.575 46.2156H120.669V41.1692H95.2789ZM73.2676 17.9299C81.318 17.9299 86.0148 23.9612 86.0148 35.685C86.0148 47.1431 81.2143 54.1811 72.8254 54.1811C64.6415 54.1811 59.9667 46.8663 59.9667 35.2064C59.9667 23.8167 64.8786 17.9277 73.2665 17.9277L73.2676 17.9299ZM25.9367 45.6642H33.01C39.8297 45.6642 42.2945 47.8996 42.2945 52.3328C42.2945 56.9017 39.6224 59.0379 33.8945 59.0379H25.9367V45.6642Z" fill="#D9D9D9"/>
<path d="M68.9258 0.0771905C70.3028 0.0860129 71.6791 0.0602863 73.0547 0C74.9493 0.0683735 76.8439 0.102559 78.7385 0.205119C83.7631 0.486854 88.7587 1.15342 93.6814 2.19897C110.65 5.80733 125.628 13.4111 138.78 24.6299C140.004 25.6742 141.161 26.7539 142.351 27.8335C142.642 28.0846 142.871 28.3983 143.023 28.751C143.125 28.9775 143.159 29.2291 143.12 29.4745C143.081 29.7199 142.97 29.9485 142.802 30.1318C142.637 30.3229 142.416 30.4575 142.17 30.5168C141.924 30.5761 141.666 30.5572 141.431 30.4626C141.121 30.3403 140.819 30.1962 140.528 30.0314C128.041 22.6251 114.432 17.2989 100.234 14.2614C95.465 13.249 90.6656 12.4771 85.8361 11.9455C78.9045 11.2141 71.9258 11.033 64.9656 11.404C61.2265 11.5941 57.4994 11.9736 53.7987 12.541C45.1403 13.8086 36.6253 15.9138 28.3737 18.827C24.0412 20.3375 19.7984 22.0942 15.6662 24.0884C15.0429 24.447 14.308 24.5591 13.6061 24.4027C13.0574 24.2738 12.5818 23.9333 12.2829 23.4553C11.984 22.9773 11.8861 22.4007 12.0104 21.8508C12.0495 21.6954 12.1042 21.5443 12.1736 21.3998C12.436 20.8766 12.8166 20.4216 13.2852 20.0709C17.1953 16.8894 21.4097 14.1013 25.867 11.747C34.2943 7.29459 43.31 4.0588 52.6452 2.13612C58.0171 1.07373 63.4563 0.38576 68.9236 0.0771905H68.9258Z" fill="#D9D9D9"/>
</g>
<defs>
<clipPath id="clip0_432_721">
<rect width="147.986" height="87.26" fill="white" transform="translate(0.491699)"/>
</clipPath>
</defs>
</svg>