<svg width="143" height="84" viewBox="0 0 143 84" fill="none" xmlns="http://www.w3.org/2000/svg">
<path d="M124.38 1.02613C126.414 1.44746 127.412 1.82324 128.58 2.5748C130.085 3.52564 130.661 3.74769 131.014 3.45731C131.191 3.30358 131.344 2.95058 131.344 2.68298C131.344 2.3983 131.59 1.95419 131.92 1.70937C132.473 1.26527 132.804 1.24819 136.805 1.24819C139.17 1.24819 141.273 1.33928 141.49 1.47024C142.447 1.95419 142.493 2.4837 142.316 13.7912C141.985 39.2133 141.963 39.3044 141.478 39.7257C141.079 40.0787 140.481 40.1243 136.303 40.1243C132.633 40.1243 131.373 40.0559 130.775 39.794L129.999 39.4866L130.045 28.0196L130.068 16.5526L129.515 15.4709C128.763 14.0133 127.988 13.3301 126.221 12.6411C123.878 11.7131 122.795 11.9351 121.621 13.5692C121.245 14.0987 120.607 14.6738 120.208 14.8275C118.794 15.4253 118.771 15.5335 118.703 27.9057L118.635 39.014L118.127 39.498C117.666 39.9819 117.421 40.0047 113.927 40.073C110.502 40.1413 107.184 39.8965 106.854 39.5663C106.763 39.4752 106.7 34.442 106.7 28.3441C106.7 19.3539 106.632 17.0594 106.369 16.2623C105.725 14.2296 104.466 12.9486 102.499 12.3508C99.8036 11.5138 97.1477 12.6582 96.0648 15.1122L95.5119 16.3705L95.358 27.8146C95.2041 38.9229 95.1813 39.2816 94.7596 39.5891C94.1611 40.0332 84.2099 39.9648 83.771 39.498C83.5487 39.2759 83.486 37.2205 83.4632 29.8871C83.4404 19.1319 83.6399 13.1877 84.1073 11.2462C84.8368 8.2001 87.1565 4.61881 89.3451 3.16124C91.4995 1.73214 95.3466 0.582031 97.957 0.582031C99.3078 0.582031 102.824 1.35636 103.77 1.84032C106.113 3.03029 106.734 3.42884 108.148 4.70991C108.991 5.48424 109.766 6.10485 109.875 6.10485C110.12 6.10485 110.872 5.48424 112.263 4.16332C112.884 3.56549 113.767 2.88226 114.206 2.6602C114.645 2.43815 115.38 2.0396 115.825 1.81755C117.945 0.712985 121.416 0.405529 124.38 1.02613ZM64.0166 0.889487C64.6151 1.06599 65.4757 1.24249 65.8975 1.33359C67.0488 1.53287 71.1581 3.6509 72.6627 4.82378C76.1793 7.53964 78.5674 11.1836 79.9182 15.8694C80.4254 17.6117 80.4482 23.6014 79.941 24.7913C79.7643 25.2354 79.6104 25.8276 79.6104 26.0952C79.6104 26.3798 79.4793 26.8923 79.3026 27.2453C79.1259 27.5755 78.6586 28.5491 78.2653 29.4089C75.9684 34.2484 70.97 38.3763 65.6866 39.7883C62.6146 40.6253 57.884 40.6936 55.4047 39.9648C52.1959 38.9912 50.298 38.177 49.3006 37.3344C49.1239 37.1579 48.8389 37.0269 48.7022 37.0269C48.5654 37.0269 47.5509 36.1672 46.4452 35.1025C43.8576 32.6485 42.4669 30.6387 41.27 27.6609C40.1415 24.8312 39.5659 20.4357 40.0333 18.1412C40.1871 17.4124 40.3866 16.3761 40.4778 15.8239C40.6317 14.9186 41.1219 13.5066 41.783 12.0661C43.527 8.24565 47.3115 4.40245 51.0902 2.63174C53.3016 1.5955 53.6322 1.48162 55.7581 1.02044C58.0493 0.513708 62.2726 0.451078 64.0166 0.889487ZM56.499 12.9714C55.8778 13.239 54.8177 14.0304 54.0426 14.8047C52.2301 16.6381 51.6545 18.1184 51.7856 20.8343C51.9167 23.9487 53.1591 26.0041 55.8778 27.547C59.44 29.6024 64.1021 28.7826 66.513 25.7137C68.0804 23.7038 68.371 22.884 68.371 20.4585C68.371 18.87 68.2798 18.1412 67.9721 17.475C66.8436 15.0666 64.9855 13.4098 62.3581 12.4817C61.3208 12.1344 57.713 12.4191 56.499 12.9714ZM21.453 1.46454C21.6981 1.70937 21.8747 2.06237 21.8064 2.19333C21.6981 2.47801 21.3846 3.51994 20.9001 5.33051C20.1478 8.0236 19.4639 12.3963 19.2416 15.8239C18.8654 21.2157 19.2416 27.3079 20.239 31.9482C21.0996 36.0362 21.3219 36.9871 21.6126 37.8013C21.9203 38.661 21.9203 38.6838 21.3447 39.1734C20.6836 39.7713 20.1307 39.8168 19.2644 39.3499C18.4665 38.9514 17.7825 37.118 17.2525 33.941C17.1442 33.3887 16.9675 32.3525 16.8307 31.6237C15.3488 23.385 15.6566 12.4305 17.6058 5.33621C18.7115 1.29373 18.666 1.33928 20.0623 1.11723C20.809 1.00336 21.0312 1.04321 21.453 1.46454ZM12.3224 1.17986C12.7214 1.31082 12.6986 3.45731 12.2996 5.72907C11.3706 10.9615 11.1939 13.2162 11.2167 20.1282C11.2167 26.9777 11.3478 28.6744 12.2768 34.7096C12.8753 38.5073 12.8753 38.7521 12.368 39.2588C11.3934 40.2324 9.67218 39.1905 9.40431 37.5166C9.33592 37.0725 9.18202 36.1046 9.05093 35.3985C8.91985 34.6925 8.74316 33.104 8.62918 31.8628C8.51518 30.6216 8.32141 28.6801 8.20743 27.5357C7.67737 22.5423 8.00793 12.0718 8.89136 6.44077C9.02245 5.58103 9.19913 4.33982 9.29033 3.67936C9.5753 1.53856 10.0426 1.00905 11.5017 1.04891C11.8095 1.04321 12.1857 1.11154 12.3224 1.17986ZM2.85561 1.44177L3.31728 1.90295V38.3706L2.76443 38.9001C2.14319 39.5435 1.57323 39.5834 0.661316 39.1222L0.000183105 38.7692V20.2877C0.000183105 10.1245 0.0913696 1.66951 0.199661 1.48732C0.307953 1.33359 0.843704 1.15709 1.39085 1.08876C2.19447 1.00336 2.47945 1.06599 2.85561 1.44177Z" fill="#D9D9D9"/>
<path d="M42.9684 1.40161C43.3218 1.73184 43.0596 2.26135 42.1477 3.12678C39.6514 5.53518 37.1721 9.50933 36.2203 12.7376C35.069 16.5125 35.0462 16.7118 35.069 20.5777C35.0918 24.512 35.2913 25.7248 36.5052 28.862C36.7279 29.4186 36.9201 29.9869 37.0809 30.5644C37.1493 30.832 37.326 31.185 37.5027 31.3159C37.6793 31.4469 37.8104 31.6917 37.8104 31.8454C37.8104 31.9764 38.0954 32.5287 38.4716 33.0183C38.8249 33.525 39.1327 33.9919 39.1327 34.0773C39.1327 34.2766 41.0135 36.6167 42.0964 37.7668C42.6493 38.3646 43.1109 38.9169 43.1109 39.0023C43.1109 39.7539 40.3467 39.9759 39.3322 39.287C38.7337 38.8884 36.4824 36.3719 36.4824 36.1043C36.4824 36.0132 36.2374 35.5747 35.9296 35.1306C34.4705 32.9671 32.9203 29.0783 32.168 25.6337C31.7063 23.4701 31.7063 17.5487 32.1908 15.2314C32.6353 13.0678 33.3819 10.5513 33.627 10.3918C33.7353 10.3235 33.8265 10.1242 33.8265 9.94774C33.8265 8.93428 36.9213 3.96374 38.6255 2.23857L39.6229 1.24219H41.213C42.1021 1.24219 42.9001 1.31051 42.9684 1.40161ZM31.0281 1.40161C31.313 1.68629 31.1819 2.28412 30.2073 4.56157C29.1016 7.23188 28.5032 9.13355 27.5115 13.3981C26.9358 15.8293 26.913 24.7056 27.4887 27.0912C28.0415 29.4086 28.3265 30.6042 28.526 31.5095C28.7711 32.523 29.056 33.3656 30.2301 36.1498C30.7602 37.4309 31.1819 38.6436 31.1819 38.8429C31.1819 39.6628 29.2783 39.993 28.3322 39.3268C27.6027 38.7973 26.7649 36.833 25.4996 32.6141C25.3229 31.9536 25.0151 30.9572 24.8555 30.4277C24.6788 29.8754 24.5478 29.1694 24.5478 28.8392C24.5478 28.509 24.3939 27.4898 24.2172 26.6073C23.7327 24.3298 23.7327 16.7801 24.2172 13.7511C24.7928 10.2153 25.6307 7.27743 27.0897 3.63351C27.9503 1.55534 28.2809 1.24788 29.7229 1.24788C30.3612 1.24219 30.9597 1.31051 31.0281 1.40161ZM24.4395 43.5686C26.383 43.8761 29.3923 45.0489 31.8887 46.4837C34.5218 47.9869 37.6166 51.2322 38.899 53.8171C39.1669 54.3694 39.4747 54.9672 39.5602 55.1437C39.7824 55.5423 40.2441 56.755 40.8197 58.4574C41.3726 60.1826 41.3954 66.5879 40.8197 68.5067C39.5602 72.7257 37.2405 76.4151 34.2312 78.9089C32.1736 80.6113 28.8566 82.3991 27.0213 82.7521C26.4099 82.8688 25.8049 83.017 25.2089 83.1962C24.7871 83.3044 23.1058 83.4183 21.4928 83.4183C17.8908 83.4183 15.9872 83.0197 13.4224 81.7387C12.7384 81.4084 12.3167 81.5166 11.6328 82.2909C11.2338 82.735 11.0115 82.7521 6.08147 82.7521C1.02034 82.7521 0.95195 82.7521 0.484589 82.2454L0.000137329 81.7387V44.8269L0.507385 44.3657C0.991837 43.9045 1.21411 43.8817 5.50581 43.8817C10.2592 43.8817 11.5643 44.081 11.9861 44.8326C12.1628 45.1856 12.3623 45.2311 13.1146 45.1173C13.6219 45.0262 14.1291 44.8724 14.2659 44.7643C14.3742 44.6732 15.0866 44.3657 15.8162 44.1038C16.8991 43.7052 17.7426 43.6198 20.4612 43.5515C22.268 43.5003 24.0633 43.523 24.4395 43.5686ZM16.5229 55.6505C15.1949 56.3565 12.6074 58.8731 12.6074 59.4937C12.6074 59.6702 12.4535 60.1143 12.254 60.4901C11.9861 60.9968 11.8778 61.7939 11.8778 63.428C11.8778 65.4834 11.9462 65.7453 12.6302 67.163C13.3369 68.6206 15.3944 70.8297 16.0555 70.8297C16.1866 70.8297 16.4317 70.9834 16.5856 71.1599C16.7395 71.3364 17.07 71.4901 17.3379 71.4901C17.583 71.4901 18.0902 71.6439 18.4436 71.8204C19.6348 72.441 23.0431 72.1278 24.5478 71.2453C24.7244 71.1371 25.0778 70.9606 25.3229 70.8468C26.383 70.3628 28.1954 68.2391 28.7084 66.8726C29.5462 64.6407 29.5291 61.9021 28.6172 59.8694C27.6198 57.592 24.8555 55.2747 22.6669 54.8989C22.1825 54.8078 20.9001 54.7907 19.8172 54.8534C18.1814 54.9445 17.6286 55.0754 16.5229 55.6505ZM50.3322 44.3202C50.8166 44.5194 51.7456 45.8859 51.7456 46.4211C51.7456 46.5748 51.8767 46.9962 52.0534 47.3492C52.6291 48.4993 53.0679 49.6437 53.0679 49.9568C53.0679 50.2871 53.5296 51.46 54.0824 52.5418C54.2591 52.8492 54.3902 53.2705 54.3902 53.4698C54.3902 53.6463 54.5213 54.1303 54.698 54.5288C54.8746 54.9274 55.1824 55.7017 55.3819 56.254C55.5814 56.8063 55.8892 57.5351 56.043 57.9108C56.3508 58.6624 56.9492 60.1883 57.371 61.3327C57.5249 61.754 57.7928 62.5056 57.9695 62.9896C58.4767 64.3617 58.8301 65.3524 59.0524 66.104C59.1606 66.4798 59.4513 66.9637 59.6736 67.163C60.0726 67.516 60.1182 67.516 60.5114 66.9182C60.7565 66.5879 61.0187 66.0983 61.0871 65.8591C61.1555 65.62 61.4176 64.8628 61.6855 64.2023C61.9534 63.5418 62.2384 62.7447 62.3466 62.4373C62.4378 62.1298 62.7684 61.3099 63.099 60.5812C63.4067 59.8751 63.6746 59.1236 63.6746 58.9243C63.6746 58.725 63.8285 58.372 64.0052 58.15C64.1819 57.9051 64.3358 57.5294 64.3358 57.313C64.3358 57.1137 64.4896 56.5615 64.6891 56.1003C64.8886 55.6391 65.1736 54.9502 65.3332 54.5972C65.4871 54.2214 65.7777 53.5609 65.9772 53.094C66.1767 52.6272 66.3306 52.1204 66.3306 51.9667C66.3306 51.813 66.6384 50.9305 67.0145 50.0423C67.3907 49.137 67.8352 48.0324 68.0119 47.5655C68.6959 45.755 69.072 44.9806 69.4254 44.6504C69.756 44.3657 70.5995 44.3202 75.3927 44.3657C81.8958 44.434 81.6964 44.3657 81.0523 46.3983C80.83 47.0816 80.5679 47.6794 80.4539 47.7705C80.3456 47.8388 80.2544 48.0779 80.2544 48.3C80.2544 48.5221 80.1233 48.9832 79.9466 49.3362C79.5477 50.1334 79.1487 51.1013 78.2653 53.2705C77.8663 54.2441 77.2508 55.6562 76.9145 56.4305C76.5611 57.1821 76.2705 57.9108 76.2705 58.0418C76.2705 58.1727 76.1394 58.5485 75.9627 58.8617C75.786 59.1919 75.3414 60.2111 74.9881 61.1163C74.6347 62.0216 74.1047 63.3255 73.8368 63.9859C73.5689 64.6464 73.2611 65.2898 73.1528 65.398C73.0287 65.5732 72.9593 65.7812 72.9534 65.9958C72.9534 66.2178 72.7995 66.679 72.6228 67.0548C72.4461 67.4306 72.1383 68.0512 71.9617 68.427C71.785 68.8027 71.6311 69.2468 71.6311 69.4006C71.6311 69.5543 71.4544 70.0212 71.2549 70.4368C71.0554 70.8354 70.7705 71.4332 70.5938 71.7634C70.4399 72.0709 70.3088 72.515 70.3088 72.7143C70.3088 72.9135 70.1777 73.3576 70.001 73.6651C69.6021 74.4394 69.1176 75.5668 68.6503 76.8023C68.428 77.3546 68.1202 78.1289 67.9435 78.5047C67.7896 78.9032 67.499 79.5409 67.3451 79.9395C66.2622 82.5699 66.1539 82.7464 65.4016 82.8774C65.0026 82.9457 62.415 82.9856 59.6508 82.9457C53.8145 82.8774 54.2135 83.0368 53.1306 80.338C52.7544 79.4327 51.9793 77.5311 51.4037 76.1418C50.828 74.7526 50.2125 73.2039 50.013 72.72C49.8363 72.236 49.4373 71.3307 49.1524 70.6873C48.8845 70.0667 48.6451 69.4746 48.6451 69.4063C48.6451 69.2753 47.0322 65.341 46.1032 63.223C45.2197 61.1904 44.4446 59.2716 44.4446 59.1122C44.4446 58.8901 43.2933 56.3052 42.7633 55.3373C42.5866 55.0299 42.4555 54.6313 42.4555 54.5004C42.4555 54.2555 41.5949 52.092 39.7824 47.7648C38.899 45.6468 38.7451 44.6732 39.2752 44.3828C39.7824 44.0981 49.6653 44.0526 50.3322 44.3202ZM137.494 45.0489C137.625 45.2027 137.979 46.0624 138.292 46.9734C138.577 47.8787 139.044 49.1825 139.307 49.843C139.569 50.5034 139.859 51.3461 139.968 51.6763C140.076 52.0066 140.475 52.6727 140.851 53.1567C141.934 54.5288 141.735 54.8135 139.745 54.8135C138.839 54.8135 137.072 54.6598 135.83 54.5061C133.926 54.2385 133.419 54.2385 132.667 54.4833C131.96 54.7281 131.715 54.7281 131.493 54.5061C131.293 54.284 131.447 53.8 132.313 52.166C133.419 50.0252 134.24 49.0288 134.633 49.2964C135.009 49.5184 134.918 50.0935 134.434 50.9077C133.926 51.7276 133.858 52.3425 134.257 52.6499C134.411 52.7581 135.254 52.9802 136.138 53.1339C137.352 53.3559 137.842 53.3559 138.195 53.1567C138.816 52.8264 138.725 52.2514 137.642 49.2907C136.645 46.5748 136.406 45.6468 136.559 45.14C136.696 44.6959 137.164 44.6504 137.494 45.0489ZM91.6134 45.1343C91.8984 45.419 91.7673 46.1307 91.129 47.4972C90.5305 48.7327 89.3393 51.961 88.9176 53.3502C88.8264 53.6349 88.5642 54.0335 88.2963 54.1872C87.8746 54.4719 87.8119 54.4548 87.6751 54.0563C87.544 53.5951 88.7124 49.5697 89.402 48.1804C89.5787 47.8047 90.0005 46.9449 90.3311 46.2389C90.8611 45.066 91.2373 44.7586 91.6134 45.1343ZM94.8165 45.5784C94.9248 45.8005 95.1927 46.7286 95.3922 47.6339C95.7911 49.359 96.7202 51.9211 97.159 52.4962C97.3129 52.6727 97.5352 53.094 97.6891 53.4243C97.8885 53.8854 97.8658 54.0676 97.5979 54.284C97.1362 54.6826 96.5378 54.0392 95.6544 52.1831C94.7253 50.1732 94.1953 48.3171 94.1269 46.6602C94.087 45.3108 94.4233 44.8041 94.8165 45.5784ZM88.8948 45.6012C88.8948 45.8233 88.8264 46.0852 88.7409 46.1535C88.5186 46.3983 88.0342 45.8688 88.1653 45.5101C88.3419 45.066 88.8948 45.1343 88.8948 45.6012ZM86.7917 45.4019C86.9684 45.7322 86.7233 46.0852 86.33 46.0852C86.1305 46.0852 86.0223 45.9315 86.0621 45.7094C86.1533 45.2653 86.5922 45.0888 86.7917 45.4019ZM121.861 49.1313C127.058 49.1768 128.25 49.2394 128.472 49.507C128.603 49.6836 128.671 49.9284 128.58 50.0593C128.489 50.2131 124.089 50.2814 114.958 50.2814C102.933 50.2814 101.468 50.2358 101.337 49.9284C101.029 49.1313 101.536 49.0686 108.632 49.0686C112.439 49.0686 118.39 49.0914 121.861 49.1313Z" fill="#D9D9D9"/>
</svg>