<svg width="256" height="40" viewBox="0 0 256 40" fill="none" xmlns="http://www.w3.org/2000/svg">
<path d="M12.339 19.6647V38.9845H3.09137V5.98468L0.534668 1.62951V1.01522H11.4142L25.1222 22.4567V1.01522H34.3696V38.9845H25.1222L12.339 19.6647Z" fill="#29A1DC"/>
<path d="M41.7656 1.01516H51.0132V38.9846H41.7656V1.01516Z" fill="#29A1DC"/>
<path d="M83.0524 38.0351C80.7135 39.0406 78.048 39.599 75.2736 39.599C64.4485 39.599 56.2349 31.1112 56.2349 19.9999C56.2349 8.88807 64.4485 0.400974 75.2736 0.400974C78.048 0.400974 80.7135 0.959229 83.0524 1.96419V12.8528C81.2576 11.1216 78.5376 9.89355 75.2736 9.89355C69.834 9.89355 65.7544 14.472 65.7544 19.9999C65.7544 25.5838 69.834 30.1062 75.2736 30.1062C78.5376 30.1062 81.3662 28.8782 83.0524 27.2584V38.0351Z" fill="#29A1DC"/>
<path d="M92.0548 6.18104C84.4001 14.0383 84.3615 26.0013 92.0162 33.8588C99.6707 41.7158 111.325 41.6761 118.98 33.8188L117.821 27.6252L112.248 26.9092C108.44 30.8182 102.402 31.0944 98.5554 27.1463C94.7474 23.2375 94.978 16.9994 98.786 13.0904C102.633 9.14214 108.671 8.94491 112.479 12.8539C115.297 15.7459 115.927 19.824 114.551 23.3507L120.341 24.3966L121.493 30.6962C126.524 23.0352 125.716 13.0163 119.019 6.14139C115.201 2.2224 110.389 0.267986 105.573 0.26833C100.734 0.268677 95.8912 2.24308 92.0548 6.18104Z" fill="url(#paint0_linear_41_177)"/>
<path d="M143.811 38.9845L138.48 12.6848L134.019 38.9845H127.818L134.346 1.01504H141.526L147.618 30.8877L163.938 1.01504H171.716L165.189 38.9845H158.987L163.503 12.6848L149.196 38.9845H143.811Z" fill="#29A1DC"/>
<path d="M174.216 38.9846L180.744 1.01516H200.654L199.62 7.10166H185.857L184.225 16.8168H196.9L195.812 22.9031H183.137L181.451 32.8983H195.159L194.126 38.9846H174.216Z" fill="#29A1DC"/>
<path d="M213.109 7.15752H204.024L205.058 1.01516H229.428L228.394 7.15752H219.31L213.87 38.9846H207.669L213.109 7.15752Z" fill="#29A1DC"/>
<path d="M237.043 23.5175H246.562L244.223 9.33508L237.043 23.5175ZM247.541 29.6038H233.942L229.209 38.9845H222.029L241.938 1.01521H248.847L255.701 38.9845H249.064L247.541 29.6038Z" fill="#29A1DC"/>
<defs>
<linearGradient id="paint0_linear_41_177" x1="105.517" y1="5.9129" x2="105.517" y2="45.7573" gradientUnits="userSpaceOnUse">
<stop stop-color="#7DBA56"/>
<stop offset="0.935057" stop-color="#29A1DC"/>
<stop offset="1" stop-color="#29A1DC"/>
</linearGradient>
</defs>
</svg>
