<svg width="193" height="30" viewBox="0 0 193 30" fill="none" xmlns="http://www.w3.org/2000/svg">
<g clip-path="url(#clip0_740_427)">
<path d="M10.0036 14.7484V29.2383H3.06792V4.48842L1.15039 1.22204V0.761322H9.31003L19.591 16.8424V0.761322H26.5266V29.2383H19.591L10.0036 14.7484Z" fill="white"/>
<path d="M32.0742 0.761187H39.0099V29.2383H32.0742V0.761187Z" fill="white"/>
<path d="M63.0389 28.5263C61.2848 29.2804 59.2856 29.6992 57.2048 29.6992C49.086 29.6992 42.9258 23.3334 42.9258 14.9999C42.9258 6.66603 49.086 0.300703 57.2048 0.300703C59.2856 0.300703 61.2848 0.719395 63.0389 1.47312V9.63953C61.6928 8.34118 59.6528 7.42014 57.2048 7.42014C53.1251 7.42014 50.0654 10.854 50.0654 14.9999C50.0654 19.1878 53.1251 22.5797 57.2048 22.5797C59.6528 22.5797 61.7743 21.6586 63.0389 20.4438V28.5263Z" fill="white"/>
<path d="M67.3203 4.43467C61.5793 10.3276 61.5503 19.2999 67.2913 25.193C73.0322 31.0857 81.773 31.056 87.514 25.163L86.6448 20.5178L82.4655 19.9808C79.6095 22.9126 75.0805 23.1197 72.1957 20.1586C69.3397 17.227 69.5127 12.5485 72.3687 9.61672C75.2537 6.65549 79.7827 6.50757 82.6387 9.43932C84.7519 11.6083 85.2243 14.6669 84.1921 17.312L88.535 18.0963L89.3989 22.821C93.1719 17.0753 92.5664 9.56112 87.5431 4.40493C84.6797 1.46568 81.0708 -0.00012207 77.459 0.000135422C73.8297 0.000394821 70.1976 1.4812 67.3203 4.43467Z" fill="white"/>
<path d="M108.608 29.2383L104.61 9.51349L101.264 29.2383H96.6133L101.509 0.761189H106.894L111.464 23.1657L123.703 0.761189H129.537L124.641 29.2383H119.99L123.377 9.51349L112.647 29.2383H108.608Z" fill="white"/>
<path d="M131.412 29.2383L136.308 0.761189H151.24L150.465 5.32607H140.143L138.919 12.6124H148.425L147.609 17.1772H138.103L136.838 24.6735H147.119L146.344 29.2383H131.412Z" fill="white"/>
<path d="M160.582 5.36796H153.769L154.544 0.761189H172.821L172.046 5.36796H165.233L161.153 29.2383H156.502L160.582 5.36796Z" fill="white"/>
<path d="M178.532 17.638H185.671L183.917 7.00122L178.532 17.638ZM186.406 22.2028H176.206L172.657 29.2383H167.271L182.203 0.761316H187.385L192.526 29.2383H187.548L186.406 22.2028Z" fill="white"/>
</g>
<defs>
<clipPath id="clip0_740_427">
<rect width="192.75" height="30" fill="white"/>
</clipPath>
</defs>
</svg>
