<svg id="Camada_1" data-name="Camada 1" xmlns="http://www.w3.org/2000/svg" viewBox="0 0 181.17 232.63"><defs><style>.cls-1{fill:#fff;}</style></defs><path class="cls-1" d="M191.45,29.7a44.33,44.33,0,0,1-6.89,27c-7.82,12.39-19,20.06-33.19,23.34a32.62,32.62,0,0,1-8.56.62c-1.15,0-1.69-.23-1.88-1.58-.8-6,.59-11.6,3-16.92,8-17.73,22.14-27.56,40.77-31.56C185.56,30.4,190.85,29.7,191.45,29.7Z" transform="translate(-53.41 -29.7)"/><path class="cls-1" d="M108.08,88.73c8.82,0,15.86,2.71,22.89,5.49,2,.81,4.13,1.5,6.11,2.42,6.22,2.88,12.23,2.13,18.35-.49a143.44,143.44,0,0,1,18.09-6.55c9.35-2.58,18.52-1.75,27.64.85a49.07,49.07,0,0,1,22.13,13.2c1.78,1.84,3.28,3.95,4.9,5.93.73.89.79,1.41-.35,2.25-7.27,5.35-13.4,11.72-17.46,19.93a50.87,50.87,0,0,0,22.78,68.49c1.49.75,1.66,1.4,1.17,2.91a136,136,0,0,1-19.61,37.64,93.91,93.91,0,0,1-10.36,12.57c-9.94,9.66-20.74,10.83-33.18,5.7-4.82-2-9.49-4.34-14.67-5.29a43.86,43.86,0,0,0-25.84,3.08c-4.29,1.86-8.54,3.82-13.17,4.83-8.2,1.78-15.32-.18-21.69-5.59-10.44-8.87-17.64-20.2-24.32-31.91a141.37,141.37,0,0,1-14.71-38.86,147.28,147.28,0,0,1-3.1-21.44,90.39,90.39,0,0,1,3.21-32c4-13.8,11.37-25.25,23.26-33.62A50.16,50.16,0,0,1,108.08,88.73Z" transform="translate(-53.41 -29.7)"/></svg>