<svg width="85" height="93" viewBox="0 0 85 93" fill="none" xmlns="http://www.w3.org/2000/svg">
<g clip-path="url(#clip0_9_183)">
<path d="M24.0721 43.1288H6.40533V62.923H24.0721V43.1288Z" fill="#CCCCCC"/>
<path d="M15.4716 87.0996L15.1681 91.2572C15.1543 91.4454 15.1809 91.6343 15.246 91.8114C15.3111 91.9884 15.4133 92.1495 15.5456 92.2837C15.6779 92.418 15.8374 92.5224 16.0133 92.5898C16.1891 92.6573 16.3774 92.6862 16.5653 92.6748L18.6966 92.5455C18.7953 92.5395 18.8915 92.5117 18.9784 92.4643C19.0652 92.4168 19.1406 92.3507 19.1991 92.2708C19.2576 92.1908 19.2978 92.099 19.3168 92.0017C19.3359 91.9044 19.3333 91.8041 19.3093 91.708L18.1263 86.9666L15.4716 87.0996Z" fill="#E6E6E6"/>
<path d="M33.2983 89.5581C35.8065 90.146 37.5984 90.9817 38.7754 92.1127C39.1946 92.5124 39.7431 92.748 40.3211 92.7766C41.0593 92.8155 41.6629 92.7326 42.1165 92.5296H42.1166C42.2328 92.4782 42.3332 92.3967 42.4073 92.2934C42.4814 92.1901 42.5266 92.0688 42.5382 91.942C42.5519 91.8133 42.531 91.6833 42.4777 91.5653C42.4244 91.4474 42.3405 91.346 42.2349 91.2715L36.2861 87.0303L33.7592 88.0432L33.1697 88.6338C33.1059 88.6977 33.0578 88.7757 33.0291 88.8614C33.0004 88.9472 32.992 89.0384 33.0044 89.128C33.0169 89.2176 33.0499 89.303 33.1009 89.3776C33.1519 89.4523 33.2194 89.514 33.2983 89.5581H33.2983Z" fill="#E6E6E6"/>
<path d="M25.5791 21.6761L8.57513 21.5184C8.61789 19.0368 9.19412 16.5999 10.4537 14.4192C11.281 12.9871 11.2631 11.4284 11.0637 10.1153C10.7561 8.08889 11.4715 6.01557 13.0612 4.72562C14.2761 3.73811 15.8094 3.22977 17.3723 3.29636L17.7025 3.31014C18.778 3.35493 19.825 3.66972 20.7474 4.22563C21.6699 4.78153 22.4382 5.56073 22.9817 6.49167C23.5342 7.48549 23.757 8.6296 23.6179 9.75863C23.5102 10.821 23.7681 11.8941 24.3713 12.9775C25.412 15.3564 25.6374 18.4006 25.5791 21.6761Z" fill="#2F2E41"/>
<path d="M36.9556 87.2515L33.6184 88.1238L17.3676 52.6495L18.3833 87.2515H15.0461C11.48 70.9722 5.04178 52.1841 7.93635 46.2525L25.2028 45.2348L36.9556 87.2515Z" fill="#7DBA58"/>
<path d="M17.2225 15.7213C19.7067 15.7213 21.7205 13.7034 21.7205 11.2143C21.7205 8.72515 19.7067 6.70731 17.2225 6.70731C14.7384 6.70731 12.7245 8.72515 12.7245 11.2143C12.7245 13.7034 14.7384 15.7213 17.2225 15.7213Z" fill="#FFB9B9"/>
<path d="M21.1401 19.5013L13.7402 19.0652C14.4654 17.3974 14.7551 15.7913 14.4657 14.2674H19.9793C19.9668 15.4375 20.5479 17.4614 21.1401 19.5013Z" fill="#FFB9B9"/>
<path d="M25.7832 46.5432L9.53247 47.7064L11.201 18.8471L14.0304 18.0475L17.2225 18.7744L20.4146 17.1751L22.4459 17.9022L25.7832 46.5432Z" fill="#7DBA58"/>
<path d="M12.2893 67.3335L1.18945 64.7893C4.49002 53.8223 10.4362 28.7331 8.51683 19.7921L14.3207 17.1751L12.2893 67.3335Z" fill="#E6E6E6"/>
<path d="M6.92068 35.6393L2.71289 33.0223L6.30139 22.4912C6.70163 21.4046 7.46823 20.4922 8.46866 19.9118L9.67751 19.2106L8.95203 29.8238L6.92068 35.6393Z" fill="#E6E6E6"/>
<path d="M35.4321 64.9346C31.9288 66.9656 23.1716 68.0977 19.3264 66.6793C19.0435 56.7705 18.4886 28.7422 20.2696 16.8844L26.6538 19.5013L26.0734 27.3522C23.0212 34.0682 31.8841 57.4601 35.4321 64.9346Z" fill="#E6E6E6"/>
<path d="M34.9242 34.3308L31.0066 33.0223L25.7831 27.0614L26.6538 19.5013L35.3595 31.7138L34.9242 34.3308Z" fill="#E6E6E6"/>
<path d="M22.6466 39.9897C22.7107 40.2715 22.8837 40.5164 23.1278 40.6707C23.3718 40.8249 23.6669 40.8758 23.9484 40.8124L27.2739 40.0578L26.7933 37.9308L23.4677 38.6853C23.1862 38.7492 22.9415 38.9225 22.7876 39.1672C22.6336 39.4118 22.5829 39.7076 22.6466 39.9897Z" fill="#FFB9B9"/>
<path d="M21.1401 10.0512C18.6418 9.02179 16.1743 8.94731 13.7402 9.90579L12.7245 6.27112H22.0107L21.1401 10.0512Z" fill="#2F2E41"/>
<path d="M25.6381 37.5293L27.5243 41.0185C30.697 40.1319 33.4466 37.3367 36.085 34.04L35.3595 31.7138L30.8615 32.8769L25.6381 37.5293Z" fill="#E6E6E6"/>
<path d="M24.2597 30.3326H23.6793C23.6793 22.1075 21.9891 16.3755 20.3421 16.3755L20.197 15.794C21.6741 15.794 22.6158 18.1796 23.1456 20.1809C23.864 22.8941 24.2597 26.4993 24.2597 30.3326Z" fill="#3F3D56"/>
<path d="M10.9108 28.2972H10.3304C10.3304 20.7643 12.0323 16.0847 14.5382 16.0847L14.3931 16.6663C12.6598 16.6663 10.9108 20.2627 10.9108 28.2972Z" fill="#3F3D56"/>
<path d="M23.9695 31.9319C24.7709 31.9319 25.4205 31.281 25.4205 30.478C25.4205 29.6751 24.7709 29.0241 23.9695 29.0241C23.1682 29.0241 22.5186 29.6751 22.5186 30.478C22.5186 31.281 23.1682 31.9319 23.9695 31.9319Z" fill="#3F3D56"/>
<path d="M8.5893 31.7865H8.00891C8.00891 29.7022 9.18052 28.0064 10.6206 28.0064V28.588C9.50054 28.588 8.5893 30.0228 8.5893 31.7865Z" fill="#3F3D56"/>
<path d="M13.2323 31.7865H12.652C12.652 30.0228 11.7407 28.588 10.6206 28.588V28.0064C12.0607 28.0064 13.2323 29.7022 13.2323 31.7865Z" fill="#3F3D56"/>
<path d="M12.9422 32.5134C13.2627 32.5134 13.5226 32.2531 13.5226 31.9319C13.5226 31.6107 13.2627 31.3503 12.9422 31.3503C12.6217 31.3503 12.3618 31.6107 12.3618 31.9319C12.3618 32.2531 12.6217 32.5134 12.9422 32.5134Z" fill="#3F3D56"/>
<path d="M8.29907 32.5134C8.61961 32.5134 8.87946 32.2531 8.87946 31.9319C8.87946 31.6107 8.61961 31.3503 8.29907 31.3503C7.97854 31.3503 7.71869 31.6107 7.71869 31.9319C7.71869 32.2531 7.97854 32.5134 8.29907 32.5134Z" fill="#3F3D56"/>
<path d="M1.04425 26.5842L4.66545 27.2321L12.9422 39.0243L8.54508 37.9876L1.04425 26.5842Z" fill="#7DBA58"/>
<path d="M0.401992 26.4398C0.346812 26.4407 0.292867 26.4564 0.245801 26.4852C0.198736 26.5141 0.160282 26.5551 0.134453 26.604C0.108624 26.6529 0.0963687 26.7078 0.098977 26.763C0.101585 26.8182 0.118961 26.8718 0.149279 26.918L7.88593 38.6799C7.9291 38.7456 7.99579 38.7923 8.07226 38.8103L11.6719 39.6589C11.7326 39.6732 11.7962 39.6687 11.8543 39.646C11.9123 39.6232 11.9621 39.5833 11.997 39.5316C12.032 39.4798 12.0504 39.4186 12.0498 39.3562C12.0492 39.2937 12.0297 39.2329 11.9938 39.1818L3.49946 27.0797C3.47642 27.0467 3.44712 27.0186 3.41324 26.997C3.37936 26.9754 3.34156 26.9606 3.302 26.9537L0.460019 26.4451C0.440868 26.4417 0.421449 26.4399 0.401992 26.4398Z" fill="#3F3D56"/>
<path d="M5.22815 34.8495L5.44317 37.0196L8.83621 36.6821C9.12342 36.6536 9.38754 36.5119 9.57047 36.2882C9.7534 36.0645 9.84015 35.7772 9.81165 35.4894C9.78314 35.2016 9.64172 34.9369 9.41848 34.7536C9.19524 34.5704 8.90847 34.4834 8.62126 34.512L5.22815 34.8495Z" fill="#FFB9B9"/>
<path d="M2.27765 34.5981C2.28258 35.3381 2.57918 36.0461 3.10282 36.5679C3.62647 37.0897 4.33472 37.383 5.07323 37.3839H5.63116L6.03733 33.9922L2.67426 32.7791L2.27765 34.5981Z" fill="#E6E6E6"/>
<path opacity="0.1" d="M66.6973 72.2101V69.8656H71.3762V71.8765L66.6973 72.2101Z" fill="#7DBA58"/>
<path d="M82.2936 46.7687L82.004 47.9832C82.004 47.9832 79.6846 46.8149 79.2676 45.3364C78.8507 43.8578 79.9661 43.2941 79.9661 43.2941L82.1287 44.1945L82.2936 46.7687Z" fill="white"/>
<path opacity="0.1" d="M82.2936 46.7687L82.004 47.9832C82.004 47.9832 79.6846 46.8149 79.2676 45.3364C78.8507 43.8578 79.9661 43.2941 79.9661 43.2941L82.1287 44.1945L82.2936 46.7687Z" fill="#505050"/>
<path d="M68.2569 91.5633C68.2569 91.5633 66.026 92.4176 64.4922 92.5252C63.678 92.5818 63.2499 92.0617 63.0296 91.5604C62.9099 91.2839 62.8318 90.9899 62.7982 90.6886L63.0003 88.3856L63.1063 87.1607L66.3648 86.2773L66.8263 87.7492L66.8695 87.8596C67.0536 88.3522 67.7982 90.3486 67.7758 90.7656C67.774 90.8735 67.7933 90.9806 67.8323 91.0805C67.8714 91.1804 67.9295 91.271 68.0031 91.3468C68.0786 91.4299 68.1638 91.5026 68.2569 91.5633Z" fill="white"/>
<path d="M83.8512 90.4085C83.857 90.4765 83.8503 90.545 83.8314 90.6107C83.8314 90.6107 78.9997 91.4111 78.0114 90.6107C77.7335 90.3768 77.4097 90.2033 77.0606 90.101C76.7115 89.9987 76.3447 89.97 75.9838 90.0167C75.9838 90.0167 74.1144 90.0672 73.8024 89.455C73.6725 89.198 73.7064 88.6995 73.7869 88.2095C73.8691 87.7485 73.9784 87.2928 74.1144 86.8446L74.1893 86.7856L74.634 86.4304L79.8413 86.2773H79.8808C79.8554 87.3361 81.6471 88.5507 81.6471 88.5507C83.5546 89.2528 83.8356 90.0462 83.8512 90.4085Z" fill="white"/>
<path opacity="0.1" d="M82.756 90.5961C82.7605 90.6589 82.754 90.722 82.7366 90.7826C82.7366 90.7826 78.3257 91.5208 77.4247 90.7826C77.1709 90.5667 76.875 90.4065 76.5561 90.3122C76.2371 90.2178 75.9021 90.1914 75.5724 90.2347C75.5724 90.2347 73.8645 90.2813 73.5796 89.7166C73.4623 89.4796 73.4919 89.0198 73.5654 88.5665C74.2228 88.6326 75.2605 88.7971 75.6678 89.1908C76.2839 89.7866 77.328 90.3824 77.9674 90.4303C78.4726 90.4614 81.4773 90.5572 82.756 90.5961Z" fill="#505050"/>
<path opacity="0.1" d="M68.6736 91.6399C68.6736 91.6399 66.6112 92.4015 65.1933 92.4973C64.4406 92.5479 64.0448 92.0842 63.8412 91.6373C64.3671 91.8148 65.0954 92 65.4782 91.8303C65.9319 91.627 67.5406 91.4975 68.4429 91.4418C68.5109 91.5176 68.5885 91.5842 68.6736 91.6399Z" fill="#505050"/>
<path d="M71.7559 23.5908C70.0197 22.87 67.7864 20.4886 68.3441 19.3759C68.4673 19.0949 68.5409 18.792 68.5611 18.4824C68.597 18.062 68.6023 17.6392 68.5769 17.2179C68.5377 16.5275 68.46 15.8402 68.3441 15.1597C68.3441 15.1597 73.7643 15.2903 73.4486 16.1431C73.3565 16.3946 73.3408 16.8287 73.3671 17.3135C73.3934 17.7982 73.4578 18.3503 73.5262 18.8153C73.6196 19.4518 73.7156 19.9393 73.7156 19.9393C73.7156 19.9393 73.3829 20.4352 73.1895 20.4619C72.9962 20.4886 74.247 24.6234 71.7559 23.5908Z" fill="#CF6F80"/>
<path opacity="0.1" d="M66.6972 87.9897L66.6537 88.0432C64.9226 85.7002 62.8291 88.6219 62.8291 88.6219L62.7982 88.559L62.9049 87.2334L66.1886 86.2773L66.6537 87.8702L66.6972 87.9897Z" fill="#505050"/>
<path opacity="0.1" d="M79.9541 86.3948C79.9541 86.3948 78.7509 86.3754 78.1092 86.8322C77.4675 87.289 74.3659 86.9302 74.4996 86.8322C74.5386 86.7824 74.5624 86.7259 74.5691 86.6673L74.9903 86.3948L79.9207 86.2773C79.9394 86.3527 79.9541 86.3948 79.9541 86.3948Z" fill="#505050"/>
<path d="M69.0232 69.61C68.9352 69.8509 68.8683 70.1006 68.8233 70.3556C68.7136 71.054 68.6831 71.7649 68.7326 72.4717C68.7812 73.4891 68.7326 80.307 68.7326 80.307C68.7326 80.307 67.6924 82.1252 67.1112 82.7661C66.5299 83.4071 68.2947 84.5582 68.2947 84.5582C68.5577 86.2165 66.9639 88.0885 66.9639 88.0885C65.3438 85.9229 63.3845 88.6219 63.3845 88.6219C63.3845 88.6219 62.3193 86.5871 62.0537 85.8604C61.788 85.1337 63.0938 84.6323 63.5528 84.3358C64.0117 84.0393 63.5291 82.301 63.5291 82.301C63.5291 82.301 63.1425 80.7764 62.6822 79.3855C62.222 77.9946 63.1898 71.0721 63.1898 71.0721C63.1898 71.0721 63.2398 69.8411 63.3595 69.4123C63.4192 69.1028 63.4312 68.7844 63.395 68.4705C63.3871 68.3644 63.3779 68.2772 63.3713 68.2161C63.3647 68.1551 63.3595 68.1289 63.3595 68.1289L63.3779 68.0941L64.0354 66.7395C64.0354 66.7395 69.3388 68.7568 69.0232 69.61Z" fill="#7DBA58"/>
<path d="M79.9541 86.1938C79.9541 86.1938 78.731 86.1668 78.0786 86.7625C77.4262 87.3583 74.2731 86.8933 74.409 86.7625C74.545 86.6317 74.5327 85.6649 74.5327 85.6649C72.683 83.0216 74.2609 81.9495 74.2609 81.9495C74.2609 81.9495 73.4359 77.7906 73.2864 76.2479C73.1818 75.1716 73.0527 72.2667 72.9834 70.6216C72.9535 69.9107 72.9358 69.4201 72.9358 69.4201L74.4335 69.1087L74.6279 69.0689L78.2729 68.3026C78.2729 68.3026 78.3735 69.0135 78.4415 69.595C78.4758 69.8432 78.4945 70.0936 78.4972 70.3443C78.4741 70.6287 78.4972 71.5202 78.4972 71.5202L78.6222 74.1876C78.5416 74.4676 78.4995 74.7582 78.4972 75.0507C78.523 75.3919 78.9973 80.2561 78.9973 80.2561C78.9973 80.2561 79.8223 83.1595 79.541 83.3686C79.2596 83.5776 79.9541 86.1938 79.9541 86.1938Z" fill="#7DBA58"/>
<path opacity="0.1" d="M73.7015 16.2409C73.6033 16.5173 73.5864 16.9946 73.6145 17.5275C72.8401 18.0409 71.9499 18.3034 71.0461 18.2848C70.1423 18.2662 69.2616 17.9673 68.5052 17.4224C68.4634 16.6634 68.3805 15.9078 68.2569 15.1597C68.2569 15.1597 74.0381 15.3033 73.7015 16.2409Z" fill="#505050"/>
<path d="M76.0521 13.1762C76.0682 14.5152 75.5497 15.8057 74.6108 16.7639C73.6719 17.722 72.3894 18.2693 71.0455 18.2854C69.7015 18.3014 68.4062 17.7849 67.4445 16.8494C66.4828 15.914 65.9335 14.6362 65.9174 13.2972C65.9174 13.2559 65.9174 13.2175 65.9174 13.1762C65.9174 11.8368 66.4514 10.5523 67.402 9.60522C68.3526 8.65813 69.6419 8.12607 70.9862 8.12607C72.3306 8.12607 73.6198 8.65813 74.5704 9.60522C75.521 10.5523 76.055 11.8368 76.055 13.1762H76.0521Z" fill="#CF6F80"/>
<path opacity="0.1" d="M71.7559 23.5845C70.0197 22.8369 67.7864 20.3668 68.3441 19.2126C68.4673 18.9211 68.5409 18.6069 68.5611 18.2857L70.9378 20.4513L72.4082 21.7876L73.5262 18.6355C73.6196 19.2956 73.7156 19.8013 73.7156 19.8013C73.7156 19.8013 73.3829 20.3157 73.1895 20.3434C72.9962 20.3711 74.247 24.6556 71.7559 23.5845Z" fill="#505050"/>
<path d="M78.3945 33.1939L76.3358 69.6799L73.6509 69.8656L66.6973 48.7094L67.8378 23.5924L68.0793 18.2857L71.1707 20.9643L72.696 22.2841L73.8897 19.0788L76.1094 21.1197L78.3945 33.1939Z" fill="#7DBA58"/>
<path opacity="0.1" d="M69.0218 69.8388C68.9252 70.1 68.8517 70.3706 68.8023 70.6471C66.732 70.2993 64.7212 69.6147 62.8372 68.6161L62.7982 68.594L62.8112 68.3403V68.208L63.5333 66.7395C63.5333 66.7395 69.3685 68.9139 69.0218 69.8388Z" fill="#505050"/>
<path opacity="0.1" d="M74.4954 70.4614C73.9951 70.5529 73.4904 70.6149 72.9836 70.6471C72.9536 69.916 72.9358 69.4116 72.9358 69.4116L74.4503 69.084L74.4954 70.4614Z" fill="#505050"/>
<path opacity="0.1" d="M78.3945 69.4743C77.4065 69.7127 75.8794 69.9809 74.5149 69.8133L74.4954 68.9973L78.2222 68.3026C78.2222 68.3026 78.3209 68.9419 78.3945 69.4743Z" fill="#505050"/>
<path opacity="0.1" d="M74.4954 69.6549C68.5787 70.6499 63.1598 67.7971 63.1598 67.7971L63.2118 66.8305C63.2118 66.8305 63.346 55.8728 62.9737 55.0327C62.6013 54.1927 62.3113 49.9384 62.522 49.2888C62.7327 48.6392 61.7528 38.8314 61.7528 38.8314L61.5941 34.8514L55.7798 32.5246L58.3774 27.19C58.7281 26.4422 59.0299 25.6731 59.2808 24.8873C59.7324 23.5014 61.8293 22.1411 61.8293 22.1411C61.8293 22.1411 63.9795 20.7822 64.8295 20.8334C65.6795 20.8845 66.7935 19.6309 66.7935 19.6309C67.6161 17.5655 68.3608 18.4937 68.3608 18.4937C68.3608 18.5932 68.3608 18.4937 68.3203 18.7993C68.0317 21.0665 72.9873 28.2304 73.058 28.3584L73.5357 39.6814L74.0134 54.0107L74.4954 69.6549Z" fill="#505050"/>
<path d="M74.4954 69.6549C68.58 70.6499 63.161 67.7971 63.161 67.7971L63.2144 66.8305C63.2144 66.8305 63.3471 55.8728 62.9749 55.0327C62.6026 54.1927 62.3126 49.9341 62.5247 49.2788C62.7368 48.6236 61.7514 38.8257 61.7514 38.8257L61.5913 34.8457L55.7798 32.5189L58.3768 27.1843C58.7266 26.4367 59.0283 25.668 59.2799 24.883C59.7315 23.5014 61.8351 22.1397 61.8351 22.1397C61.8351 22.1397 63.9848 20.7808 64.8332 20.8319C65.6815 20.8831 66.8011 19.6309 66.8011 19.6309C67.6249 17.5655 68.5324 18.4937 68.5324 18.4937C68.5324 18.5932 68.4458 18.6359 68.492 18.7993C69.1268 20.9983 72.9992 28.2304 73.0699 28.3584L73.5475 39.6814L74.0149 54.0179L74.4954 69.6549Z" fill="#E6E6E6"/>
<path opacity="0.1" d="M72.9358 29.2269C72.2984 28.963 68.9223 25.1375 68.9223 25.1375V24.2668C68.7995 23.98 68.0682 24.155 67.4771 24.3558L67.7314 19.0672L68.0205 19.3053C68.652 21.5229 72.8664 29.0992 72.9358 29.2269Z" fill="#CCCCCC"/>
<path d="M72.9358 28.4454C72.2971 28.1799 68.9219 24.3543 68.9219 24.3543V23.4818C68.7991 23.1948 68.0694 23.3699 67.4771 23.5708L67.727 18.2857L68.016 18.5225C68.6532 20.7381 72.865 28.3163 72.9358 28.4454Z" fill="#E6E6E6"/>
<path opacity="0.1" d="M63.1368 47.6091C63.2196 47.6091 67.4277 47.2017 67.4277 47.2017C67.4277 47.2017 69.9757 51.8168 69.8086 52.938C69.6416 54.0592 69.3391 55.0542 68.3141 54.8782C67.2892 54.7022 62.7982 55.0168 62.7982 55.0168L63.1368 47.6091Z" fill="#CCCCCC"/>
<path d="M63.1367 46.8687C63.221 46.8687 67.4283 46.4202 67.4283 46.4202C67.4283 46.4202 69.9743 51.508 69.8088 52.7284C69.6432 53.9489 69.3378 55.058 68.3146 54.8642C67.2913 54.6705 62.7982 55.0168 62.7982 55.0168L63.1367 46.8687Z" fill="#E6E6E6"/>
<path d="M65.8756 44.8571C65.8756 44.8571 69.7315 47.0725 69.8141 47.7467C69.8967 48.4209 67.8516 47.4513 67.4098 47.3325C67.1189 47.2587 66.8229 47.2093 66.5247 47.1849L63.578 47.2699L65.8756 44.8571Z" fill="#CF6F80"/>
<path opacity="0.1" d="M71.7661 29.2269C71.9814 29.2269 72.156 29.052 72.156 28.8362C72.156 28.6203 71.9814 28.4454 71.7661 28.4454C71.5507 28.4454 71.3762 28.6203 71.3762 28.8362C71.3762 29.052 71.5507 29.2269 71.7661 29.2269Z" fill="#505050"/>
<path d="M71.7661 29.2269C71.9814 29.2269 72.156 29.052 72.156 28.8362C72.156 28.6203 71.9814 28.4454 71.7661 28.4454C71.5507 28.4454 71.3762 28.6203 71.3762 28.8362C71.3762 29.052 71.5507 29.2269 71.7661 29.2269Z" fill="#3F3D56"/>
<path opacity="0.1" d="M72.5459 45.6387C72.7612 45.6387 72.9358 45.4637 72.9358 45.2479C72.9358 45.0321 72.7612 44.8571 72.5459 44.8571C72.3305 44.8571 72.1559 45.0321 72.1559 45.2479C72.1559 45.4637 72.3305 45.6387 72.5459 45.6387Z" fill="#505050"/>
<path d="M72.5459 45.6387C72.7612 45.6387 72.9358 45.4637 72.9358 45.2479C72.9358 45.0321 72.7612 44.8571 72.5459 44.8571C72.3305 44.8571 72.1559 45.0321 72.1559 45.2479C72.1559 45.4637 72.3305 45.6387 72.5459 45.6387Z" fill="#3F3D56"/>
<path opacity="0.1" d="M71.7661 37.8235C71.9814 37.8235 72.156 37.6486 72.156 37.4328C72.156 37.217 71.9814 37.042 71.7661 37.042C71.5507 37.042 71.3762 37.217 71.3762 37.4328C71.3762 37.6486 71.5507 37.8235 71.7661 37.8235Z" fill="#505050"/>
<path d="M71.7661 37.042C71.9814 37.042 72.156 36.8671 72.156 36.6513C72.156 36.4355 71.9814 36.2605 71.7661 36.2605C71.5507 36.2605 71.3762 36.4355 71.3762 36.6513C71.3762 36.8671 71.5507 37.042 71.7661 37.042Z" fill="#3F3D56"/>
<path d="M80.805 47.1722C80.805 47.1722 81.0638 47.5677 80.805 47.7454C80.5462 47.923 80.8303 48.3787 80.8303 48.3787C80.8303 48.3787 80.1847 48.7627 80.4688 49.1108C80.753 49.459 80.5729 51.0223 80.5729 51.0223L79.7965 52.339C79.7965 52.339 79.8429 53.183 79.8457 54.3235C79.8457 56.1031 79.743 58.6048 79.1747 59.7454L79.2507 69.1032C79.2507 69.1032 76.5317 70.1162 74.2557 69.8068L73.9181 54.7906C73.9181 54.7906 74.4105 46.2753 74.5919 44.6418C74.6981 43.7938 74.7414 42.9389 74.7213 42.0842C74.7213 42.0842 74.644 39.528 74.3837 38.3431C74.3837 38.3431 74.1024 33.2021 74.0743 31.7793C74.0616 31.0987 74.0968 29.1127 74.1362 27.2243C74.1798 25.1596 74.229 23.2123 74.229 23.2123L73.7156 19.0729C73.7156 19.0729 74.229 19.0213 74.3837 19.2305C74.453 19.2964 74.5284 19.3554 74.6088 19.4067C75.4964 20.0171 78.6275 21.8941 78.6275 21.8941C78.6275 21.8941 80.3605 22.5962 80.7755 23.6021C81.1904 24.6079 81.4788 25.3215 81.6799 25.608C81.8811 25.8946 81.9908 27.2415 81.9908 27.2415C81.9908 27.2415 82.5872 29.7203 83.0528 30.1401C83.5184 30.5599 83.8532 33.225 83.8532 33.225L79.7388 36.5205C79.7388 36.5205 79.3773 42.0026 79.2999 42.2146C79.2225 42.4267 80.805 47.1722 80.805 47.1722Z" fill="white"/>
<path d="M80.8466 47.1947C80.8466 47.1947 81.0998 47.5897 80.8466 47.7672C80.5934 47.9447 80.8702 48.3999 80.8702 48.3999C80.8702 48.3999 80.2351 48.7835 80.5146 49.1314C80.7941 49.4792 80.617 51.0409 80.617 51.0409L79.856 52.3564C79.856 52.3564 79.9016 53.1995 79.9058 54.3389C79.9058 56.1167 79.8048 58.616 79.2458 59.7554L79.3219 69.104C79.3219 69.104 76.6474 70.116 74.4088 69.8068L74.0781 54.8055C74.0781 54.8055 74.561 46.2986 74.7408 44.6668C74.8454 43.8196 74.8875 42.9654 74.8667 42.1117C74.8667 42.1117 74.7906 39.558 74.536 38.3742C74.536 38.3742 74.2593 33.2383 74.2303 31.8169C74.2178 31.137 74.2524 29.153 74.2912 27.2664C74.334 25.2037 74.3825 23.2584 74.3825 23.2584L73.7156 19.0672C73.7156 19.0672 74.3825 19.0672 74.536 19.2805C74.6036 19.3472 74.6778 19.4062 74.7574 19.4566C75.6291 20.0664 78.709 21.9415 78.709 21.9415C78.709 21.9415 80.4094 22.6429 80.8245 23.6478C81.2396 24.6526 81.5163 25.3655 81.7141 25.6518C81.912 25.9381 82.0199 27.2836 82.0199 27.2836C82.0199 27.2836 82.6066 29.7599 83.0645 30.1794C83.5225 30.5988 83.8532 33.2612 83.8532 33.2612L79.8062 36.5535C79.8062 36.5535 79.4506 42.0301 79.3731 42.2419C79.2956 42.4538 80.8466 47.1947 80.8466 47.1947Z" fill="#E6E6E6"/>
<path opacity="0.1" d="M76.2013 24.4065L76.6285 25.5624L74.3862 27.6639C74.4361 25.5008 74.4926 23.4609 74.4926 23.4609L73.7156 19.0672C73.7156 19.0672 74.4926 19.0672 74.6715 19.2909C74.7502 19.3608 74.8366 19.4227 74.9294 19.4755L76.8348 24.5927L76.2013 24.4065Z" fill="#CCCCCC"/>
<path d="M76.1924 23.923L76.618 24.9722L74.3854 26.8824C74.4336 24.9163 74.4914 23.0621 74.4914 23.0621L73.7156 19.0672C73.7156 19.0672 74.4914 19.0672 74.6681 19.2705C74.7468 19.3337 74.8329 19.3899 74.9251 19.4383L76.8348 24.0936L76.1924 23.923Z" fill="#E6E6E6"/>
<path opacity="0.1" d="M76.0521 13.3011C76.0526 13.846 75.9687 14.3876 75.8032 14.9056C75.7753 14.9104 75.7468 14.9093 75.7193 14.9026C75.6918 14.8958 75.666 14.8835 75.6432 14.8663C75.6033 13.5052 74.9485 12.2259 74.1413 11.1385C73.9142 10.8106 73.6395 10.5199 73.3266 10.2765C73.0098 10.0338 72.6159 9.92008 72.2216 9.95744C71.7772 10.0194 71.3847 10.3279 70.9359 10.3673C70.3434 10.4172 69.8131 9.99827 69.225 9.97861C68.9859 9.98064 68.75 10.0349 68.5331 10.1376C68.3162 10.2404 68.1233 10.3893 67.9675 10.5744C67.6582 10.9468 67.4287 11.381 67.2935 11.8493C67.0606 12.5598 66.9338 13.3021 66.9173 14.0512C66.9099 14.4746 66.8699 15.0054 66.4847 15.1597C66.5139 14.8485 66.4793 14.5345 66.3831 14.2377C66.287 13.9409 66.1314 13.6678 65.9263 13.4357L65.9174 13.4251C65.9174 13.3828 65.9174 13.3434 65.9174 13.3011C65.9174 11.9286 66.4514 10.6123 67.402 9.6418C68.3526 8.67129 69.6419 8.12607 70.9862 8.12607C72.3306 8.12607 73.6198 8.67129 74.5704 9.6418C75.521 10.6123 76.055 11.9286 76.055 13.3011H76.0521Z" fill="#505050"/>
<path d="M72.9792 5.31014C72.2177 4.97184 71.3516 4.90786 70.5436 5.13022C70.1377 5.24371 69.7552 5.42778 69.3434 5.52051C68.4642 5.72119 67.4383 5.50391 66.6836 5.98969C66.2645 6.26649 66.0125 6.70384 65.778 7.13011L65.1918 8.18334C64.8724 8.76047 64.55 9.34729 64.4166 9.98255C64.2833 10.6178 64.3639 11.3292 64.7903 11.8413C65.0995 12.2122 65.5597 12.4461 65.8967 12.7962C66.0992 13.0097 66.2527 13.2605 66.3475 13.5327C66.4424 13.805 66.4765 14.0928 66.4477 14.3782C66.8287 14.2397 66.8668 13.7512 66.8756 13.3637C66.8921 12.6782 67.0176 11.9989 67.2478 11.3486C67.3816 10.92 67.6087 10.5226 67.9146 10.1818C68.0688 10.0122 68.2595 9.87572 68.4741 9.78144C68.6887 9.68715 68.9221 9.63728 69.1588 9.63516C69.745 9.65454 70.271 10.0379 70.8514 9.99085C71.291 9.95625 71.6808 9.67391 72.1234 9.61717C72.5136 9.5823 72.9035 9.68646 73.2166 9.90919C73.5264 10.1312 73.7978 10.3974 74.0211 10.6981C74.8212 11.6946 75.4704 12.8599 75.5085 14.1097C75.6741 14.2231 75.913 14.0737 75.995 13.8965C76.0771 13.7194 76.08 13.5118 76.1841 13.3429C76.3043 13.1478 76.5343 13.0426 76.7146 12.8959C77.1718 12.5236 77.2861 11.8966 77.2685 11.3278C77.2509 10.759 77.1337 10.1818 77.248 9.62271C77.3169 9.28086 77.4722 8.95838 77.5572 8.6193C77.6422 8.28022 77.6525 7.89962 77.4517 7.60759C77.1586 7.17993 76.5417 7.09412 76.0038 7.05399C75.3928 7.00416 74.8461 7.06783 74.4563 6.58205C74.2729 6.32887 74.067 6.09088 73.8409 5.87066C73.7603 5.79731 72.9792 5.34059 72.9792 5.31014Z" fill="#512E4E"/>
<path opacity="0.1" d="M57.7458 35.127L56.2531 32.353L55.7798 36.634C55.7798 36.634 56.0429 38.5361 55.99 38.8277C55.9371 39.1194 57.068 41.734 57.068 41.734C57.068 41.734 60.8041 48.4214 62.3297 48.7647L67.477 45.064L66.1101 43.32C66.1101 43.32 65.6369 43.1347 65.5182 43.32C65.5182 43.32 62.9789 38.9326 62.7172 38.6166C62.4555 38.3005 62.5056 37.6641 62.5056 37.6641C62.5056 37.6641 62.111 37.2417 62.2425 36.8452C62.374 36.4487 61.4876 35.0753 61.4876 35.0753L62.3026 34.3096L57.7458 35.127Z" fill="#CCCCCC"/>
<path d="M55.8673 32.353L55.4729 32.6644L55 36.8643C55 36.8643 55.2629 38.7302 55.21 39.0163C55.1572 39.3024 56.2887 41.8674 56.2887 41.8674C56.2887 41.8674 60.0207 48.4279 61.5451 48.7647L66.6972 45.1343L65.3299 43.4233C65.3299 43.4233 64.857 43.2415 64.7384 43.4233C64.7384 43.4233 62.2024 39.1192 61.9395 38.8092C61.6766 38.4991 61.7295 37.8748 61.7295 37.8748C61.7295 37.8748 61.3351 37.4604 61.4666 37.0714C61.598 36.6825 60.7036 35.3351 60.7036 35.3351L61.518 34.584L55.8673 32.353Z" fill="#E6E6E6"/>
<path opacity="0.1" d="M80.392 49.0911C80.6581 49.4558 80.4905 51.0944 80.4905 51.0944L79.756 52.4644C79.756 52.4644 79.7999 53.3497 79.8025 54.5441L78.5677 54.9793C78.456 55.0186 78.3375 55.0272 78.2222 55.0043C78.1069 54.9815 77.9981 54.9279 77.9048 54.848C77.8116 54.7682 77.7367 54.6643 77.6863 54.5451C77.6358 54.426 77.6114 54.295 77.615 54.163L77.8293 46.4202L80.71 47.6611C80.4652 47.8532 80.734 48.3244 80.734 48.3244C80.734 48.3244 80.1232 48.7265 80.392 49.0911Z" fill="#CCCCCC"/>
<path d="M81.0859 48.8477C81.4189 49.1776 81.2091 50.666 81.2091 50.666L80.2936 51.9118C80.2936 51.9118 80.3485 52.7146 80.3535 53.7996L78.7804 54.2016C78.6438 54.2367 78.4989 54.2445 78.3579 54.2244C78.2168 54.2043 78.0837 54.1568 77.9697 54.0859C77.8556 54.0151 77.7639 53.9229 77.7022 53.8172C77.6406 53.7114 77.6107 53.595 77.6151 53.4779L77.8831 46.4202L81.4855 47.5501C81.1775 47.7246 81.5138 48.1526 81.5138 48.1526C81.5138 48.1526 80.7497 48.5165 81.0859 48.8477Z" fill="#E6E6E6"/>
<path d="M81.5138 45.2308C81.5138 45.2308 81.3153 46.5779 80.8183 46.6568C80.3213 46.7358 80.0985 48.836 79.6029 48.7629C79.1073 48.6897 79.4355 46.8089 79.453 46.4445C79.4706 46.0801 78.9129 44.5709 79.3288 44.228C79.7447 43.8852 81.0681 44.228 81.0681 44.228L81.5138 45.2308Z" fill="#CF6F80"/>
<path opacity="0.1" d="M82.894 35.11L83.9709 33.1345C83.9709 33.1345 84.4013 34.6401 84.4013 35.4444C84.4013 36.2487 85.0011 36.3277 85.0011 36.3277C85.0011 36.3277 85.6585 37.0333 85.3119 37.5483C84.9654 38.0633 84.8271 39.339 84.8271 39.339C84.8271 39.339 84.9405 41.7787 84.4262 42.1159C83.9118 42.4532 83.7968 43.2589 83.7968 43.2589C83.7968 43.2589 82.8536 44.7899 82.8831 45.154C82.9126 45.5181 81.5685 47.9832 81.5685 47.9832C81.5685 47.9832 82.2258 44.9198 78.3953 43.5962C78.3953 43.5962 78.3658 42.5576 78.6517 42.2726C78.9377 41.9875 79.3836 41.8493 79.1039 40.4156C78.8242 38.982 79.0231 37.2534 79.0231 36.9077C79.0231 36.562 79.8809 34.4072 79.8809 34.4072L82.894 35.11Z" fill="#CCCCCC"/>
<path d="M83.2922 33.1345L84.13 33.4114C84.13 33.4114 84.5129 34.8889 84.5129 35.6783C84.5129 36.4676 85.0466 36.5451 85.0466 36.5451C85.0466 36.5451 85.6314 37.2375 85.3231 37.7429C85.0148 38.2484 84.8904 39.5002 84.8904 39.5002C84.8904 39.5002 84.9927 41.8944 84.535 42.2254C84.0774 42.5563 83.982 43.347 83.982 43.347C83.982 43.347 83.1428 44.8495 83.1691 45.2068C83.1954 45.564 81.9981 47.9832 81.9981 47.9832C81.9981 47.9832 82.5829 44.9769 79.175 43.678C79.175 43.678 79.1501 42.6588 79.4045 42.3791C79.6589 42.0994 80.0557 41.9637 79.8068 40.5568C79.5579 39.1498 79.7349 37.4535 79.7349 37.1142C79.7349 36.775 80.4981 34.6605 80.4981 34.6605L83.2922 33.1345Z" fill="#E6E6E6"/>
<path opacity="0.1" d="M64.3578 84.5534C64.3578 84.5534 65.6768 83.4001 66.5426 84.238C67.4083 85.0759 64.3578 84.5534 64.3578 84.5534Z" fill="#505050"/>
<path opacity="0.1" d="M75.2752 81.5977C75.2752 81.5977 76.4433 81.406 77.4243 82.7531C78.4053 84.1001 75.2752 81.5977 75.2752 81.5977Z" fill="#505050"/>
<path d="M76.7422 12.8402C76.5672 12.9931 76.3425 13.1003 76.2258 13.3019C76.1262 13.4748 76.1234 13.6892 76.0437 13.8736C75.9641 14.058 75.7322 14.2109 75.57 14.0937C75.533 12.8073 74.9029 11.5995 74.1276 10.5704C73.9108 10.2602 73.6473 9.98583 73.3466 9.75705C73.0423 9.52654 72.6634 9.41848 72.2839 9.45403C71.8572 9.51263 71.4816 9.80422 71.0506 9.84138C70.4816 9.88855 69.9709 9.49262 69.4061 9.47404C69.1767 9.47579 68.9503 9.52696 68.7422 9.62411C68.5341 9.72126 68.3491 9.86213 68.1998 10.0372C67.9028 10.3891 67.6824 10.7996 67.5526 11.2422C67.329 11.9138 67.2072 12.6153 67.1912 13.3233C67.1827 13.7221 67.1457 14.2195 66.7787 14.3682C66.7872 14.4742 66.7872 14.5808 66.7787 14.6869C67.15 14.544 67.187 14.0394 67.1955 13.6392C67.2115 12.9312 67.3333 12.2297 67.5568 11.558C67.6866 11.1155 67.9071 10.705 68.2041 10.3531C68.3535 10.178 68.5384 10.0371 68.7465 9.93973C68.9545 9.84236 69.1809 9.79079 69.4104 9.7885C69.9794 9.80851 70.4915 10.2044 71.0549 10.1558C71.4816 10.1201 71.86 9.82852 72.2882 9.76992C72.6674 9.73396 73.0464 9.84151 73.3509 10.0715C73.6516 10.3008 73.9151 10.5757 74.1318 10.8862C74.9071 11.9154 75.5373 13.1189 75.5743 14.4096C75.7365 14.5268 75.9683 14.3725 76.048 14.1895C76.1277 14.0065 76.1305 13.7921 76.2301 13.6178C76.3467 13.4162 76.5715 13.3076 76.7465 13.1561C77.1903 12.7716 77.3013 12.1241 77.2842 11.5366C77.2842 11.518 77.2842 11.5009 77.2842 11.4823C77.2557 11.994 77.1206 12.5129 76.7422 12.8402Z" fill="#505050"/>
<path d="M66.2395 12.7402C65.9138 12.3785 65.4671 12.1355 65.1669 11.7525C64.9134 11.4143 64.7689 11.0063 64.753 10.5833C64.7083 11.1122 64.8553 11.6396 65.1669 12.0684C65.4671 12.4514 65.9138 12.693 66.2395 13.0546C66.5542 13.4082 66.7433 13.8565 66.7772 14.3296C66.7986 14.0419 66.762 13.7529 66.6696 13.4798C66.5772 13.2067 66.4309 12.9551 66.2395 12.7402Z" fill="#505050"/>
<path d="M77.5602 8.42348C77.4763 8.77367 77.327 9.10671 77.2587 9.45976C77.2177 9.6985 77.2029 9.94104 77.2146 10.183C77.2193 10.0463 77.234 9.91016 77.2587 9.77565C77.327 9.4226 77.4763 9.08956 77.5602 8.73937C77.6085 8.5461 77.6243 8.34612 77.6072 8.14761C77.598 8.24056 77.5823 8.33275 77.5602 8.42348Z" fill="#505050"/>
</g>
<defs>
<clipPath id="clip0_9_183">
<rect width="85" height="93" fill="white"/>
</clipPath>
</defs>
</svg>
