<svg width="25" height="19" viewBox="0 0 25 19" fill="none" xmlns="http://www.w3.org/2000/svg">
<path d="M24.0612 5.0587V16.1336C23.9379 17.4312 22.72 18.08 21.6912 18.08C15.2472 18.0725 8.80252 18.071 2.35723 18.0753C1.33029 18.0753 0.45998 17.4942 0.117974 16.5924C0.0377701 16.3537 0.00195905 16.1024 0.0123133 15.8509C0.0123133 12.3289 0.0123133 8.80933 0.0123133 5.29227C0.0123133 5.21163 -0.034029 5.1069 0.0530945 5.05407C0.140218 5.00124 0.228268 5.09021 0.303343 5.14026C3.45462 7.24606 6.61053 9.35061 9.77107 11.4539C10.3698 11.8534 10.9964 12.1667 11.7323 12.2306C12.4935 12.3028 13.2572 12.1206 13.9039 11.7125C14.8363 11.1388 15.7335 10.5076 16.6455 9.90332C19.0337 8.31224 21.4218 6.71992 23.81 5.12636C23.8841 5.08002 23.9527 4.99475 24.0612 5.0587Z" fill="#F8F8F8"/>
<path d="M24.0612 2.572C24.0464 2.58868 24.0232 2.60351 24.0195 2.62205C23.8944 3.26342 23.5236 3.71294 22.9888 4.06514C20.9207 5.43749 18.8554 6.81355 16.7929 8.19331C15.6763 8.9385 14.5592 9.68275 13.4414 10.4261C12.4626 11.0749 11.6322 11.0749 10.6609 10.4261L1.07635 4.03085C0.194916 3.44879 -0.153578 2.54975 0.126329 1.58583C0.395115 0.658987 1.23854 0.0287322 2.24417 0C2.29144 0 2.33686 0 2.38505 0H21.7116C22.8554 0 23.7238 0.643231 23.9963 1.67759C24.0167 1.75637 23.9833 1.85184 24.0612 1.91579V2.572Z" fill="#F8F8F8"/>
</svg>
