<svg width="11" height="24" viewBox="0 0 11 24" fill="none" xmlns="http://www.w3.org/2000/svg">
<path d="M7.22468 17.688C7.22468 19.5472 7.22468 21.4063 7.22468 23.2655C7.22468 23.5289 7.15655 23.6062 6.89009 23.6031C5.49017 23.591 4.08975 23.591 2.68882 23.6031C2.39662 23.6031 2.31335 23.5274 2.31487 23.2322C2.32395 19.5487 2.31487 15.8652 2.32698 12.1802C2.32698 11.8668 2.26188 11.7517 1.92577 11.7699C1.3868 11.8017 0.843283 11.7699 0.302795 11.7835C0.0862965 11.7835 0 11.7411 0 11.4974C0.0121118 10.2963 0.0121118 9.09573 0 7.89565C0 7.68066 0.0666153 7.61102 0.283113 7.61556C0.870535 7.62767 1.45947 7.61556 2.04841 7.62465C2.26491 7.62465 2.32546 7.55803 2.32698 7.34456C2.32698 6.39227 2.3073 5.43847 2.35272 4.48618C2.47686 1.91242 4.16948 0.189523 6.73113 0.0350973C8.02557 -0.0421153 9.32002 0.0350977 10.6145 0.0154161C10.8431 0.0154161 10.887 0.107768 10.8855 0.318211C10.8855 1.47034 10.8764 2.62399 10.8855 3.77764C10.8855 4.01988 10.7961 4.08043 10.5751 4.06984C9.84537 4.05772 9.11564 4.05924 8.3859 4.06984C7.56684 4.06984 7.23528 4.40594 7.22165 5.23105C7.21106 5.93657 7.22922 6.64359 7.22165 7.35062C7.22165 7.59437 7.30644 7.63979 7.52445 7.63827C8.50096 7.62767 9.47748 7.6519 10.454 7.62465C10.8249 7.61254 10.8764 7.7382 10.8385 8.0637C10.7053 9.20826 10.5933 10.3559 10.4828 11.5034C10.4616 11.7184 10.3934 11.8062 10.1603 11.7972C9.28974 11.782 8.41921 11.7972 7.54867 11.7835C7.27767 11.7835 7.21711 11.8577 7.21863 12.1181C7.23074 13.9682 7.22468 15.8289 7.22468 17.688Z" fill="#FEFEFE"/>
</svg>
