<svg width="23" height="23" viewBox="0 0 23 23" fill="none" xmlns="http://www.w3.org/2000/svg">
<path d="M22.9193 11.8068C22.9103 13.2991 22.6003 14.7742 22.008 16.1439C21.0581 18.3075 19.4703 20.0327 17.2871 21.3481C17.2733 21.3544 17.2587 21.3588 17.2436 21.3609C17.1607 21.3432 17.1241 21.276 17.0876 21.2118C16.4132 20.0377 15.7299 18.8694 15.0585 17.6943C15.0239 17.6341 14.9597 17.5758 15.0002 17.4968C15.7477 17.0402 16.4116 16.459 16.9632 15.7785C17.3541 15.2876 17.677 14.7462 17.923 14.1689C17.9658 14.1007 17.9872 14.0212 17.9842 13.9408H12.9167C12.192 13.9408 11.9293 13.5942 12.0024 12.7686C12.073 12.0066 12.073 11.2396 12.0024 10.4776C11.9352 9.81298 12.2255 9.44068 12.8318 9.4397C15.8909 9.4397 18.9499 9.4397 22.0089 9.4397C22.5244 9.4397 22.7693 9.6609 22.8729 10.1665C22.9177 10.712 22.9331 11.2596 22.9193 11.8068Z" fill="#F8F8F8"/>
<path d="M1.56824 5.7009C1.86862 5.12416 2.23692 4.58543 2.66527 4.0962C4.5032 1.91709 6.82826 0.581973 9.64044 0.0908508C9.92877 0.0404878 11.405 0 11.4948 0C11.5245 0.0323294 11.5465 0.0710203 11.559 0.113121C11.5715 0.155221 11.5742 0.199619 11.5669 0.242928C11.5669 1.54052 11.5669 2.83811 11.5669 4.1357C11.5828 4.24009 11.5569 4.34655 11.4948 4.43195C9.84978 4.46552 8.37456 4.97311 7.09091 6.01197C6.48106 6.50841 5.95872 7.10357 5.54559 7.7727C5.51103 7.82899 5.46956 7.88133 5.43105 7.93465C5.3481 7.96329 5.28787 7.91292 5.22369 7.87639C4.08519 7.22562 2.95261 6.56695 1.81411 5.91025C1.72228 5.85693 1.60082 5.82829 1.56824 5.7009Z" fill="#F8F8F8"/>
<path d="M11.4948 4.43195V0C11.5689 0 12.9759 0.0296254 13.2603 0.0760384C15.3931 0.40879 17.3882 1.33829 19.015 2.75713C19.0969 2.82079 19.1643 2.90118 19.2127 2.99294C19.2611 3.08469 19.2893 3.18571 19.2956 3.28925C19.3018 3.39279 19.286 3.49647 19.249 3.59339C19.212 3.6903 19.1548 3.77823 19.0812 3.85129C18.3729 4.58008 17.6547 5.29898 16.9266 6.00802C16.6225 6.30427 16.2354 6.28847 15.8731 5.99814C15.0588 5.34049 14.1077 4.8735 13.0895 4.63143C12.5652 4.50305 12.029 4.47935 11.4948 4.43195Z" fill="#F8F8F8"/>
<path d="M1.56824 5.70093L5.43105 7.93468C5.1131 8.55977 4.82675 9.19672 4.67567 9.886C4.29448 11.5387 4.53416 13.2739 5.3491 14.7613C5.38069 14.8196 5.40439 14.8818 5.43204 14.9421C5.41427 15.025 5.34613 15.0596 5.28195 15.0971C4.12963 15.7656 2.96841 16.4223 1.82004 17.0938C1.74977 17.1509 1.66058 17.1795 1.57022 17.1738C1.13377 16.4857 0.795131 15.7403 0.564032 14.9588C-0.415495 11.7988 -0.12223 8.75332 1.46753 5.84313C1.49616 5.79474 1.53467 5.74932 1.56824 5.70093Z" fill="#F8F8F8"/>
<path d="M1.57025 17.1738L5.43701 14.941C5.68383 15.3221 5.95356 15.6878 6.24473 16.0362C7.61922 17.5649 9.33372 18.3634 11.3882 18.4319C11.4248 18.4319 11.4623 18.4368 11.4998 18.4398C11.5616 18.5253 11.5875 18.6317 11.5719 18.736C11.5719 20.0323 11.5719 21.3283 11.5719 22.6239C11.5719 22.7226 11.5828 22.8352 11.5008 22.9201C9.72419 22.9354 7.96983 22.5243 6.38494 21.7213C4.42421 20.7491 2.78493 19.2327 1.66307 17.3535C1.62357 17.2953 1.59889 17.2301 1.57025 17.1738Z" fill="#F8F8F8"/>
<path d="M11.4948 22.9181V18.4398C12.3568 18.3934 13.207 18.2798 14.0118 17.946C14.3455 17.8068 14.6704 17.6498 14.9992 17.4957L17.1044 21.1357C17.1488 21.2127 17.1962 21.2888 17.2426 21.3648C16.8388 21.661 16.3796 21.8526 15.9214 22.0432C14.5232 22.6407 13.0153 22.9388 11.4948 22.9181Z" fill="#F8F8F8"/>
</svg>
