<svg width="78" height="90" viewBox="0 0 78 90" fill="none" xmlns="http://www.w3.org/2000/svg">
<g clip-path="url(#clip0_10_326)">
<path d="M17.1236 83.0326L15.0951 83.0324L14.1301 75.1154L17.1241 75.1156L17.1236 83.0326Z" fill="#FFB6B6"/>
<path d="M25.6763 83.0326L23.6477 83.0324L22.6827 75.1154L25.6767 75.1156L25.6763 83.0326Z" fill="#FFB6B6"/>
<path d="M22.4079 12.9808H15.0526V5.53845L22.4079 7.02691V12.9808Z" fill="#2F2E41"/>
<path d="M20.5558 88.9589C20.5558 89.2508 20.351 89.4875 20.0984 89.4875H16.708C16.708 89.4875 16.3743 88.1305 15.014 87.5465L14.9201 89.4875H13.1711L13.383 86.3664C13.383 86.3664 12.9151 84.6966 13.8868 83.843C14.8585 82.9895 14.0715 83.1083 14.0715 83.1083L14.4537 81.1765L17.0966 81.491L17.1161 84.5234L18.3987 87.5333L20.2799 88.4736C20.4474 88.5573 20.5558 88.748 20.5558 88.9589L20.5558 88.9589L20.5558 88.9589Z" fill="#2F2E41"/>
<path d="M29.3099 88.9589C29.3099 89.2508 29.1051 89.4875 28.8525 89.4875H25.4621C25.4621 89.4875 25.1284 88.1305 23.7681 87.5465L23.6742 89.4875H21.9252L22.1371 86.3664C22.1371 86.3664 21.6692 84.6966 22.6409 83.843C23.6126 82.9895 22.8256 83.1083 22.8256 83.1083L23.2078 81.1765L25.8507 81.491L25.8702 84.5234L27.1528 87.5333L29.034 88.4736C29.2015 88.5573 29.3099 88.748 29.3099 88.9589L29.3099 88.9589L29.3099 88.9589Z" fill="#2F2E41"/>
<path d="M26.244 38.2356L11.2963 38.0769C11.2963 38.0769 10.1233 43.5551 9.75 47.1186C8.46929 59.3448 13.5299 78.3679 13.5299 78.3679H18.4854L19.6292 49.2601L21.691 78.9231H26.7649C26.7649 78.9231 33.0894 57.7243 29.0789 45.1358C28.1941 42.3583 26.244 38.2356 26.244 38.2356Z" fill="#2F2E41"/>
<path d="M9.83356 16.8034L11.6296 30.2087L10.2612 39.0356C10.2612 39.0356 15.4606 41.9518 19.0724 41.8846C22.4882 41.821 27.355 39.0356 27.355 39.0356L25.827 28.824L27.8796 16.5356C20.7265 13.6843 16.685 13.6198 9.83356 16.8034Z" fill="#7DBA58"/>
<path d="M25.5621 49.6076C25.6081 49.0786 25.7684 48.6039 25.9978 48.2431L26.1216 43.1754L28.5031 43.3055L28.1211 48.4322C28.2847 48.828 28.3606 49.3237 28.3146 49.8527C28.2095 51.0613 27.5081 51.9861 26.748 51.9184C25.9879 51.8507 25.457 50.8161 25.5621 49.6076L25.5621 49.6076L25.5621 49.6076Z" fill="#FFB6B6"/>
<path d="M26.3287 16.2865C26.3287 16.2865 28.6547 15.6701 29.6432 17.693C30.6317 19.7159 30.1514 33.9382 30.1514 33.9382L29.22 45.8482L25.1244 45.4008L26.4962 34.2894L23.6639 20.5215L26.3287 16.2865L26.3287 16.2865L26.3287 16.2865Z" fill="#7DBA58"/>
<path d="M18.3359 11.3694C20.9774 11.3694 23.1187 9.20274 23.1187 6.53006C23.1187 3.85737 20.9774 1.69073 18.3359 1.69073C15.6945 1.69073 13.5532 3.85737 13.5532 6.53006C13.5532 9.20274 15.6945 11.3694 18.3359 11.3694Z" fill="#FFB6B6"/>
<path d="M22.5125 23.0284C22.072 23.3172 21.6035 23.4813 21.1812 23.5203L17.1566 26.5393L15.7929 24.5595L20.0223 21.7102C20.23 21.3362 20.5696 20.9707 21.0101 20.6819C22.0164 20.0223 23.1685 20.0128 23.5833 20.6607C23.9982 21.3087 23.5188 22.3687 22.5125 23.0284H22.5125V23.0284L22.5125 23.0284Z" fill="#FFB6B6"/>
<path d="M17.0336 0.855645C16.2472 1.35723 15.6713 0.998123 15.1096 1.25109C14.0121 1.74534 12.1593 5.21678 12.3264 6.67013C12.563 8.72847 13.3107 8.81322 13.2884 10.29C13.2526 12.6613 13.0663 12.6515 13.5463 13.4795C14.0801 14.4004 17.1036 14.1504 17.6649 12.9015C17.7757 12.6551 16.5456 12.752 15.1865 9.51974C14.5045 7.89777 14.9522 6.41978 15.1865 5.77774C15.2414 5.62742 15.2665 4.56027 15.3835 4.6787C16.4098 5.71716 16.9851 4.95805 17.6048 4.87094C18.8767 4.69215 19.8344 5.73037 20.2203 5.35764C20.5075 5.08028 20.1412 4.34695 20.2804 4.29298C20.4289 4.23544 20.9206 5.03993 21.2425 5.90518C21.45 6.46317 21.5538 6.74216 21.5431 7.0611C21.5099 8.04604 21.2617 10.8386 20.8219 11.658C19.8722 13.4275 21.0681 14.0952 21.8137 13.9662C22.416 13.862 25.0789 14.2723 25.2246 13.9745C25.3544 13.7092 25.0579 10.9805 24.7462 8.44366C24.3716 5.39454 22.8704 2.59257 20.5164 0.651552C20.3783 0.537725 20.2754 0.459626 20.2203 0.429786C20.0899 0.359104 18.7456 -0.347183 17.7551 0.216854C17.3905 0.424498 17.4499 0.590155 17.0336 0.85565L17.0336 0.855645Z" fill="#2F2E41"/>
<path d="M13.0862 15.9834C13.0862 15.9834 10.0072 15.6372 9.49406 16.8488C8.98091 18.0603 7.95459 30.1757 7.95459 30.1757L9.66512 33.118L20.8825 24.5278L18.6109 22.2293L13.8034 24.5278L13.0862 15.9834H13.0862V15.9834Z" fill="#7DBA58"/>
<path d="M74.8248 30.5477C74.716 30.598 74.6113 30.6571 74.5117 30.7244L64.5613 26.4273L64.2063 23.7751L60.2303 23.7504L60.4652 29.8337L73.5988 33.3485C73.6265 33.4408 73.6597 33.5313 73.6983 33.6195C73.8882 34.0294 74.1936 34.3735 74.5761 34.6084C74.9586 34.8433 75.4012 34.9587 75.8483 34.9399C76.2954 34.9211 76.727 34.7691 77.089 34.503C77.451 34.2368 77.7272 33.8684 77.8829 33.4439C78.0386 33.0195 78.0669 32.5579 77.9642 32.1172C77.8615 31.6765 77.6324 31.2764 77.3057 30.967C76.979 30.6576 76.5693 30.4528 76.1279 30.3783C75.6865 30.3038 75.2332 30.3629 74.825 30.5482L74.8248 30.5477Z" fill="#A0616A"/>
<path d="M58.7844 85.67H61.5043L62.7982 75.055H58.7841L58.7844 85.67Z" fill="#A0616A"/>
<path d="M63.447 84.8837H58.2016V88.2245H66.7498C66.7498 87.3381 66.4018 86.4881 65.7824 85.8614C65.163 85.2347 64.323 84.8826 63.447 84.8826V84.8837Z" fill="#2F2E41"/>
<path d="M48.2065 84.8923L50.9131 85.1618L53.2292 74.7262L49.2343 74.3291L48.2065 84.8923Z" fill="#A0616A"/>
<path d="M52.9245 84.5729L47.7052 84.0527L47.3816 87.3778L55.8867 88.2254C55.9726 87.3436 55.7087 86.4634 55.1532 85.7785C54.5978 85.0935 53.7961 84.6598 52.9246 84.5729H52.9245Z" fill="#2F2E41"/>
<path d="M58.0116 12.4615C55.5554 12.4615 53.5642 10.4468 53.5642 7.96155C53.5642 5.47627 55.5554 3.46155 58.0116 3.46155C60.4678 3.46155 62.459 5.47627 62.459 7.96155C62.459 10.4468 60.4678 12.4615 58.0116 12.4615Z" fill="#A0616A"/>
<path d="M62.1122 83.5232C62.346 83.5237 62.5724 83.4406 62.7516 83.2887C62.9308 83.1367 63.0512 82.9256 63.0917 82.6926C64.4985 74.7868 69.1011 48.9313 69.2113 48.2145C69.2138 48.1981 69.215 48.1814 69.2149 48.1648V46.2367C69.2151 46.1665 69.1934 46.098 69.153 46.0409L68.5451 45.1801C68.5162 45.1386 68.4783 45.1044 68.4343 45.0801C68.3903 45.0558 68.3414 45.042 68.2913 45.0398C64.825 44.8754 53.4751 44.3935 52.9268 45.0866C52.3761 45.7825 52.5718 47.8942 52.6163 48.3102L52.6141 48.3535L47.5145 81.3513C47.4746 81.6145 47.5387 81.883 47.693 82.0988C47.8474 82.3145 48.0794 82.46 48.339 82.5039L51.5239 83.0348C51.7611 83.0733 52.0041 83.0244 52.2087 82.897C52.4133 82.7696 52.566 82.5721 52.6388 82.3405C53.6239 79.1555 56.9269 68.4413 58.0717 64.2954C58.0779 64.2681 58.094 64.2441 58.1169 64.2282C58.1397 64.2124 58.1676 64.2058 58.1951 64.2098C58.2225 64.2138 58.2474 64.2282 58.2649 64.2499C58.2823 64.2717 58.2911 64.2993 58.2893 64.3273C58.2321 68.2794 58.0939 78.3622 58.0453 81.8448L58.0402 82.22C58.0381 82.4739 58.1302 82.7194 58.2984 82.9079C58.4665 83.0964 58.6984 83.2143 58.9482 83.2382L62.0194 83.5197C62.0502 83.5225 62.0812 83.5236 62.1122 83.5232Z" fill="#2F2E41"/>
<path d="M61.4854 14.684C62.4363 15.256 63.0054 16.307 63.3318 17.3783C63.9363 19.3584 64.3002 21.4056 64.4154 23.4748L64.7606 29.67L69.0325 46.095C65.3298 49.2648 63.1945 48.5442 58.2104 45.9515C53.2264 43.3588 52.6571 46.8159 52.6571 46.8159L51.6605 32.8404L50.2367 17.5688C50.5564 17.1794 50.9182 16.8275 51.3153 16.5196C52.6314 15.4839 54.1626 14.7639 55.7937 14.4139C57.4247 14.064 59.1129 14.0931 60.7312 14.4993L61.4854 14.684Z" fill="#7DBA58"/>
<path d="M62.8729 33.8648C62.7581 33.9083 62.6468 33.9609 62.5401 34.022L52.7011 29.0386L52.5378 26.3391L48.4793 26.056L48.2618 32.2097L61.4101 36.6098C61.5174 37.076 61.7624 37.4981 62.1126 37.8199C62.4627 38.1418 62.9014 38.3481 63.3703 38.4115C63.8392 38.4749 64.3161 38.3923 64.7375 38.1747C65.1589 37.9572 65.5048 37.6149 65.7292 37.1936C65.9537 36.7722 66.046 36.2917 65.994 35.8159C65.9419 35.3402 65.7479 34.8917 65.4378 34.5303C65.1277 34.1688 64.7162 33.9115 64.2579 33.7924C63.7997 33.6734 63.3166 33.6984 62.8727 33.864L62.8729 33.8648Z" fill="#A0616A"/>
<path d="M50.3076 17.6375C47.887 18.5019 47.4604 27.8678 47.4604 27.8678C50.3082 26.283 53.7257 28.8763 53.7257 28.8763C53.7257 28.8763 54.4375 26.4268 55.292 23.2573C55.55 22.3657 55.5808 21.4226 55.3817 20.5157C55.1825 19.6088 54.7598 18.7676 54.153 18.0705C54.153 18.0705 52.7285 16.7726 50.3076 17.6375Z" fill="#7DBA58"/>
<path d="M54.0575 9.15508C54.6096 8.70931 55.3626 9.51924 55.3626 9.51924L55.8042 5.50828C55.8042 5.50828 58.5641 5.84205 60.3309 5.3968C62.0976 4.95156 62.3733 7.01329 62.3733 7.01329C62.4644 6.18066 62.4829 5.34156 62.4286 4.50567C62.3181 3.50267 60.883 2.49967 58.3437 1.83096C55.8045 1.16225 54.4797 4.05991 54.4797 4.05991C52.7123 4.95079 53.5049 9.60136 54.0575 9.15508Z" fill="#2F2E41"/>
</g>
<defs>
<clipPath id="clip0_10_326">
<rect width="78" height="90" fill="white"/>
</clipPath>
</defs>
</svg>
