<svg width="1919" height="630" viewBox="0 0 1919 630" fill="none" xmlns="http://www.w3.org/2000/svg">
<g style="mix-blend-mode:multiply">
<path d="M1920 379.766C1878.74 378.461 1837.38 385.314 1796.46 392.049C1665.62 413.585 1534.19 433.921 1401.81 437.223C1278.46 440.303 1153.65 428.334 1035.41 389.412C923.712 352.63 820.576 291.388 718.192 232.705C642.992 189.632 567.36 146.898 487.616 113.928C333.6 50.3628 165.52 25.2239 0.816 40.208L0 40.2864V629.889H1920V379.766Z" fill="#7DBA58" fill-opacity="0.25"/>
</g>
<path d="M1919.76 430.301C1878.5 429.243 1837.15 434.729 1796.24 440.098C1665.41 457.301 1534 473.525 1401.63 476.163C1278.24 478.632 1153.46 469.07 1035.31 437.982C923.629 408.617 820.506 359.712 718.135 312.87C642.944 278.476 567.321 244.357 487.587 218.062C333.281 167.386 166.488 147.214 0.815899 159.19H0V630H1919.76V430.301Z" fill="#7DBA58" fill-opacity="0.5"/>
<path d="M1919.76 471.636C1878.5 470.802 1837.15 475.143 1796.24 479.458C1665.39 493.109 1534 505.911 1401.63 508.01C1278.31 509.953 1153.5 502.378 1035.28 477.738C923.597 454.453 820.474 415.667 718.103 378.524C642.912 351.25 567.289 324.184 487.555 303.338C333.559 263.065 165.499 247.147 0.815899 256.638H0V630H1919.76V471.636Z" fill="#7DBA58" fill-opacity="0.75"/>
</svg>
