<svg width="399" height="395" viewBox="0 0 399 395" fill="none" xmlns="http://www.w3.org/2000/svg">
<g filter="url(#filter0_d_302_1248)">
<circle cx="201.5" cy="197.5" r="162.5" fill="white"/>
</g>
<g filter="url(#filter1_d_302_1248)">
<circle cx="201.5" cy="197.5" r="140" stroke="#C8C8C8" stroke-opacity="0.25" stroke-width="3" shape-rendering="crispEdges"/>
</g>
<path d="M167.603 343.564C166.684 343.688 165.75 343.64 164.849 343.421C141.526 337.836 119.918 326.644 101.902 310.815C83.8848 294.986 70.0033 275 61.4618 252.59C60.7542 250.73 60.8142 248.666 61.6286 246.851C62.4431 245.036 63.9452 243.619 65.8046 242.911C67.664 242.203 69.7283 242.263 71.5435 243.078C73.3586 243.892 74.7758 245.394 75.4835 247.254C83.1618 267.387 95.6398 285.342 111.834 299.557C128.027 313.772 147.447 323.819 168.406 328.823C170.112 329.228 171.623 330.218 172.675 331.621C173.728 333.025 174.255 334.752 174.165 336.504C174.076 338.256 173.375 339.92 172.185 341.209C170.995 342.498 169.391 343.328 167.652 343.557L167.603 343.564Z" fill="#E06161"/>
<path d="M66.2304 262.281C65.571 261.629 65.0395 260.859 64.6634 260.012C54.8617 238.124 50.5498 214.175 52.102 190.243C53.6543 166.311 61.0237 143.119 73.5706 122.681C74.6123 120.986 76.2847 119.774 78.2198 119.312C80.1549 118.85 82.1942 119.176 83.8892 120.218C85.5841 121.259 86.7958 122.932 87.2577 124.867C87.7196 126.802 87.3939 128.841 86.3522 130.536C75.0824 148.902 68.4673 169.742 67.0815 191.245C65.6957 212.748 69.5812 234.265 78.4004 253.925C79.1207 255.525 79.2578 257.326 78.7878 259.015C78.3178 260.705 77.2704 262.177 75.8277 263.174C74.385 264.172 72.6384 264.632 70.8915 264.476C69.1445 264.319 67.5078 263.555 66.2659 262.316L66.2304 262.281Z" fill="#E06161"/>
<path d="M302.253 305.3C301.853 306.137 301.299 306.891 300.621 307.524C283.146 323.948 261.926 335.859 238.804 342.224C215.682 348.589 191.355 349.214 167.936 344.046C165.994 343.616 164.302 342.432 163.232 340.755C162.162 339.077 161.803 337.044 162.233 335.101C162.662 333.159 163.846 331.466 165.523 330.397C167.201 329.327 169.235 328.968 171.177 329.397C192.22 334.037 214.077 333.468 234.85 327.741C255.622 322.014 274.683 311.302 290.375 296.535C291.65 295.331 293.307 294.612 295.058 294.503C296.809 294.394 298.542 294.902 299.957 295.939C301.371 296.976 302.378 298.476 302.801 300.178C303.225 301.88 303.038 303.677 302.274 305.255L302.253 305.3Z" fill="#E06161"/>
<path d="M185.863 49.012C186.692 48.598 187.592 48.343 188.516 48.2601C212.395 46.0372 236.456 49.6757 258.61 58.8596C280.764 68.0436 300.342 82.4955 315.645 100.961C316.913 102.494 317.521 104.467 317.335 106.448C317.148 108.429 316.183 110.254 314.65 111.523C313.118 112.791 311.144 113.399 309.163 113.213C307.182 113.026 305.357 112.061 304.088 110.528C290.336 93.9395 272.741 80.9598 252.832 72.7163C232.923 64.4728 211.303 61.215 189.849 63.2258C188.103 63.3921 186.354 62.9413 184.906 61.9517C183.458 60.962 182.402 59.4961 181.923 57.8089C181.444 56.1217 181.571 54.3199 182.283 52.7168C182.994 51.1137 184.245 49.8106 185.818 49.0343L185.863 49.012Z" fill="#E06161"/>
<path d="M308.01 93.3217C308.844 93.7266 309.595 94.2841 310.224 94.9653C326.552 112.531 338.346 133.816 344.583 156.973C350.82 180.13 351.311 204.46 346.014 227.85C345.573 229.79 344.38 231.476 342.697 232.536C341.014 233.596 338.978 233.945 337.038 233.504C335.098 233.064 333.412 231.871 332.352 230.187C331.291 228.504 330.943 226.468 331.383 224.528C336.139 203.512 335.691 181.652 330.078 160.848C324.466 140.044 313.859 120.924 299.178 105.151C297.981 103.869 297.272 102.208 297.173 100.457C297.073 98.7057 297.591 96.9751 298.636 95.5662C299.68 94.1572 301.186 93.1589 302.89 92.7448C304.594 92.3308 306.39 92.5271 307.965 93.2998L308.01 93.3217Z" fill="#E06161"/>
<path d="M70.7059 128.597C70.8155 127.676 71.0966 126.784 71.5344 125.967C82.7901 104.79 99.0439 86.6796 118.885 73.2083C138.726 59.7371 161.556 51.3116 185.391 48.6632C187.369 48.4445 189.352 49.0203 190.905 50.2639C192.458 51.5076 193.453 53.3171 193.672 55.2945C193.89 57.272 193.315 59.2553 192.071 60.8082C190.827 62.361 189.018 63.3563 187.04 63.5749C165.625 65.9586 145.115 73.5352 127.293 85.6463C109.47 97.7575 94.8748 114.037 84.7738 133.071C83.954 134.621 82.6167 135.836 80.9944 136.502C79.3721 137.169 77.5674 137.246 75.8942 136.72C74.221 136.194 72.785 135.098 71.8361 133.623C70.8871 132.148 70.4851 130.387 70.7 128.646L70.7059 128.597Z" fill="#E06161"/>
<g filter="url(#filter2_d_302_1248)">
<circle cx="104" cy="303" r="34" fill="white"/>
</g>
<path d="M81.6717 302.475C79.9383 301.608 79.0717 300.242 79.0717 298.375C79.0717 297.475 79.2967 296.65 79.7467 295.9C80.1967 295.15 80.8717 294.558 81.7717 294.125C82.6717 293.675 83.7717 293.45 85.0717 293.45C86.355 293.45 87.4467 293.675 88.3467 294.125C89.2633 294.558 89.9467 295.15 90.3967 295.9C90.8467 296.65 91.0717 297.475 91.0717 298.375C91.0717 299.308 90.83 300.133 90.3467 300.85C89.88 301.55 89.255 302.092 88.4717 302.475C89.4217 302.825 90.1717 303.4 90.7217 304.2C91.2717 304.983 91.5467 305.908 91.5467 306.975C91.5467 308.058 91.2717 309.017 90.7217 309.85C90.1717 310.683 89.405 311.325 88.4217 311.775C87.4383 312.225 86.3217 312.45 85.0717 312.45C83.8217 312.45 82.705 312.225 81.7217 311.775C80.755 311.325 79.9967 310.683 79.4467 309.85C78.8967 309.017 78.6217 308.058 78.6217 306.975C78.6217 305.892 78.8967 304.958 79.4467 304.175C79.9967 303.392 80.7383 302.825 81.6717 302.475ZM88.3467 298.725C88.3467 297.792 88.055 297.075 87.4717 296.575C86.8883 296.075 86.0883 295.825 85.0717 295.825C84.0717 295.825 83.28 296.075 82.6967 296.575C82.1133 297.075 81.8217 297.8 81.8217 298.75C81.8217 299.583 82.1217 300.267 82.7217 300.8C83.3383 301.317 84.1217 301.575 85.0717 301.575C86.0217 301.575 86.805 301.308 87.4217 300.775C88.0383 300.242 88.3467 299.558 88.3467 298.725ZM85.0717 303.725C83.9717 303.725 83.0717 304 82.3717 304.55C81.6883 305.083 81.3467 305.858 81.3467 306.875C81.3467 307.825 81.68 308.6 82.3467 309.2C83.0133 309.783 83.9217 310.075 85.0717 310.075C86.205 310.075 87.0967 309.775 87.7467 309.175C88.4133 308.575 88.7467 307.808 88.7467 306.875C88.7467 305.875 88.405 305.1 87.7217 304.55C87.055 304 86.1717 303.725 85.0717 303.725ZM94.5391 302.65C94.5391 299.767 95.0224 297.517 95.9891 295.9C96.9724 294.267 98.6557 293.45 101.039 293.45C103.422 293.45 105.097 294.267 106.064 295.9C107.047 297.517 107.539 299.767 107.539 302.65C107.539 305.567 107.047 307.85 106.064 309.5C105.097 311.133 103.422 311.95 101.039 311.95C98.6557 311.95 96.9724 311.133 95.9891 309.5C95.0224 307.85 94.5391 305.567 94.5391 302.65ZM104.739 302.65C104.739 301.3 104.647 300.158 104.464 299.225C104.297 298.292 103.947 297.533 103.414 296.95C102.881 296.35 102.089 296.05 101.039 296.05C99.9891 296.05 99.1974 296.35 98.6641 296.95C98.1307 297.533 97.7724 298.292 97.5891 299.225C97.4224 300.158 97.3391 301.3 97.3391 302.65C97.3391 304.05 97.4224 305.225 97.5891 306.175C97.7557 307.125 98.1057 307.892 98.6391 308.475C99.1891 309.058 99.9891 309.35 101.039 309.35C102.089 309.35 102.881 309.058 103.414 308.475C103.964 307.892 104.322 307.125 104.489 306.175C104.656 305.225 104.739 304.05 104.739 302.65ZM110.105 298.175C110.105 296.958 110.455 296.008 111.155 295.325C111.871 294.625 112.788 294.275 113.905 294.275C115.021 294.275 115.93 294.625 116.63 295.325C117.346 296.008 117.705 296.958 117.705 298.175C117.705 299.392 117.346 300.35 116.63 301.05C115.93 301.75 115.021 302.1 113.905 302.1C112.788 302.1 111.871 301.75 111.155 301.05C110.455 300.35 110.105 299.392 110.105 298.175ZM125.355 294.6L115.38 312H112.58L122.555 294.6H125.355ZM113.905 296C112.855 296 112.33 296.725 112.33 298.175C112.33 299.642 112.855 300.375 113.905 300.375C114.405 300.375 114.788 300.2 115.055 299.85C115.338 299.483 115.48 298.925 115.48 298.175C115.48 296.725 114.955 296 113.905 296ZM120.28 308.4C120.28 307.183 120.63 306.233 121.33 305.55C122.046 304.85 122.963 304.5 124.08 304.5C125.18 304.5 126.08 304.85 126.78 305.55C127.496 306.233 127.855 307.183 127.855 308.4C127.855 309.617 127.496 310.575 126.78 311.275C126.08 311.975 125.18 312.325 124.08 312.325C122.963 312.325 122.046 311.975 121.33 311.275C120.63 310.575 120.28 309.617 120.28 308.4ZM124.055 306.225C123.005 306.225 122.48 306.95 122.48 308.4C122.48 309.85 123.005 310.575 124.055 310.575C125.105 310.575 125.63 309.85 125.63 308.4C125.63 306.95 125.105 306.225 124.055 306.225Z" fill="#E06161"/>
<path d="M201 272C242.421 272 276 238.421 276 197C276 155.579 242.421 122 201 122C159.579 122 126 155.579 126 197C126 238.421 159.579 272 201 272Z" fill="#E06161"/>
<path d="M240.355 238.261C240.355 250.102 221.474 237.273 201.522 237.273C181.569 237.273 161.647 249.65 161.647 237.809C161.647 231.061 168.081 221.671 177.311 214.831C184.265 209.691 192.798 206.007 201.376 206.007C210.2 206.007 218.84 209.99 225.733 215.467C234.434 222.383 240.355 231.651 240.355 238.261Z" fill="#444053"/>
<path d="M225.732 215.482C215.124 213.881 195.937 211.936 177.31 214.846C184.264 209.707 192.797 206.023 201.375 206.023C210.199 206.023 218.838 210.013 225.732 215.482Z" fill="#F6F8FB"/>
<path opacity="0.15" d="M161.387 144.763C161.387 144.763 138.8 159.194 138.984 181.804C139.167 204.414 161.387 144.763 161.387 144.763Z" fill="#F9F9F9"/>
<path d="M232.956 162.15C234.227 162.816 240.248 165.827 245.165 165.926C245.968 165.93 246.757 166.133 247.463 166.516C248.642 167.175 249.691 168.461 247.21 170.667C243.158 174.29 232.098 174.497 227.257 171.203C222.593 168.063 218.066 162.709 218.35 153.625C218.377 152.754 218.642 151.906 219.115 151.174C219.981 149.819 221.513 148.394 222.945 151.864C224.883 156.551 231.217 161.001 232.504 161.867C232.648 161.971 232.799 162.065 232.956 162.15Z" fill="#444053"/>
<path d="M169.382 161.867C170.669 161.001 177.042 156.551 178.949 151.864C180.381 148.394 181.913 149.826 182.778 151.174C183.251 151.91 183.515 152.759 183.544 153.633C183.843 162.709 179.286 168.063 174.629 171.211C169.78 174.474 158.72 174.275 154.669 170.66C152.187 168.454 153.236 167.167 154.424 166.501C155.13 166.121 155.919 165.921 156.721 165.919C161.631 165.819 167.659 162.809 168.923 162.15C169.082 162.065 169.235 161.971 169.382 161.867Z" fill="#444053"/>
<path d="M176.245 199.321C180.589 199.321 184.111 194.482 184.111 188.513C184.111 182.545 180.589 177.706 176.245 177.706C171.901 177.706 168.379 182.545 168.379 188.513C168.379 194.482 171.901 199.321 176.245 199.321Z" fill="#444053"/>
<path d="M223.771 199.321C228.116 199.321 231.637 194.482 231.637 188.513C231.637 182.545 228.116 177.706 223.771 177.706C219.427 177.706 215.905 182.545 215.905 188.513C215.905 194.482 219.427 199.321 223.771 199.321Z" fill="#444053"/>
<path d="M252.172 236.377C252.172 241.329 250.205 246.079 246.703 249.581C243.201 253.083 238.451 255.05 233.499 255.05C228.546 255.05 223.796 253.083 220.295 249.581C216.793 246.079 214.825 241.329 214.825 236.377C214.825 220.568 227.999 208.343 233.468 202.002C238.837 208.512 252.172 221.096 252.172 236.377Z" fill="#2CB7CE"/>
<path d="M218.632 227.599C220.034 222.774 223.228 218.906 229.417 210.626C229.417 210.626 224.147 221.418 221.757 229.008C221.122 231.053 217.997 230.295 218.456 228.204C218.51 228.028 218.563 227.813 218.632 227.599Z" fill="#69E7F4"/>
<defs>
<filter id="filter0_d_302_1248" x="4" y="0" width="395" height="395" filterUnits="userSpaceOnUse" color-interpolation-filters="sRGB">
<feFlood flood-opacity="0" result="BackgroundImageFix"/>
<feColorMatrix in="SourceAlpha" type="matrix" values="0 0 0 0 0 0 0 0 0 0 0 0 0 0 0 0 0 0 127 0" result="hardAlpha"/>
<feMorphology radius="10" operator="dilate" in="SourceAlpha" result="effect1_dropShadow_302_1248"/>
<feOffset/>
<feGaussianBlur stdDeviation="12.5"/>
<feComposite in2="hardAlpha" operator="out"/>
<feColorMatrix type="matrix" values="0 0 0 0 0 0 0 0 0 0 0 0 0 0 0 0 0 0 0.1 0"/>
<feBlend mode="normal" in2="BackgroundImageFix" result="effect1_dropShadow_302_1248"/>
<feBlend mode="normal" in="SourceGraphic" in2="effect1_dropShadow_302_1248" result="shape"/>
</filter>
<filter id="filter1_d_302_1248" x="60" y="56.0001" width="283" height="283" filterUnits="userSpaceOnUse" color-interpolation-filters="sRGB">
<feFlood flood-opacity="0" result="BackgroundImageFix"/>
<feColorMatrix in="SourceAlpha" type="matrix" values="0 0 0 0 0 0 0 0 0 0 0 0 0 0 0 0 0 0 127 0" result="hardAlpha"/>
<feOffset/>
<feComposite in2="hardAlpha" operator="out"/>
<feColorMatrix type="matrix" values="0 0 0 0 0 0 0 0 0 0 0 0 0 0 0 0 0 0 0.25 0"/>
<feBlend mode="normal" in2="BackgroundImageFix" result="effect1_dropShadow_302_1248"/>
<feBlend mode="normal" in="SourceGraphic" in2="effect1_dropShadow_302_1248" result="shape"/>
</filter>
<filter id="filter2_d_302_1248" x="50" y="249" width="108" height="108" filterUnits="userSpaceOnUse" color-interpolation-filters="sRGB">
<feFlood flood-opacity="0" result="BackgroundImageFix"/>
<feColorMatrix in="SourceAlpha" type="matrix" values="0 0 0 0 0 0 0 0 0 0 0 0 0 0 0 0 0 0 127 0" result="hardAlpha"/>
<feMorphology radius="5" operator="dilate" in="SourceAlpha" result="effect1_dropShadow_302_1248"/>
<feOffset/>
<feGaussianBlur stdDeviation="7.5"/>
<feComposite in2="hardAlpha" operator="out"/>
<feColorMatrix type="matrix" values="0 0 0 0 0 0 0 0 0 0 0 0 0 0 0 0 0 0 0.1 0"/>
<feBlend mode="normal" in2="BackgroundImageFix" result="effect1_dropShadow_302_1248"/>
<feBlend mode="normal" in="SourceGraphic" in2="effect1_dropShadow_302_1248" result="shape"/>
</filter>
</defs>
</svg>