<svg width="397" height="395" viewBox="0 0 397 395" fill="none" xmlns="http://www.w3.org/2000/svg">
<g filter="url(#filter0_d_302_439)">
<circle cx="199.5" cy="197.5" r="162.5" fill="white"/>
</g>
<g filter="url(#filter1_d_302_439)">
<circle cx="199.5" cy="197.5" r="140" stroke="#C8C8C8" stroke-opacity="0.25" stroke-width="3" shape-rendering="crispEdges"/>
</g>
<path d="M167.602 340.564C166.683 340.689 165.749 340.64 164.848 340.421C141.525 334.836 119.917 323.644 101.901 307.815C83.8838 291.986 70.0023 272 61.4608 249.59C60.7532 247.731 60.8132 245.666 61.6277 243.851C62.4421 242.036 63.9443 240.619 65.8036 239.911C67.663 239.204 69.7274 239.264 71.5425 240.078C73.3576 240.893 74.7749 242.395 75.4825 244.254C83.1608 264.387 95.6388 282.342 111.833 296.557C128.026 310.772 147.446 320.819 168.405 325.824C170.111 326.228 171.622 327.218 172.674 328.622C173.727 330.025 174.254 331.752 174.164 333.504C174.075 335.256 173.374 336.921 172.184 338.209C170.994 339.498 169.39 340.329 167.651 340.557L167.602 340.564Z" fill="#FFE631"/>
<path d="M66.2284 259.281C65.5691 258.629 65.0376 257.859 64.6614 257.012C54.8597 235.124 50.5479 211.175 52.1001 187.243C53.6523 163.311 61.0217 140.119 73.5687 119.681C74.6104 117.986 76.2827 116.774 78.2179 116.312C80.153 115.85 82.1923 116.176 83.8872 117.218C85.5822 118.259 86.7939 119.932 87.2558 121.867C87.7177 123.802 87.3919 125.841 86.3502 127.536C75.0804 145.902 68.4653 166.742 67.0796 188.245C65.6938 209.748 69.5792 231.265 78.3984 250.925C79.1188 252.525 79.2559 254.326 78.7858 256.015C78.3158 257.705 77.2684 259.177 75.8258 260.174C74.3831 261.172 72.6365 261.632 70.8895 261.476C69.1426 261.319 67.5058 260.555 66.2639 259.316L66.2284 259.281Z" fill="#FFE631"/>
<path d="M302.252 302.3C301.852 303.137 301.298 303.891 300.621 304.524C283.145 320.948 261.925 332.859 238.803 339.224C215.681 345.589 191.354 346.214 167.935 341.046C165.993 340.616 164.301 339.432 163.231 337.755C162.161 336.077 161.802 334.044 162.232 332.101C162.661 330.159 163.845 328.466 165.522 327.397C167.2 326.327 169.234 325.968 171.176 326.397C192.219 331.037 214.076 330.468 234.849 324.741C255.621 319.014 274.682 308.302 290.374 293.535C291.649 292.331 293.307 291.612 295.057 291.503C296.808 291.394 298.541 291.902 299.956 292.939C301.37 293.976 302.377 295.476 302.801 297.178C303.224 298.88 303.037 300.677 302.273 302.255L302.252 302.3Z" fill="#FFE631"/>
<g filter="url(#filter2_d_302_439)">
<circle cx="102" cy="303" r="34" fill="white"/>
</g>
<path d="M80.3228 296.375V293.775H85.5228V312H82.6478V296.375H80.3228ZM89.438 302.65C89.438 299.767 89.9213 297.517 90.888 295.9C91.8713 294.267 93.5547 293.45 95.938 293.45C98.3213 293.45 99.9963 294.267 100.963 295.9C101.946 297.517 102.438 299.767 102.438 302.65C102.438 305.567 101.946 307.85 100.963 309.5C99.9963 311.133 98.3213 311.95 95.938 311.95C93.5547 311.95 91.8713 311.133 90.888 309.5C89.9213 307.85 89.438 305.567 89.438 302.65ZM99.638 302.65C99.638 301.3 99.5463 300.158 99.363 299.225C99.1963 298.292 98.8463 297.533 98.313 296.95C97.7797 296.35 96.988 296.05 95.938 296.05C94.888 296.05 94.0963 296.35 93.563 296.95C93.0297 297.533 92.6713 298.292 92.488 299.225C92.3213 300.158 92.238 301.3 92.238 302.65C92.238 304.05 92.3213 305.225 92.488 306.175C92.6547 307.125 93.0047 307.892 93.538 308.475C94.088 309.058 94.888 309.35 95.938 309.35C96.988 309.35 97.7797 309.058 98.313 308.475C98.863 307.892 99.2213 307.125 99.388 306.175C99.5547 305.225 99.638 304.05 99.638 302.65ZM105.004 298.175C105.004 296.958 105.354 296.008 106.054 295.325C106.77 294.625 107.687 294.275 108.804 294.275C109.92 294.275 110.829 294.625 111.529 295.325C112.245 296.008 112.604 296.958 112.604 298.175C112.604 299.392 112.245 300.35 111.529 301.05C110.829 301.75 109.92 302.1 108.804 302.1C107.687 302.1 106.77 301.75 106.054 301.05C105.354 300.35 105.004 299.392 105.004 298.175ZM120.254 294.6L110.279 312H107.479L117.454 294.6H120.254ZM108.804 296C107.754 296 107.229 296.725 107.229 298.175C107.229 299.642 107.754 300.375 108.804 300.375C109.304 300.375 109.687 300.2 109.954 299.85C110.237 299.483 110.379 298.925 110.379 298.175C110.379 296.725 109.854 296 108.804 296ZM115.179 308.4C115.179 307.183 115.529 306.233 116.229 305.55C116.945 304.85 117.862 304.5 118.979 304.5C120.079 304.5 120.979 304.85 121.679 305.55C122.395 306.233 122.754 307.183 122.754 308.4C122.754 309.617 122.395 310.575 121.679 311.275C120.979 311.975 120.079 312.325 118.979 312.325C117.862 312.325 116.945 311.975 116.229 311.275C115.529 310.575 115.179 309.617 115.179 308.4ZM118.954 306.225C117.904 306.225 117.379 306.95 117.379 308.4C117.379 309.85 117.904 310.575 118.954 310.575C120.004 310.575 120.529 309.85 120.529 308.4C120.529 306.95 120.004 306.225 118.954 306.225Z" fill="#FFE631"/>
<path d="M199 272C240.421 272 274 238.421 274 197C274 155.579 240.421 122 199 122C157.579 122 124 155.579 124 197C124 238.421 157.579 272 199 272Z" fill="#FFE631"/>
<path d="M238.354 238C238.354 249.842 219.741 239.011 199.789 239.011C179.836 239.011 159.646 249.39 159.646 237.548C159.646 230.801 166.08 221.41 175.31 214.57C182.264 209.431 190.805 205.747 199.383 205.747C208.199 205.747 216.839 209.73 223.732 215.206C232.433 222.123 238.354 231.39 238.354 238Z" fill="#444053"/>
<path d="M223.733 215.221C213.125 213.621 193.938 211.675 175.311 214.586C182.265 209.446 190.805 205.77 199.384 205.77C208.2 205.77 216.839 209.745 223.733 215.221Z" fill="#F6F8FB"/>
<path opacity="0.15" d="M159.701 144.763C159.701 144.763 137.114 159.194 137.298 181.804C137.482 204.414 159.701 144.763 159.701 144.763Z" fill="#F9F9F9"/>
<path d="M175.188 197.72C179.533 197.72 183.054 192.881 183.054 186.913C183.054 180.944 179.533 176.105 175.188 176.105C170.844 176.105 167.322 180.944 167.322 186.913C167.322 192.881 170.844 197.72 175.188 197.72Z" fill="#444053"/>
<path d="M222.712 197.72C227.056 197.72 230.578 192.881 230.578 186.913C230.578 180.944 227.056 176.105 222.712 176.105C218.367 176.105 214.846 180.944 214.846 186.913C214.846 192.881 218.367 197.72 222.712 197.72Z" fill="#444053"/>
<defs>
<filter id="filter0_d_302_439" x="2" y="0" width="395" height="395" filterUnits="userSpaceOnUse" color-interpolation-filters="sRGB">
<feFlood flood-opacity="0" result="BackgroundImageFix"/>
<feColorMatrix in="SourceAlpha" type="matrix" values="0 0 0 0 0 0 0 0 0 0 0 0 0 0 0 0 0 0 127 0" result="hardAlpha"/>
<feMorphology radius="10" operator="dilate" in="SourceAlpha" result="effect1_dropShadow_302_439"/>
<feOffset/>
<feGaussianBlur stdDeviation="12.5"/>
<feComposite in2="hardAlpha" operator="out"/>
<feColorMatrix type="matrix" values="0 0 0 0 0 0 0 0 0 0 0 0 0 0 0 0 0 0 0.1 0"/>
<feBlend mode="normal" in2="BackgroundImageFix" result="effect1_dropShadow_302_439"/>
<feBlend mode="normal" in="SourceGraphic" in2="effect1_dropShadow_302_439" result="shape"/>
</filter>
<filter id="filter1_d_302_439" x="58" y="56" width="283" height="283" filterUnits="userSpaceOnUse" color-interpolation-filters="sRGB">
<feFlood flood-opacity="0" result="BackgroundImageFix"/>
<feColorMatrix in="SourceAlpha" type="matrix" values="0 0 0 0 0 0 0 0 0 0 0 0 0 0 0 0 0 0 127 0" result="hardAlpha"/>
<feOffset/>
<feComposite in2="hardAlpha" operator="out"/>
<feColorMatrix type="matrix" values="0 0 0 0 0 0 0 0 0 0 0 0 0 0 0 0 0 0 0.25 0"/>
<feBlend mode="normal" in2="BackgroundImageFix" result="effect1_dropShadow_302_439"/>
<feBlend mode="normal" in="SourceGraphic" in2="effect1_dropShadow_302_439" result="shape"/>
</filter>
<filter id="filter2_d_302_439" x="48" y="249" width="108" height="108" filterUnits="userSpaceOnUse" color-interpolation-filters="sRGB">
<feFlood flood-opacity="0" result="BackgroundImageFix"/>
<feColorMatrix in="SourceAlpha" type="matrix" values="0 0 0 0 0 0 0 0 0 0 0 0 0 0 0 0 0 0 127 0" result="hardAlpha"/>
<feMorphology radius="5" operator="dilate" in="SourceAlpha" result="effect1_dropShadow_302_439"/>
<feOffset/>
<feGaussianBlur stdDeviation="7.5"/>
<feComposite in2="hardAlpha" operator="out"/>
<feColorMatrix type="matrix" values="0 0 0 0 0 0 0 0 0 0 0 0 0 0 0 0 0 0 0.1 0"/>
<feBlend mode="normal" in2="BackgroundImageFix" result="effect1_dropShadow_302_439"/>
<feBlend mode="normal" in="SourceGraphic" in2="effect1_dropShadow_302_439" result="shape"/>
</filter>
</defs>
</svg>