<svg width="395" height="395" viewBox="0 0 395 395" fill="none" xmlns="http://www.w3.org/2000/svg">
<g filter="url(#filter0_d_302_1046)">
<circle cx="197.5" cy="197.5" r="162.5" fill="white"/>
</g>
<g filter="url(#filter1_d_302_1046)">
<circle cx="197.5" cy="197.5" r="140" stroke="#C8C8C8" stroke-opacity="0.25" stroke-width="3" shape-rendering="crispEdges"/>
</g>
<path d="M197 272C238.421 272 272 238.421 272 197C272 155.579 238.421 122 197 122C155.579 122 122 155.579 122 197C122 238.421 155.579 272 197 272Z" fill="#85E063"/>
<path opacity="0.15" d="M156.268 144.763C156.268 144.763 133.673 159.209 133.857 181.804C134.04 204.399 156.268 144.763 156.268 144.763Z" fill="#F9F9F9"/>
<path d="M173.249 199.321C177.593 199.321 181.115 194.482 181.115 188.513C181.115 182.545 177.593 177.706 173.249 177.706C168.905 177.706 165.383 182.545 165.383 188.513C165.383 194.482 168.905 199.321 173.249 199.321Z" fill="#444053"/>
<path d="M220.774 199.321C225.119 199.321 228.64 194.482 228.64 188.513C228.64 182.545 225.119 177.706 220.774 177.706C216.43 177.706 212.908 182.545 212.908 188.513C212.908 194.482 216.43 199.321 220.774 199.321Z" fill="#444053"/>
<path d="M230.241 220.981C230.241 224.688 216.056 236.001 197.705 236.001C179.353 236.001 163.797 224.688 163.797 220.981C163.797 217.274 179.361 222.574 197.705 222.574C216.049 222.574 230.241 217.274 230.241 220.981Z" fill="#444053"/>
<g clip-path="url(#clip0_302_1046)">
<path d="M165.602 340.564C164.683 340.689 163.749 340.64 162.848 340.421C139.525 334.836 117.917 323.644 99.9005 307.815C81.8838 291.986 68.0023 272 59.4608 249.59C58.7532 247.731 58.8132 245.666 59.6277 243.851C60.4421 242.036 61.9443 240.619 63.8036 239.911C65.663 239.204 67.7274 239.264 69.5425 240.078C71.3576 240.893 72.7749 242.395 73.4825 244.254C81.1608 264.387 93.6388 282.342 109.833 296.557C126.026 310.772 145.446 320.819 166.405 325.824C168.111 326.228 169.622 327.218 170.674 328.622C171.727 330.025 172.254 331.752 172.164 333.504C172.075 335.256 171.374 336.921 170.184 338.209C168.994 339.498 167.39 340.329 165.651 340.557L165.602 340.564Z" fill="#7DBA58"/>
</g>
<g filter="url(#filter2_d_302_1046)">
<circle cx="100" cy="303" r="34" fill="white"/>
</g>
<path d="M78.3472 296.375V293.775H83.5472V312H80.6722V296.375H78.3472ZM99.2124 296.225H90.8374V301.2C91.1874 300.733 91.7041 300.342 92.3874 300.025C93.0874 299.708 93.8291 299.55 94.6124 299.55C96.0124 299.55 97.1457 299.85 98.0124 300.45C98.8957 301.05 99.5207 301.808 99.8874 302.725C100.271 303.642 100.462 304.608 100.462 305.625C100.462 306.858 100.221 307.958 99.7374 308.925C99.2707 309.875 98.5624 310.625 97.6124 311.175C96.6791 311.725 95.5291 312 94.1624 312C92.3457 312 90.8874 311.55 89.7874 310.65C88.6874 309.75 88.0291 308.558 87.8124 307.075H90.5874C90.7707 307.858 91.1791 308.483 91.8124 308.95C92.4457 309.4 93.2374 309.625 94.1874 309.625C95.3707 309.625 96.2541 309.267 96.8374 308.55C97.4374 307.833 97.7374 306.883 97.7374 305.7C97.7374 304.5 97.4374 303.583 96.8374 302.95C96.2374 302.3 95.3541 301.975 94.1874 301.975C93.3707 301.975 92.6791 302.183 92.1124 302.6C91.5624 303 91.1624 303.55 90.9124 304.25H88.2124V293.725H99.2124V296.225ZM102.979 298.175C102.979 296.958 103.329 296.008 104.029 295.325C104.746 294.625 105.663 294.275 106.779 294.275C107.896 294.275 108.804 294.625 109.504 295.325C110.221 296.008 110.579 296.958 110.579 298.175C110.579 299.392 110.221 300.35 109.504 301.05C108.804 301.75 107.896 302.1 106.779 302.1C105.663 302.1 104.746 301.75 104.029 301.05C103.329 300.35 102.979 299.392 102.979 298.175ZM118.229 294.6L108.254 312H105.454L115.429 294.6H118.229ZM106.779 296C105.729 296 105.204 296.725 105.204 298.175C105.204 299.642 105.729 300.375 106.779 300.375C107.279 300.375 107.663 300.2 107.929 299.85C108.213 299.483 108.354 298.925 108.354 298.175C108.354 296.725 107.829 296 106.779 296ZM113.154 308.4C113.154 307.183 113.504 306.233 114.204 305.55C114.921 304.85 115.838 304.5 116.954 304.5C118.054 304.5 118.954 304.85 119.654 305.55C120.371 306.233 120.729 307.183 120.729 308.4C120.729 309.617 120.371 310.575 119.654 311.275C118.954 311.975 118.054 312.325 116.954 312.325C115.838 312.325 114.921 311.975 114.204 311.275C113.504 310.575 113.154 309.617 113.154 308.4ZM116.929 306.225C115.879 306.225 115.354 306.95 115.354 308.4C115.354 309.85 115.879 310.575 116.929 310.575C117.979 310.575 118.504 309.85 118.504 308.4C118.504 306.95 117.979 306.225 116.929 306.225Z" fill="#7DBA58"/>
<defs>
<filter id="filter0_d_302_1046" x="0" y="0" width="395" height="395" filterUnits="userSpaceOnUse" color-interpolation-filters="sRGB">
<feFlood flood-opacity="0" result="BackgroundImageFix"/>
<feColorMatrix in="SourceAlpha" type="matrix" values="0 0 0 0 0 0 0 0 0 0 0 0 0 0 0 0 0 0 127 0" result="hardAlpha"/>
<feMorphology radius="10" operator="dilate" in="SourceAlpha" result="effect1_dropShadow_302_1046"/>
<feOffset/>
<feGaussianBlur stdDeviation="12.5"/>
<feComposite in2="hardAlpha" operator="out"/>
<feColorMatrix type="matrix" values="0 0 0 0 0 0 0 0 0 0 0 0 0 0 0 0 0 0 0.1 0"/>
<feBlend mode="normal" in2="BackgroundImageFix" result="effect1_dropShadow_302_1046"/>
<feBlend mode="normal" in="SourceGraphic" in2="effect1_dropShadow_302_1046" result="shape"/>
</filter>
<filter id="filter1_d_302_1046" x="56" y="56" width="283" height="283" filterUnits="userSpaceOnUse" color-interpolation-filters="sRGB">
<feFlood flood-opacity="0" result="BackgroundImageFix"/>
<feColorMatrix in="SourceAlpha" type="matrix" values="0 0 0 0 0 0 0 0 0 0 0 0 0 0 0 0 0 0 127 0" result="hardAlpha"/>
<feOffset/>
<feComposite in2="hardAlpha" operator="out"/>
<feColorMatrix type="matrix" values="0 0 0 0 0 0 0 0 0 0 0 0 0 0 0 0 0 0 0.25 0"/>
<feBlend mode="normal" in2="BackgroundImageFix" result="effect1_dropShadow_302_1046"/>
<feBlend mode="normal" in="SourceGraphic" in2="effect1_dropShadow_302_1046" result="shape"/>
</filter>
<filter id="filter2_d_302_1046" x="46" y="249" width="108" height="108" filterUnits="userSpaceOnUse" color-interpolation-filters="sRGB">
<feFlood flood-opacity="0" result="BackgroundImageFix"/>
<feColorMatrix in="SourceAlpha" type="matrix" values="0 0 0 0 0 0 0 0 0 0 0 0 0 0 0 0 0 0 127 0" result="hardAlpha"/>
<feMorphology radius="5" operator="dilate" in="SourceAlpha" result="effect1_dropShadow_302_1046"/>
<feOffset/>
<feGaussianBlur stdDeviation="7.5"/>
<feComposite in2="hardAlpha" operator="out"/>
<feColorMatrix type="matrix" values="0 0 0 0 0 0 0 0 0 0 0 0 0 0 0 0 0 0 0.1 0"/>
<feBlend mode="normal" in2="BackgroundImageFix" result="effect1_dropShadow_302_1046"/>
<feBlend mode="normal" in="SourceGraphic" in2="effect1_dropShadow_302_1046" result="shape"/>
</filter>
<clipPath id="clip0_302_1046">
<rect width="100.75" height="113.57" fill="white" transform="translate(58 240.494) rotate(-7.69699)"/>
</clipPath>
</defs>
</svg>