<svg width="106" height="100" viewBox="0 0 106 100" fill="none" xmlns="http://www.w3.org/2000/svg">
<path d="M19.6279 89.7529C19.6279 90.7946 19.335 91.7142 18.749 92.5117C17.7887 93.8301 16.2018 94.4893 13.9883 94.4893H6.10254V94.001C7.11165 93.9359 7.80339 93.7161 8.17773 93.3418C8.53581 92.9674 8.71484 92.2757 8.71484 91.2666V79.3525C8.71484 78.376 8.52767 77.7412 8.15332 77.4482C7.84408 77.2204 7.16048 77.0739 6.10254 77.0088V76.5205H12.6699C16.7878 76.5205 18.8467 78.0179 18.8467 81.0127C18.8467 83.0309 17.6667 84.3656 15.3066 85.0166L15.7217 85.1143C18.3258 85.7327 19.6279 87.279 19.6279 89.7529ZM17.2598 81.208C17.2598 78.6201 15.502 77.3262 11.9863 77.3262C11.3027 77.3262 10.9284 77.3343 10.8633 77.3506C10.5703 77.3831 10.3913 77.4401 10.3262 77.5215C10.2611 77.6029 10.2285 77.7738 10.2285 78.0342V84.3574L12.9873 84.333C14.0941 84.3167 14.8997 84.2272 15.4043 84.0645C16.6413 83.6087 17.2598 82.6566 17.2598 81.208ZM17.748 89.6553C17.748 87.751 16.7227 86.4489 14.6719 85.749C13.9069 85.4886 12.4258 85.3584 10.2285 85.3584V92.3896C10.2285 92.9593 10.4889 93.3418 11.0098 93.5371C11.319 93.6348 11.8317 93.6836 12.5479 93.6836C16.0146 93.6836 17.748 92.3408 17.748 89.6553ZM31.3955 93.3906C30.7607 94.2533 30.0853 94.6846 29.3691 94.6846C28.653 94.6846 28.2624 93.8952 28.1973 92.3164C26.4557 93.8952 25.1455 94.6846 24.2666 94.6846C23.5993 94.6846 23.054 94.4567 22.6309 94.001C22.1426 93.4964 21.8984 92.821 21.8984 91.9746C21.8984 90.7376 22.4437 89.6878 23.5342 88.8252C24.2992 88.2393 25.821 87.4417 28.0996 86.4326L28.1729 84.8945C28.2542 83.3158 27.4974 82.5264 25.9023 82.5264C25.4303 82.5264 24.9827 82.6566 24.5596 82.917C24.0876 83.1774 23.8516 83.4948 23.8516 83.8691C23.8516 83.7878 23.8841 84.1051 23.9492 84.8213C23.9818 85.1305 23.9248 85.3991 23.7783 85.627C23.6318 85.8385 23.4284 85.9443 23.168 85.9443C22.6146 85.9443 22.3379 85.5781 22.3379 84.8457C22.3379 84.1947 22.6309 83.5924 23.2168 83.0391C23.9492 82.3229 24.9176 81.9648 26.1221 81.9648C27.6195 81.9648 28.596 82.4694 29.0518 83.4785C29.2633 83.9831 29.3691 84.9027 29.3691 86.2373V91.3398C29.3691 92.6257 29.7191 93.2686 30.4189 93.2686C30.6794 93.2686 31.0049 93.1139 31.3955 92.8047V93.3906ZM28.1729 90.7783V87.1162C25.0479 88.3369 23.4854 89.6309 23.4854 90.998V91.0713C23.4854 92.4385 24.0957 93.1872 25.3164 93.3174C25.8372 93.3662 26.4639 93.1383 27.1963 92.6338C27.8473 92.1781 28.1729 91.5596 28.1729 90.7783ZM39.2812 83.3809C39.2812 83.9505 39.0371 84.2354 38.5488 84.2354C38.2559 84.2354 37.9385 84.1377 37.5967 83.9424C37.2549 83.7308 36.9782 83.6331 36.7666 83.6494C36.4574 83.682 36.0423 84.0645 35.5215 84.7969C35.0169 85.5293 34.7646 86.1234 34.7646 86.5791L34.7891 91.7793C34.7891 92.6908 35.0088 93.3174 35.4482 93.6592C35.7575 93.9033 36.2865 94.0417 37.0352 94.0742V94.4893H31.5176V94.0742C32.25 93.944 32.7383 93.765 32.9824 93.5371C33.3079 93.2279 33.4707 92.6989 33.4707 91.9502V85.7002C33.4707 84.4469 33.0719 83.8203 32.2744 83.8203C31.9814 83.8203 31.7454 83.8447 31.5664 83.8936V83.4785C32.2826 83.2181 33.3568 82.7542 34.7891 82.0869V85.2119L35.0576 84.7969C35.79 83.7552 36.3271 83.0553 36.6689 82.6973C37.1247 82.2415 37.5967 82.0137 38.085 82.0137C38.8825 82.0137 39.2812 82.4694 39.2812 83.3809ZM50.2432 87.9951C50.2432 89.5739 49.82 90.998 48.9736 92.2676C47.932 93.8789 46.4346 94.6846 44.4814 94.6846C43.7816 94.6846 43.0736 94.5381 42.3574 94.2451C41.5273 93.9359 41.1123 93.5534 41.1123 93.0977V79.1816C41.1123 78.0749 40.624 77.5215 39.6475 77.5215C39.501 77.5215 39.387 77.5296 39.3057 77.5459V77.082C40.0055 76.903 41.0472 76.5286 42.4307 75.959V84.8945L42.626 84.5283C42.9027 84.0238 43.2933 83.5436 43.7979 83.0879C44.5628 82.4043 45.3278 82.0706 46.0928 82.0869C47.3949 82.1032 48.4365 82.7461 49.2178 84.0156C49.9014 85.1224 50.2432 86.4489 50.2432 87.9951ZM48.7295 88.874C48.7295 85.391 47.5413 83.6494 45.165 83.6494C44.5791 83.6494 44.0013 83.9098 43.4316 84.4307C42.7643 85.0166 42.4307 85.6921 42.4307 86.457V92.292C42.4307 92.7477 42.7887 93.1546 43.5049 93.5127C44.1071 93.7894 44.6361 93.9277 45.0918 93.9277C46.3776 93.9277 47.346 93.3174 47.9971 92.0967C48.4854 91.2015 48.7295 90.1273 48.7295 88.874ZM60.9365 90.3389C60.6436 91.2992 60.1797 92.1536 59.5449 92.9023C58.5684 94.0905 57.3883 94.6846 56.0049 94.6846C54.654 94.6846 53.5716 94.1393 52.7578 93.0488C51.9603 91.9909 51.5615 90.5179 51.5615 88.6299C51.5615 86.4001 52.1312 84.6667 53.2705 83.4297C54.182 82.4694 55.2236 81.9811 56.3955 81.9648C57.5023 81.9648 58.4056 82.3148 59.1055 83.0146C59.9193 83.8122 60.3913 85.0085 60.5215 86.6035H52.6846C52.7171 88.9473 53.1403 90.7051 53.9541 91.877C54.6214 92.8535 55.4922 93.3418 56.5664 93.3418C58.2266 93.3418 59.5856 92.3001 60.6436 90.2168L60.9365 90.3389ZM58.7881 85.9199C58.5602 83.8529 57.5999 82.8112 55.9072 82.7949C54.4098 82.7786 53.36 83.8203 52.7578 85.9199H58.7881ZM71.8252 93.3906C71.1904 94.2533 70.515 94.6846 69.7988 94.6846C69.0827 94.6846 68.6921 93.8952 68.627 92.3164C66.8854 93.8952 65.5752 94.6846 64.6963 94.6846C64.029 94.6846 63.4837 94.4567 63.0605 94.001C62.5723 93.4964 62.3281 92.821 62.3281 91.9746C62.3281 90.7376 62.8734 89.6878 63.9639 88.8252C64.7288 88.2393 66.2507 87.4417 68.5293 86.4326L68.6025 84.8945C68.6839 83.3158 67.9271 82.5264 66.332 82.5264C65.86 82.5264 65.4124 82.6566 64.9893 82.917C64.5173 83.1774 64.2812 83.4948 64.2812 83.8691C64.2812 83.7878 64.3138 84.1051 64.3789 84.8213C64.4115 85.1305 64.3545 85.3991 64.208 85.627C64.0615 85.8385 63.8581 85.9443 63.5977 85.9443C63.0443 85.9443 62.7676 85.5781 62.7676 84.8457C62.7676 84.1947 63.0605 83.5924 63.6465 83.0391C64.3789 82.3229 65.3473 81.9648 66.5518 81.9648C68.0492 81.9648 69.0257 82.4694 69.4814 83.4785C69.693 83.9831 69.7988 84.9027 69.7988 86.2373V91.3398C69.7988 92.6257 70.1488 93.2686 70.8486 93.2686C71.109 93.2686 71.4346 93.1139 71.8252 92.8047V93.3906ZM68.6025 90.7783V87.1162C65.4775 88.3369 63.915 89.6309 63.915 90.998V91.0713C63.915 92.4385 64.5254 93.1872 65.7461 93.3174C66.2669 93.3662 66.8936 93.1383 67.626 92.6338C68.277 92.1781 68.6025 91.5596 68.6025 90.7783ZM79.7109 83.3809C79.7109 83.9505 79.4668 84.2354 78.9785 84.2354C78.6855 84.2354 78.3682 84.1377 78.0264 83.9424C77.6846 83.7308 77.4079 83.6331 77.1963 83.6494C76.887 83.682 76.472 84.0645 75.9512 84.7969C75.4466 85.5293 75.1943 86.1234 75.1943 86.5791L75.2188 91.7793C75.2188 92.6908 75.4385 93.3174 75.8779 93.6592C76.1872 93.9033 76.7161 94.0417 77.4648 94.0742V94.4893H71.9473V94.0742C72.6797 93.944 73.168 93.765 73.4121 93.5371C73.7376 93.2279 73.9004 92.6989 73.9004 91.9502V85.7002C73.9004 84.4469 73.5016 83.8203 72.7041 83.8203C72.4111 83.8203 72.1751 83.8447 71.9961 83.8936V83.4785C72.7122 83.2181 73.7865 82.7542 75.2188 82.0869V85.2119L75.4873 84.7969C76.2197 83.7552 76.7568 83.0553 77.0986 82.6973C77.5544 82.2415 78.0264 82.0137 78.5146 82.0137C79.3122 82.0137 79.7109 82.4694 79.7109 83.3809ZM83.666 77.1797C83.666 77.9447 83.3324 78.3271 82.665 78.3271C82.3558 78.3271 82.1117 78.1888 81.9326 77.9121C81.7861 77.6842 81.7129 77.4401 81.7129 77.1797C81.7129 76.9518 81.7943 76.7077 81.957 76.4473C82.1198 76.2031 82.3558 76.0811 82.665 76.0811C82.9417 76.0811 83.1859 76.1868 83.3975 76.3984C83.5765 76.6263 83.666 76.8867 83.666 77.1797ZM85.6191 94.4893H80.0283V94.0742C80.8747 94.0417 81.4362 93.8789 81.7129 93.5859C82.0547 93.2279 82.2256 92.5199 82.2256 91.4619V85.749C82.2256 84.4958 81.8105 83.8691 80.9805 83.8691C80.7852 83.8691 80.5166 83.9098 80.1748 83.9912V83.5518C80.9561 83.3076 82.0872 82.8519 83.5684 82.1846V91.4619C83.5684 92.4059 83.7067 93.0651 83.9834 93.4395C84.2438 93.7975 84.7891 94.0091 85.6191 94.0742V94.4893ZM96.6055 93.3906C95.9707 94.2533 95.2952 94.6846 94.5791 94.6846C93.863 94.6846 93.4723 93.8952 93.4072 92.3164C91.6657 93.8952 90.3555 94.6846 89.4766 94.6846C88.8092 94.6846 88.264 94.4567 87.8408 94.001C87.3525 93.4964 87.1084 92.821 87.1084 91.9746C87.1084 90.7376 87.6536 89.6878 88.7441 88.8252C89.5091 88.2393 91.0309 87.4417 93.3096 86.4326L93.3828 84.8945C93.4642 83.3158 92.7074 82.5264 91.1123 82.5264C90.6403 82.5264 90.1927 82.6566 89.7695 82.917C89.2975 83.1774 89.0615 83.4948 89.0615 83.8691C89.0615 83.7878 89.0941 84.1051 89.1592 84.8213C89.1917 85.1305 89.1348 85.3991 88.9883 85.627C88.8418 85.8385 88.6383 85.9443 88.3779 85.9443C87.8245 85.9443 87.5479 85.5781 87.5479 84.8457C87.5479 84.1947 87.8408 83.5924 88.4268 83.0391C89.1592 82.3229 90.1276 81.9648 91.332 81.9648C92.8294 81.9648 93.806 82.4694 94.2617 83.4785C94.4733 83.9831 94.5791 84.9027 94.5791 86.2373V91.3398C94.5791 92.6257 94.929 93.2686 95.6289 93.2686C95.8893 93.2686 96.2148 93.1139 96.6055 92.8047V93.3906ZM93.3828 90.7783V87.1162C90.2578 88.3369 88.6953 89.6309 88.6953 90.998V91.0713C88.6953 92.4385 89.3057 93.1872 90.5264 93.3174C91.0472 93.3662 91.6738 93.1383 92.4062 92.6338C93.0573 92.1781 93.3828 91.5596 93.3828 90.7783Z" fill="#AAAAAA"/>
<path d="M62.5885 41.3468C63.7079 41.363 64.926 41.5 66.2403 41.783C76.7536 44.0464 80.5045 54.7998 87.2632 59.1381C94.0221 63.4763 100.885 61.3905 101.909 59.5112C102.933 57.632 102.663 55.5542 100.973 54.4224C98.2051 52.5685 97.9678 56.4967 97.9678 56.4967C97.9678 56.4967 97.3978 49.9515 103.038 53.0994C106.417 54.9856 106.332 62.3145 100.597 66.4903C93.3837 71.7421 83.205 70.5897 74.6873 68.9426C66.8817 67.4333 57.5526 62.6907 53.4712 58.0045C53.1565 57.6432 52.8816 57.267 52.6463 56.8801C52.4113 57.2662 52.1403 57.6438 51.8262 58.0045C47.7445 62.691 38.4154 67.434 30.61 68.9426C22.0918 70.5897 11.918 71.7421 4.70509 66.4903C-1.03003 62.3148 -1.11527 54.9859 2.26412 53.0994C7.90424 49.9515 7.32939 56.4967 7.32939 56.4967C7.32939 56.4967 7.09697 52.5684 4.32881 54.4224C2.63911 55.5541 2.36422 57.6319 3.38808 59.5112C4.41192 61.3905 11.275 63.4762 18.034 59.138C24.7927 54.7979 28.5473 44.0445 39.0616 41.7811C46.5001 40.1801 50.7386 43.3112 52.6507 45.9393C54.2257 43.7767 57.3729 41.2698 62.5882 41.3454L62.5885 41.3468L62.5885 41.3468Z" fill="#AAAAAA"/>
<path d="M62.5885 41.3468C63.7079 41.363 64.926 41.5 66.2403 41.783C76.7536 44.0464 80.5045 54.7998 87.2632 59.1381C94.0221 63.4763 100.885 61.3905 101.909 59.5112C102.933 57.632 102.663 55.5542 100.973 54.4224C98.2051 52.5685 97.9678 56.4967 97.9678 56.4967C97.9678 56.4967 97.3978 49.9515 103.038 53.0994C106.417 54.9856 106.332 62.3145 100.597 66.4903C93.3837 71.7421 83.205 70.5897 74.6873 68.9426C66.8817 67.4333 57.5526 62.6907 53.4712 58.0045C53.1565 57.6432 52.8816 57.267 52.6463 56.8801C52.4113 57.2662 52.1403 57.6438 51.8262 58.0045C47.7445 62.691 38.4154 67.434 30.61 68.9426C22.0918 70.5897 11.918 71.7421 4.70509 66.4903C-1.03003 62.3148 -1.11527 54.9859 2.26412 53.0994C7.90424 49.9515 7.32939 56.4967 7.32939 56.4967C7.32939 56.4967 7.09697 52.5684 4.32881 54.4224C2.63911 55.5541 2.36422 57.6319 3.38808 59.5112C4.41192 61.3905 11.275 63.4762 18.034 59.138C24.7927 54.7979 28.5473 44.0445 39.0616 41.7811C46.5001 40.1801 50.7386 43.3112 52.6507 45.9393C54.2257 43.7767 57.3729 41.2698 62.5882 41.3454L62.5885 41.3468L62.5885 41.3468Z" fill="#AAAAAA"/>
<path d="M77.2501 0.12833C77.732 0.176454 78.2139 0.256661 78.6959 0.35291C78.8565 0.384992 79.0332 0.417075 79.1939 0.449158C79.467 0.497282 79.7401 0.577489 80.0132 0.657696C80.9288 0.914359 81.8445 1.26727 82.712 1.6683C82.728 1.68435 82.7441 1.68435 82.7762 1.70039C83.0493 1.82872 83.3064 1.95705 83.5634 2.10142C84.5272 2.63079 85.4269 3.27244 86.2622 3.96223C86.8887 4.47555 87.467 5.05304 88.0132 5.64657C88.0935 5.74282 88.1899 5.83907 88.2702 5.93532C88.7843 6.54489 89.2662 7.18655 89.6839 7.86029C90.0213 8.37361 90.3104 8.91902 90.5835 9.48047C90.8245 9.97775 91.0333 10.475 91.2261 10.9884C91.3546 11.3573 91.4831 11.7263 91.5956 12.0952C91.949 13.2662 92.1418 14.4693 92.2382 15.6885C92.2703 16.0093 92.2703 16.3141 92.2863 16.6349C92.2863 16.667 92.2863 16.6831 92.2863 16.7151C92.3024 17.7257 92.206 18.7364 92.0454 19.7309C91.9972 20.0678 91.9169 20.4207 91.8365 20.7576C91.708 21.303 91.5474 21.8323 91.3707 22.3617C91.3064 22.5542 91.2261 22.7467 91.1618 22.9392C91.0333 23.244 90.9048 23.5648 90.7763 23.8536C90.7442 23.9338 90.712 24.014 90.6638 24.0942C90.4068 24.6396 90.1177 25.185 89.7964 25.6983C89.716 25.8267 89.6357 25.9389 89.5715 26.0673C89.0574 26.8533 88.4791 27.5912 87.8526 28.2649C87.3224 28.8424 86.7602 29.3718 86.1658 29.8691C85.8285 30.1578 85.475 30.4145 85.1056 30.6712C84.9449 30.7834 84.7843 30.8957 84.6076 31.008C84.2541 31.2486 83.8847 31.4572 83.4991 31.6657C83.4991 31.6657 83.4831 31.6657 83.4831 31.6818C82.7441 32.0828 81.9891 32.4197 81.2019 32.7084C80.0935 33.1255 78.9368 33.3982 77.7481 33.5586C76.479 33.7351 75.226 33.7671 73.9569 33.6549C72.6396 33.5426 71.3544 33.2699 70.1014 32.8688C67.74 32.0988 65.5873 30.7834 63.7881 29.0831C62.8885 28.2489 62.1174 27.2864 61.4267 26.2919C60.7038 25.2492 60.1415 24.1102 59.6756 22.9392C59.2098 21.7682 58.9045 20.533 58.7278 19.2818C58.5511 17.9824 58.5029 16.6831 58.6154 15.3677C58.8403 12.8652 59.6274 10.4269 60.9126 8.26132C61.4909 7.23467 62.2299 6.27218 63.0492 5.38991C63.8684 4.50763 64.7841 3.73764 65.764 3.03182C66.6958 2.37412 67.7078 1.81268 68.7681 1.36352C69.8765 0.898316 71.0171 0.529364 72.2059 0.304785C73.1858 0.112288 74.1657 0.0160398 75.1617 -1.49724e-06C75.1938 -1.49443e-06 75.226 -1.49162e-06 75.2742 -1.4874e-06C75.3063 -1.4846e-06 75.3223 -1.48319e-06 75.3545 -1.48038e-06C75.981 0.01604 76.6075 0.0481229 77.2501 0.12833ZM73.4268 2.14955C72.1255 2.34204 70.8565 2.67891 69.6516 3.1762C68.4629 3.68952 67.3544 4.33118 66.3263 5.1172C65.3303 5.90323 64.4307 6.80155 63.6435 7.79612C62.8564 8.82277 62.2138 9.92962 61.6997 11.1167C61.2018 12.3358 60.8483 13.6031 60.6716 14.9185C60.511 16.2339 60.511 17.5653 60.6716 18.8968C60.8644 20.1961 61.2178 21.4634 61.7158 22.6825C62.2299 23.8536 62.8724 24.9604 63.6435 25.971C64.4307 26.9656 65.3303 27.8639 66.3263 28.6499C67.3544 29.4199 68.4629 30.0776 69.6356 30.5909C70.8565 31.0882 72.1255 31.4411 73.4428 31.6176C74.7601 31.778 76.0774 31.778 77.3947 31.6176C78.6155 31.4411 79.8043 31.1203 80.961 30.6712C81.0413 30.6391 81.1216 30.607 81.1859 30.5749C81.4589 30.4626 81.732 30.3343 81.9891 30.1899C82.0051 30.1739 82.0212 30.1739 82.0373 30.1578C82.0533 30.1578 82.0533 30.1418 82.0694 30.1418C82.0855 30.1418 82.0855 30.1257 82.1015 30.1257C82.9369 29.6926 83.7401 29.1953 84.4951 28.6179C85.218 28.0404 85.8927 27.4148 86.5032 26.725C86.5032 26.725 86.5032 26.725 86.5032 26.7089C86.5192 26.6929 86.5192 26.6929 86.5353 26.6768C86.5514 26.6608 86.5514 26.6608 86.5674 26.6448C86.5674 26.6448 86.5674 26.6287 86.5835 26.6287C86.7923 26.4041 86.9851 26.1635 87.1779 25.9229C87.9168 24.9444 88.5433 23.8856 89.0574 22.7627L89.0574 22.7467C89.0574 22.7467 89.0574 22.7307 89.0735 22.7307C89.0895 22.6986 89.1056 22.6505 89.1217 22.6184C89.1859 22.474 89.2341 22.3457 89.2823 22.2013C89.2823 22.1853 89.2984 22.1692 89.2984 22.1532C89.2984 22.1532 89.2984 22.1532 89.2984 22.1371C89.6679 21.1586 89.9249 20.164 90.1016 19.1374L90.1016 19.1213C90.1016 19.1053 90.1016 19.0893 90.1016 19.0893C90.1016 19.0732 90.1016 19.0732 90.1016 19.0572L90.1016 19.0411C90.1177 18.977 90.1177 18.8968 90.1337 18.8326C90.2944 17.5012 90.2944 16.1697 90.1337 14.8543C90.0213 14.1485 89.8767 13.4427 89.6839 12.769C89.6839 12.7529 89.6679 12.7369 89.6679 12.7208C89.6679 12.7048 89.6679 12.6887 89.6518 12.6887L89.6518 12.6727C89.4911 12.1433 89.3144 11.63 89.1056 11.1167C88.5915 9.94567 87.949 8.83881 87.1618 7.81216C86.9048 7.47529 86.6317 7.1705 86.3425 6.84968C86.3265 6.83363 86.3265 6.81759 86.3104 6.81759C86.3104 6.81759 86.3104 6.80155 86.2943 6.80155C86.2783 6.78551 86.2783 6.78551 86.2622 6.76947L86.2461 6.75343L86.2301 6.73738C86.214 6.72134 86.214 6.72134 86.1979 6.7053L86.1819 6.68926C86.1658 6.67322 86.1658 6.67322 86.1498 6.65718C86.1498 6.65718 86.1498 6.65718 86.1337 6.64114C86.1176 6.6251 86.1016 6.60905 86.1016 6.60905C85.6196 6.11177 85.1056 5.64657 84.5754 5.21345C84.5594 5.19741 84.5433 5.18137 84.5272 5.18137C84.5112 5.16533 84.4951 5.16533 84.4791 5.14929C83.4509 4.3793 82.3425 3.7216 81.1698 3.20828C81.0252 3.16015 80.8967 3.09599 80.7521 3.04786C80.7361 3.04786 80.7361 3.04786 80.72 3.03182C80.7039 3.03182 80.7039 3.03182 80.6879 3.01578C79.7883 2.67891 78.8726 2.43829 77.9408 2.26183L77.9248 2.26183C77.9248 2.26183 77.9248 2.26183 77.9087 2.26183C77.732 2.22975 77.5714 2.19767 77.3947 2.18163C77.2019 2.14954 76.993 2.1335 76.8003 2.11746C75.6918 1.98913 74.5513 2.00517 73.4268 2.14955ZM61.7319 22.7467C61.7479 22.7788 61.7479 22.7948 61.764 22.8269C61.7479 22.7948 61.7319 22.7627 61.7319 22.7467Z" fill="#AAAAAA"/>
<path d="M34.4068 1.39531C35.6117 1.68405 36.7844 2.14925 37.9089 2.69466C38.3105 2.88716 38.696 3.11174 39.0816 3.33631C39.1619 3.38444 39.2583 3.4486 39.3386 3.49673C40.0133 3.91381 40.6559 4.39505 41.2663 4.90837C41.6197 5.21316 41.9731 5.53399 42.3105 5.87086C43.1459 6.70501 43.9009 7.65145 44.5434 8.64602C44.8647 9.1433 45.1539 9.65663 45.427 10.186C45.4752 10.2662 45.5073 10.3624 45.5555 10.4427C45.7804 10.9239 45.9892 11.4051 46.182 11.9024C46.182 11.9185 46.182 11.9185 46.1981 11.9345C46.6318 13.0574 46.9049 14.2445 47.0656 15.4315C47.2423 16.7148 47.2744 17.9982 47.1619 19.2975C46.937 21.7839 46.1499 24.1901 44.8969 26.3397C44.2864 27.3824 43.5475 28.3449 42.7442 29.2271C41.9249 30.1255 40.9772 30.9115 39.9972 31.6173C38.9852 32.3392 37.8928 32.9006 36.7522 33.3819C35.6116 33.8471 34.4389 34.1839 33.218 34.3925C30.6477 34.8256 28.0132 34.6652 25.5071 33.9273C23.0654 33.2054 20.8324 31.89 18.9368 30.1896C17.1215 28.5373 15.7079 26.468 14.7601 24.2062C13.7962 21.8962 13.3785 19.3617 13.507 16.8432C13.6356 14.3247 14.3585 11.8703 15.5633 9.65662C16.1416 8.59789 16.8484 7.61936 17.6356 6.705C18.4227 5.7746 19.3384 4.97253 20.3023 4.23463C21.234 3.52881 22.2621 2.93528 23.3224 2.43799C24.463 1.92467 25.6357 1.52363 26.8566 1.26697C27.9971 1.02635 29.1538 0.914061 30.3104 0.914061C31.6759 0.914063 33.0574 1.07448 34.4068 1.39531ZM28.3345 3.03153C27.0333 3.22402 25.7642 3.56089 24.5433 4.05818C23.3706 4.5715 22.2782 5.21316 21.2501 5.9671C20.238 6.75313 19.3384 7.66749 18.5352 8.66206C17.7641 9.67266 17.1215 10.7795 16.6075 11.9505C16.1095 13.1697 15.7561 14.453 15.5633 15.7524C15.4026 17.0838 15.4026 18.4152 15.5633 19.7306C15.7561 21.03 16.0934 22.2972 16.5914 23.5164C17.1055 24.6874 17.748 25.7943 18.5191 26.8209C19.3224 27.8315 20.222 28.7298 21.218 29.5159C22.2461 30.2859 23.3706 30.9436 24.5433 31.4569C25.7642 31.9542 27.0172 32.291 28.3184 32.4835C29.6357 32.644 30.969 32.644 32.3024 32.4835C33.5875 32.291 34.8566 31.9542 36.0614 31.4569C37.2502 30.9436 38.3587 30.3019 39.3868 29.5159C40.3988 28.7138 41.2984 27.8155 42.1017 26.8049C42.8727 25.7782 43.5153 24.6874 44.0294 23.5004C44.5274 22.2812 44.8647 21.0139 45.0575 19.7146C45.2182 18.3831 45.2182 17.0517 45.0575 15.7363C44.8808 14.5011 44.5595 13.298 44.0936 12.143C44.0936 12.143 44.0936 12.143 44.0936 12.127L44.0936 12.111C44.0776 12.0628 44.0615 12.0147 44.0294 11.9666C43.933 11.742 43.8366 11.5174 43.7242 11.3089L43.7242 11.2929C43.7242 11.2768 43.7081 11.2608 43.7081 11.2447C43.2583 10.3304 42.7282 9.46413 42.1017 8.64602C41.3145 7.65145 40.3988 6.73709 39.4028 5.95106C39.3707 5.91898 39.3386 5.90294 39.3065 5.87086C39.3065 5.87086 39.2904 5.87086 39.2904 5.85482C39.2743 5.85482 39.2743 5.83877 39.2583 5.83877C38.3105 5.14899 37.2984 4.55546 36.2221 4.07422C36.206 4.07422 36.19 4.05818 36.1739 4.05818C36.1739 4.05818 36.1578 4.05818 36.1578 4.04214C36.1418 4.04214 36.1418 4.0261 36.1257 4.0261C36.1096 4.0261 36.0936 4.01005 36.0936 4.01005C36.0454 3.99401 35.9972 3.97797 35.949 3.94589C34.7763 3.48069 33.5554 3.15986 32.3024 2.96736C30.9851 2.87111 29.6518 2.87111 28.3345 3.03153L28.3345 3.03153Z" fill="#AAAAAA"/>
<path d="M53.4591 11.2291C54.0053 11.2612 54.5675 11.3414 55.0976 11.4857C55.2904 11.5339 55.4671 11.582 55.6599 11.6462C56.1579 11.8066 56.6559 12.0472 57.1057 12.3039C57.2985 12.4161 57.4912 12.5445 57.6679 12.6728L57.684 12.6888C57.7001 12.7049 57.7161 12.7209 57.7483 12.737C57.9089 12.8653 58.0696 12.9776 58.2302 13.122C58.8085 13.5872 59.2744 14.1486 59.7081 14.7421C59.9812 15.1432 60.2222 15.5603 60.415 16.0094C60.415 16.0094 60.415 16.0255 60.431 16.0255L60.431 16.0415C60.431 16.0575 60.4471 16.0736 60.4471 16.0736C60.4953 16.1538 60.5274 16.234 60.5435 16.3142C60.5435 16.3302 60.5595 16.3302 60.5595 16.3463C60.6559 16.5869 60.5756 16.9077 60.4631 17.1163C60.3346 17.3409 60.1097 17.5013 59.8688 17.5815C59.6117 17.6456 59.3226 17.6136 59.0977 17.4852C59.0334 17.4371 58.9692 17.3729 58.8888 17.3248C58.7764 17.1965 58.68 17.0682 58.6318 16.9077C58.423 16.4425 58.1659 16.0094 57.8607 15.5923C57.5394 15.1913 57.1699 14.8224 56.7683 14.5015C56.3507 14.1967 55.9009 13.9401 55.435 13.7155C54.937 13.523 54.439 13.3786 53.9089 13.2984C53.3627 13.2343 52.8326 13.2343 52.2864 13.2984C51.9651 13.3465 51.6438 13.4268 51.3386 13.523C51.3225 13.523 51.3225 13.523 51.3064 13.523L51.2904 13.523C51.1137 13.5711 50.9209 13.6353 50.7442 13.7155C50.2623 13.924 49.8125 14.1967 49.3948 14.5015C49.3627 14.5336 49.3145 14.5657 49.2823 14.5978C48.9289 14.9026 48.6076 15.2234 48.3185 15.5763C48.0614 15.9292 47.8205 16.3142 47.6277 16.6992C47.6277 16.6992 47.6277 16.7152 47.6116 16.7152C47.5795 16.7794 47.5474 16.8436 47.5152 16.9238C47.3867 17.2606 47.2743 17.5815 47.194 17.9344C47.1458 18.1108 47.1136 18.2873 47.0815 18.4798C47.0654 18.6242 47.0494 18.7846 47.0494 18.929L47.0494 18.945C47.0494 18.961 47.0494 18.9771 47.0494 18.9931L47.0494 19.0092C47.0494 19.0252 47.0494 19.0412 47.0494 19.0573L47.0494 19.0733C47.0494 19.0894 47.0494 19.1054 47.0494 19.1215L47.0494 19.1375C47.0494 19.1535 47.0494 19.1696 47.0494 19.1856C47.0494 19.1856 47.0494 19.1856 47.0494 19.2017C47.0494 19.2177 47.0494 19.2337 47.0494 19.2658C47.0494 19.2819 47.0494 19.314 47.0494 19.33C47.0494 19.8754 46.5835 20.3406 46.0373 20.3406C45.4911 20.3406 45.0413 19.8914 45.0253 19.33C45.0253 18.56 45.1217 17.774 45.3466 17.02L45.3466 17.004C45.3947 16.8436 45.4429 16.6671 45.5072 16.5067C45.6357 16.1698 45.7803 15.833 45.957 15.5282C46.0855 15.2876 46.2301 15.0309 46.3907 14.8063C46.6317 14.4534 46.9048 14.1005 47.21 13.7957C47.2422 13.7636 47.2743 13.7155 47.3064 13.6834C47.4028 13.5872 47.4992 13.4909 47.6116 13.3947C47.9329 13.0899 48.2863 12.8172 48.6558 12.5766C48.8968 12.4162 49.1377 12.2718 49.3948 12.1595C49.5072 12.0953 49.6197 12.0472 49.7482 11.9991C49.7964 11.983 49.8446 11.9509 49.8928 11.9349C50.3105 11.7585 50.7442 11.6141 51.194 11.5018C51.3386 11.4697 51.4832 11.4376 51.6438 11.4055C51.9812 11.3414 52.3346 11.3093 52.688 11.2933C52.704 11.2933 52.7362 11.2933 52.7522 11.2933C52.8486 11.2933 52.9611 11.2933 53.0575 11.2933C53.202 11.213 53.3306 11.213 53.4591 11.2291L53.4591 11.2291Z" fill="#AAAAAA"/>
</svg>
