<svg width="174" height="53" viewBox="0 0 174 53" fill="none" xmlns="http://www.w3.org/2000/svg">
<g clip-path="url(#clip0_739_64)">
<path d="M119.568 36.1104C119.844 35.3925 120.339 33.97 120.69 32.1684C124.263 32.1417 127.814 32.1791 130.315 32.3552C130.315 32.3552 130.972 32.47 131.086 31.8935C131.086 31.8935 131.278 29.6516 131.818 27.9488C131.818 27.9488 131.951 27.5511 131.666 27.5031C131.666 27.5031 131.334 27.407 131.11 27.8714C131.11 27.8714 130.139 29.5448 128.341 29.5448C127.588 29.5448 124.447 29.5582 121.042 29.5742C121.132 28.3705 121.121 27.0894 120.935 25.795C120.935 25.795 120.525 22.4881 118.427 18.9571C122.725 12.7625 127.793 5.54831 130.318 2.25749C130.318 2.25749 130.804 1.83313 130.743 1.43546C130.743 1.43546 130.682 1.10184 129.836 1.16055C129.836 1.16055 119.866 1.70769 111.835 1.31268C111.835 1.31268 111.26 1.16055 111.199 1.67833C111.199 1.67833 110.776 4.47539 110.441 5.56966C110.441 5.56966 110.369 6.02071 110.587 6.10078C110.587 6.10078 110.97 6.10078 111.079 5.7725C111.079 5.7725 111.843 4.13109 114.407 4.07505H126.74C126.74 4.07505 122.864 9.86133 117.456 17.4838C115.12 14.2998 111.265 11.2812 104.958 10.6834V5.35614C104.958 5.35614 104.958 2.3856 107.208 1.96925C107.208 1.96925 107.74 1.79043 107.74 1.49417C107.74 1.49417 107.858 1.07782 106.969 1.13653C106.969 1.13653 105.075 1.61161 101.047 1.13653C100.162 1.07782 100.279 1.49417 100.279 1.49417C100.279 1.79043 100.811 1.96925 100.811 1.96925C103.061 2.38293 102.941 5.53229 102.941 5.53229L102.965 10.5793C100.92 10.59 96.0515 10.9796 91.5265 14.0516L80.3803 1.2513C79.4705 1.37407 75.9563 1.2513 75.9563 1.2513C75.2301 1.1312 75.1716 1.4915 75.1716 1.4915C75.1716 1.4915 75.1716 1.90786 75.7036 1.96658C75.7036 1.96658 78.3665 2.38293 78.3665 5.05722V28.1677C78.3665 28.1677 77.893 31.317 75.6424 31.7307C75.6424 31.7307 75.1104 31.9095 75.1104 32.2058C75.1104 32.2058 74.9907 32.6221 75.8792 32.5634C75.8792 32.5634 78.2494 32.0883 82.2743 32.5634C83.1628 32.6221 83.0431 32.2058 83.0431 32.2058C83.0431 31.9095 82.5111 31.7307 82.5111 31.7307C80.2605 31.3143 80.3803 28.1677 80.3803 28.1677V6.78136L88.9594 16.16C87.7303 17.3764 86.6668 18.7503 85.7964 20.2462C85.7964 20.2462 85.4878 20.6999 85.7991 20.8601C85.7991 20.8601 86.1981 21.0923 86.52 20.5772C86.52 20.5772 87.4724 18.789 89.5367 16.7899L104.136 32.7502C104.136 32.7502 104.463 33.1266 104.74 33.1079C104.74 33.1079 104.955 33.1346 104.955 32.446V11.4547C110.97 11.9725 114.718 14.959 116.982 18.1484C113.668 22.8187 110.281 27.4357 106.82 31.9976C106.82 31.9976 106.599 32.2431 106.695 32.3819C106.791 32.5207 107.054 32.4833 107.139 32.4833C107.192 32.4833 113.391 32.2378 119.797 32.1737C119.541 33.5314 119.123 34.8531 118.552 36.1104H0.0419922V46.0069H60.5378C63.3868 47.5522 74.4028 52.9355 89.6192 52.9916C102.675 53.2531 110.116 48.0033 112.446 46.0069H173.961V36.1104H119.568Z" fill="#AAAAAA"/>
<path d="M168.893 3.68315C169.907 3.68315 170.729 2.85865 170.729 1.84158C170.729 0.824501 169.907 0 168.893 0C167.879 0 167.058 0.824501 167.058 1.84158C167.058 2.85865 167.879 3.68315 168.893 3.68315Z" fill="#AAAAAA"/>
<path d="M22.5334 1.49573C22.5334 1.49573 22.5334 1.91209 23.0681 1.9708C23.0681 1.9708 25.1404 2.38716 25.1404 5.06145V28.1719C25.1404 28.1719 25.2575 31.3212 23.0096 31.7349C23.0096 31.7349 22.4776 31.9137 22.4776 32.21C22.4776 32.21 22.3579 32.6264 23.2464 32.5676C23.2464 32.5676 26.3242 32.0926 30.3518 32.5676C31.2403 32.6264 31.1232 32.21 31.1232 32.21C31.1232 31.9137 30.5912 31.7349 30.5912 31.7349C28.3407 31.3186 28.4604 28.1719 28.4604 28.1719V5.06145C28.4604 5.06145 28.2343 2.76081 30.5566 2.76081H33.3099C33.3099 2.76081 37.8908 3.03838 38.3244 7.97861C38.758 12.9162 30.2773 15.7719 30.2773 15.7719C30.2773 15.7719 37.271 27.7902 47.268 36.7018L47.4489 36.8647L51.5696 36.7979C51.5696 36.7979 47.5766 34.1877 46.9887 32.0766C46.9887 32.0766 46.4939 30.5553 47.7017 28.2573L51.9128 18.9106C51.9128 18.9106 52.1309 18.0112 53.6153 18.0112C53.6153 18.0112 60.178 17.9498 62.3434 18.0432C62.3434 18.0432 63.2719 17.8564 63.7693 19.1909L68.1321 29.0953C68.1321 29.0953 69.1536 31.1451 67.6984 31.5187L66.7062 31.8283C66.7062 31.8283 66.3338 31.9218 66.3949 32.2314C66.3949 32.2314 66.488 32.5436 66.9217 32.5116C66.9217 32.5116 71.843 32.17 73.8249 32.5116C73.8249 32.5116 74.6602 32.7278 74.7214 32.2927C74.7826 31.8577 74.349 31.7349 73.8568 31.5775C73.8568 31.5775 72.7715 31.4227 71.843 29.6211L59.2416 0.801803C59.2416 0.801803 59.1246 0.489536 58.9171 0.492205C58.7256 0.494873 58.5872 0.665686 58.5074 0.83383C58.5074 0.83383 46.7786 26.4504 45.0308 29.05C45.0308 29.05 44.6823 29.6959 44.4243 29.6905C44.1317 29.6825 43.8151 29.2208 43.6555 29.0259C43.6555 29.0259 37.1114 21.0324 34.1399 15.9668C34.1399 15.9668 41.8705 13.0336 41.6204 6.92437C41.365 0.727072 35.1428 0.855182 33.012 1.02599C33.012 1.02599 24.1907 1.28221 23.6374 1.19681C23.6427 1.19681 22.5361 0.980622 22.5334 1.49573ZM21.0171 1.76529C20.4319 0.492205 17.3647 0.956602 17.3647 0.956602C12.2597 1.33025 1.92215 1.36228 1.3635 1.20481C0.80752 1.05001 0.802199 1.49573 0.802199 1.49573C0.802199 1.49573 0.802199 1.91209 1.33424 1.9708C1.33424 1.9708 3.40654 2.38716 3.40654 5.06145V28.1719C3.40654 28.1719 3.52359 31.3212 1.27572 31.7349C1.27572 31.7349 0.743675 31.9137 0.743675 32.21C0.743675 32.21 0.623965 32.6264 1.51247 32.5676C1.51247 32.5676 4.59033 32.0926 8.61789 32.5676C9.5064 32.6264 9.38935 32.21 9.38935 32.21C9.38935 31.9137 8.85465 31.7349 8.85465 31.7349C6.60411 31.3186 6.72382 28.1719 6.72382 28.1719V18.9854C6.91802 16.9249 7.7081 17.1358 7.7081 17.1358H18.0164C18.8198 17.1358 18.8517 16.8582 18.8517 16.8582L19.2853 15.5851C19.4715 15.0887 18.9448 15.1207 18.9448 15.1207H7.89431C7.11487 15.1207 6.82491 14.7818 6.72382 14.4642V5.06145C6.79033 3.20119 8.2029 3.28659 8.2029 3.28659C13.4329 2.6327 17.9526 3.06774 17.9526 3.06774C19.6551 3.16115 19.7189 4.31147 19.7189 4.31147C19.7189 4.83725 20.1525 4.93067 20.1525 4.93067C20.5223 4.9627 20.6154 4.40488 20.6154 4.40488C21.3576 2.50993 21.0171 1.76529 21.0171 1.76529Z" fill="#AAAAAA"/>
<path d="M173.062 31.5748C173.062 31.5748 171.979 31.42 171.051 29.6185L158.452 0.801803C158.452 0.801803 158.335 0.489536 158.127 0.492205C157.938 0.494873 157.8 0.665686 157.72 0.83383C157.72 0.83383 145.885 27.3392 144.14 29.9387C144.14 29.9387 143.353 31.3319 142.033 31.7082C139.897 31.2118 140.011 28.1692 140.011 28.1692V5.06145C140.011 2.38716 142.084 1.9708 142.084 1.9708C142.688 1.90942 142.616 1.49573 142.616 1.49573C142.547 1.03133 141.669 1.22883 141.669 1.22883C140.413 1.34894 136.138 1.41566 135.05 1.19414C133.962 0.972615 134.09 1.49573 134.09 1.49573C134.09 1.49573 134.09 1.91209 134.622 1.9708C134.622 1.9708 136.694 2.38716 136.694 5.06145V28.1719C136.694 28.1719 136.811 31.3212 134.563 31.7349C134.563 31.7349 134.029 31.9137 134.029 32.21C134.029 32.21 133.911 32.6264 134.8 32.5676L147.354 32.4022C148.875 32.5703 148.665 32.1059 148.665 32.1059C148.708 31.8097 147.734 31.6388 147.734 31.6388C145.914 31.2999 146.76 29.3889 146.76 29.3889L151.118 18.9053C151.118 18.9053 151.336 18.0059 152.82 18.0059C152.82 18.0059 159.383 17.9445 161.548 18.0379C161.548 18.0379 162.477 17.8511 162.972 19.1855L167.337 29.09C167.337 29.09 168.358 31.1398 166.903 31.5134L165.914 31.823C165.914 31.823 165.541 31.9164 165.603 32.226C165.603 32.226 165.696 32.5383 166.129 32.5063C166.129 32.5063 171.051 32.1646 173.032 32.5063C173.032 32.5063 173.868 32.7224 173.929 32.2874C173.99 31.855 173.557 31.7323 173.062 31.5748Z" fill="#AAAAAA"/>
<path d="M169.185 1.92207C169.55 1.91139 169.832 1.75926 169.832 1.35892C169.832 1.01996 169.648 0.814453 169.105 0.814453H168.209V2.87221H168.459V1.92207H168.919L169.507 2.86954H169.808L169.185 1.92207Z" fill="#AAAAAA"/>
<path d="M6.80469 41.4242L7.20638 40.0391L7.65861 41.4242H6.80469Z" fill="#AAAAAA"/>
<path d="M46.9805 41.4242L47.3822 40.0391L47.8344 41.4242H46.9805Z" fill="#AAAAAA"/>
<path d="M29.2487 39.3785C29.2487 39.3785 28.9481 39.3278 28.9481 39.9523V41.0626C28.9481 41.0626 28.9135 41.2974 29.2833 41.2654C29.2833 41.2654 30.3926 41.3828 30.2889 40.3046C30.1851 39.2263 29.2487 39.3785 29.2487 39.3785Z" fill="#AAAAAA"/>
<path d="M68.1348 39.4073V40.982H68.6136C68.6136 40.982 69.2467 40.9713 69.2228 40.1253C69.1988 39.2792 68.1348 39.4073 68.1348 39.4073ZM68.1587 41.2889V42.909C68.1587 42.909 68.5444 43.1785 69.0366 43.1545C69.5287 43.1305 69.5048 42.191 69.5048 42.191C69.5048 42.191 69.5739 41.3103 68.5205 41.2729L68.1587 41.2889Z" fill="#AAAAAA"/>
</g>
<defs>
<clipPath id="clip0_739_64">
<rect width="174" height="53" fill="white"/>
</clipPath>
</defs>
</svg>
