<svg width="143" height="83" viewBox="0 0 143 83" fill="none" xmlns="http://www.w3.org/2000/svg">
<path d="M124.983 0.444103C127.017 0.865431 128.015 1.24121 129.183 1.99277C130.688 2.9436 131.264 3.16566 131.617 2.87528C131.794 2.72155 131.948 2.36855 131.948 2.10095C131.948 1.81627 132.193 1.37216 132.523 1.12734C133.076 0.683235 133.407 0.666154 137.408 0.666154C139.773 0.666154 141.876 0.757252 142.093 0.888206C143.05 1.37216 143.096 1.90167 142.919 13.2092C142.588 38.6312 142.566 38.7223 142.081 39.1437C141.682 39.4967 141.084 39.5422 136.906 39.5422C133.236 39.5422 131.976 39.4739 131.378 39.212L130.602 38.9045L130.648 27.4376L130.671 15.9706L130.118 14.8888C129.366 13.4313 128.591 12.748 126.824 12.0591C124.481 11.131 123.398 11.3531 122.224 12.9872C121.848 13.5167 121.21 14.0917 120.811 14.2454C119.397 14.8433 119.374 14.9515 119.306 27.3237L119.238 38.432L118.73 38.9159C118.269 39.3999 118.024 39.4227 114.53 39.491C111.105 39.5593 107.787 39.3145 107.457 38.9842C107.366 38.8932 107.303 33.86 107.303 27.7621C107.303 18.7719 107.235 16.4774 106.972 15.6802C106.328 13.6476 105.069 12.3666 103.102 11.7687C100.407 10.9318 97.7507 12.0762 96.6678 14.5301L96.1149 15.7884L95.9611 27.2326C95.8072 38.3409 95.7844 38.6996 95.3626 39.007C94.7642 39.4511 84.8129 39.3828 84.374 38.9159C84.1518 38.6939 84.0891 36.6385 84.0663 29.3051C84.0435 18.5498 84.2429 12.6057 84.7103 10.6642C85.4398 7.61807 87.7595 4.03678 89.9481 2.57921C92.1025 1.15011 95.9497 0 98.56 0C99.9108 0 103.427 0.774333 104.373 1.25829C106.716 2.44826 107.337 2.84681 108.751 4.12788C109.594 4.90221 110.369 5.52282 110.478 5.52282C110.723 5.52282 111.475 4.90221 112.866 3.58129C113.487 2.98346 114.37 2.30022 114.809 2.07817C115.248 1.85612 115.983 1.45757 116.428 1.23552C118.548 0.130953 122.019 -0.176502 124.983 0.444103ZM64.6197 0.307456C65.2181 0.483958 66.0787 0.66046 66.5005 0.751558C67.6518 0.950835 71.7611 3.06886 73.2658 4.24175C76.7823 6.95761 79.1704 10.6015 80.5212 15.2874C81.0284 17.0296 81.0512 23.0193 80.544 24.2093C80.3673 24.6534 80.2134 25.2455 80.2134 25.5131C80.2134 25.7978 80.0823 26.3102 79.9056 26.6632C79.729 26.9935 79.2616 27.9671 78.8683 28.8268C76.5715 33.6664 71.573 37.7943 66.2896 39.2063C63.2176 40.0433 58.487 40.1116 56.0078 39.3828C52.799 38.4092 50.901 37.595 49.9036 36.7523C49.7269 36.5758 49.442 36.4449 49.3052 36.4449C49.1684 36.4449 48.1539 35.5852 47.0482 34.5204C44.4606 32.0665 43.07 30.0566 41.8731 27.0789C40.7446 24.2491 40.1689 19.8537 40.6363 17.5591C40.7902 16.8304 40.9897 15.7941 41.0808 15.2418C41.2347 14.3365 41.7249 12.9245 42.386 11.484C44.1301 7.66362 47.9145 3.82042 51.6933 2.04971C53.9047 1.01347 54.2352 0.899593 56.3611 0.438409C58.6523 -0.0683235 62.8756 -0.130953 64.6197 0.307456ZM57.1021 12.3893C56.4808 12.6569 55.4207 13.4483 54.6456 14.2227C52.8332 16.056 52.2575 17.5364 52.3886 20.2522C52.5197 23.3666 53.7622 25.422 56.4808 26.965C60.043 29.0204 64.7052 28.2005 67.116 25.1317C68.6834 23.1218 68.9741 22.3019 68.9741 19.8764C68.9741 18.2879 68.8829 17.5591 68.5751 16.893C67.4466 14.4846 65.5886 12.8277 62.9611 11.8997C61.9238 11.5524 58.316 11.837 57.1021 12.3893ZM22.056 0.882512C22.3011 1.12734 22.4778 1.48034 22.4094 1.6113C22.3011 1.89598 21.9876 2.93791 21.5032 4.74848C20.7508 7.44157 20.0669 11.8143 19.8446 15.2418C19.4685 20.6337 19.8446 26.7259 20.842 31.3662C21.7026 35.4542 21.9249 36.405 22.2156 37.2192C22.5234 38.079 22.5234 38.1017 21.9477 38.5914C21.2866 39.1892 20.7337 39.2348 19.8674 38.7679C19.0695 38.3693 18.3856 36.536 17.8555 33.359C17.7472 32.8067 17.5705 31.7704 17.4337 31.0416C15.9519 22.803 16.2597 11.8484 18.2089 4.75418C19.3146 0.711703 19.269 0.757252 20.6654 0.535201C21.412 0.421328 21.6343 0.461184 22.056 0.882512ZM12.9255 0.597831C13.3244 0.728784 13.3016 2.87528 12.9027 5.14704C11.9736 10.3795 11.797 12.6342 11.8198 19.5462C11.8198 26.3956 11.9509 28.0923 12.8799 34.1276C13.4783 37.9252 13.4783 38.1701 12.9711 38.6768C11.9965 39.6504 10.2752 38.6085 10.0073 36.9345C9.93895 36.4904 9.78505 35.5225 9.65396 34.8165C9.52287 34.1105 9.34619 32.522 9.23221 31.2808C9.11821 30.0396 8.92444 28.098 8.81046 26.9536C8.2804 21.9603 8.61096 11.4897 9.49438 5.85874C9.62547 4.999 9.80215 3.75779 9.89336 3.09733C10.1783 0.956529 10.6457 0.427022 12.1047 0.466877C12.4125 0.461184 12.7887 0.529507 12.9255 0.597831ZM3.45863 0.859737L3.9203 1.32092V37.7886L3.36746 38.3181C2.74622 38.9615 2.17625 39.0013 1.26434 38.5401L0.60321 38.1871V19.7056C0.60321 9.54252 0.694397 1.08748 0.802689 0.905286C0.91098 0.751558 1.44673 0.575056 1.99388 0.506733C2.7975 0.421328 3.08247 0.483958 3.45863 0.859737Z" fill="#AAAAAA"/>
<path d="M43.5715 0.819578C43.9248 1.14981 43.6627 1.67932 42.7507 2.54475C40.2544 4.95315 37.7751 8.9273 36.8233 12.1556C35.672 15.9305 35.6492 16.1297 35.672 19.9957C35.6948 23.93 35.8943 25.1427 37.1083 28.2799C37.3309 28.8365 37.5231 29.4048 37.6839 29.9823C37.7523 30.2499 37.929 30.6029 38.1057 30.7339C38.2824 30.8648 38.4135 31.1097 38.4135 31.2634C38.4135 31.3943 38.6984 31.9466 39.0746 32.4363C39.428 32.943 39.7357 33.4099 39.7357 33.4953C39.7357 33.6946 41.6166 36.0346 42.6995 37.1848C43.2523 37.7826 43.714 38.3349 43.714 38.4203C43.714 39.1718 40.9497 39.3939 39.9352 38.705C39.3368 38.3064 37.0855 35.7898 37.0855 35.5222C37.0855 35.4311 36.8404 34.9927 36.5326 34.5486C35.0736 32.385 33.5233 28.4963 32.771 25.0516C32.3093 22.8881 32.3093 16.9667 32.7938 14.6494C33.2383 12.4858 33.985 9.96923 34.23 9.80981C34.3383 9.74149 34.4295 9.54221 34.4295 9.36571C34.4295 8.35224 37.5243 3.38171 39.2285 1.65654L40.2259 0.660156H41.816C42.7052 0.660156 43.5031 0.72848 43.5715 0.819578ZM31.6311 0.819578C31.9161 1.10426 31.785 1.70209 30.8104 3.97954C29.7047 6.64985 29.1062 8.55152 28.1145 12.816C27.5389 15.2472 27.5161 24.1236 28.0917 26.5092C28.6446 28.8265 28.9295 30.0222 29.129 30.9275C29.3741 31.9409 29.6591 32.7836 30.8332 35.5678C31.3632 36.8488 31.785 38.0616 31.785 38.2609C31.785 39.0807 29.8813 39.411 28.9352 38.7448C28.2057 38.2153 27.3679 36.251 26.1026 32.032C25.9259 31.3716 25.6181 30.3752 25.4585 29.8457C25.2819 29.2934 25.1508 28.5874 25.1508 28.2572C25.1508 27.9269 24.9969 26.9078 24.8202 26.0253C24.3358 23.7478 24.3358 16.1981 24.8202 13.1691C25.3959 9.63331 26.2337 6.6954 27.6927 3.05148C28.5534 0.973306 28.8839 0.66585 30.3259 0.66585C30.9642 0.660156 31.5627 0.72848 31.6311 0.819578ZM25.0425 42.9866C26.986 43.294 29.9953 44.4669 32.4917 45.9017C35.1249 47.4048 38.2197 50.6502 39.5021 53.2351C39.7699 53.7874 40.0777 54.3852 40.1632 54.5617C40.3855 54.9603 40.8471 56.173 41.4228 57.8754C41.9756 59.6006 41.9984 66.0059 41.4228 67.9246C40.1632 72.1436 37.8435 75.8331 34.8342 78.3269C32.7767 80.0293 29.4596 81.8171 27.6244 82.1701C27.0129 82.2867 26.408 82.435 25.8119 82.6142C25.3902 82.7224 23.7088 82.8363 22.0959 82.8363C18.4938 82.8363 16.5902 82.4377 14.0254 81.1566C13.3415 80.8264 12.9197 80.9346 12.2358 81.7089C11.8368 82.153 11.6145 82.1701 6.68449 82.1701C1.62337 82.1701 1.55498 82.1701 1.08762 81.6634L0.603165 81.1566V44.2449L1.11041 43.7837C1.59486 43.3225 1.81714 43.2997 6.10884 43.2997C10.8622 43.2997 12.1674 43.499 12.5891 44.2506C12.7658 44.6036 12.9653 44.6491 13.7176 44.5352C14.2249 44.4441 14.7321 44.2904 14.8689 44.1822C14.9772 44.0911 15.6897 43.7837 16.4192 43.5218C17.5021 43.1232 18.3456 43.0378 21.0643 42.9695C22.871 42.9182 24.6663 42.941 25.0425 42.9866ZM17.1259 55.0684C15.7979 55.7745 13.2104 58.291 13.2104 58.9116C13.2104 59.0881 13.0565 59.5322 12.857 59.908C12.5891 60.4148 12.4809 61.2119 12.4809 62.8459C12.4809 64.9013 12.5492 65.1632 13.2332 66.581C13.9399 68.0385 15.9974 70.2477 16.6586 70.2477C16.7897 70.2477 17.0347 70.4014 17.1886 70.5779C17.3425 70.7544 17.6731 70.9081 17.9409 70.9081C18.186 70.9081 18.6933 71.0618 19.0466 71.2383C20.2378 71.8589 23.6461 71.5458 25.1508 70.6633C25.3275 70.5551 25.6808 70.3786 25.9259 70.2647C26.986 69.7808 28.7984 67.6571 29.3114 66.2906C30.1492 64.0587 30.1321 61.32 29.2202 59.2874C28.2228 57.01 25.4585 54.6927 23.27 54.3169C22.7855 54.2258 21.5031 54.2087 20.4202 54.2713C18.7845 54.3624 18.2316 54.4934 17.1259 55.0684ZM50.9352 43.7381C51.4196 43.9374 52.3487 45.3039 52.3487 45.8391C52.3487 45.9928 52.4798 46.4141 52.6564 46.7671C53.2321 47.9172 53.6709 49.0617 53.6709 49.3748C53.6709 49.705 54.1326 50.8779 54.6854 51.9597C54.8621 52.2672 54.9932 52.6885 54.9932 52.8878C54.9932 53.0643 55.1243 53.5482 55.301 53.9468C55.4777 54.3454 55.7854 55.1197 55.9849 55.672C56.1844 56.2242 56.4922 56.953 56.6461 57.3288C56.9538 58.0804 57.5523 59.6063 57.974 60.7507C58.1279 61.172 58.3958 61.9236 58.5725 62.4075C59.0797 63.7797 59.4331 64.7704 59.6554 65.5219C59.7637 65.8977 60.0543 66.3817 60.2766 66.581C60.6756 66.934 60.7212 66.934 61.1144 66.3361C61.3595 66.0059 61.6217 65.5162 61.6901 65.2771C61.7585 65.038 62.0207 64.2807 62.2885 63.6203C62.5564 62.9598 62.8414 62.1627 62.9497 61.8552C63.0409 61.5478 63.3714 60.7279 63.702 59.9991C64.0098 59.2931 64.2777 58.5415 64.2777 58.3423C64.2777 58.143 64.4315 57.79 64.6082 57.5679C64.7849 57.3231 64.9388 56.9473 64.9388 56.731C64.9388 56.5317 65.0927 55.9794 65.2922 55.5182C65.4916 55.0571 65.7766 54.3681 65.9362 54.0151C66.0901 53.6393 66.3808 52.9789 66.5802 52.512C66.7797 52.0451 66.9336 51.5384 66.9336 51.3847C66.9336 51.2309 67.2414 50.3484 67.6175 49.4602C67.9937 48.5549 68.4383 47.4504 68.615 46.9835C69.2989 45.1729 69.675 44.3986 70.0284 44.0684C70.359 43.7837 71.2025 43.7381 75.9958 43.7837C82.4989 43.852 82.2994 43.7837 81.6553 45.8163C81.4331 46.4995 81.1709 47.0974 81.0569 47.1885C80.9486 47.2568 80.8574 47.4959 80.8574 47.718C80.8574 47.94 80.7263 48.4012 80.5496 48.7542C80.1507 49.5513 79.7517 50.5192 78.8683 52.6885C78.4693 53.6621 77.8538 55.0741 77.5175 55.8485C77.1642 56.6 76.8735 57.3288 76.8735 57.4598C76.8735 57.5907 76.7424 57.9665 76.5657 58.2796C76.389 58.6099 75.9445 59.629 75.5911 60.5343C75.2377 61.4396 74.7077 62.7434 74.4398 63.4039C74.1719 64.0644 73.8642 64.7077 73.7559 64.8159C73.6318 64.9912 73.5624 65.1992 73.5564 65.4138C73.5564 65.6358 73.4025 66.097 73.2258 66.4728C73.0491 66.8485 72.7414 67.4692 72.5647 67.8449C72.388 68.2207 72.2341 68.6648 72.2341 68.8185C72.2341 68.9723 72.0574 69.4392 71.858 69.8548C71.6585 70.2533 71.3735 70.8512 71.1968 71.1814C71.0429 71.4889 70.9118 71.933 70.9118 72.1322C70.9118 72.3315 70.7808 72.7756 70.6041 73.0831C70.2051 73.8574 69.7206 74.9847 69.2533 76.2203C69.031 76.7725 68.7232 77.5469 68.5466 77.9227C68.3927 78.3212 68.102 78.9589 67.9481 79.3575C66.8652 81.9879 66.7569 82.1644 66.0046 82.2954C65.6056 82.3637 63.0181 82.4035 60.2538 82.3637C54.4176 82.2954 54.8165 82.4548 53.7336 79.756C53.3575 78.8507 52.5823 76.949 52.0067 75.5598C51.431 74.1706 50.8155 72.6219 50.616 72.1379C50.4393 71.654 50.0404 70.7487 49.7554 70.1053C49.4875 69.4847 49.2481 68.8926 49.2481 68.8242C49.2481 68.6933 47.6352 64.759 46.7062 62.641C45.8228 60.6083 45.0476 58.6896 45.0476 58.5302C45.0476 58.3081 43.8963 55.7232 43.3663 54.7553C43.1896 54.4478 43.0585 54.0493 43.0585 53.9183C43.0585 53.6735 42.1979 51.5099 40.3855 47.1828C39.5021 45.0647 39.3482 44.0911 39.8782 43.8008C40.3855 43.5161 50.2683 43.4705 50.9352 43.7381ZM138.097 44.4669C138.228 44.6206 138.582 45.4804 138.895 46.3914C139.18 47.2966 139.647 48.6005 139.91 49.2609C140.172 49.9214 140.462 50.7641 140.571 51.0943C140.679 51.4245 141.078 52.0907 141.454 52.5746C142.537 53.9468 142.338 54.2315 140.348 54.2315C139.442 54.2315 137.675 54.0777 136.433 53.924C134.529 53.6564 134.022 53.6564 133.27 53.9012C132.563 54.1461 132.318 54.1461 132.096 53.924C131.896 53.702 132.05 53.218 132.916 51.5839C134.022 49.4431 134.843 48.4468 135.236 48.7144C135.612 48.9364 135.521 49.5115 135.037 50.3257C134.529 51.1455 134.461 51.7604 134.86 52.0679C135.014 52.1761 135.857 52.3981 136.741 52.5519C137.955 52.7739 138.445 52.7739 138.798 52.5746C139.419 52.2444 139.328 51.6693 138.245 48.7087C137.248 45.9928 137.009 45.0647 137.162 44.558C137.299 44.1139 137.767 44.0684 138.097 44.4669ZM92.2165 44.5523C92.5014 44.837 92.3703 45.5487 91.732 46.9152C91.1336 48.1507 89.9424 51.379 89.5206 52.7682C89.4294 53.0529 89.1672 53.4515 88.8994 53.6052C88.4776 53.8899 88.4149 53.8728 88.2781 53.4742C88.147 53.013 89.3154 48.9876 90.0051 47.5984C90.1818 47.2226 90.6035 46.3629 90.9341 45.6569C91.4641 44.484 91.8403 44.1765 92.2165 44.5523ZM95.4196 44.9964C95.5279 45.2185 95.7957 46.1465 95.9952 47.0518C96.3942 48.777 97.3232 51.3391 97.762 51.9142C97.9159 52.0907 98.1382 52.512 98.2921 52.8422C98.4916 53.3034 98.4688 53.4856 98.2009 53.702C97.7392 54.1005 97.1408 53.4571 96.2574 51.601C95.3284 49.5912 94.7983 47.7351 94.7299 46.0782C94.69 44.7288 95.0263 44.2221 95.4196 44.9964ZM89.4978 45.0192C89.4978 45.2412 89.4294 45.5032 89.3439 45.5715C89.1216 45.8163 88.6372 45.2868 88.7683 44.9281C88.945 44.484 89.4978 44.5523 89.4978 45.0192ZM87.3947 44.8199C87.5714 45.1501 87.3263 45.5032 86.933 45.5032C86.7336 45.5032 86.6253 45.3494 86.6652 45.1274C86.7564 44.6833 87.1952 44.5068 87.3947 44.8199ZM122.464 48.5492C127.661 48.5948 128.853 48.6574 129.075 48.925C129.206 49.1015 129.274 49.3463 129.183 49.4773C129.092 49.631 124.692 49.6994 115.561 49.6994C103.536 49.6994 102.071 49.6538 101.94 49.3463C101.632 48.5492 102.139 48.4866 109.235 48.4866C113.042 48.4866 118.993 48.5094 122.464 48.5492Z" fill="#AAAAAA"/>
</svg>
