<svg width="16" height="20" viewBox="0 0 16 20" fill="none" xmlns="http://www.w3.org/2000/svg">
<path d="M13.1636 9.5454V5.21884C13.1619 4.05898 12.6891 2.94714 11.8488 2.12728C11.0086 1.30743 9.86956 0.846524 8.68169 0.845703H6.75792C5.57061 0.847346 4.4324 1.30861 3.59284 2.12838C2.75328 2.94815 2.28088 4.05952 2.2792 5.21884V9.5454C0.980255 10.3853 0.182129 11.8042 0.182129 14.1483C0.182129 18.9608 3.55747 19.9403 7.7214 19.9403C11.8853 19.9403 15.2607 18.967 15.2607 14.1483C15.2607 11.8088 14.4625 10.3853 13.1636 9.5454ZM8.56563 15.738C8.56563 15.9566 8.47668 16.1663 8.31836 16.3209C8.16003 16.4754 7.9453 16.5623 7.7214 16.5623C7.49749 16.5623 7.28276 16.4754 7.12443 16.3209C6.96611 16.1663 6.87716 15.9566 6.87716 15.738V14.4603C6.87716 14.2417 6.96611 14.032 7.12443 13.8774C7.28276 13.7228 7.49749 13.636 7.7214 13.636C7.9453 13.636 8.16003 13.7228 8.31836 13.8774C8.47668 14.032 8.56563 14.2417 8.56563 14.4603V15.738ZM11.4147 8.8018C10.324 8.5115 9.06327 8.4168 7.7214 8.4168C6.37953 8.4168 5.11874 8.5115 4.02808 8.8018V5.21884C4.02892 4.51216 4.3168 3.83466 4.82856 3.33496C5.34032 2.83527 6.03418 2.55417 6.75792 2.55335H8.68169C9.40543 2.55417 10.0993 2.83527 10.6111 3.33496C11.1228 3.83466 11.4107 4.51216 11.4115 5.21884L11.4147 8.8018Z" fill="#DADADA"/>
</svg>
