<svg width="148" height="88" viewBox="0 0 148 88" fill="none" xmlns="http://www.w3.org/2000/svg">
<g clip-path="url(#clip0_739_60)">
<path fill-rule="evenodd" clip-rule="evenodd" d="M6.94531 40.5428V45.7006H11.4028C14.1311 45.7006 15.0873 46.3358 15.0873 48.7212V77.9762C15.0873 80.2921 14.1311 81.1809 11.4028 81.1809H6.94531V86.0068H32.6626V81.1809H29.1248C26.3987 81.1809 25.4414 80.2987 25.4414 77.974V64.9323H30.0081C34.9189 64.9323 38.5052 67.7091 38.7776 72.8912L39.2187 78.8595C39.4922 84.3151 43.1667 87.2607 49.6457 87.2607C56.5337 87.2607 58.1559 83.8894 58.1559 76.7962V73.0015H54.3237V75.3229C54.3237 78.1185 52.7015 79.5598 51.3406 79.5598C49.156 79.5598 49.0457 76.891 48.9145 75.3229V73.4481C48.9145 67.2173 46.0472 64.7625 42.4664 62.8734C49.1505 61.3052 53.5937 57.3065 53.5937 51.7836C53.5937 44.6221 48.6895 40.5472 39.9609 40.5472L6.94531 40.5428ZM94.787 41.1692V46.2156H98.3237C101.052 46.2156 102.008 47.0361 102.008 49.4225V63.9938V78.5651C102.008 80.881 101.052 81.7698 98.3237 81.7698H94.787V86.6332H137.821V66.6648H132.922C132.783 74.5057 132.853 81.697 123.304 81.697H112.399V49.4225C112.399 47.0361 113.357 46.2156 116.083 46.2156H120.177V41.1692H94.787ZM72.7757 17.9299C80.8261 17.9299 85.5229 23.9612 85.5229 35.685C85.5229 47.1431 80.7224 54.1811 72.3334 54.1811C64.1496 54.1811 59.4748 46.8663 59.4748 35.2064C59.4748 23.8167 64.3867 17.9277 72.7745 17.9277L72.7757 17.9299ZM25.4448 45.6642H32.5181C39.3378 45.6642 41.8025 47.8996 41.8025 52.3328C41.8025 56.9017 39.1305 59.0379 33.4025 59.0379H25.4448V45.6642Z" fill="#AAAAAA"/>
<path d="M68.4343 0.0771905C69.8114 0.0860129 71.1877 0.0602863 72.5632 0C74.4578 0.0683735 76.3525 0.102559 78.2471 0.205119C83.2717 0.486854 88.2673 1.15342 93.19 2.19897C110.159 5.80733 125.137 13.4111 138.289 24.6299C139.513 25.6742 140.67 26.7539 141.86 27.8335C142.15 28.0846 142.38 28.3983 142.531 28.751C142.634 28.9775 142.668 29.2291 142.628 29.4745C142.589 29.7199 142.479 29.9485 142.311 30.1318C142.145 30.3229 141.924 30.4575 141.678 30.5168C141.433 30.5761 141.174 30.5572 140.94 30.4626C140.629 30.3403 140.327 30.1962 140.037 30.0314C127.549 22.6251 113.94 17.2989 99.7428 14.2614C94.9736 13.249 90.1742 12.4771 85.3447 11.9455C78.4131 11.2141 71.4344 11.033 64.4742 11.404C60.7351 11.5941 57.008 11.9736 53.3073 12.541C44.6488 13.8086 36.1339 15.9138 27.8822 18.827C23.5497 20.3375 19.307 22.0942 15.1747 24.0884C14.5515 24.447 13.8165 24.5591 13.1147 24.4027C12.5659 24.2738 12.0903 23.9333 11.7914 23.4553C11.4926 22.9773 11.3946 22.4007 11.5189 21.8508C11.5581 21.6954 11.6128 21.5443 11.6821 21.3998C11.9445 20.8766 12.3251 20.4216 12.7938 20.0709C16.7039 16.8894 20.9182 14.1013 25.3756 11.747C33.8029 7.29459 42.8185 4.0588 52.1537 2.13612C57.5257 1.07373 62.9649 0.38576 68.4322 0.0771905H68.4343Z" fill="#AAAAAA"/>
</g>
<defs>
<clipPath id="clip0_739_60">
<rect width="147.986" height="87.26" fill="white"/>
</clipPath>
</defs>
</svg>
