<svg width="15" height="20" viewBox="0 0 15 20" fill="none" xmlns="http://www.w3.org/2000/svg">
<path d="M14.757 15.7544C14.757 19.4568 11.457 19.7876 7.3885 19.7876C3.32 19.7876 0.0200195 19.4568 0.0200195 15.7544C0.0200195 14.8742 0.21061 14.0026 0.580911 13.1893C0.951212 12.3761 1.49397 11.6372 2.1782 11.0147C2.86242 10.3923 3.67472 9.89858 4.5687 9.56172C5.46269 9.22487 6.42086 9.05149 7.3885 9.05149C8.35614 9.05149 9.31431 9.22487 10.2083 9.56172C11.1023 9.89858 11.9146 10.3923 12.5988 11.0147C13.283 11.6372 13.8258 12.3761 14.1961 13.1893C14.5664 14.0026 14.757 14.8742 14.757 15.7544Z" fill="#DADADA"/>
<path d="M7.38128 8.42579C9.82517 8.42579 11.8063 6.62356 11.8063 4.40039C11.8063 2.17723 9.82517 0.375 7.38128 0.375C4.93738 0.375 2.95621 2.17723 2.95621 4.40039C2.95621 6.62356 4.93738 8.42579 7.38128 8.42579Z" fill="#DADADA"/>
</svg>
