<svg width="1919" height="594" viewBox="0 0 1919 594" fill="none" xmlns="http://www.w3.org/2000/svg">
<g style="mix-blend-mode:multiply">
<path d="M1920 343.766C1878.74 342.461 1837.38 349.314 1796.46 356.049C1665.62 377.585 1534.19 397.921 1401.81 401.223C1278.46 404.303 1153.65 392.334 1035.41 353.412C923.712 316.63 820.576 255.388 718.192 196.705C642.992 153.632 567.36 110.898 487.616 77.928C333.6 14.3628 165.52 -10.7761 0.816 4.20804L0 4.28635V593.889H1920V343.766Z" fill="#7DBA58" fill-opacity="0.25"/>
</g>
<path d="M1919.76 394.301C1878.5 393.243 1837.15 398.729 1796.24 404.098C1665.41 421.301 1534 437.525 1401.63 440.163C1278.24 442.632 1153.46 433.07 1035.31 401.982C923.629 372.617 820.506 323.712 718.135 276.87C642.944 242.476 567.321 208.357 487.587 182.062C333.281 131.386 166.488 111.214 0.815899 123.19H0V594H1919.76V394.301Z" fill="#7DBA58" fill-opacity="0.5"/>
<path d="M1919.76 435.636C1878.5 434.802 1837.15 439.143 1796.24 443.458C1665.39 457.108 1534 469.911 1401.63 472.01C1278.31 473.953 1153.5 466.378 1035.28 441.738C923.597 418.453 820.474 379.667 718.103 342.524C642.912 315.25 567.29 288.184 487.555 267.338C333.559 227.065 165.499 211.147 0.815899 220.638H0V594H1919.76V435.636Z" fill="#7DBA58" fill-opacity="0.75"/>
</svg>
