<svg width="26" height="26" viewBox="0 0 26 26" fill="none" xmlns="http://www.w3.org/2000/svg">
<path d="M25.6961 24.1656L19.235 17.7045C20.9958 15.551 21.8615 12.8033 21.653 10.0295C21.4446 7.25566 20.1781 4.66808 18.1153 2.80194C16.0526 0.935793 13.3515 -0.0661365 10.5708 0.00339086C7.79002 0.0729182 5.14238 1.20858 3.17548 3.17548C1.20858 5.14238 0.0729182 7.79002 0.00339086 10.5708C-0.0661365 13.3515 0.935793 16.0526 2.80194 18.1153C4.66808 20.1781 7.25566 21.4446 10.0295 21.653C12.8033 21.8615 15.551 20.9958 17.7045 19.235L24.1656 25.6961C24.3697 25.8933 24.6432 26.0024 24.927 26C25.2108 25.9975 25.4823 25.8837 25.683 25.683C25.8837 25.4823 25.9975 25.2108 26 24.927C26.0024 24.6432 25.8933 24.3697 25.6961 24.1656ZM10.8591 19.5186C9.14639 19.5186 7.47215 19.0108 6.0481 18.0592C4.62404 17.1077 3.51413 15.7553 2.8587 14.173C2.20328 12.5906 2.0318 10.8495 2.36593 9.16969C2.70006 7.4899 3.5248 5.94692 4.73586 4.73586C5.94692 3.5248 7.4899 2.70006 9.16969 2.36593C10.8495 2.0318 12.5906 2.20328 14.173 2.8587C15.7553 3.51413 17.1077 4.62404 18.0592 6.0481C19.0108 7.47215 19.5186 9.14639 19.5186 10.8591C19.5161 13.155 18.6029 15.356 16.9795 16.9795C15.356 18.6029 13.155 19.5161 10.8591 19.5186Z" fill="#C8C8C8"/>
</svg>