<svg id="Camada_1" data-name="Camada 1" xmlns="http://www.w3.org/2000/svg" viewBox="0 0 98.96 58.06"><defs><style>.cls-1{fill:#2aa1db;}</style></defs><path class="cls-1" d="M207.18,171a5,5,0,0,1-1,3.12,4.4,4.4,0,0,1-2.78,1.67,9.93,9.93,0,0,1-1.73.11c-15.81,0-31.62.06-47.43,0-3.53,0-5.34,2.25-5.32,5.31,0,2.54,0,5.09,0,7.63a4.9,4.9,0,0,1-5.29,5.1,5.12,5.12,0,0,1-3.13-1.34l-21.9-17.44-8.16-6.5c-2.93-2.33-3-5.65,0-8q15.21-11.89,30.48-23.71a4.69,4.69,0,0,1,5.25-.56,4.6,4.6,0,0,1,2.75,4.41q0,3.76,0,7.53a5.94,5.94,0,0,0,.52,2.82,4,4,0,0,0,3.5,2.36c.42,0,.83,0,1.25,0,15.49,0,31,0,46.47,0,2.2,0,4,.39,5.28,1.74a5,5,0,0,1,1.24,3.43Z" transform="translate(-108.22 -135.85)"/></svg>