<svg width="28" height="31" viewBox="0 0 28 31" fill="none" xmlns="http://www.w3.org/2000/svg">
<path d="M15.8012 0.53633C15.2145 0.185434 14.5425 0 13.8574 0C13.1724 0 12.5003 0.185434 11.9136 0.53633L0 7.62633V22.3763L11.9136 29.4688C12.5005 29.8197 13.1728 30.0051 13.8581 30.0051C14.5433 30.0051 15.2156 29.8197 15.8025 29.4688L27.7148 22.3763V7.62633L15.8012 0.53633ZM13.2086 2.68008C13.4046 2.56328 13.6288 2.50157 13.8574 2.50157C14.086 2.50157 14.3103 2.56328 14.5062 2.68008L24.0061 8.33633L13.8574 14.3763L3.70875 8.33633L13.2086 2.68008ZM2.51953 20.9588V10.5438L12.5977 16.5438V26.9588L2.51953 20.9588ZM15.1172 26.9588V16.5438L25.1953 10.5438V20.9588L15.1172 26.9588Z" fill="white"/>
</svg>
