<svg width="33" height="30" viewBox="0 0 33 30" fill="none" xmlns="http://www.w3.org/2000/svg">
<path d="M32.7258 6.81787V8.18145C32.7258 8.93414 32.1163 9.54502 31.3622 9.54502C30.6082 9.54502 29.9986 8.93414 29.9986 8.18145V6.81787C29.9986 4.56252 28.1633 2.72715 25.9079 2.72715H6.81787C4.56252 2.72715 2.72715 4.56252 2.72715 6.81787V20.4536C2.72715 22.709 4.56252 24.5443 6.81787 24.5443H10.9086C11.6627 24.5443 12.2722 25.1552 12.2722 25.9079C12.2722 26.6606 11.6627 27.2715 10.9086 27.2715H6.81787C3.0585 27.2715 0 24.213 0 20.4536V6.81787C0 3.0585 3.0585 0 6.81787 0H25.9079C29.6673 0 32.7258 3.0585 32.7258 6.81787ZM20.4536 9.54502H25.9079C26.662 9.54502 27.2715 8.93414 27.2715 8.18145C27.2715 7.42875 26.662 6.81787 25.9079 6.81787H20.4536C19.6996 6.81787 19.09 7.42875 19.09 8.18145C19.09 8.93414 19.6996 9.54502 20.4536 9.54502ZM31.5272 13.4708C32.299 14.2425 32.7258 15.2707 32.7258 16.3629C32.7258 17.4551 32.299 18.4832 31.5272 19.2564L22.3817 28.4019C21.3522 29.4314 19.9818 30 18.5255 30H16.3629C15.6088 30 14.9993 29.3891 14.9993 28.6364V26.4738C14.9993 25.0175 15.5666 23.6471 16.5974 22.6176L25.7429 13.4721C27.3383 11.8767 29.9318 11.8767 31.5272 13.4721V13.4708ZM29.9986 16.3629C29.9986 15.9988 29.8568 15.6566 29.5991 15.3988C29.066 14.8657 28.2042 14.8671 27.671 15.3988L18.5255 24.5443C18.0183 25.053 17.7265 25.7552 17.7265 26.4724V27.2715H18.5255C19.2537 27.2715 19.9382 26.9879 20.4536 26.4724L29.5991 17.3269C29.8568 17.0692 29.9986 16.727 29.9986 16.3629ZM12.2722 17.7265H9.17958C8.69415 17.7265 8.24144 17.4647 7.99736 17.0447C7.62238 16.3915 6.78924 16.1665 6.13472 16.547C5.48293 16.9247 5.25931 17.7578 5.63838 18.4096C6.36653 19.6709 7.72465 20.4536 9.18095 20.4536H9.54638C9.54638 21.2063 10.1559 21.8172 10.91 21.8172C11.664 21.8172 12.2735 21.2063 12.2735 20.4536C14.5289 20.4536 16.3643 18.6182 16.3643 16.3629C16.3643 14.5084 15.0361 12.9403 13.2076 12.6362L9.06095 11.9449C8.55234 11.8604 8.18281 11.424 8.18281 10.9086C8.18281 10.1573 8.79369 9.54502 9.54638 9.54502H12.639C13.1244 9.54502 13.5771 9.80683 13.8212 10.2268C14.1962 10.8786 15.028 11.1022 15.6838 10.7245C16.3356 10.3468 16.5592 9.51366 16.1802 8.86187C15.452 7.60056 14.0939 6.81651 12.6376 6.81651H12.2722C12.2722 6.06382 11.6627 5.45293 10.9086 5.45293C10.1545 5.45293 9.54502 6.06382 9.54502 6.81651C7.28967 6.81651 5.4543 8.65188 5.4543 10.9072C5.4543 12.7617 6.78242 14.3298 8.61097 14.6339L12.7576 15.3252C13.2662 15.4098 13.6357 15.8461 13.6357 16.3615C13.6357 17.1129 13.0249 17.7251 12.2722 17.7251V17.7265ZM19.09 13.6357C19.09 14.3884 19.7009 14.9993 20.4536 14.9993C21.2063 14.9993 21.8172 14.3884 21.8172 13.6357C21.8172 12.8831 21.2063 12.2722 20.4536 12.2722C19.7009 12.2722 19.09 12.8831 19.09 13.6357Z" fill="white"/>
</svg>
