<svg width="31" height="30" viewBox="0 0 31 30" fill="none" xmlns="http://www.w3.org/2000/svg">
<path d="M28.9746 27.5H3.7793C3.44519 27.5 3.12476 27.3683 2.88851 27.1339C2.65226 26.8995 2.51953 26.5815 2.51953 26.25V1.25C2.51953 0.918479 2.38681 0.600537 2.15055 0.366117C1.9143 0.131696 1.59388 0 1.25977 0C0.925655 0 0.605229 0.131696 0.368977 0.366117C0.132725 0.600537 0 0.918479 0 1.25L0 26.25C0 27.2446 0.398175 28.1984 1.10693 28.9017C1.81569 29.6049 2.77697 30 3.7793 30H28.9746C29.3087 30 29.6291 29.8683 29.8654 29.6339C30.1017 29.3995 30.2344 29.0815 30.2344 28.75C30.2344 28.4185 30.1017 28.1005 29.8654 27.8661C29.6291 27.6317 29.3087 27.5 28.9746 27.5Z" fill="white"/>
<path d="M18.8965 25C19.2306 25 19.551 24.8683 19.7873 24.6339C20.0235 24.3995 20.1562 24.0815 20.1562 23.75V15C20.1562 14.6685 20.0235 14.3505 19.7873 14.1161C19.551 13.8817 19.2306 13.75 18.8965 13.75C18.5624 13.75 18.2419 13.8817 18.0057 14.1161C17.7694 14.3505 17.6367 14.6685 17.6367 15V23.75C17.6367 24.0815 17.7694 24.3995 18.0057 24.6339C18.2419 24.8683 18.5624 25 18.8965 25Z" fill="white"/>
<path d="M8.81836 25C9.15247 25 9.4729 24.8683 9.70915 24.6339C9.9454 24.3995 10.0781 24.0815 10.0781 23.75V15C10.0781 14.6685 9.9454 14.3505 9.70915 14.1161C9.4729 13.8817 9.15247 13.75 8.81836 13.75C8.48425 13.75 8.16382 13.8817 7.92757 14.1161C7.69132 14.3505 7.55859 14.6685 7.55859 15V23.75C7.55859 24.0815 7.69132 24.3995 7.92757 24.6339C8.16382 24.8683 8.48425 25 8.81836 25Z" fill="white"/>
<path d="M23.9355 25C24.2697 25 24.5901 24.8683 24.8263 24.6339C25.0626 24.3995 25.1953 24.0815 25.1953 23.75V8.75C25.1953 8.41848 25.0626 8.10054 24.8263 7.86612C24.5901 7.6317 24.2697 7.5 23.9355 7.5C23.6014 7.5 23.281 7.6317 23.0448 7.86612C22.8085 8.10054 22.6758 8.41848 22.6758 8.75V23.75C22.6758 24.0815 22.8085 24.3995 23.0448 24.6339C23.281 24.8683 23.6014 25 23.9355 25Z" fill="white"/>
<path d="M13.8574 25C14.1915 25 14.512 24.8683 14.7482 24.6339C14.9845 24.3995 15.1172 24.0815 15.1172 23.75V8.75C15.1172 8.41848 14.9845 8.10054 14.7482 7.86612C14.512 7.6317 14.1915 7.5 13.8574 7.5C13.5233 7.5 13.2029 7.6317 12.9666 7.86612C12.7304 8.10054 12.5977 8.41848 12.5977 8.75V23.75C12.5977 24.0815 12.7304 24.3995 12.9666 24.6339C13.2029 24.8683 13.5233 25 13.8574 25Z" fill="white"/>
</svg>
