<svg width="30" height="27" viewBox="0 0 30 27" fill="none" xmlns="http://www.w3.org/2000/svg">
<path d="M21.8722 0C20.4652 0.0218848 19.0889 0.414649 17.8823 1.13863C16.6757 1.86261 15.6814 2.89217 15 4.12334C14.3186 2.89217 13.3243 1.86261 12.1177 1.13863C10.9111 0.414649 9.53477 0.0218848 8.12777 0C5.88485 0.0974491 3.77166 1.07863 2.24987 2.72919C0.728082 4.37975 -0.0786051 6.56551 0.00604894 8.80895C0.00604894 14.4904 5.98614 20.6954 11.0016 24.9025C12.1214 25.8435 13.5373 26.3594 15 26.3594C16.4627 26.3594 17.8786 25.8435 18.9984 24.9025C24.0139 20.6954 29.994 14.4904 29.994 8.80895C30.0786 6.56551 29.2719 4.37975 27.7501 2.72919C26.2283 1.07863 24.1151 0.0974491 21.8722 0ZM17.3928 22.9907C16.723 23.5547 15.8756 23.864 15 23.864C14.1244 23.864 13.277 23.5547 12.6072 22.9907C6.18731 17.6041 2.50504 12.4362 2.50504 8.80895C2.41963 7.22798 2.96281 5.67737 4.01614 4.49531C5.06946 3.31325 6.54745 2.59564 8.12777 2.49899C9.70809 2.59564 11.1861 3.31325 12.2394 4.49531C13.2927 5.67737 13.8359 7.22798 13.7505 8.80895C13.7505 9.14033 13.8821 9.45815 14.1165 9.69247C14.3508 9.9268 14.6686 10.0584 15 10.0584C15.3314 10.0584 15.6492 9.9268 15.8835 9.69247C16.1179 9.45815 16.2495 9.14033 16.2495 8.80895C16.1641 7.22798 16.7073 5.67737 17.7606 4.49531C18.8139 3.31325 20.2919 2.59564 21.8722 2.49899C23.4525 2.59564 24.9305 3.31325 25.9839 4.49531C27.0372 5.67737 27.5804 7.22798 27.495 8.80895C27.495 12.4362 23.8127 17.6041 17.3928 22.9857V22.9907Z" fill="white"/>
</svg>
