<svg width="21" height="30" viewBox="0 0 21 30" fill="none" xmlns="http://www.w3.org/2000/svg">
<path d="M9.08575 30C8.67622 29.9985 8.2719 29.9081 7.90076 29.735C7.29452 29.465 6.80763 28.9831 6.53146 28.3797C6.25529 27.7762 6.20881 27.0928 6.40076 26.4575L8.35201 20H3.75451C3.16877 20.0007 2.59101 19.8642 2.06752 19.6014C1.54404 19.3386 1.0894 18.9568 0.740039 18.4867C0.390676 18.0165 0.156307 17.4711 0.0557137 16.894C-0.0448794 16.317 -0.00889907 15.7244 0.160772 15.1638L3.94076 2.66381C4.17117 1.89066 4.64612 1.21309 5.29433 0.732798C5.94253 0.252506 6.72902 -0.00460203 7.53576 6.23615e-05H12.152C12.6767 0.000501289 13.1935 0.12797 13.6582 0.371574C14.1229 0.615178 14.5217 0.967675 14.8206 1.39894C15.1194 1.8302 15.3094 2.32741 15.3743 2.84808C15.4392 3.36874 15.3771 3.89737 15.1932 4.3888L13.0895 10H16.2857C16.9671 9.99999 17.6355 10.1856 18.2193 10.5368C18.8031 10.888 19.2802 11.3917 19.5993 11.9937C19.9184 12.5956 20.0675 13.2732 20.0305 13.9535C19.9935 14.6338 19.7719 15.2912 19.3895 15.855L11.3895 28.73C11.1422 29.1173 10.8018 29.4365 10.3993 29.6583C9.9969 29.8802 9.54528 29.9977 9.08575 30ZM7.53576 2.50006C7.26732 2.4998 7.00592 2.58596 6.79026 2.7458C6.57459 2.90563 6.41611 3.13065 6.33826 3.38756L2.55827 15.8875C2.50167 16.0743 2.48959 16.2717 2.523 16.464C2.55641 16.6563 2.63437 16.8381 2.75064 16.9948C2.86692 17.1515 3.01827 17.2789 3.1926 17.3666C3.36692 17.4543 3.55936 17.5 3.75451 17.5H10.0358C10.2309 17.5 10.4233 17.5457 10.5977 17.6335C10.772 17.7212 10.9234 17.8485 11.0396 18.0053C11.1559 18.162 11.2339 18.3438 11.2673 18.5361C11.3007 18.7283 11.2886 18.9258 11.232 19.1125L8.79825 27.165C8.787 27.1946 8.78203 27.2263 8.78365 27.2579C8.78527 27.2896 8.79345 27.3205 8.80767 27.3489C8.82189 27.3772 8.84184 27.4023 8.86625 27.4225C8.89067 27.4427 8.91902 27.4576 8.9495 27.4663C8.97714 27.484 9.00818 27.4957 9.04062 27.5007C9.07306 27.5057 9.10619 27.5038 9.13787 27.4952C9.16955 27.4866 9.19907 27.4715 9.22454 27.4508C9.25001 27.4301 9.27086 27.4043 9.28575 27.375L17.2857 14.5C17.4256 14.3103 17.509 14.0848 17.5263 13.8497C17.5435 13.6146 17.4939 13.3794 17.3832 13.1713C17.2807 12.9685 17.1236 12.7984 16.9298 12.6798C16.736 12.5612 16.513 12.499 16.2857 12.5H11.2857C11.0837 12.5002 10.8847 12.4513 10.7057 12.3577C10.5266 12.2641 10.373 12.1284 10.2578 11.9624C10.1427 11.7964 10.0695 11.605 10.0445 11.4045C10.0196 11.204 10.0436 11.0005 10.1145 10.8113L12.852 3.5113C12.8941 3.39813 12.9082 3.27646 12.8931 3.15666C12.8781 3.03686 12.8344 2.92246 12.7656 2.82318C12.6969 2.72391 12.6052 2.64269 12.4984 2.58643C12.3916 2.53018 12.2727 2.50054 12.152 2.50006H7.53576Z" fill="white"/>
</svg>
