<svg width="23" height="30" viewBox="0 0 23 30" fill="none" xmlns="http://www.w3.org/2000/svg">
<path d="M20.6687 3.90252L18.5987 1.83002C18.0196 1.24791 17.3307 0.786448 16.572 0.47233C15.8133 0.158212 14.9999 -0.00231999 14.1787 2.53318e-05H6.24999C4.593 0.00201015 3.00444 0.661127 1.83277 1.8328C0.661102 3.00447 0.00198482 4.59303 0 6.25002V23.75C0.00198482 25.407 0.661102 26.9956 1.83277 28.1672C3.00444 29.3389 4.593 29.998 6.24999 30H16.25C17.907 29.998 19.4955 29.3389 20.6672 28.1672C21.8389 26.9956 22.498 25.407 22.5 23.75V8.32127C22.502 7.50025 22.3412 6.68698 22.0269 5.92851C21.7125 5.17004 21.2509 4.48143 20.6687 3.90252ZM18.9012 5.67002C19.0785 5.84667 19.2373 6.04102 19.375 6.25002H16.25V3.12502C16.4587 3.26417 16.6533 3.42325 16.8312 3.60002L18.9012 5.67002ZM20 23.75C20 24.7446 19.6049 25.6984 18.9016 26.4017C18.1984 27.1049 17.2445 27.5 16.25 27.5H6.24999C5.25543 27.5 4.30161 27.1049 3.59835 26.4017C2.89509 25.6984 2.5 24.7446 2.5 23.75V6.25002C2.5 5.25546 2.89509 4.30163 3.59835 3.59837C4.30161 2.89511 5.25543 2.50002 6.24999 2.50002H13.75V6.25002C13.75 6.91306 14.0134 7.54894 14.4822 8.01779C14.9511 8.48663 15.5869 8.75002 16.25 8.75002H20V23.75ZM16.25 11.25C16.5815 11.25 16.8994 11.3817 17.1339 11.6161C17.3683 11.8506 17.5 12.1685 17.5 12.5C17.5 12.8315 17.3683 13.1495 17.1339 13.3839C16.8994 13.6183 16.5815 13.75 16.25 13.75H6.24999C5.91847 13.75 5.60053 13.6183 5.36611 13.3839C5.13169 13.1495 5 12.8315 5 12.5C5 12.1685 5.13169 11.8506 5.36611 11.6161C5.60053 11.3817 5.91847 11.25 6.24999 11.25H16.25ZM17.5 17.5C17.5 17.8315 17.3683 18.1495 17.1339 18.3839C16.8994 18.6183 16.5815 18.75 16.25 18.75H6.24999C5.91847 18.75 5.60053 18.6183 5.36611 18.3839C5.13169 18.1495 5 17.8315 5 17.5C5 17.1685 5.13169 16.8505 5.36611 16.6161C5.60053 16.3817 5.91847 16.25 6.24999 16.25H16.25C16.5815 16.25 16.8994 16.3817 17.1339 16.6161C17.3683 16.8505 17.5 17.1685 17.5 17.5ZM17.26 21.7663C17.4543 22.0336 17.5348 22.367 17.484 22.6935C17.4332 23.02 17.2551 23.3132 16.9887 23.5088C15.7222 24.4112 14.2222 24.929 12.6687 25C11.7611 24.9956 10.881 24.6876 10.1687 24.125C9.75874 23.8438 9.60249 23.75 9.29374 23.75C8.45802 23.8793 7.66951 24.2211 7.00374 24.7425C6.73968 24.9307 6.41279 25.009 6.09211 24.9607C5.77143 24.9125 5.48206 24.7415 5.2851 24.4838C5.08814 24.2262 4.99902 23.9021 5.03655 23.58C5.07409 23.2579 5.23533 22.963 5.48624 22.7575C6.58772 21.9024 7.91034 21.3794 9.29874 21.25C10.1314 21.2633 10.9364 21.5511 11.5887 22.0688C11.8861 22.3362 12.2689 22.4891 12.6687 22.5C13.6908 22.4234 14.6737 22.0742 15.515 21.4888C15.7832 21.2943 16.1177 21.2143 16.4449 21.2663C16.7721 21.3184 17.0653 21.4982 17.26 21.7663Z" fill="white"/>
</svg>
