<svg width="30" height="22" viewBox="0 0 30 22" fill="none" xmlns="http://www.w3.org/2000/svg">
<path d="M1.25 2.5H28.75C29.0815 2.5 29.3995 2.3683 29.6339 2.13388C29.8683 1.89946 30 1.58152 30 1.25C30 0.918479 29.8683 0.600537 29.6339 0.366117C29.3995 0.131696 29.0815 0 28.75 0H1.25C0.918479 0 0.600537 0.131696 0.366117 0.366117C0.131696 0.600537 0 0.918479 0 1.25C0 1.58152 0.131696 1.89946 0.366117 2.13388C0.600537 2.3683 0.918479 2.5 1.25 2.5Z" fill="white"/>
<path d="M28.75 6.25H11.25C10.9185 6.25 10.6005 6.3817 10.3661 6.61612C10.1317 6.85054 10 7.16848 10 7.5C10 7.83152 10.1317 8.14946 10.3661 8.38388C10.6005 8.6183 10.9185 8.75 11.25 8.75H28.75C29.0815 8.75 29.3995 8.6183 29.6339 8.38388C29.8683 8.14946 30 7.83152 30 7.5C30 7.16848 29.8683 6.85054 29.6339 6.61612C29.3995 6.3817 29.0815 6.25 28.75 6.25Z" fill="white"/>
<path d="M28.75 18.75H11.25C10.9185 18.75 10.6005 18.8817 10.3661 19.1161C10.1317 19.3505 10 19.6685 10 20C10 20.3315 10.1317 20.6495 10.3661 20.8839C10.6005 21.1183 10.9185 21.25 11.25 21.25H28.75C29.0815 21.25 29.3995 21.1183 29.6339 20.8839C29.8683 20.6495 30 20.3315 30 20C30 19.6685 29.8683 19.3505 29.6339 19.1161C29.3995 18.8817 29.0815 18.75 28.75 18.75Z" fill="white"/>
<path d="M28.75 12.5H1.25C0.918479 12.5 0.600537 12.6317 0.366117 12.8661C0.131696 13.1005 0 13.4185 0 13.75C0 14.0815 0.131696 14.3995 0.366117 14.6339C0.600537 14.8683 0.918479 15 1.25 15H28.75C29.0815 15 29.3995 14.8683 29.6339 14.6339C29.8683 14.3995 30 14.0815 30 13.75C30 13.4185 29.8683 13.1005 29.6339 12.8661C29.3995 12.6317 29.0815 12.5 28.75 12.5Z" fill="white"/>
</svg>
