<svg width="30" height="28" viewBox="0 0 30 28" fill="none" xmlns="http://www.w3.org/2000/svg">
<path d="M23.75 0H6.25C4.59301 0.00198482 3.00445 0.661102 1.83277 1.83277C0.661102 3.00445 0.00198482 4.59301 0 6.25L0 21.25C0.00198482 22.907 0.661102 24.4956 1.83277 25.6672C3.00445 26.8389 4.59301 27.498 6.25 27.5H23.75C25.407 27.498 26.9956 26.8389 28.1672 25.6672C29.3389 24.4956 29.998 22.907 30 21.25V6.25C29.998 4.59301 29.3389 3.00445 28.1672 1.83277C26.9956 0.661102 25.407 0.00198482 23.75 0ZM6.25 2.5H23.75C24.4985 2.50147 25.2294 2.72689 25.8487 3.14725C26.468 3.56762 26.9473 4.16368 27.225 4.85875L17.6525 14.4325C16.948 15.1341 15.9943 15.5281 15 15.5281C14.0057 15.5281 13.052 15.1341 12.3475 14.4325L2.775 4.85875C3.05269 4.16368 3.53202 3.56762 4.15131 3.14725C4.7706 2.72689 5.50152 2.50147 6.25 2.5ZM23.75 25H6.25C5.25544 25 4.30161 24.6049 3.59835 23.9017C2.89509 23.1984 2.5 22.2446 2.5 21.25V8.125L10.58 16.2C11.7533 17.3703 13.3428 18.0275 15 18.0275C16.6572 18.0275 18.2467 17.3703 19.42 16.2L27.5 8.125V21.25C27.5 22.2446 27.1049 23.1984 26.4017 23.9017C25.6984 24.6049 24.7446 25 23.75 25Z" fill="white"/>
</svg>
