<svg width="30" height="30" viewBox="0 0 30 30" fill="none" xmlns="http://www.w3.org/2000/svg">
<path d="M15.0001 15C15.989 15 16.9557 14.7067 17.7779 14.1573C18.6002 13.6079 19.241 12.827 19.6195 11.9134C19.9979 10.9998 20.0969 9.99445 19.904 9.02455C19.7111 8.05464 19.2349 7.16373 18.5356 6.46446C17.8363 5.7652 16.9454 5.289 15.9755 5.09607C15.0056 4.90315 14.0003 5.00216 13.0866 5.3806C12.173 5.75904 11.3921 6.3999 10.8427 7.22215C10.2933 8.04439 10.0001 9.01109 10.0001 10C10.0001 11.3261 10.5269 12.5978 11.4645 13.5355C12.4022 14.4732 13.674 15 15.0001 15ZM15.0001 7.5C15.4945 7.5 15.9779 7.64662 16.389 7.92132C16.8001 8.19603 17.1205 8.58647 17.3098 9.04329C17.499 9.5001 17.5485 10.0028 17.452 10.4877C17.3556 10.9727 17.1175 11.4181 16.7678 11.7678C16.4182 12.1174 15.9727 12.3555 15.4878 12.452C15.0028 12.5484 14.5002 12.4989 14.0434 12.3097C13.5865 12.1205 13.1961 11.8 12.9214 11.3889C12.6467 10.9778 12.5001 10.4944 12.5001 10C12.5001 9.33696 12.7635 8.70107 13.2323 8.23223C13.7011 7.76339 14.337 7.5 15.0001 7.5ZM25.8251 11.4462L24.9263 11.1475C25.088 9.7474 24.952 8.32893 24.5271 6.9851C24.1021 5.64128 23.398 4.40245 22.4607 3.34986C21.5234 2.29727 20.3742 1.4547 19.0885 0.877391C17.8027 0.300084 16.4095 0.00108435 15.0001 0C13.5723 0.000551212 12.1612 0.307117 10.8618 0.899043C9.56251 1.49097 8.40515 2.3545 7.46772 3.43147C6.53029 4.50843 5.83458 5.77381 5.42746 7.14233C5.02033 8.51086 4.91125 9.95075 5.10757 11.365C3.91136 11.588 2.80523 12.1524 1.92257 12.99C1.31154 13.5709 0.825781 14.2707 0.495168 15.0463C0.164554 15.8219 -0.00393172 16.6569 6.96338e-05 17.5V22.5937C0.00269663 23.9454 0.442309 25.26 1.25331 26.3413C2.06431 27.4226 3.20321 28.2128 4.50007 28.5937L8.08757 29.7187C8.69015 29.9063 9.31773 30.0011 9.94882 30C10.5213 29.9993 11.0911 29.921 11.6426 29.7675L18.8676 27.63C19.5112 27.4543 20.1902 27.4543 20.8338 27.63L23.8176 28.63C24.5529 28.809 25.3193 28.8187 26.059 28.6584C26.7987 28.4981 27.4923 28.172 28.0876 27.7046C28.6829 27.2373 29.1644 26.6409 29.4956 25.9604C29.8269 25.2799 29.9994 24.5331 30.0001 23.7762V17.34C29.9972 16.0468 29.5945 14.786 28.847 13.7307C28.0996 12.6753 27.044 11.8769 25.8251 11.445V11.4462ZM9.69757 4.7025C10.3929 4.00436 11.2192 3.4504 12.1292 3.07241C13.0391 2.69443 14.0147 2.49985 15.0001 2.49985C15.9854 2.49985 16.961 2.69443 17.871 3.07241C18.7809 3.4504 19.6072 4.00436 20.3026 4.7025C21.7053 6.11393 22.4937 8.02227 22.4963 10.0122C22.4989 12.0021 21.7154 13.9124 20.3163 15.3275L15.8751 19.6462C15.6433 19.8735 15.3316 20.0008 15.0069 20.0008C14.6823 20.0008 14.3706 19.8735 14.1388 19.6462L9.69757 15.3462C8.29191 13.9317 7.50295 12.0185 7.50295 10.0244C7.50295 8.0302 8.29191 6.11701 9.69757 4.7025ZM27.5001 23.7762C27.5008 24.1548 27.4152 24.5286 27.2497 24.8691C27.0842 25.2097 26.8432 25.5079 26.5451 25.7412C26.2633 25.9678 25.9352 26.1294 25.5839 26.2148C25.2326 26.3001 24.8668 26.307 24.5126 26.235L21.5813 25.25C20.4726 24.9315 19.2975 24.9245 18.1851 25.23L10.9551 27.365C10.2604 27.5566 9.52526 27.544 8.83757 27.3287L5.22007 26.2037C4.43713 25.9773 3.74877 25.5031 3.25832 24.8521C2.76787 24.2012 2.5018 23.4088 2.50007 22.5937V17.5C2.49726 16.9947 2.59783 16.4942 2.7956 16.0293C2.99336 15.5643 3.28415 15.1447 3.65007 14.7962C4.22289 14.2503 4.95259 13.8979 5.73632 13.7887C6.2402 15.0377 6.99054 16.1724 7.94257 17.125L12.4013 21.4412C13.0982 22.1236 14.0347 22.5058 15.0101 22.5058C15.9854 22.5058 16.9219 22.1236 17.6188 21.4412L22.0726 17.1125C23.0697 16.1113 23.8423 14.9092 24.3388 13.5862L25.0101 13.8087C25.738 14.0696 26.3678 14.5487 26.8134 15.1807C27.259 15.8126 27.4988 16.5667 27.5001 17.34V23.7762Z" fill="white"/>
</svg>
