<svg width="26" height="30" viewBox="0 0 26 30" fill="none" xmlns="http://www.w3.org/2000/svg">
<path d="M18.8965 17.5C18.8965 17.8315 18.7638 18.1495 18.5275 18.3839C18.2913 18.6183 17.9708 18.75 17.6367 18.75H7.55859C7.22448 18.75 6.90406 18.6183 6.66781 18.3839C6.43155 18.1495 6.29883 17.8315 6.29883 17.5C6.29883 17.1685 6.43155 16.8506 6.66781 16.6161C6.90406 16.3817 7.22448 16.25 7.55859 16.25H17.6367C17.9708 16.25 18.2913 16.3817 18.5275 16.6161C18.7638 16.8506 18.8965 17.1685 18.8965 17.5ZM13.8574 21.25H7.55859C7.22448 21.25 6.90406 21.3817 6.66781 21.6161C6.43155 21.8506 6.29883 22.1685 6.29883 22.5C6.29883 22.8315 6.43155 23.1495 6.66781 23.3839C6.90406 23.6183 7.22448 23.75 7.55859 23.75H13.8574C14.1915 23.75 14.512 23.6183 14.7482 23.3839C14.9845 23.1495 15.1172 22.8315 15.1172 22.5C15.1172 22.1685 14.9845 21.8506 14.7482 21.6161C14.512 21.3817 14.1915 21.25 13.8574 21.25ZM25.1953 13.1063V23.75C25.1933 25.407 24.529 26.9956 23.3482 28.1673C22.1674 29.3389 20.5664 29.998 18.8965 30H6.29883C4.62889 29.998 3.02792 29.3389 1.84709 28.1673C0.666267 26.9956 0.00200033 25.407 0 23.75V6.25003C0.00200033 4.59303 0.666267 3.00448 1.84709 1.8328C3.02792 0.661131 4.62889 0.00201363 6.29883 2.88108e-05H11.9867C13.1452 -0.00292985 14.2928 0.222013 15.3631 0.661853C16.4335 1.10169 17.4053 1.7477 18.2225 2.56253L22.6115 6.92003C23.4332 7.73033 24.0847 8.69435 24.5282 9.75625C24.9717 10.8181 25.1985 11.9568 25.1953 13.1063ZM16.4412 4.33003C16.0447 3.94898 15.5996 3.62118 15.1172 3.35503V8.75003C15.1172 9.08155 15.2499 9.39949 15.4862 9.63391C15.7224 9.86833 16.0428 10 16.377 10H21.8141C21.5457 9.52152 21.2149 9.08021 20.8302 8.68753L16.4412 4.33003ZM22.6758 13.1063C22.6758 12.9 22.6355 12.7025 22.6166 12.5H16.377C15.3746 12.5 14.4133 12.1049 13.7046 11.4017C12.9958 10.6984 12.5977 9.74459 12.5977 8.75003V2.55878C12.3936 2.54003 12.1933 2.50003 11.9867 2.50003H6.29883C5.2965 2.50003 4.33522 2.89512 3.62646 3.59838C2.91771 4.30164 2.51953 5.25547 2.51953 6.25003V23.75C2.51953 24.7446 2.91771 25.6984 3.62646 26.4017C4.33522 27.1049 5.2965 27.5 6.29883 27.5H18.8965C19.8988 27.5 20.8601 27.1049 21.5689 26.4017C22.2776 25.6984 22.6758 24.7446 22.6758 23.75V13.1063Z" fill="white"/>
</svg>
