<svg width="15" height="21" viewBox="0 0 15 21" fill="none" xmlns="http://www.w3.org/2000/svg">
<path d="M12.9139 9.51366V4.7823C12.9122 3.51392 12.4418 2.29805 11.6059 1.40149C10.7701 0.504927 9.63697 0.000897968 8.45529 0H6.54154C5.36041 0.00179638 4.22814 0.506221 3.39295 1.40269C2.55776 2.29915 2.08782 3.5145 2.08615 4.7823V9.51366C0.793969 10.4321 0 11.9838 0 14.5472C0 19.8099 3.35776 20.8812 7.5 20.8812C11.6422 20.8812 15 19.8167 15 14.5472C15 11.9888 14.206 10.4321 12.9139 9.51366ZM8.33984 16.2856C8.33984 16.5247 8.25135 16.754 8.09385 16.923C7.93635 17.0921 7.72274 17.1871 7.5 17.1871C7.27726 17.1871 7.06365 17.0921 6.90615 16.923C6.74865 16.754 6.66016 16.5247 6.66016 16.2856V14.8884C6.66016 14.6494 6.74865 14.4201 6.90615 14.251C7.06365 14.082 7.27726 13.987 7.5 13.987C7.72274 13.987 7.93635 14.082 8.09385 14.251C8.25135 14.4201 8.33984 14.6494 8.33984 14.8884V16.2856ZM11.1741 8.70049C10.0891 8.38303 8.83488 8.27947 7.5 8.27947C6.16512 8.27947 4.9109 8.38303 3.82592 8.70049V4.7823C3.82675 4.0095 4.11313 3.26861 4.62223 2.72216C5.13133 2.17571 5.82157 1.86832 6.54154 1.86742H8.45529C9.17527 1.86832 9.86551 2.17571 10.3746 2.72216C10.8837 3.26861 11.1701 4.0095 11.1709 4.7823L11.1741 8.70049Z" fill="#484848"/>
</svg>
