<svg width="30" height="30" viewBox="0 0 30 30" fill="none" xmlns="http://www.w3.org/2000/svg">
<path d="M30 20V30H20C18.2464 29.9982 16.524 29.5353 15.0058 28.6577C13.4876 27.7801 12.2268 26.5187 11.35 25C12.2923 24.9933 13.2315 24.8894 14.1525 24.69C14.8539 25.5671 15.7437 26.275 16.756 26.7615C17.7682 27.2479 18.8769 27.5003 20 27.5H27.5V20C27.4997 18.8765 27.2465 17.7676 26.7592 16.7553C26.2719 15.743 25.563 14.8534 24.685 14.1525C24.8861 13.2316 24.9916 12.2925 25 11.35C26.5187 12.2268 27.7801 13.4876 28.6577 15.0058C29.5353 16.524 29.9982 18.2464 30 20ZM22.5 11.25C22.5 8.26631 21.3147 5.40483 19.205 3.29505C17.0952 1.18526 14.2337 0 11.25 0C8.26631 0 5.40483 1.18526 3.29505 3.29505C1.18526 5.40483 0 8.26631 0 11.25L0 22.5H11.25C14.2327 22.4967 17.0922 21.3104 19.2013 19.2013C21.3104 17.0922 22.4967 14.2327 22.5 11.25ZM2.5 11.25C2.5 9.51941 3.01318 7.82769 3.97464 6.38876C4.9361 4.94983 6.30267 3.82832 7.90152 3.16605C9.50037 2.50379 11.2597 2.33051 12.957 2.66813C14.6544 3.00575 16.2135 3.83911 17.4372 5.06282C18.6609 6.28652 19.4942 7.84563 19.8319 9.54296C20.1695 11.2403 19.9962 12.9996 19.3339 14.5985C18.6717 16.1973 17.5502 17.5639 16.1112 18.5254C14.6723 19.4868 12.9806 20 11.25 20H2.5V11.25Z" fill="white"/>
</svg>
