<svg width="27" height="30" viewBox="0 0 27 30" fill="none" xmlns="http://www.w3.org/2000/svg">
<path d="M13.4961 10C12.5072 10 11.5405 10.2932 10.7182 10.8427C9.896 11.3921 9.25514 12.173 8.8767 13.0866C8.49826 14.0002 8.39924 15.0055 8.59217 15.9755C8.7851 16.9454 9.2613 17.8363 9.96056 18.5355C10.6598 19.2348 11.5507 19.711 12.5206 19.9039C13.4906 20.0969 14.4959 19.9978 15.4095 19.6194C16.3231 19.241 17.104 18.6001 17.6534 17.7779C18.2029 16.9556 18.4961 15.9889 18.4961 15C18.4961 13.6739 17.9693 12.4021 17.0316 11.4645C16.0939 10.5268 14.8222 10 13.4961 10ZM13.4961 17.5C13.0016 17.5 12.5183 17.3534 12.1072 17.0787C11.696 16.804 11.3756 16.4135 11.1864 15.9567C10.9972 15.4999 10.9477 14.9972 11.0441 14.5123C11.1406 14.0273 11.3787 13.5819 11.7283 13.2322C12.078 12.8826 12.5234 12.6445 13.0084 12.548C13.4933 12.4516 13.996 12.5011 14.4528 12.6903C14.9096 12.8795 15.3001 13.2 15.5748 13.6111C15.8495 14.0222 15.9961 14.5055 15.9961 15C15.9961 15.663 15.7327 16.2989 15.2639 16.7678C14.795 17.2366 14.1591 17.5 13.4961 17.5Z" fill="white"/>
<path d="M25.1133 17.375L24.5583 17.055C24.8082 15.6956 24.8082 14.3019 24.5583 12.9425L25.1133 12.6225C25.5401 12.3763 25.9143 12.0484 26.2143 11.6576C26.5144 11.2668 26.7346 10.8207 26.8623 10.3448C26.9899 9.86887 27.0226 9.37248 26.9585 8.88395C26.8943 8.39541 26.7346 7.9243 26.4883 7.4975C26.2421 7.0707 25.9142 6.69659 25.5234 6.3965C25.1326 6.09642 24.6865 5.87626 24.2106 5.74858C23.7347 5.6209 23.2383 5.5882 22.7498 5.65236C22.2613 5.71652 21.7901 5.87627 21.3633 6.1225L20.8071 6.44375C19.7565 5.54615 18.5492 4.85031 17.2458 4.39125V3.75C17.2458 2.75544 16.8508 1.80161 16.1475 1.09835C15.4442 0.395088 14.4904 0 13.4958 0C12.5013 0 11.5475 0.395088 10.8442 1.09835C10.1409 1.80161 9.74584 2.75544 9.74584 3.75V4.39125C8.44258 4.85196 7.23565 5.5495 6.18584 6.44875L5.62709 6.125C4.76514 5.62772 3.74094 5.49322 2.77982 5.75108C1.8187 6.00894 0.999373 6.63805 0.502092 7.5C0.00481136 8.36195 -0.129693 9.38615 0.12817 10.3473C0.386033 11.3084 1.01514 12.1277 1.87709 12.625L2.43209 12.945C2.18223 14.3044 2.18223 15.6981 2.43209 17.0575L1.87709 17.3775C1.01514 17.8748 0.386033 18.6941 0.12817 19.6552C-0.129693 20.6164 0.00481136 21.6405 0.502092 22.5025C0.999373 23.3645 1.8187 23.9936 2.77982 24.2514C3.74094 24.5093 4.76514 24.3748 5.62709 23.8775L6.18334 23.5562C7.2343 24.454 8.44207 25.1498 9.74584 25.6087V26.25C9.74584 27.2446 10.1409 28.1984 10.8442 28.9017C11.5475 29.6049 12.5013 30 13.4958 30C14.4904 30 15.4442 29.6049 16.1475 28.9017C16.8508 28.1984 17.2458 27.2446 17.2458 26.25V25.6087C18.5491 25.148 19.756 24.4505 20.8058 23.5513L21.3646 23.8738C22.2265 24.371 23.2507 24.5055 24.2119 24.2477C25.173 23.9898 25.9923 23.3607 26.4896 22.4988C26.9869 21.6368 27.1214 20.6126 26.8635 19.6515C26.6057 18.6904 25.9765 17.871 25.1146 17.3738L25.1133 17.375ZM21.9283 12.655C22.3516 14.1888 22.3516 15.8087 21.9283 17.3425C21.8544 17.6095 21.8713 17.8934 21.9763 18.1498C22.0812 18.4061 22.2684 18.6203 22.5083 18.7588L23.8633 19.5413C24.1506 19.707 24.3603 19.9801 24.4462 20.3004C24.5321 20.6208 24.4872 20.9621 24.3215 21.2494C24.1557 21.5366 23.8826 21.7463 23.5623 21.8322C23.242 21.9181 22.9006 21.8733 22.6133 21.7075L21.2558 20.9225C21.0157 20.7834 20.7361 20.7282 20.4611 20.7655C20.1862 20.8029 19.9314 20.9307 19.7371 21.1287C18.6245 22.2646 17.2228 23.075 15.6833 23.4725C15.4146 23.5416 15.1765 23.6981 15.0066 23.9174C14.8366 24.1367 14.7445 24.4063 14.7446 24.6838V26.25C14.7446 26.5815 14.6129 26.8995 14.3785 27.1339C14.1441 27.3683 13.8261 27.5 13.4946 27.5C13.1631 27.5 12.8451 27.3683 12.6107 27.1339C12.3763 26.8995 12.2446 26.5815 12.2446 26.25V24.685C12.2447 24.4076 12.1526 24.1379 11.9826 23.9186C11.8126 23.6994 11.5746 23.5428 11.3058 23.4737C9.76628 23.0746 8.365 22.2624 7.25334 21.125C7.059 20.9269 6.80426 20.7991 6.52929 20.7618C6.25431 20.7244 5.97472 20.7797 5.73459 20.9188L4.37959 21.7025C4.23738 21.7859 4.08008 21.8403 3.91675 21.8626C3.75342 21.885 3.58728 21.8748 3.42791 21.8326C3.26854 21.7905 3.11907 21.7172 2.98812 21.6171C2.85717 21.517 2.74731 21.3919 2.66489 21.2492C2.58246 21.1064 2.52909 20.9487 2.50784 20.7853C2.48659 20.6218 2.49789 20.4557 2.54108 20.2966C2.58427 20.1375 2.65851 19.9886 2.75951 19.8583C2.86051 19.728 2.98629 19.619 3.12959 19.5375L4.48459 18.755C4.72453 18.6166 4.91169 18.4024 5.01667 18.146C5.12165 17.8897 5.13851 17.6057 5.06459 17.3388C4.64129 15.8049 4.64129 14.1851 5.06459 12.6513C5.13718 12.3849 5.11951 12.1019 5.01436 11.8466C4.90921 11.5913 4.72249 11.378 4.48334 11.24L3.12834 10.4575C2.84108 10.2917 2.63143 10.0187 2.54552 9.69832C2.4596 9.37798 2.50446 9.03664 2.67022 8.74937C2.83598 8.46211 3.10906 8.25246 3.4294 8.16655C3.74973 8.08063 4.09108 8.12549 4.37834 8.29125L5.73584 9.07625C5.97532 9.21564 6.25432 9.27151 6.529 9.23509C6.80369 9.19866 7.05848 9.07199 7.25334 8.875C8.36595 7.73918 9.76762 6.92878 11.3071 6.53125C11.5766 6.46195 11.8153 6.30469 11.9854 6.08438C12.1554 5.86406 12.2471 5.5933 12.2458 5.315V3.75C12.2458 3.41848 12.3775 3.10054 12.612 2.86612C12.8464 2.6317 13.1643 2.5 13.4958 2.5C13.8274 2.5 14.1453 2.6317 14.3797 2.86612C14.6141 3.10054 14.7458 3.41848 14.7458 3.75V5.315C14.7457 5.59245 14.8379 5.86206 15.0078 6.08135C15.1778 6.30065 15.4159 6.45717 15.6846 6.52625C17.2246 6.92519 18.6263 7.73735 19.7383 8.875C19.9327 9.07308 20.1874 9.20087 20.4624 9.23821C20.7374 9.27555 21.017 9.22033 21.2571 9.08125L22.6121 8.2975C22.7543 8.21413 22.9116 8.15971 23.0749 8.13738C23.2383 8.11505 23.4044 8.12524 23.5638 8.16738C23.7232 8.20951 23.8726 8.28276 24.0036 8.38289C24.1345 8.48303 24.2444 8.60808 24.3268 8.75084C24.4092 8.8936 24.4626 9.05126 24.4838 9.21474C24.5051 9.37821 24.4938 9.54427 24.4506 9.70337C24.4074 9.86246 24.3332 10.0114 24.2322 10.1417C24.1312 10.272 24.0054 10.381 23.8621 10.4625L22.5071 11.245C22.2684 11.3834 22.0822 11.5968 21.9775 11.8521C21.8728 12.1074 21.8555 12.3901 21.9283 12.6562V12.655Z" fill="white"/>
</svg>
