<svg width="23" height="30" viewBox="0 0 23 30" fill="none" xmlns="http://www.w3.org/2000/svg">
<path d="M8.74999 12.5C7.75543 12.5 6.80161 12.8951 6.09835 13.5984C5.39508 14.3016 5 15.2554 5 16.25C5 17.2446 5.39508 18.1984 6.09835 18.9017C6.80161 19.6049 7.75543 20 8.74999 20H13.75C14.7446 20 15.6984 19.6049 16.4016 18.9017C17.1049 18.1984 17.5 17.2446 17.5 16.25C17.5 15.2554 17.1049 14.3016 16.4016 13.5984C15.6984 12.8951 14.7446 12.5 13.75 12.5H8.74999ZM15 16.25C15 16.5815 14.8683 16.8995 14.6339 17.1339C14.3995 17.3683 14.0815 17.5 13.75 17.5H8.74999C8.41847 17.5 8.10053 17.3683 7.86611 17.1339C7.63169 16.8995 7.5 16.5815 7.5 16.25C7.5 15.9185 7.63169 15.6005 7.86611 15.3661C8.10053 15.1317 8.41847 15 8.74999 15H13.75C14.0815 15 14.3995 15.1317 14.6339 15.3661C14.8683 15.6005 15 15.9185 15 16.25ZM17.5 23.75C17.5 24.0815 17.3683 24.3995 17.1339 24.6339C16.8995 24.8683 16.5815 25 16.25 25H6.25C5.91848 25 5.60053 24.8683 5.36611 24.6339C5.13169 24.3995 5 24.0815 5 23.75C5 23.4185 5.13169 23.1005 5.36611 22.8661C5.60053 22.6317 5.91848 22.5 6.25 22.5H16.25C16.5815 22.5 16.8995 22.6317 17.1339 22.8661C17.3683 23.1005 17.5 23.4185 17.5 23.75ZM20.67 3.90127L18.5975 1.83127C18.0186 1.24908 17.33 0.787471 16.5715 0.473141C15.813 0.158811 14.9998 -0.00199747 14.1787 1.87265e-05H6.25C4.593 0.00200355 3.00445 0.661121 1.83277 1.83279C0.661102 3.00446 0.00198482 4.59302 0 6.25001V23.75C0.00198482 25.407 0.661102 26.9956 1.83277 28.1672C3.00445 29.3389 4.593 29.998 6.25 30H16.25C17.907 29.998 19.4955 29.3389 20.6672 28.1672C21.8389 26.9956 22.498 25.407 22.5 23.75V8.32126C22.5023 7.50012 22.3418 6.68667 22.0277 5.92798C21.7136 5.16929 21.2521 4.48043 20.67 3.90127ZM18.9025 5.66876C19.0784 5.8468 19.2366 6.04146 19.375 6.25001H16.25V3.12502C16.4589 3.26193 16.6532 3.41983 16.83 3.59627L18.9025 5.66876ZM20 23.75C20 24.7446 19.6049 25.6984 18.9016 26.4017C18.1984 27.1049 17.2446 27.5 16.25 27.5H6.25C5.25543 27.5 4.30161 27.1049 3.59835 26.4017C2.89509 25.6984 2.5 24.7446 2.5 23.75V6.25001C2.5 5.25545 2.89509 4.30163 3.59835 3.59837C4.30161 2.89511 5.25543 2.50002 6.25 2.50002H13.75V6.25001C13.75 6.91305 14.0134 7.54894 14.4822 8.01778C14.9511 8.48662 15.5869 8.75001 16.25 8.75001H20V23.75Z" fill="white"/>
</svg>
