<svg width="30" height="31" viewBox="0 0 30 31" fill="none" xmlns="http://www.w3.org/2000/svg">
<path d="M29.9632 13.0257C29.5861 10.2473 28.4403 7.62951 26.655 5.46743C24.8697 3.30535 22.516 1.68499 19.8591 0.789029C17.2022 -0.106927 14.3478 -0.242849 11.6178 0.396587C8.8878 1.03602 6.3907 2.42539 4.40804 4.40804C2.42539 6.3907 1.03602 8.8878 0.396587 11.6178C-0.242849 14.3478 -0.106927 17.2022 0.789029 19.8591C1.68499 22.516 3.30535 24.8697 5.46743 26.655C7.62951 28.4403 10.2473 29.5861 13.0257 29.9632C13.2284 29.9897 13.4326 30.003 13.637 30.0032C14.9553 29.9923 16.2158 29.4603 17.1432 28.5232L28.5182 17.1482C29.0583 16.6173 29.4693 15.9696 29.7198 15.2549C29.9703 14.5403 30.0536 13.7776 29.9632 13.0257ZM2.58825 13.6182C2.92444 10.6517 4.30784 7.90228 6.48975 5.86439C8.67165 3.8265 11.5089 2.63377 14.4915 2.5006C17.4742 2.36744 20.4065 3.30259 22.7613 5.13793C25.1161 6.97327 26.739 9.58842 27.3382 12.5132C23.4228 12.5605 19.681 14.1363 16.9112 16.9042C14.1414 19.6721 12.5632 23.4129 12.5132 27.3282C9.43849 26.7082 6.70977 24.9535 4.86984 22.4132C3.02991 19.8729 2.21359 16.733 2.58325 13.6182H2.58825ZM15.3795 26.7545C15.2718 26.8579 15.1555 26.9519 15.032 27.0357C15.1534 23.8898 16.4574 20.9056 18.6834 18.6793C20.9095 16.453 23.8936 15.1487 27.0395 15.027C26.9565 15.1512 26.8628 15.2679 26.7595 15.3757L15.3795 26.7545Z" fill="white"/>
</svg>
