<svg width="16" height="22" viewBox="0 0 16 22" fill="none" xmlns="http://www.w3.org/2000/svg">
<path d="M15.4939 16.8195C15.4939 20.8682 12.2112 21.23 8.16384 21.23C4.11653 21.23 0.83374 20.8682 0.83374 16.8195C0.83374 15.8569 1.02334 14.9037 1.39171 14.0144C1.76008 13.125 2.30001 12.317 2.98068 11.6363C3.66134 10.9557 4.4694 10.4157 5.35873 10.0474C6.24806 9.67898 7.20124 9.48938 8.16384 9.48938C9.12645 9.48938 10.0796 9.67898 10.969 10.0474C11.8583 10.4157 12.6663 10.9557 13.347 11.6363C14.0277 12.317 14.5676 13.125 14.936 14.0144C15.3043 14.9037 15.4939 15.8569 15.4939 16.8195Z" fill="#484848"/>
<path d="M8.1569 8.80404C10.5881 8.80404 12.5589 6.83319 12.5589 4.40202C12.5589 1.97085 10.5881 0 8.1569 0C5.72573 0 3.75488 1.97085 3.75488 4.40202C3.75488 6.83319 5.72573 8.80404 8.1569 8.80404Z" fill="#484848"/>
</svg>
