<svg width="52" height="52" viewBox="0 0 52 52" fill="none" xmlns="http://www.w3.org/2000/svg">
<path d="M52 19.5C52.0049 18.3072 51.6816 17.1361 51.0653 16.1148C50.449 15.0935 49.5636 14.2615 48.506 13.7099C47.4484 13.1583 46.2595 12.9083 45.0693 12.9874C43.8791 13.0664 42.7336 13.4715 41.7583 14.1581C40.783 14.8447 40.0154 15.7865 39.5396 16.8803C39.0638 17.9741 38.8981 19.1777 39.0608 20.3594C39.2234 21.5411 39.7081 22.6552 40.4617 23.5798C41.2153 24.5043 42.2088 25.2037 43.3333 25.6013V34.6667C43.3333 38.1145 41.9637 41.4211 39.5257 43.8591C37.0878 46.297 33.7812 47.6667 30.3333 47.6667C26.8855 47.6667 23.5789 46.297 21.1409 43.8591C18.703 41.4211 17.3333 38.1145 17.3333 34.6667V34.4933C20.9388 33.9702 24.2359 32.1678 26.6226 29.4151C29.0093 26.6625 30.3264 23.1433 30.3333 19.5V10.8333C30.3299 7.96121 29.1874 5.20771 27.1565 3.17681C25.1256 1.14591 22.3721 0.00344036 19.5 0C18.9254 0 18.3743 0.228273 17.9679 0.634602C17.5616 1.04093 17.3333 1.59203 17.3333 2.16667C17.3333 2.7413 17.5616 3.2924 17.9679 3.69873C18.3743 4.10506 18.9254 4.33333 19.5 4.33333C21.2239 4.33333 22.8772 5.01815 24.0962 6.23714C25.3152 7.45613 26 9.10943 26 10.8333V19.5C26 22.3732 24.8586 25.1287 22.827 27.1603C20.7953 29.192 18.0398 30.3333 15.1667 30.3333C12.2935 30.3333 9.53799 29.192 7.50634 27.1603C5.4747 25.1287 4.33333 22.3732 4.33333 19.5V10.8333C4.33333 9.10943 5.01815 7.45613 6.23714 6.23714C7.45613 5.01815 9.10943 4.33333 10.8333 4.33333C11.408 4.33333 11.9591 4.10506 12.3654 3.69873C12.7717 3.2924 13 2.7413 13 2.16667C13 1.59203 12.7717 1.04093 12.3654 0.634602C11.9591 0.228273 11.408 0 10.8333 0C7.96121 0.00344036 5.20771 1.14591 3.17681 3.17681C1.14591 5.20771 0.00344036 7.96121 0 10.8333L0 19.5C0.0069679 23.1433 1.32403 26.6625 3.71072 29.4151C6.09741 32.1678 9.3945 33.9702 13 34.4933V34.6667C13 39.2638 14.8262 43.6726 18.0768 46.9232C21.3274 50.1738 25.7362 52 30.3333 52C34.9304 52 39.3392 50.1738 42.5899 46.9232C45.8405 43.6726 47.6667 39.2638 47.6667 34.6667V25.6013C48.9296 25.1548 50.0238 24.329 50.7995 23.2368C51.5751 22.1447 51.9944 20.8396 52 19.5ZM45.5 21.6667C45.0715 21.6667 44.6526 21.5396 44.2963 21.3015C43.94 21.0634 43.6623 20.7251 43.4983 20.3291C43.3343 19.9332 43.2914 19.4976 43.375 19.0773C43.4586 18.657 43.6649 18.271 43.9679 17.9679C44.271 17.6649 44.657 17.4586 45.0773 17.375C45.4976 17.2914 45.9332 17.3343 46.3291 17.4983C46.7251 17.6623 47.0634 17.94 47.3015 18.2963C47.5396 18.6526 47.6667 19.0715 47.6667 19.5C47.6667 20.0746 47.4384 20.6257 47.0321 21.0321C46.6257 21.4384 46.0746 21.6667 45.5 21.6667Z" fill="black"/>
</svg>