<svg width="1080" height="720" viewBox="0 0 943 1019" fill="none" xmlns="http://www.w3.org/2000/svg">
<path d="M421.766 0C219.969 29.225 118.973 158.302 115.457 291.613C110.861 464.5 97.0187 514.565 69.1674 539.334C45.8565 560.201 -5.16734 576.64 0.425068 599.472C7.51248 628.365 75.5073 651.086 70.8008 665.201C66.0944 679.315 40.3471 712.248 44.9429 719.222C49.5386 726.197 68.4476 747.423 68.4476 747.423C68.4476 747.423 55.3802 770.643 56.7091 777.866C61.4986 804.434 82.7331 805.541 82.7331 812.516C82.7331 819.49 77.8605 903.428 103.968 931.768C139.349 970.153 312.88 951.722 324.646 972.866C328.495 979.784 332.592 997.773 336.385 1019H1021.12V0H421.766Z" fill="white"/>
<path d="M190.844 325.487C190.844 325.487 144.637 254.998 220.993 206.345C220.993 206.345 213.047 81.0872 345.576 76.7422C345.576 76.7422 402.497 1.63181 501.499 44.7774C501.499 44.7774 533.725 3.90116 584.998 12.4251C636.271 20.9491 647.954 60.3585 647.954 60.3585C647.954 60.3585 760.522 39.8235 780.345 148.698C780.345 148.698 853.046 192.231 836.905 288.125C821.485 379.647 721.984 377.682 721.984 377.682C721.984 377.682 692.029 485.339 572.733 429.877C572.733 429.877 536.604 470.283 461.716 420.911C461.716 420.911 391.755 475.874 303.605 405.136C303.688 405.136 190.179 433.475 190.844 325.487Z" fill="#E4FBD6"/>
<path d="M268.971 241.88C268.971 241.88 296.103 193.033 335.693 228.734C375.283 264.435 288.185 349.675 288.185 349.675C288.185 349.675 185.085 313.365 198.097 263.633C213.518 204.906 268.971 241.88 268.971 241.88Z" fill="#7DBA58"/>
<path d="M766.032 270.442C766.032 270.442 780.068 261.115 785.716 276.17C791.364 291.226 756.231 302.047 756.231 302.047C756.231 302.047 733.668 278.025 744.022 266.512C756.287 252.868 766.032 270.442 766.032 270.442Z" fill="#E4FBD6"/>
<path d="M455.321 338.219C469.066 338.219 480.21 327.08 480.21 313.339C480.21 299.598 469.066 288.459 455.321 288.459C441.575 288.459 430.432 299.598 430.432 313.339C430.432 327.08 441.575 338.219 455.321 338.219Z" fill="#7DBA58"/>
<path d="M460.608 299.915H450.31V329.5H460.608V299.915Z" fill="#FEFEFE"/>
<path d="M470.27 319.815V309.52H440.675V319.815H470.27Z" fill="#FEFEFE"/>
<path d="M292.891 473.632C294.781 477.35 295.525 481.545 295.03 485.686C294.535 489.826 292.823 493.727 290.11 496.896C287.398 500.064 283.806 502.357 279.79 503.485C275.774 504.614 271.513 504.526 267.547 503.234C263.58 501.942 260.086 499.503 257.506 496.227C254.926 492.95 253.375 488.982 253.051 484.824C252.726 480.667 253.642 476.506 255.682 472.869C257.723 469.231 260.796 466.28 264.514 464.389C266.984 463.132 269.678 462.374 272.441 462.159C275.205 461.943 277.984 462.274 280.619 463.132C283.254 463.991 285.695 465.36 287.8 467.162C289.906 468.963 291.636 471.162 292.891 473.632Z" fill="#E4FBD6"/>
<path d="M272.95 470.821L265.153 474.787L276.529 497.134L284.326 493.168L272.95 470.821Z" fill="#FEFEFE"/>
<path d="M287.925 482.232L283.958 474.438L261.603 485.809L265.57 493.603L287.925 482.232Z" fill="#FEFEFE"/>
<path d="M544.605 520.93C544.605 520.93 480.043 698.66 548.813 766.575L647.76 687.756L544.605 520.93Z" fill="#EBEBEB"/>
<path d="M544.605 520.93C544.605 520.93 480.043 698.66 548.813 766.575L647.76 687.756L544.605 520.93Z" fill="#D7E2D0"/>
<path d="M516.006 372.396C515.646 398.107 537.158 392.378 532.783 424.398C528.409 456.418 496.793 483.263 529.018 516.39C561.244 549.518 650.833 532.995 682.09 547.553C713.346 562.11 772.703 557.211 793.827 520.957C814.951 484.702 773.34 475.791 777.548 450.025C781.756 424.26 840.587 333.928 748.756 354.214C674.338 370.653 671.237 304.758 625.03 298.006C595.656 293.744 516.864 309.242 516.006 372.396Z" fill="#132905"/>
<path d="M778.712 868.308L682.81 821.26C682.81 821.26 680.651 680.919 672.65 677.1C664.649 673.281 624.533 678.124 624.533 678.124C624.533 678.124 645.573 843.124 658.447 850.956L658.032 851.647L765.312 886.629L768.856 924.516L796.541 874.175L778.712 868.308Z" fill="#FFBAB7"/>
<path opacity="0.16" d="M679.626 728.244L633.419 740.919C637.461 767.266 642.389 796.796 647.262 818.687C659.215 818.926 671.141 817.444 682.671 814.286C682.395 798.677 681.509 760.403 679.626 728.244Z" fill="#2D122D"/>
<path d="M613.763 675.495L604.959 927.976L612.019 948.898L555.624 963.621L585.635 927.201L559.888 677.46L613.763 675.495Z" fill="#FFBAB7"/>
<path opacity="0.16" d="M568.276 758.687L572.789 802.58C584.54 807.233 596.627 810.989 608.946 813.816L611.271 746.897L568.276 758.687Z" fill="#2D122D"/>
<path opacity="0.16" d="M678.131 672.894C676.379 667.918 674.164 663.119 671.514 658.558L555.624 653.881C555.624 653.881 555.264 661.492 554.821 673.253C581.509 675.827 645.185 683.078 678.131 672.894Z" fill="#1B1444"/>
<path d="M552.44 965.919C552.44 965.919 564.594 942.312 578.63 931.657C578.63 931.657 604.737 941.122 608.558 928.309L616.227 949.065L552.44 965.919Z" fill="#132905"/>
<path d="M770.212 931.352C770.212 931.352 762.294 911.039 763.872 893.493C763.872 893.493 779.487 887.017 775.168 863.853L800.721 872.875L770.212 931.352Z" fill="#132905"/>
<path d="M553.576 631.63C553.576 631.63 533.614 760.762 542.889 797.681C542.889 797.681 551.195 783.677 584.085 787.662C616.975 791.648 618.082 811.684 655.18 805.679C692.278 799.673 735.467 776.675 735.467 776.675L672.622 626.593L553.576 631.63Z" fill="#345620"/>
<path opacity="0.16" d="M553.576 631.63C553.576 631.63 552.219 640.486 550.364 654.213C565.619 657.59 602.44 665.007 613.708 660.634C613.708 660.634 650.972 751.602 718.912 784.812C728.989 780.218 735.523 776.787 735.523 776.787L672.677 626.704L553.576 631.63Z" fill="#2D122D"/>
<path d="M607.478 437.489C575.724 434.97 548.288 454.758 546.156 481.769L550.309 639.158C592.196 667.165 705.346 643.973 700.694 632.986L668.773 494.361C674.117 455.809 639.206 439.979 607.478 437.489Z" fill="#58863C"/>
<path opacity="0.16" d="M547.567 535.46L550.198 634.842L597.761 620.838C601.015 631.539 604.832 642.061 609.195 652.36C654.709 652.913 703.684 640.211 700.556 632.987L678.214 536.124L613.569 511.964L547.567 535.46Z" fill="#2D122D"/>
<path d="M632.921 448.116C632.921 448.116 586.881 479.14 593.885 555.164C600.889 631.187 646.93 753.152 735.993 776.261L799.06 689.222C799.06 689.222 706.979 665.228 668.939 462.12C668.939 462.12 656.924 437.101 632.921 448.116Z" fill="#EBF5E4"/>
<path d="M667.943 487.138C644.937 473.134 630.9 486.141 630.9 486.141C621.402 506.771 608.673 525.755 593.193 542.377C593.193 546.473 593.47 550.68 593.885 555.163C595.955 576.008 600.006 596.608 605.983 616.685C681.509 575.615 685.523 497.82 667.943 487.138Z" fill="#D7E2D0"/>
<path d="M588.182 456.086C591.753 461.096 597.373 466.216 601.609 466.077C606.565 465.911 611.659 459.767 613.652 454.592L612.988 435.745L587.49 436.631L588.182 456.086Z" fill="#FFBAB7"/>
<path d="M588.182 456.086C591.753 461.096 597.373 466.216 601.609 466.077C606.565 465.911 611.659 459.767 613.652 454.592L612.988 435.745L587.49 436.631L588.182 456.086Z" fill="url(#paint0_linear_418_544)"/>
<path opacity="0.16" d="M587.739 443.716C595.435 445.708 604.904 446.483 613.209 442.415L612.988 435.745L587.49 436.631L587.739 443.716Z" fill="#2D122D"/>
<path d="M600.447 302.49L591.864 302.629C561.41 303.155 537.269 324.99 537.74 351.392L537.878 359.695H538.017C537.684 373.256 538.736 388.2 538.736 388.2L545.934 388.034C548.205 412.278 570.464 431.484 597.844 431.816C626.72 432.176 650.446 411.42 651.111 385.377H655.346C657.091 381.89 656.703 367.748 656.094 356.817L656.398 356.983V349.538C655.817 322.915 630.817 302.048 600.447 302.49Z" fill="#132905"/>
<path d="M572.678 394.398C572.645 397.548 571.677 400.616 569.898 403.216C568.119 405.815 565.609 407.829 562.684 409.001C559.76 410.173 556.553 410.451 553.47 409.8C550.388 409.15 547.568 407.599 545.367 405.345C543.166 403.091 541.684 400.235 541.109 397.138C540.533 394.042 540.89 390.844 542.133 387.95C543.377 385.056 545.451 382.596 548.094 380.882C550.737 379.167 553.83 378.275 556.98 378.319C559.067 378.344 561.129 378.78 563.047 379.602C564.966 380.424 566.703 381.615 568.161 383.108C569.619 384.601 570.768 386.367 571.543 388.304C572.318 390.241 572.704 392.312 572.678 394.398Z" fill="#FFBAB7"/>
<g style="mix-blend-mode:multiply" opacity="0.26">
<path d="M543.498 395.782C542.307 399.767 545.547 404.251 550.751 405.828C555.956 407.406 561.161 405.413 562.351 401.428C563.542 397.443 560.275 392.959 555.07 391.41C549.865 389.86 544.688 391.797 543.498 395.782Z" fill="#ED8A8D"/>
</g>
<path d="M665.59 394.649C665.556 397.797 664.59 400.865 662.812 403.464C661.034 406.063 658.525 408.076 655.603 409.249C652.68 410.422 649.474 410.702 646.392 410.054C643.31 409.405 640.49 407.857 638.288 405.606C636.087 403.355 634.602 400.501 634.024 397.406C633.445 394.311 633.797 391.114 635.037 388.22C636.276 385.326 638.346 382.864 640.986 381.146C643.625 379.428 646.715 378.531 649.864 378.57C654.079 378.628 658.1 380.352 661.046 383.365C663.993 386.378 665.627 390.435 665.59 394.649Z" fill="#FFBAB7"/>
<g style="mix-blend-mode:multiply" opacity="0.26">
<path d="M643.58 402.037C645.075 405.912 650.39 407.572 655.457 405.524C660.523 403.476 663.458 398.855 661.963 394.98C660.468 391.106 655.152 389.445 650.086 391.465C645.019 393.486 642.085 398.135 643.58 402.037Z" fill="#ED8A8D"/>
</g>
<path d="M546.543 391.88C548.632 390.838 551.044 390.647 553.271 391.35C555.497 392.052 557.364 393.592 558.475 395.644" stroke="#ED8885" stroke-linecap="round" stroke-linejoin="round"/>
<path d="M658.281 392.351C658.281 392.351 647.954 389.002 643.165 396.419" stroke="#ED8885" stroke-linecap="round" stroke-linejoin="round"/>
<path d="M605.43 329.335L593.193 329.196C587.627 329.131 582.102 330.161 576.934 332.23C571.766 334.299 567.057 337.365 563.075 341.253C559.092 345.142 555.915 349.776 553.725 354.892C551.535 360.008 550.374 365.505 550.309 371.069L550.059 391.576C549.975 397.943 551.148 404.265 553.511 410.178C555.873 416.092 559.379 421.482 563.828 426.039C568.276 430.597 573.58 434.233 579.436 436.739C585.292 439.245 591.585 440.572 597.955 440.644C604.323 440.725 610.645 439.55 616.559 437.187C622.473 434.824 627.864 431.319 632.422 426.873C636.981 422.426 640.618 417.126 643.126 411.274C645.635 405.421 646.965 399.132 647.041 392.766L647.29 372.231C647.359 366.667 646.332 361.143 644.266 355.976C642.199 350.809 639.135 346.099 635.248 342.116C631.361 338.132 626.727 334.953 621.611 332.76C616.494 330.567 610.996 329.403 605.43 329.335Z" fill="#FFBAB7"/>
<path d="M550.309 371.068C550.309 371.068 577.413 348.541 581.122 327.812C581.122 327.812 590.009 352.969 607.036 358.891C624.062 364.814 647.788 377.572 651.111 385.266C651.111 385.266 674.394 329.915 621.82 316.714C569.245 303.513 538.736 326.954 550.309 371.068Z" fill="#132905"/>
<path d="M602.024 409.011C599.301 410.466 596.212 411.092 593.137 410.812C590.062 410.531 587.136 409.357 584.721 407.434" stroke="#ED8885" stroke-width="0.75" stroke-linecap="round" stroke-linejoin="round"/>
<path d="M577.163 381.807C577.927 382.571 578.356 383.606 578.356 384.686C578.356 385.765 577.927 386.8 577.163 387.564C576.399 388.327 575.364 388.756 574.284 388.756C573.204 388.756 572.168 388.327 571.405 387.564C570.641 386.8 570.212 385.765 570.212 384.686C570.212 383.606 570.641 382.571 571.405 381.807C572.168 381.044 573.204 380.615 574.284 380.615C575.364 380.615 576.399 381.044 577.163 381.807Z" fill="#2D122D"/>
<path d="M613.209 381.143C613.969 381.91 614.393 382.947 614.388 384.027C614.383 385.106 613.949 386.139 613.182 386.899C612.414 387.659 611.376 388.083 610.297 388.077C609.217 388.072 608.183 387.638 607.423 386.871C606.663 386.104 606.239 385.067 606.244 383.987C606.249 382.908 606.683 381.875 607.451 381.115C608.218 380.355 609.256 379.931 610.336 379.937C611.416 379.942 612.449 380.376 613.209 381.143Z" fill="#2D122D"/>
<path opacity="0.16" d="M568.082 357.84L566.311 358.366C566.913 358.234 567.505 358.058 568.082 357.84Z" fill="#2D122D"/>
<path d="M591.199 383.164L591.448 394.428L596.459 394.317" stroke="#ED8885" stroke-width="0.75" stroke-linecap="round" stroke-linejoin="round"/>
<path d="M570.048 361.576C568.054 362.158 566.243 363.243 564.788 364.726C563.334 366.208 562.285 368.04 561.742 370.045C561.742 370.045 582.257 363.236 582.368 362.046C582.368 361.299 575.945 359.666 570.103 361.576" fill="#132905"/>
<path d="M625.086 371.733C625.086 371.733 604.489 365.091 604.378 363.901C604.267 362.711 621.211 359.058 625.086 371.733Z" fill="#132905"/>
<path d="M496.378 457.167C496.378 457.167 565.979 398.634 605.458 475.847C644.937 553.061 463.128 632.184 463.128 632.184C463.128 632.184 327.471 517.249 376.03 449.196C433.505 368.8 496.378 457.167 496.378 457.167Z" fill="#7DBA58"/>
<path d="M484.612 616.824C481.096 608.66 472.319 607.497 463.626 610.846C454.933 614.195 449.618 620.809 453.134 628.946C455.003 632.96 458.345 636.102 462.469 637.72C466.592 639.337 471.18 639.307 475.282 637.636C477.295 636.928 479.144 635.819 480.715 634.374C482.286 632.93 483.546 631.181 484.419 629.233C485.292 627.286 485.759 625.182 485.792 623.049C485.825 620.915 485.424 618.797 484.612 616.824Z" fill="#FFBAB7"/>
<path d="M453.964 608.854L466.062 620.948L461.716 625.376L449.617 613.254C448.958 612.682 448.551 611.874 448.484 611.003C448.416 610.133 448.694 609.272 449.257 608.605C449.92 608.025 450.782 607.727 451.661 607.773C452.54 607.82 453.366 608.208 453.964 608.854Z" fill="#FFBAB7"/>
<path d="M448.759 614.278L463.294 623.078L460.138 628.613L445.603 619.757C445.209 619.573 444.857 619.308 444.571 618.98C444.285 618.652 444.071 618.268 443.942 617.852C443.813 617.436 443.772 616.998 443.822 616.566C443.872 616.133 444.012 615.716 444.232 615.341C444.453 614.966 444.75 614.64 445.103 614.386C445.457 614.132 445.859 613.955 446.285 613.865C446.711 613.775 447.152 613.776 447.578 613.866C448.004 613.956 448.406 614.134 448.759 614.388V614.278Z" fill="#FFBAB7"/>
<path d="M445.686 621.529L461.383 627.894L459.169 633.761L443.471 627.396C442.634 627.123 441.938 626.531 441.534 625.749C441.13 624.967 441.05 624.058 441.312 623.217C441.669 622.415 442.33 621.786 443.15 621.47C443.97 621.154 444.882 621.175 445.686 621.529Z" fill="#FFBAB7"/>
<path d="M460.885 605.146L472.568 617.102L468.277 621.392L456.594 609.464C455.946 608.893 455.551 608.09 455.494 607.229C455.437 606.369 455.723 605.52 456.289 604.87C456.943 604.313 457.786 604.032 458.643 604.083C459.5 604.135 460.303 604.516 460.885 605.146Z" fill="#FFBAB7"/>
<path d="M653.906 485.948C658.725 489.38 662.164 494.413 663.61 500.148C665.056 505.882 664.413 511.944 661.797 517.249C644.521 551.732 595.657 620.339 476.001 636.113L473.482 613.669C473.482 613.669 577.855 581.815 617.113 495.579C618.653 492.294 620.898 489.388 623.687 487.067C626.476 484.746 629.742 483.067 633.253 482.148C636.763 481.229 640.433 481.093 644.003 481.75C647.572 482.406 650.953 483.84 653.906 485.948Z" fill="#FFBAB7"/>
<path d="M504.821 633.208L487.795 601.188C487.795 601.188 581.925 566.179 621.902 478.144C621.902 478.144 635.911 465.137 658.945 479.141C681.979 493.144 667.942 622.193 504.821 633.208Z" fill="#EBF5E4"/>
<defs>
<linearGradient id="paint0_linear_418_544" x1="601.76" y1="419.535" x2="605.89" y2="457.366" gradientUnits="userSpaceOnUse">
<stop stop-color="#EF9593"/>
<stop offset="0.99" stop-color="#EF9593" stop-opacity="0"/>
</linearGradient>
</defs>
</svg>