<svg width="209" height="156" viewBox="0 0 209 156" fill="none" xmlns="http://www.w3.org/2000/svg">
<g clip-path="url(#clip0_123_177)">
<path d="M70.5555 145.112L67.3699 148.044L69.9016 143.797C67.907 140.18 64.6448 137.055 64.6448 137.055C64.6448 137.055 57.877 143.538 57.877 148.634C57.877 153.73 60.907 155.51 64.6448 155.51C68.3826 155.51 71.4126 153.73 71.4126 148.634C71.3705 147.414 71.0788 146.215 70.5555 145.112Z" fill="#F2F2F2"/>
<path d="M66.5504 148.203V148.454C66.5355 151.374 66.043 153.652 65.0766 155.256C65.0629 155.28 65.048 155.302 65.0343 155.326L64.9261 155.26L64.8229 155.195C65.895 153.463 66.2743 151.015 66.288 148.468C66.2892 148.386 66.2905 148.302 66.2892 148.219C66.2855 147.141 66.2196 146.05 66.1139 144.991C66.1064 144.909 66.0977 144.825 66.089 144.742C65.9422 143.344 65.7308 142.009 65.5144 140.848C65.4995 140.766 65.4833 140.684 65.4671 140.603C65.0928 138.641 64.7109 137.22 64.6239 136.905C64.6139 136.867 64.6077 136.845 64.6064 136.841L64.7246 136.807L64.7259 136.806L64.8453 136.772C64.8465 136.777 64.8676 136.848 64.9025 136.98C65.0355 137.472 65.3813 138.809 65.7208 140.572C65.7358 140.652 65.7519 140.734 65.7669 140.816C65.9435 141.757 66.1164 142.81 66.2532 143.914C66.288 144.191 66.3191 144.465 66.3465 144.735C66.3564 144.818 66.3651 144.901 66.3726 144.983C66.487 146.129 66.5463 147.202 66.5504 148.203Z" fill="white"/>
<path d="M65.7213 140.572C65.638 140.584 65.5534 140.595 65.4676 140.603C65.2345 140.627 65.0004 140.639 64.7661 140.64C63.7676 140.641 62.7816 140.418 61.8806 139.988C61.8284 140.054 61.7761 140.12 61.7227 140.187C62.6704 140.649 63.7114 140.889 64.7661 140.888C65.0162 140.888 65.2661 140.875 65.5148 140.848C65.5994 140.84 65.684 140.829 65.7673 140.816C66.4552 140.717 67.1241 140.515 67.7511 140.215C67.6976 140.147 67.6454 140.08 67.5944 140.014C67.0009 140.291 66.3698 140.479 65.7213 140.572V140.572Z" fill="white"/>
<path d="M66.3469 144.735C66.2611 144.74 66.1752 144.742 66.0894 144.742C66.0633 144.743 66.0359 144.743 66.0098 144.743C64.9279 144.743 63.862 144.482 62.9031 143.981C61.9441 143.48 61.1205 142.755 60.5025 141.867C60.4527 141.94 60.403 142.014 60.3545 142.088C60.9987 142.987 61.8477 143.719 62.8311 144.224C63.8146 144.729 64.9042 144.992 66.0098 144.992C66.0446 144.992 66.0795 144.992 66.1143 144.991C66.2013 144.989 66.2872 144.987 66.373 144.983C67.7009 144.915 68.9812 144.466 70.0607 143.69C70.0209 143.617 69.9811 143.543 69.94 143.47C68.8909 144.232 67.6422 144.672 66.3469 144.735V144.735Z" fill="white"/>
<path d="M66.5511 148.203C66.464 148.21 66.3769 148.215 66.2899 148.219C66.1966 148.223 66.1033 148.225 66.01 148.225C64.5562 148.224 63.1421 147.751 61.9793 146.879C60.8166 146.006 59.9678 144.781 59.56 143.385C59.504 143.486 59.448 143.586 59.3945 143.686C59.854 145.078 60.7405 146.29 61.9281 147.149C63.1157 148.009 64.544 148.472 66.01 148.474C66.1033 148.474 66.1966 148.473 66.2886 148.468C66.3769 148.465 66.464 148.46 66.5511 148.454C68.3096 148.316 69.9501 147.516 71.1405 146.214C71.1144 146.122 71.0845 146.032 71.0547 145.94C69.9049 147.251 68.2895 148.063 66.5511 148.203V148.203Z" fill="white"/>
<path d="M190.064 149.574L185.741 149.824L190.392 148.143C191.141 144.082 190.6 139.597 190.6 139.597C190.6 139.597 181.255 140.322 178.024 144.264C174.794 148.206 176.01 151.502 178.901 153.871C181.792 156.24 185.263 156.784 188.494 152.842C189.235 151.871 189.769 150.759 190.064 149.574V149.574Z" fill="#F2F2F2"/>
<path d="M185.006 149.427L184.847 149.622C182.984 151.871 181.159 153.321 179.395 153.949C179.369 153.959 179.344 153.966 179.318 153.976L179.276 153.856L179.237 153.741C181.165 153.081 183.01 151.427 184.635 149.466C184.688 149.403 184.742 149.339 184.794 149.274C185.475 148.438 186.115 147.553 186.705 146.666C186.751 146.598 186.797 146.528 186.843 146.458C187.616 145.284 188.299 144.117 188.867 143.082C188.908 143.009 188.947 142.936 188.986 142.863C189.94 141.108 190.546 139.766 190.678 139.468C190.695 139.432 190.703 139.411 190.705 139.407L190.818 139.456L190.82 139.456L190.934 139.505C190.931 139.51 190.903 139.578 190.846 139.702C190.637 140.167 190.057 141.42 189.202 143C189.163 143.071 189.123 143.144 189.083 143.217C188.623 144.057 188.089 144.981 187.495 145.921C187.346 146.158 187.197 146.389 187.047 146.615C187.002 146.686 186.956 146.756 186.91 146.824C186.272 147.783 185.638 148.65 185.006 149.427Z" fill="white"/>
<path d="M189.202 143C189.13 142.955 189.058 142.91 188.986 142.863C188.791 142.734 188.602 142.595 188.421 142.446C187.647 141.814 187.026 141.017 186.602 140.114C186.52 140.131 186.437 140.149 186.354 140.167C186.793 141.126 187.446 141.971 188.263 142.639C188.456 142.797 188.658 142.945 188.867 143.082C188.938 143.129 189.011 143.174 189.083 143.217C189.678 143.577 190.323 143.844 190.998 144.01C191 143.923 191.002 143.838 191.005 143.755C190.37 143.593 189.762 143.339 189.202 143V143Z" fill="white"/>
<path d="M187.047 146.615C186.978 146.565 186.91 146.512 186.843 146.458C186.822 146.442 186.801 146.425 186.781 146.409C185.944 145.723 185.285 144.845 184.861 143.85C184.437 142.855 184.26 141.772 184.344 140.694C184.259 140.719 184.174 140.744 184.09 140.771C184.018 141.874 184.211 142.978 184.652 143.992C185.092 145.006 185.768 145.9 186.623 146.601C186.65 146.623 186.677 146.645 186.705 146.666C186.773 146.72 186.841 146.773 186.91 146.824C187.98 147.613 189.255 148.077 190.582 148.161C190.598 148.079 190.613 147.997 190.628 147.914C189.333 147.839 188.089 147.387 187.047 146.615V146.615Z" fill="white"/>
<path d="M185.007 149.427C184.934 149.378 184.864 149.327 184.794 149.274C184.72 149.218 184.646 149.161 184.574 149.102C183.45 148.179 182.656 146.918 182.31 145.506C181.964 144.094 182.084 142.608 182.653 141.271C182.546 141.313 182.44 141.354 182.334 141.399C181.807 142.766 181.725 144.265 182.099 145.683C182.472 147.1 183.283 148.364 184.416 149.294C184.488 149.353 184.561 149.411 184.636 149.466C184.706 149.52 184.776 149.571 184.847 149.622C186.295 150.63 188.071 151.05 189.817 150.798C189.855 150.71 189.89 150.621 189.925 150.531C188.204 150.816 186.44 150.421 185.007 149.427Z" fill="white"/>
<path d="M40.0925 152.503L43.4634 152.503L44.0889 139.434L40.0918 139.504L40.0925 152.503Z" fill="#FFB6B6"/>
<path d="M39.2324 151.403L45.8708 151.403H45.8711C46.9931 151.403 48.0691 151.848 48.8624 152.642C49.6558 153.435 50.1015 154.511 50.1016 155.633V155.77L39.2326 155.77L39.2324 151.403Z" fill="#2F2E41"/>
<path d="M26.4656 152.503L29.8364 152.503L30.5045 139.434L26.4648 139.504L26.4656 152.503Z" fill="#FFB6B6"/>
<path d="M25.6055 151.403L32.2439 151.403H32.2441C33.3661 151.403 34.4421 151.848 35.2355 152.642C36.0288 153.435 36.4746 154.511 36.4746 155.633V155.77L25.6057 155.77L25.6055 151.403Z" fill="#2F2E41"/>
<path d="M59.3013 96.5115C59.2879 96.1211 59.1891 95.7384 59.0118 95.3903C58.8345 95.0422 58.583 94.7373 58.275 94.4969C57.9671 94.2565 57.6101 94.0866 57.2294 93.999C56.8486 93.9115 56.4533 93.9085 56.0713 93.9902L51.1496 85.8695L49.0342 90.3275L54.0322 97.3556C54.2121 97.9882 54.6178 98.5328 55.1725 98.8863C55.7272 99.2398 56.3922 99.3776 57.0417 99.2735C57.6912 99.1695 58.28 98.8308 58.6964 98.3218C59.1129 97.8127 59.3281 97.1686 59.3013 96.5115H59.3013Z" fill="#FFB6B6"/>
<path d="M18.1743 105.006C18.404 104.69 18.5616 104.327 18.636 103.944C18.7104 103.56 18.6997 103.165 18.6049 102.786C18.51 102.407 18.3332 102.054 18.0869 101.75C17.8406 101.447 17.5308 101.202 17.1794 101.031L18.2962 91.6017L13.8855 93.8148L13.5011 102.43C13.2536 103.039 13.2383 103.718 13.4581 104.338C13.6779 104.958 14.1174 105.476 14.6934 105.793C15.2695 106.111 15.942 106.206 16.5835 106.061C17.2251 105.916 17.7911 105.54 18.1743 105.006H18.1743Z" fill="#FFB6B6"/>
<path d="M42.0682 95.4537L44.4553 96.8675C44.4553 96.8675 46.3948 98.102 45.7426 106.688C45.0903 115.275 44.3109 149.676 44.3109 149.676H40.0797L33.227 108.582L30.7265 150.121L26.2726 149.899C26.2726 149.899 17.1728 102.606 21.1103 97.4734L42.0682 95.4537Z" fill="#2F2E41"/>
<path d="M19.6699 65.0672C19.6699 65.0672 31.2782 61.3359 40.6441 64.8147L39.8773 82.8778L45.6545 96.9677C45.6545 96.9677 27.288 104.091 21.1674 98.1046L22.9525 83.9911L19.6699 65.0672Z" fill="#29A1DC"/>
<path d="M37.5234 66.9361L39.956 64.8147C39.956 64.8147 41.5787 64.7955 42.9751 67.2916C44.3715 69.7876 46.9014 77.8445 46.9014 77.8445L55.0006 91.5615L51.4375 94.0108L38.592 76.0488L37.5234 66.9361Z" fill="#29A1DC"/>
<path d="M20.1004 65.9578L20.2663 64.8261C20.2663 64.8261 15.7433 65.1607 15.3607 69.5182C14.978 73.8757 13.5791 98.464 13.5791 98.464L18.053 99.3547L22.5036 74.1183L20.1004 65.9578Z" fill="#29A1DC"/>
<path d="M35.7809 58.5389L22.2111 61.2105C21.9319 61.2652 21.6424 61.2069 21.4062 61.0484C21.1699 60.8899 21.0062 60.6442 20.9509 60.3652L19.7992 54.517C19.3911 52.4392 19.8249 50.2843 21.0054 48.5262C22.1859 46.7681 24.0163 45.5506 26.0943 45.1415C28.1723 44.7324 30.3277 45.1651 32.0867 46.3444C33.8457 47.5238 35.0643 49.3533 35.4746 51.4308L36.6264 57.2789C36.681 57.5581 36.6227 57.8475 36.4642 58.0837C36.3057 58.3199 36.0599 58.4836 35.7809 58.5389V58.5389Z" fill="#2F2E41"/>
<path d="M29.4485 59.5318C32.6831 59.5318 35.3052 56.9101 35.3052 53.676C35.3052 50.442 32.6831 47.8202 29.4485 47.8202C26.2139 47.8202 23.5918 50.442 23.5918 53.676C23.5918 56.9101 26.2139 59.5318 29.4485 59.5318Z" fill="#FFB6B6"/>
<path d="M37.4441 51.6505L29.1465 53.2842L28.8268 52.1098L28.636 53.3847L27.3583 53.6362L26.7248 51.3087L26.3465 53.8355L23.8743 54.3222L23.8513 54.2052C23.5294 52.5614 23.8729 50.857 24.8063 49.466C25.7398 48.075 27.1869 47.111 28.8303 46.7855L30.0002 46.5552C31.6443 46.2334 33.349 46.5769 34.7402 47.5102C36.1314 48.4435 37.0955 49.8904 37.421 51.5335L37.4441 51.6505Z" fill="#2F2E41"/>
<path d="M30.5379 60.7052C30.4754 60.7175 30.412 60.7242 30.3483 60.7255L24.0613 60.8499L22.084 50.8098L28.7723 49.493L28.6448 49.7186C26.87 52.8587 29.4636 56.8731 31.1676 58.9866C31.293 59.1412 31.3721 59.3282 31.3959 59.5259C31.4197 59.7235 31.3871 59.9239 31.302 60.1039C31.2313 60.2574 31.1252 60.392 30.9923 60.4965C30.8595 60.601 30.7037 60.6726 30.5379 60.7052V60.7052Z" fill="#2F2E41"/>
<path d="M119.819 0.0657425H38.7881V42.6065H119.819V0.0657425Z" fill="#F2F2F2"/>
<path d="M119.77 0H38.7383V4.93165H119.77V0Z" fill="#E6E6E6"/>
<path d="M118.302 6.9312H40.6201V40.364H118.302V6.9312Z" fill="white"/>
<path d="M46.4165 3.26901C46.8671 3.26901 47.2324 2.90377 47.2324 2.45322C47.2324 2.00267 46.8671 1.63743 46.4165 1.63743C45.9659 1.63743 45.6006 2.00267 45.6006 2.45322C45.6006 2.90377 45.9659 3.26901 46.4165 3.26901Z" fill="white"/>
<path d="M49.5142 3.26901C49.9648 3.26901 50.3301 2.90377 50.3301 2.45322C50.3301 2.00267 49.9648 1.63743 49.5142 1.63743C49.0635 1.63743 48.6982 2.00267 48.6982 2.45322C48.6982 2.90377 49.0635 3.26901 49.5142 3.26901Z" fill="white"/>
<path d="M43.312 3.26901C43.7626 3.26901 44.1279 2.90377 44.1279 2.45322C44.1279 2.00267 43.7626 1.63743 43.312 1.63743C42.8614 1.63743 42.4961 2.00267 42.4961 2.45322C42.4961 2.90377 42.8614 3.26901 43.312 3.26901Z" fill="white"/>
<path d="M53.8544 32.2002C54.6462 32.2002 55.288 31.5585 55.288 30.7669C55.288 29.9753 54.6462 29.3336 53.8544 29.3336C53.0627 29.3336 52.4209 29.9753 52.4209 30.7669C52.4209 31.5585 53.0627 32.2002 53.8544 32.2002Z" fill="#E4E4E4"/>
<path d="M66.5175 28.4464C67.3092 28.4464 67.9511 27.8047 67.9511 27.0131C67.9511 26.2215 67.3092 25.5798 66.5175 25.5798C65.7258 25.5798 65.084 26.2215 65.084 27.0131C65.084 27.8047 65.7258 28.4464 66.5175 28.4464Z" fill="#E4E4E4"/>
<path d="M79.1806 32.2002C79.9723 32.2002 80.6141 31.5585 80.6141 30.7669C80.6141 29.9753 79.9723 29.3336 79.1806 29.3336C78.3889 29.3336 77.7471 29.9753 77.7471 30.7669C77.7471 31.5585 78.3889 32.2002 79.1806 32.2002Z" fill="#E4E4E4"/>
<path d="M91.8437 13.2658C92.6354 13.2658 93.2772 12.6241 93.2772 11.8325C93.2772 11.0409 92.6354 10.3991 91.8437 10.3991C91.052 10.3991 90.4102 11.0409 90.4102 11.8325C90.4102 12.6241 91.052 13.2658 91.8437 13.2658Z" fill="#E4E4E4"/>
<path d="M104.506 13.0893C105.298 13.0893 105.939 12.4476 105.939 11.656C105.939 10.8644 105.298 10.2227 104.506 10.2227C103.714 10.2227 103.072 10.8644 103.072 11.656C103.072 12.4476 103.714 13.0893 104.506 13.0893Z" fill="#E4E4E4"/>
<path d="M79.2101 31.088L66.517 27.145L53.9976 30.9581L53.7109 30.5758L66.517 26.5481L79.1499 30.4459L91.7032 11.6313L91.7538 11.6108L104.417 11.5885L104.595 12.0318L91.9826 12.0338L79.2101 31.088Z" fill="#E4E4E4"/>
<path d="M133.39 55.7802H57.1348V95.8136H133.39V55.7802Z" fill="#F2F2F2"/>
<path d="M133.343 55.7184H57.0879V60.3593H133.343V55.7184Z" fill="#E6E6E6"/>
<path d="M131.963 61.9731H58.7432V93.775H131.963V61.9731Z" fill="white"/>
<path d="M64.3147 58.7947C64.7388 58.7947 65.0825 58.451 65.0825 58.027C65.0825 57.603 64.7388 57.2593 64.3147 57.2593C63.8906 57.2593 63.5469 57.603 63.5469 58.027C63.5469 58.451 63.8906 58.7947 64.3147 58.7947Z" fill="white"/>
<path d="M67.2288 58.7947C67.6528 58.7947 67.9966 58.451 67.9966 58.027C67.9966 57.603 67.6528 57.2593 67.2288 57.2593C66.8047 57.2593 66.4609 57.603 66.4609 58.027C66.4609 58.451 66.8047 58.7947 67.2288 58.7947Z" fill="white"/>
<path d="M61.3919 58.7947C61.8159 58.7947 62.1597 58.451 62.1597 58.027C62.1597 57.603 61.8159 57.2593 61.3919 57.2593C60.9678 57.2593 60.624 57.603 60.624 58.027C60.624 58.451 60.9678 58.7947 61.3919 58.7947Z" fill="white"/>
<path d="M184.296 17.5444H93.8438V65.0309H184.296V17.5444Z" fill="#E6E6E6"/>
<path d="M184.241 17.471H93.7891V22.976H184.241V17.471Z" fill="#29A1DC"/>
<path d="M182.12 24.6669H95.874V62.3808H182.12V24.6669Z" fill="white"/>
<path d="M102.36 21.1201C102.863 21.1201 103.271 20.7124 103.271 20.2094C103.271 19.7065 102.863 19.2988 102.36 19.2988C101.857 19.2988 101.449 19.7065 101.449 20.2094C101.449 20.7124 101.857 21.1201 102.36 21.1201Z" fill="white"/>
<path d="M105.817 21.1201C106.32 21.1201 106.728 20.7124 106.728 20.2094C106.728 19.7065 106.32 19.2988 105.817 19.2988C105.314 19.2988 104.906 19.7065 104.906 20.2094C104.906 20.7124 105.314 21.1201 105.817 21.1201Z" fill="white"/>
<path d="M98.8942 21.1201C99.3972 21.1201 99.805 20.7124 99.805 20.2094C99.805 19.7065 99.3972 19.2988 98.8942 19.2988C98.3912 19.2988 97.9834 19.7065 97.9834 20.2094C97.9834 20.7124 98.3912 21.1201 98.8942 21.1201Z" fill="white"/>
<path d="M139.613 32.9308C139.433 32.9545 139.269 33.0426 139.15 33.1786C139.031 33.3146 138.965 33.4893 138.965 33.6701C138.965 33.8509 139.031 34.0255 139.15 34.1615C139.269 34.2975 139.433 34.3856 139.613 34.4094H170.153C170.332 34.3856 170.497 34.2975 170.616 34.1615C170.735 34.0255 170.801 33.8509 170.801 33.6701C170.801 33.4893 170.735 33.3146 170.616 33.1786C170.497 33.0426 170.332 32.9545 170.153 32.9308H139.613Z" fill="#E6E6E6"/>
<path d="M139.613 50.3678C139.433 50.3916 139.269 50.4797 139.15 50.6157C139.031 50.7517 138.965 50.9263 138.965 51.1072C138.965 51.288 139.031 51.4626 139.15 51.5986C139.269 51.7346 139.433 51.8227 139.613 51.8465H170.153C170.332 51.8227 170.497 51.7346 170.616 51.5986C170.735 51.4626 170.801 51.288 170.801 51.1072C170.801 50.9263 170.735 50.7517 170.616 50.6157C170.497 50.4797 170.332 50.3916 170.153 50.3678H139.613Z" fill="#E6E6E6"/>
<path d="M139.613 37.3667C139.433 37.3904 139.269 37.4785 139.15 37.6145C139.031 37.7505 138.965 37.9252 138.965 38.106C138.965 38.2868 139.031 38.4614 139.15 38.5974C139.269 38.7334 139.433 38.8215 139.613 38.8453H152.754C152.934 38.8215 153.098 38.7334 153.217 38.5974C153.336 38.4614 153.402 38.2868 153.402 38.106C153.402 37.9252 153.336 37.7505 153.217 37.6145C153.098 37.4785 152.934 37.3904 152.754 37.3667H139.613Z" fill="#E6E6E6"/>
<path d="M139.613 41.5949C139.433 41.6187 139.269 41.7068 139.15 41.8428C139.031 41.9788 138.965 42.1534 138.965 42.3342C138.965 42.5151 139.031 42.6897 139.15 42.8257C139.269 42.9617 139.433 43.0498 139.613 43.0736H170.153C170.332 43.0498 170.497 42.9617 170.616 42.8257C170.735 42.6897 170.801 42.5151 170.801 42.3342C170.801 42.1534 170.735 41.9788 170.616 41.8428C170.497 41.7068 170.332 41.6187 170.153 41.5949H139.613Z" fill="#E6E6E6"/>
<path d="M139.613 46.0308C139.433 46.0546 139.269 46.1427 139.15 46.2787C139.031 46.4147 138.965 46.5893 138.965 46.7701C138.965 46.951 139.031 47.1256 139.15 47.2616C139.269 47.3976 139.433 47.4857 139.613 47.5095H152.754C152.934 47.4857 153.098 47.3976 153.217 47.2616C153.336 47.1256 153.402 46.951 153.402 46.7701C153.402 46.5893 153.336 46.4147 153.217 46.2787C153.098 46.1427 152.934 46.0546 152.754 46.0308H139.613Z" fill="#E6E6E6"/>
<path d="M121.814 51.0365C121.907 51.0367 121.998 51.0187 122.084 50.9834C122.169 50.9482 122.247 50.8964 122.313 50.8311C122.378 50.7657 122.43 50.6881 122.466 50.6027C122.501 50.5173 122.519 50.4256 122.519 50.3331C122.519 50.2406 122.501 50.149 122.466 50.0635C122.43 49.978 122.379 49.9004 122.313 49.835C122.248 49.7696 122.17 49.7177 122.084 49.6824C121.999 49.6471 121.907 49.629 121.815 49.6291H107.536C107.444 49.6289 107.352 49.6469 107.267 49.6821C107.181 49.7174 107.103 49.7692 107.038 49.8345C106.972 49.8998 106.92 49.9774 106.885 50.0629C106.849 50.1483 106.831 50.2399 106.831 50.3324C106.831 50.425 106.849 50.5166 106.885 50.6021C106.92 50.6875 106.972 50.7652 107.037 50.8306C107.103 50.896 107.181 50.9478 107.266 50.9832C107.352 51.0185 107.443 51.0366 107.536 51.0365H121.814Z" fill="#E4E4E4"/>
<path d="M121.814 46.8904C122 46.89 122.179 46.8158 122.311 46.6838C122.443 46.5519 122.517 46.3731 122.517 46.1867C122.517 46.0003 122.443 45.8215 122.311 45.6895C122.179 45.5576 122 45.4833 121.814 45.483H107.536C107.444 45.4827 107.352 45.5008 107.267 45.536C107.181 45.5713 107.103 45.6231 107.038 45.6884C106.972 45.7537 106.92 45.8313 106.885 45.9168C106.849 46.0022 106.831 46.0938 106.831 46.1863C106.831 46.2788 106.849 46.3705 106.885 46.456C106.92 46.5414 106.972 46.6191 107.037 46.6845C107.103 46.7499 107.181 46.8017 107.266 46.8371C107.352 46.8724 107.443 46.8905 107.536 46.8904H121.814Z" fill="#E4E4E4"/>
<path d="M114.675 33.7407C115.552 33.7407 116.408 34.0005 117.137 34.4872C117.865 34.974 118.433 35.6658 118.768 36.4752C119.104 37.2845 119.191 38.1752 119.02 39.0344C118.85 39.8937 118.428 40.683 117.808 41.3024C117.188 41.9219 116.399 42.3438 115.54 42.5147C114.68 42.6856 113.79 42.5979 112.98 42.2627C112.17 41.9274 111.479 41.3596 110.992 40.6312C110.505 39.9028 110.245 39.0464 110.245 38.1703V38.1703C110.246 36.9959 110.714 35.87 111.544 35.0396C112.375 34.2092 113.501 33.7421 114.675 33.7407V33.7407Z" fill="#29A1DC"/>
<path d="M78.8476 72.9143C79.8049 72.9143 80.581 72.1384 80.581 71.1812C80.581 70.2241 79.8049 69.4481 78.8476 69.4481C77.8903 69.4481 77.1143 70.2241 77.1143 71.1812C77.1143 72.1384 77.8903 72.9143 78.8476 72.9143Z" fill="#E4E4E4"/>
<path d="M106.698 69.8326C106.852 69.8323 107.005 69.8626 107.148 69.9216C107.291 69.9805 107.421 70.0671 107.53 70.1762C107.639 70.2854 107.726 70.415 107.785 70.5577C107.844 70.7005 107.875 70.8534 107.875 71.0079C107.875 71.1624 107.844 71.3154 107.785 71.4581C107.726 71.6008 107.639 71.7304 107.53 71.8396C107.421 71.9488 107.291 72.0353 107.148 72.0943C107.005 72.1532 106.852 72.1835 106.698 72.1833H88.4673C88.3128 72.1835 88.1598 72.1532 88.017 72.0943C87.8742 72.0353 87.7444 71.9488 87.635 71.8396C87.5257 71.7304 87.4389 71.6008 87.3798 71.4581C87.3206 71.3154 87.2901 71.1624 87.2901 71.0079C87.2901 70.8534 87.3206 70.7005 87.3798 70.5577C87.4389 70.415 87.5257 70.2854 87.635 70.1762C87.7444 70.0671 87.8742 69.9805 88.017 69.9216C88.1598 69.8626 88.3128 69.8323 88.4673 69.8326H106.698ZM106.698 69.5447H88.4673C88.0792 69.5447 87.707 69.6989 87.4325 69.9733C87.1581 70.2477 87.0039 70.6198 87.0039 71.0079C87.0039 71.396 87.1581 71.7682 87.4325 72.0426C87.707 72.317 88.0792 72.4711 88.4673 72.4711H106.698C107.086 72.4711 107.458 72.317 107.732 72.0426C108.007 71.7682 108.161 71.396 108.161 71.0079C108.161 70.6198 108.007 70.2477 107.732 69.9733C107.458 69.6989 107.086 69.5447 106.698 69.5447V69.5447Z" fill="#E4E4E4"/>
<path d="M99.5044 72.4711H85.7808C85.3927 72.4711 85.0205 72.317 84.746 72.0426C84.4716 71.7682 84.3174 71.396 84.3174 71.0079C84.3174 70.6199 84.4716 70.2477 84.746 69.9733C85.0205 69.6989 85.3927 69.5447 85.7808 69.5447H99.5044C99.8926 69.5447 100.265 69.6989 100.539 69.9733C100.814 70.2477 100.968 70.6199 100.968 71.0079C100.968 71.396 100.814 71.7682 100.539 72.0426C100.265 72.317 99.8926 72.4711 99.5044 72.4711Z" fill="#E4E4E4"/>
<path d="M78.8476 80.1109C79.8049 80.1109 80.581 79.335 80.581 78.3778C80.581 77.4207 79.8049 76.6447 78.8476 76.6447C77.8903 76.6447 77.1143 77.4207 77.1143 78.3778C77.1143 79.335 77.8903 80.1109 78.8476 80.1109Z" fill="#E4E4E4"/>
<path d="M106.698 77.0292C106.852 77.0289 107.005 77.0592 107.148 77.1182C107.291 77.1771 107.421 77.2637 107.53 77.3728C107.639 77.482 107.726 77.6116 107.785 77.7543C107.844 77.8971 107.875 78.05 107.875 78.2045C107.875 78.359 107.844 78.512 107.785 78.6547C107.726 78.7974 107.639 78.927 107.53 79.0362C107.421 79.1454 107.291 79.2319 107.148 79.2909C107.005 79.3499 106.852 79.3801 106.698 79.3799H88.4673C88.3128 79.3801 88.1598 79.3499 88.017 79.2909C87.8742 79.2319 87.7444 79.1454 87.635 79.0362C87.5257 78.927 87.4389 78.7974 87.3798 78.6547C87.3206 78.512 87.2901 78.359 87.2901 78.2045C87.2901 78.05 87.3206 77.8971 87.3798 77.7543C87.4389 77.6116 87.5257 77.482 87.635 77.3728C87.7444 77.2637 87.8742 77.1771 88.017 77.1182C88.1598 77.0592 88.3128 77.0289 88.4673 77.0292H106.698ZM106.698 76.7413H88.4673C88.0792 76.7413 87.707 76.8955 87.4325 77.1699C87.1581 77.4443 87.0039 77.8165 87.0039 78.2045C87.0039 78.5926 87.1581 78.9648 87.4325 79.2392C87.707 79.5136 88.0792 79.6677 88.4673 79.6677H106.698C107.086 79.6677 107.458 79.5136 107.732 79.2392C108.007 78.9648 108.161 78.5926 108.161 78.2045C108.161 77.8165 108.007 77.4443 107.732 77.1699C107.458 76.8955 107.086 76.7413 106.698 76.7413V76.7413Z" fill="#E4E4E4"/>
<path d="M104.687 79.6677H85.7808C85.3927 79.6677 85.0205 79.5136 84.746 79.2392C84.4716 78.9648 84.3174 78.5926 84.3174 78.2045C84.3174 77.8164 84.4716 77.4443 84.746 77.1699C85.0205 76.8955 85.3927 76.7413 85.7808 76.7413H104.687C105.075 76.7418 105.446 76.8962 105.72 77.1705C105.994 77.4449 106.148 77.8168 106.148 78.2045C106.148 78.5923 105.994 78.9641 105.72 79.2385C105.446 79.5128 105.075 79.6672 104.687 79.6677V79.6677Z" fill="#E4E4E4"/>
<path d="M78.8476 87.3075C79.8049 87.3075 80.581 86.5316 80.581 85.5744C80.581 84.6173 79.8049 83.8413 78.8476 83.8413C77.8903 83.8413 77.1143 84.6173 77.1143 85.5744C77.1143 86.5316 77.8903 87.3075 78.8476 87.3075Z" fill="#E4E4E4"/>
<path d="M106.698 84.2258C107.009 84.2258 107.308 84.3496 107.529 84.57C107.749 84.7904 107.873 85.0894 107.873 85.4011C107.873 85.7128 107.749 86.0118 107.529 86.2322C107.308 86.4526 107.009 86.5764 106.698 86.5764H88.4673C88.1556 86.5764 87.8566 86.4526 87.6361 86.2322C87.4157 86.0118 87.2918 85.7128 87.2918 85.4011C87.2918 85.0894 87.4157 84.7904 87.6361 84.57C87.8566 84.3496 88.1556 84.2258 88.4673 84.2258H106.698ZM106.698 83.9379H88.4673C88.0792 83.9379 87.707 84.0921 87.4325 84.3665C87.1581 84.6409 87.0039 85.013 87.0039 85.4011C87.0039 85.7892 87.1581 86.1613 87.4325 86.4358C87.707 86.7102 88.0792 86.8643 88.4673 86.8643H106.698C107.086 86.8643 107.458 86.7102 107.732 86.4358C108.007 86.1613 108.161 85.7892 108.161 85.4011C108.161 85.013 108.007 84.6409 107.732 84.3665C107.458 84.0921 107.086 83.9379 106.698 83.9379V83.9379Z" fill="#E4E4E4"/>
<path d="M106.763 86.8643H85.7808C85.3927 86.8643 85.0205 86.7101 84.746 86.4357C84.4716 86.1613 84.3174 85.7892 84.3174 85.4011C84.3174 85.013 84.4716 84.6409 84.746 84.3665C85.0205 84.0921 85.3927 83.9379 85.7808 83.9379H106.763C107.151 83.9379 107.523 84.0921 107.798 84.3665C108.072 84.6409 108.226 85.013 108.226 85.4011C108.226 85.7892 108.072 86.1613 107.798 86.4357C107.523 86.7101 107.151 86.8643 106.763 86.8643V86.8643Z" fill="#E4E4E4"/>
<path d="M161.315 104.379C161.526 104.127 161.68 103.832 161.765 103.514C161.851 103.196 161.865 102.863 161.808 102.539C161.751 102.215 161.623 101.907 161.434 101.638C161.245 101.368 160.999 101.143 160.713 100.979L162.21 93.1175L158.371 94.7173L157.538 101.937C157.294 102.435 157.241 103.005 157.389 103.539C157.537 104.073 157.876 104.535 158.341 104.836C158.807 105.137 159.367 105.256 159.915 105.172C160.463 105.088 160.961 104.806 161.315 104.379V104.379Z" fill="#FFB7B7"/>
<path d="M180.457 152.62L177.207 152.62L175.66 140.082L180.458 140.083L180.457 152.62Z" fill="#FFB7B7"/>
<path d="M181.287 155.77L170.805 155.77V155.637C170.805 154.556 171.235 153.518 172 152.753C172.765 151.988 173.803 151.558 174.885 151.558H174.885L181.287 151.559L181.287 155.77Z" fill="#2F2E41"/>
<path d="M162.691 152.62L159.44 152.62L157.894 140.082L162.692 140.083L162.691 152.62Z" fill="#FFB7B7"/>
<path d="M162.725 155.77L152.243 155.77V155.637C152.243 154.556 152.673 153.518 153.438 152.753C154.203 151.988 155.241 151.558 156.323 151.558H156.323L162.725 151.559L162.725 155.77Z" fill="#2F2E41"/>
<path d="M162.425 99.669L159.243 106.999L156.618 149.126L163.247 148.861L165.058 128.779L170.643 110.892L173.854 130.833L175.18 148.331L180.665 148.568L182.851 99.669H162.425Z" fill="#2F2E41"/>
<path d="M178.33 63.5021L169.108 63.7328L163.694 66.5119L163.396 87.0158L160.02 101.172C160.02 101.172 181.119 102.624 184.036 100.503L180.588 84.3305L185.212 66.8527L178.33 63.5021Z" fill="#3F3D56"/>
<path d="M164.679 66.8325L163.694 66.5119C163.694 66.5119 160.569 68.5171 160.866 73.3651C160.866 73.3651 160.749 75.8737 160.861 77.5433C160.989 79.4583 157.148 98.488 157.148 98.488H162.717L165.103 81.255L164.679 66.8325Z" fill="#3F3D56"/>
<path d="M185.068 104.645C184.856 104.393 184.702 104.097 184.617 103.779C184.531 103.461 184.517 103.128 184.574 102.804C184.632 102.48 184.759 102.172 184.948 101.903C185.138 101.633 185.383 101.408 185.669 101.244L184.172 93.3826L188.011 94.9824L188.844 102.203C189.088 102.7 189.141 103.27 188.993 103.804C188.845 104.338 188.506 104.8 188.041 105.101C187.575 105.402 187.015 105.522 186.467 105.438C185.919 105.353 185.421 105.071 185.068 104.645V104.645Z" fill="#FFB7B7"/>
<path d="M183.824 67.0976L184.809 66.777C184.809 66.777 187.934 68.7822 187.637 73.6302C187.637 73.6302 187.754 76.1388 187.642 77.8084C187.514 79.7234 189.233 98.7531 189.233 98.7531H183.665L181.278 81.5201L183.824 67.0976Z" fill="#3F3D56"/>
<path d="M180.595 54.8999C180.595 56.1641 180.22 57.3999 179.517 58.4511C178.815 59.5023 177.816 60.3216 176.648 60.8054C175.48 61.2892 174.195 61.4158 172.954 61.1691C171.714 60.9225 170.575 60.3137 169.681 59.4198C168.787 58.5258 168.178 57.3869 167.931 56.1469C167.685 54.907 167.811 53.6217 168.295 52.4537C168.779 51.2857 169.599 50.2874 170.65 49.585C171.701 48.8827 172.937 48.5078 174.202 48.5078V48.5078C175.039 48.5057 175.869 48.6685 176.643 48.987C177.418 49.3055 178.122 49.7734 178.716 50.364C179.309 50.9547 179.781 51.6564 180.103 52.4292C180.426 53.202 180.593 54.0307 180.595 54.868C180.595 54.8786 180.595 54.8892 180.595 54.8999Z" fill="#FFB7B7"/>
<path d="M167.83 46.3141C168.579 44.7039 170.028 45.0223 171.296 45.5681C172.901 45.2121 174.427 44.1464 176.157 44.7766C177.86 47.254 183.58 46.5251 182.363 50.5582C182.362 51.5246 184.182 50.9621 183.864 52.5449C184.828 55.5909 180.383 61.3596 177.832 60.1448C178.463 58.9884 179.904 56.3617 177.718 56.1011C173.014 60.4771 177.232 47.7682 171.322 51.4642C169.365 53.2548 166.686 48.1052 167.83 46.3141Z" fill="#2F2E41"/>
<path d="M208.758 156H0.241898C0.177743 156 0.116215 155.975 0.0708501 155.929C0.0254854 155.884 0 155.822 0 155.758C0 155.694 0.0254854 155.632 0.0708501 155.587C0.116215 155.542 0.177743 155.516 0.241898 155.516H208.758C208.822 155.516 208.884 155.542 208.929 155.587C208.975 155.632 209 155.694 209 155.758C209 155.822 208.975 155.884 208.929 155.929C208.884 155.975 208.822 156 208.758 156Z" fill="#CACACA"/>
</g>
<defs>
<clipPath id="clip0_123_177">
<rect width="209" height="156" fill="white"/>
</clipPath>
</defs>
</svg>
