<svg width="209" height="136" viewBox="0 0 209 136" fill="none" xmlns="http://www.w3.org/2000/svg">
<g clip-path="url(#clip0_123_345)">
<path opacity="0.1" d="M4.04682 43.3622C2.47318 48.0944 7.09986 52.3504 10.7389 55.778C15.72 60.4801 19.6503 66.1699 22.2749 72.4783C23.8567 76.2905 24.9571 80.3918 24.662 84.5053C23.826 96.1721 12.7654 103.945 3.92798 111.674C2.67603 112.779 1.42408 113.935 0.694628 115.425C-1.6474 120.206 2.33384 125.716 6.71875 128.765C22.3343 139.617 44.8735 136.389 60.0199 124.899C67.8635 118.948 74.6048 110.855 84.1102 108.209C90.1876 106.526 96.6379 107.324 102.926 107.843C112.355 108.619 121.828 108.731 131.272 108.177C134.588 107.973 138.055 107.656 140.831 105.846C147.861 101.271 146.675 90.4222 151.748 83.7665C155.396 78.9833 161.627 77.1393 167.05 74.4953C175.399 70.4033 182.365 63.9822 187.096 56.0181C191.45 48.6562 193.706 40.2867 195.907 32.0353C197.566 25.8355 199.232 19.3426 197.827 13.0798C196.421 6.81692 190.872 0.969274 184.438 1.51883C179.498 1.94015 175.568 5.81755 170.81 7.20568C159.414 10.5396 148.349 -1.03965 136.526 0.0777773C129.082 0.779983 123.078 6.38745 118.54 12.2901C114.001 18.1927 110.159 24.8382 104.166 29.2834C94.843 36.2037 82.0694 36.448 70.6563 34.207C59.2433 31.9661 48.2933 27.5554 36.7533 26.0859C29.9546 25.2208 24.744 29.2448 18.6215 31.4572C13.0031 33.4885 6.12863 37.1034 4.04682 43.3622Z" fill="#29A1DC"/>
<path opacity="0.1" d="M28.2664 136C36.4979 136 43.171 133.986 43.171 131.502C43.171 129.018 36.4979 127.004 28.2664 127.004C20.0348 127.004 13.3618 129.018 13.3618 131.502C13.3618 133.986 20.0348 136 28.2664 136Z" fill="#29A1DC"/>
<path opacity="0.1" d="M169.194 76.5934C191.178 76.5934 209 75.4187 209 73.9698C209 72.5208 191.178 71.3462 169.194 71.3462C147.21 71.3462 129.388 72.5208 129.388 73.9698C129.388 75.4187 147.21 76.5934 169.194 76.5934Z" fill="#29A1DC"/>
<g opacity="0.5">
<path d="M145.128 13.922C145.68 13.922 146.209 14.1399 146.6 14.5277C146.99 14.9155 147.21 15.4415 147.21 15.9899V73.4894H143.046V15.9879C143.046 15.4398 143.266 14.9143 143.656 14.527C144.047 14.1396 144.576 13.922 145.128 13.922V13.922Z" fill="#29A1DC"/>
<path d="M190.807 13.922C191.359 13.922 191.889 14.1399 192.279 14.5277C192.669 14.9155 192.889 15.4415 192.889 15.9899V73.4894H188.715V15.9879C188.715 15.7156 188.769 15.4461 188.875 15.1948C188.98 14.9435 189.135 14.7153 189.329 14.5234C189.523 14.3314 189.754 14.1795 190.008 14.0763C190.261 13.9731 190.533 13.9207 190.807 13.922V13.922Z" fill="#29A1DC"/>
<path d="M202.957 26.7754C204.107 26.7754 205.039 25.8496 205.039 24.7075C205.039 23.5654 204.107 22.6395 202.957 22.6395L132.979 22.6395C131.829 22.6395 130.897 23.5654 130.897 24.7075C130.897 25.8496 131.829 26.7754 132.979 26.7754L202.957 26.7754Z" fill="#29A1DC"/>
<path d="M141.809 18.5586C141.809 17.6638 141.079 16.9384 140.178 16.9384C139.277 16.9384 138.547 17.6638 138.547 18.5586V30.8523C138.547 31.7471 139.277 32.4724 140.178 32.4724C141.079 32.4724 141.809 31.7471 141.809 30.8523V18.5586Z" fill="#29A1DC"/>
<path d="M138.546 20.0118C138.546 19.117 137.816 18.3917 136.915 18.3917C136.014 18.3917 135.284 19.117 135.284 20.0118V29.401C135.284 30.2958 136.014 31.0212 136.915 31.0212C137.816 31.0212 138.546 30.2958 138.546 29.401V20.0118Z" fill="#29A1DC"/>
<path d="M194.126 30.8523C194.126 31.7471 194.856 32.4724 195.757 32.4724C196.657 32.4724 197.388 31.7471 197.388 30.8523V18.5586C197.388 17.6638 196.657 16.9384 195.757 16.9384C194.856 16.9384 194.126 17.6638 194.126 18.5586V30.8523Z" fill="#29A1DC"/>
<path d="M197.388 29.399C197.388 30.2938 198.119 31.0192 199.019 31.0192C199.92 31.0192 200.65 30.2938 200.65 29.399V20.0098C200.65 19.115 199.92 18.3896 199.019 18.3896C198.119 18.3896 197.388 19.115 197.388 20.0098V29.399Z" fill="#29A1DC"/>
</g>
<g opacity="0.5">
<path d="M163.811 37.9883H172.323C173.247 37.9883 174.133 38.3529 174.786 39.0018C175.439 39.6507 175.806 40.5308 175.806 41.4485V55.9729H160.336V41.4485C160.336 40.5322 160.702 39.6533 161.353 39.0047C162.005 38.356 162.889 37.9905 163.811 37.9883Z" fill="#29A1DC"/>
<path d="M169.193 54.6683H166.929V62.1646H169.193V54.6683Z" fill="#29A1DC"/>
<path d="M164.665 63.1008H162.4V70.5971H164.665V63.1008Z" fill="#29A1DC"/>
<path d="M174.098 63.1008H171.834V70.5971H174.098V63.1008Z" fill="#29A1DC"/>
<path d="M175.797 61.6008H160.327V63.6626H175.797V61.6008Z" fill="#29A1DC"/>
</g>
<path opacity="0.1" d="M96.937 123.818C143.823 123.818 181.832 121.05 181.832 117.635C181.832 114.22 143.823 111.451 96.937 111.451C50.0508 111.451 12.042 114.22 12.042 117.635C12.042 121.05 50.0508 123.818 96.937 123.818Z" fill="#29A1DC"/>
<path d="M118.917 95.614C118.917 95.614 124.765 98.2376 127.595 98.2376C127.595 98.2376 130.613 98.9866 132.307 99.7377C134.002 100.489 140.608 100.861 140.608 100.861C140.608 100.861 148.343 103.672 149.286 104.985C150.228 106.298 153.058 100.304 153.058 100.304L151.548 96.5564L123.066 91.1219L118.917 95.614Z" fill="#FFB9B9"/>
<path opacity="0.05" d="M118.917 95.614C118.917 95.614 124.765 98.2376 127.595 98.2376C127.595 98.2376 130.613 98.9866 132.307 99.7377C134.002 100.489 140.608 100.861 140.608 100.861C140.608 100.861 148.343 103.672 149.286 104.985C150.228 106.298 153.058 100.304 153.058 100.304L151.548 96.5564L123.066 91.1219L118.917 95.614Z" fill="black"/>
<path d="M147.781 103.861C147.781 103.861 151.365 108.543 149.857 111.358C148.349 114.173 148.914 114.169 149.857 114.356C150.799 114.543 156.082 115.669 156.649 111.545C157.217 107.421 158.348 98.2396 158.348 98.2396L150.603 97.4886C150.603 97.4886 152.687 104.423 147.781 103.861Z" fill="#737A9D"/>
<path d="M103.258 89.4305L119.482 96.9268C119.482 96.9268 124.576 92.9904 124.195 90.9306L105.33 86.4324L103.258 89.4305Z" fill="#4C4C78"/>
<path opacity="0.1" d="M103.258 89.4305L119.482 96.9268C119.482 96.9268 124.576 92.9904 124.195 90.9306L105.33 86.4324L103.258 89.4305Z" fill="black"/>
<path d="M171.363 99.1759L169.659 103.298L165.704 104.23C164.596 103.311 163.411 102.489 162.161 101.771C160.032 100.55 157.231 99.355 154.58 99.5443C154.58 99.5443 144.015 97.857 143.45 97.1019C143.45 97.1019 136.657 95.6018 135.149 95.789C134.422 95.8786 132.858 95.3596 131.436 94.7958C129.91 94.1852 128.545 93.5399 128.545 93.5399L133.45 85.8564C134.022 86.101 134.611 86.3051 135.212 86.467C137.087 87.0125 140.462 87.7208 145.337 87.7208C153.26 87.7208 164.202 95.7789 164.202 95.7789C164.202 95.7789 164.311 95.8155 164.497 95.8705C165.317 96.1167 167.653 96.6968 168.73 95.7789C170.042 94.6777 171.363 99.1759 171.363 99.1759Z" fill="#FFB9B9"/>
<path opacity="0.1" d="M171.363 99.1759L169.659 103.298L165.704 104.23C164.596 103.311 163.411 102.489 162.161 101.771C167.915 102.2 164.479 95.8908 164.479 95.8908H164.491C165.31 96.1371 167.646 96.7172 168.724 95.7992C170.042 94.6777 171.363 99.1759 171.363 99.1759Z" fill="black"/>
<path d="M162.184 101.93C162.184 101.93 166.747 108.286 164.827 111.867C162.907 115.447 163.626 115.445 164.827 115.685C166.028 115.925 172.754 117.356 173.474 112.107C174.027 108.071 173.541 100.324 173.287 96.9614C173.271 96.7492 173.212 96.5422 173.115 96.3527C173.018 96.1631 172.883 95.9946 172.719 95.8571C172.556 95.7196 172.366 95.6158 172.162 95.5517C171.958 95.4876 171.743 95.4645 171.529 95.4837L164.856 96.0944C164.856 96.0944 168.429 102.646 162.184 101.93Z" fill="#737A9D"/>
<path d="M53.8296 108.17L54.0181 117.354L56.0938 118.852H63.2633L64.5828 116.979V108.17L62.5072 106.296H55.7167L53.8296 108.17Z" fill="#29A1DC"/>
<path opacity="0.2" d="M54.9607 108.358C54.9607 108.358 56.2823 116.79 54.9607 117.541L54.0181 117.354L53.8296 108.36L54.9607 108.358Z" fill="white"/>
<path d="M70.4309 107.608L71.941 106.108H79.1126L80.6227 107.608C80.6227 107.608 82.5098 113.043 80.9997 116.603L79.297 118.29H72.1254L70.4268 116.79L70.4309 107.608Z" fill="#29A1DC"/>
<path opacity="0.1" d="M53.8296 108.17L54.0181 117.354L56.0938 118.852H63.2633L64.5828 116.979V108.17L62.5072 106.296H55.7167L53.8296 108.17Z" fill="black"/>
<path opacity="0.1" d="M70.4309 107.608L71.941 106.108H79.1126L80.6227 107.608C80.6227 107.608 82.5098 113.043 80.9997 116.603L79.297 118.29H72.1254L70.4268 116.79L70.4309 107.608Z" fill="black"/>
<path opacity="0.2" d="M72.1254 107.983C72.1254 107.983 73.6355 114.543 72.1254 116.79H70.4268V107.608L72.1254 107.983Z" fill="white"/>
<path d="M64.583 76.4998C64.583 76.4998 65.337 83.8088 65.337 84.7451C65.337 85.6814 64.96 91.8689 66.0911 97.8631C67.2221 103.857 65.337 111.354 65.337 111.354H71.562L74.2032 91.1138L72.316 80.4321L71.562 77.0595L64.583 76.4998Z" fill="#FFB9B9"/>
<path opacity="0.05" d="M64.583 76.4998C64.583 76.4998 65.337 83.8088 65.337 84.7451C65.337 85.6814 64.96 91.8689 66.0911 97.8631C67.2221 103.857 65.337 111.354 65.337 111.354H71.562L74.2032 91.1138L72.316 80.4321L71.562 77.0595L64.583 76.4998Z" fill="black"/>
<path d="M63.4522 57.9473C63.4522 57.9473 55.1516 58.1345 61.7536 71.8143C61.7536 71.8143 63.4522 77.436 63.4522 78.3743C63.4522 79.3126 71.9413 79.3106 72.8777 78.3743C73.8141 77.4381 71.3675 69.7545 71.3675 66.1926C71.3675 62.6307 68.9231 56.8237 63.4522 57.9473Z" fill="#CBCDDA"/>
<path opacity="0.05" d="M63.4522 57.9473C63.4522 57.9473 55.1516 58.1345 61.7536 71.8143C61.7536 71.8143 63.4522 77.436 63.4522 78.3743C63.4522 79.3126 71.9413 79.3106 72.8777 78.3743C73.8141 77.4381 71.3675 69.7545 71.3675 66.1926C71.3675 62.6307 68.9231 56.8237 63.4522 57.9473Z" fill="black"/>
<path d="M53.4528 49.8851C53.4528 49.8851 60.6244 57.5687 66.6587 51.947L65.9047 71.8123C65.9047 71.8123 56.094 60.0071 49.3076 60.9433L53.4528 49.8851Z" fill="#FFB9B9"/>
<path opacity="0.1" d="M135.205 86.4894C134.918 88.6856 134.016 93.3099 131.428 94.808C129.902 94.1974 128.537 93.5522 128.537 93.5522L133.442 85.8686C134.014 86.1167 134.603 86.3241 135.205 86.4894V86.4894Z" fill="black"/>
<path d="M134.764 85.3007C134.764 85.3007 134.198 94.4844 129.67 95.2334L102.32 90.3322C100.992 90.0926 99.7443 89.5335 98.6848 88.7039C97.5804 87.8409 96.226 86.6685 95.4248 85.5938C94.9904 85.0076 94.7282 84.4479 94.7712 83.9859C94.9597 81.924 103.26 77.0513 100.431 68.4315C100.833 68.1151 101.28 67.8599 101.758 67.6743C104.121 66.6994 109.559 65.9829 117.409 74.0532C117.409 74.0634 131.934 85.6834 134.764 85.3007Z" fill="#4C4C78"/>
<path d="M60.811 108.919L60.9995 118.103L63.0732 119.603H70.2427L71.5643 117.728V108.919L69.4886 107.047H62.6961L60.811 108.919Z" fill="#29A1DC"/>
<path opacity="0.2" d="M61.9421 109.115C61.9421 109.115 63.2637 117.547 61.9421 118.298L60.9995 118.111L60.811 109.115H61.9421Z" fill="white"/>
<path d="M81.5635 108.17L83.0736 106.67H90.2452L91.7553 108.17C91.7553 108.17 93.6425 113.605 92.1323 117.165L90.4337 118.852H83.2621L81.5635 117.352V108.17Z" fill="#29A1DC"/>
<path opacity="0.2" d="M83.2597 108.545C83.2597 108.545 84.7698 115.105 83.2597 117.352H81.561V108.17L83.2597 108.545Z" fill="white"/>
<path d="M71.511 111.732H81.7171C82.5162 111.732 83.1637 112.445 83.1637 113.326C83.1637 114.205 82.5162 114.92 81.7171 114.92H71.511C70.6442 114.92 69.9721 114.087 70.0766 113.141C70.1607 112.337 70.7795 111.732 71.511 111.732Z" fill="#29A1DC"/>
<path opacity="0.1" d="M100.994 82.496C98.9759 83.9004 96.849 84.8204 95.4229 85.604C94.9885 85.0178 94.7262 84.4581 94.7692 83.9961C94.9578 81.9342 103.258 77.0615 100.429 68.4417C100.831 68.1253 101.278 67.8701 101.756 67.6845C102.2 67.6752 102.64 67.6151 103.07 67.5054C103.07 67.5054 104.766 79.8724 100.994 82.496Z" fill="black"/>
<path d="M58.6408 64.4116C58.6408 64.4116 61.4705 67.2225 64.2059 69.0034C66.7303 70.646 62.2245 54.1045 62.2245 54.1045C62.2245 54.1045 65.0194 51.8656 66.6606 50.5364C67.7567 49.6407 69.1533 49.1899 70.5701 49.2745C74.3465 49.5167 81.264 51.0941 86.8455 58.6983C94.9576 69.7545 102.316 67.5054 102.316 67.5054C102.316 67.5054 104.014 79.8744 100.24 82.498C96.4657 85.1216 92.3164 86.0579 93.0684 87.558C93.8204 89.058 89.6732 80.2489 80.2395 78.7509C70.8058 77.2528 60.4296 70.6928 60.6201 67.5074C60.6222 67.5054 57.8867 65.354 58.6408 64.4116Z" fill="#CBCDDA"/>
<path opacity="0.1" d="M56.6596 54.77C56.6587 54.2282 56.6107 53.6875 56.5162 53.1539C54.0451 51.9327 54.3955 50.2719 54.3955 50.2719L50.2441 61.328C51.7625 61.1245 53.4324 61.5479 55.1085 62.3457C57.3153 60.6136 56.6596 57.76 56.6596 54.77Z" fill="black"/>
<path d="M48.359 63.9455C53.5691 63.9455 57.7927 59.75 57.7927 54.5746C57.7927 49.3992 53.5691 45.2038 48.359 45.2038C43.1489 45.2038 38.9253 49.3992 38.9253 54.5746C38.9253 59.75 43.1489 63.9455 48.359 63.9455Z" fill="#FFB9B9"/>
<path opacity="0.1" d="M39.788 56.6874C39.6139 57.243 39.3454 57.815 38.8393 58.1121C38.2246 58.4744 37.3763 58.2953 36.8293 57.8272C36.2822 57.359 35.9871 56.6589 35.8334 55.9587C35.6121 54.9449 35.6473 53.8924 35.9359 52.8954C36.1818 52.0508 36.6059 51.2671 36.7842 50.4021C36.9747 49.4821 36.8784 48.5194 37.0915 47.6035C37.3804 46.3619 38.2041 45.3218 39.0074 44.3265C39.2591 43.9466 39.5853 43.621 39.9666 43.3692C40.3479 43.1174 40.7764 42.9446 41.2265 42.861L45.1749 41.6785C45.9235 41.4294 46.6928 41.2469 47.4739 41.133C48.478 41.0309 49.4925 41.1193 50.4634 41.3935C51.2366 41.5867 51.9701 41.9117 52.6313 42.3542C53.2864 42.8377 53.8634 43.4177 54.3422 44.0741C56.4302 46.7852 57.6207 51.2203 59.7742 53.8887C58.9238 54.1492 58.0735 53.2781 57.2231 53.5427C57.1023 53.5945 56.9676 53.6052 56.84 53.5732C56.7135 53.505 56.6145 53.3958 56.5593 53.2638C55.8099 51.9635 54.6305 50.961 53.2214 50.4265C52.1764 50.0337 50.7626 50.0357 50.1909 50.9883C49.8036 51.6315 49.9594 52.4436 50.0618 53.1865C50.1643 53.9294 50.1458 54.8148 49.5537 55.2728C49.2264 55.4925 48.8456 55.6204 48.4513 55.6432C46.6134 55.8825 44.7448 55.7008 42.9886 55.112C42.3739 54.9084 41.7489 54.2714 41.0994 54.4749C40.2224 54.7497 40.0196 55.9485 39.788 56.6874Z" fill="black"/>
<path d="M39.581 56.4818C39.4068 57.0374 39.1384 57.6094 38.6323 57.9065C38.0176 58.2688 37.1693 58.0897 36.6222 57.6216C36.0751 57.1535 35.7801 56.4533 35.6264 55.7531C35.405 54.7393 35.4402 53.6868 35.7289 52.6899C35.9747 51.8452 36.3989 51.0616 36.5771 50.1965C36.7677 49.2765 36.6714 48.3138 36.8845 47.3979C37.1734 46.1563 37.9971 45.1162 38.8003 44.1209C39.052 43.741 39.3783 43.4154 39.7596 43.1636C40.1409 42.9118 40.5694 42.739 41.0194 42.6554L44.9679 41.4729C45.7165 41.2245 46.4859 41.0427 47.2669 40.9294C48.271 40.8273 49.2855 40.9157 50.2564 41.19C51.0296 41.3831 51.7631 41.7082 52.4243 42.1507C53.0794 42.6341 53.6563 43.2141 54.1352 43.8706C56.2231 46.5817 57.4136 51.0168 59.5671 53.6852C58.7168 53.9457 57.8665 53.0746 57.0161 53.3392C56.8953 53.3909 56.7606 53.4016 56.633 53.3697C56.505 53.3022 56.4044 53.1929 56.3481 53.0603C55.5988 51.76 54.4194 50.7575 53.0103 50.223C51.9653 49.8302 50.5515 49.8322 49.9798 50.7848C49.5925 51.4279 49.7482 52.24 49.8507 52.983C49.9531 53.7259 49.9347 54.6113 49.3425 55.0692C49.0153 55.2889 48.6345 55.4169 48.2402 55.4397C46.4023 55.6789 44.5337 55.4972 42.7775 54.9084C42.1628 54.7049 41.5378 54.0678 40.8883 54.2714C40.0154 54.5441 39.8126 55.7429 39.581 56.4818Z" fill="#B96B6B"/>
<g opacity="0.1">
<path d="M62.8639 53.5936L62.2246 54.1065C62.2246 54.1065 64.8658 63.801 64.9703 67.6092C66.3185 67.2469 63.7245 56.8746 62.8639 53.5936Z" fill="black"/>
<path d="M100.607 80.9979C96.8347 83.6215 92.6833 84.5578 93.4353 86.0579C94.1873 87.558 90.0401 78.7488 80.6064 77.2508C71.7567 75.8444 62.0771 69.9845 61.069 66.6343C59.6552 65.4334 58.6266 64.4137 58.6266 64.4137C57.8726 65.3499 60.608 67.5054 60.608 67.5054C60.4195 70.6908 70.7957 77.2508 80.2274 78.7488C89.659 80.2469 93.8103 89.056 93.0563 87.5559C92.3022 86.0559 96.4515 85.1135 100.228 82.496C101.308 81.7449 101.939 80.196 102.291 78.3662C101.926 79.5243 101.386 80.4626 100.607 80.9979Z" fill="black"/>
</g>
<path d="M81.5632 98.9887C80.9977 99.7377 80.6207 107.421 80.6207 107.421C80.6207 107.421 82.8746 118.477 75.9079 117.354C68.9413 116.23 74.9654 108.36 74.9654 108.36L74.0228 97.4906C70.4391 88.1279 71.1931 81.3745 71.1931 81.3745L70.5231 75.2541L70.2485 72.7546L78.3606 70.8801C78.1393 71.1732 78.2336 73.0009 78.4323 75.1238C78.7417 78.4496 79.3032 82.498 79.3032 82.498C80.9956 84.3706 82.1288 98.2376 81.5632 98.9887Z" fill="#FFB9B9"/>
<path opacity="0.1" d="M70.0538 54.0129C70.0538 54.0129 61.7532 54.2001 68.3551 67.8799C68.3551 67.8799 70.0538 73.5016 70.0538 74.4399C70.0538 75.3782 78.5428 75.3762 79.4792 74.4399C80.4156 73.5037 77.9691 65.8201 77.9691 62.2582C77.9691 58.6963 75.5246 52.8873 70.0538 54.0129Z" fill="black"/>
<path opacity="0.1" d="M78.4261 75.1238C76.6639 75.6021 72.3446 75.6449 70.5148 75.2541L70.2402 72.7546L78.3523 70.8801C78.1351 71.1711 78.2294 72.9989 78.4261 75.1238Z" fill="black"/>
<path d="M69.6768 54.0129C69.6768 54.0129 61.3762 54.2001 67.9782 67.8799C67.9782 67.8799 69.6768 73.5016 69.6768 74.4399C69.6768 75.3782 78.1659 75.3762 79.1023 74.4399C80.0387 73.5037 77.5922 65.8201 77.5922 62.2582C77.5922 58.6963 75.1477 52.8873 69.6768 54.0129Z" fill="#CBCDDA"/>
<g opacity="0.5">
<path d="M15.3758 83.349L9.3681 83.4711L8.38867 84.8104V89.4388L9.61399 90.2916H15.3758L16.6032 88.9524V84.5682L15.3758 83.349Z" fill="#29A1DC"/>
<path opacity="0.2" d="M15.2548 84.0795C15.2548 84.0795 9.73679 84.9323 9.24707 84.0795L9.37001 83.4689L15.2548 83.3468V84.0795Z" fill="white"/>
<path d="M15.8676 96.7457L16.8491 97.7206V102.349L15.8676 103.324C15.8676 103.324 12.3126 104.545 9.98284 103.568L8.87842 102.471V97.8427L9.8599 96.7457H15.8676Z" fill="#29A1DC"/>
<path opacity="0.2" d="M15.6217 97.8427C15.6217 97.8427 11.3311 98.8177 9.85986 97.8427V96.7457H15.8676L15.6217 97.8427Z" fill="white"/>
<path d="M13.5381 90.2589V96.8474C13.5237 97.1084 13.406 97.3532 13.2106 97.5283C13.0152 97.7033 12.7579 97.7944 12.4951 97.7817C12.2323 97.7944 11.975 97.7033 11.7796 97.5283C11.5842 97.3532 11.4665 97.1084 11.4521 96.8474V90.2589C11.4521 89.6992 11.9972 89.2656 12.616 89.3308C12.8579 89.3451 13.086 89.4478 13.2562 89.6192C13.4265 89.7905 13.5268 90.0184 13.5381 90.2589V90.2589Z" fill="#29A1DC"/>
<path d="M24.998 83.5361L18.9903 83.6582L18.0088 84.9975V89.6259L19.2362 90.4787H24.998L26.2233 89.1395V84.7552L24.998 83.5361Z" fill="#29A1DC"/>
<path opacity="0.2" d="M24.8749 84.2688C24.8749 84.2688 19.3569 85.1216 18.8672 84.2688L18.9901 83.6582L24.8749 83.5361V84.2688Z" fill="white"/>
<path d="M25.4877 96.9349L26.4692 97.9099V102.538L25.4877 103.513C25.4877 103.513 21.9327 104.735 19.603 103.758L18.4985 102.66V98.03L19.48 96.9329L25.4877 96.9349Z" fill="#29A1DC"/>
<path opacity="0.2" d="M25.2438 98.03C25.2438 98.03 20.9531 99.0049 19.4819 98.03V96.9329H25.4897L25.2438 98.03Z" fill="white"/>
<path d="M23.1538 90.4462V97.0347C23.1395 97.2957 23.0217 97.5405 22.8263 97.7155C22.6309 97.8906 22.3737 97.9817 22.1108 97.9689V97.9689C21.848 97.9817 21.5908 97.8906 21.3953 97.7155C21.1999 97.5405 21.0822 97.2957 21.0679 97.0347V90.4462C21.0679 89.8864 21.6129 89.4529 22.2317 89.518C22.4736 89.5323 22.7017 89.6351 22.8719 89.8064C23.0422 89.9778 23.1426 90.2057 23.1538 90.4462V90.4462Z" fill="#29A1DC"/>
<path d="M37.2473 87.0613L32.301 87.1611L31.4937 88.2642V92.0745L32.5038 92.7746H37.2473L38.2554 91.6715V88.0627L37.2473 87.0613Z" fill="#29A1DC"/>
<path opacity="0.2" d="M37.1446 87.6618C37.1446 87.6618 32.6019 88.364 32.1982 87.6618L32.2986 87.1611L37.1425 87.0613L37.1446 87.6618Z" fill="white"/>
<path d="M37.6506 98.089L38.4579 98.891V102.701L37.6506 103.503C37.6506 103.503 34.7246 104.507 32.8067 103.707L31.897 102.805V98.9907L32.7043 98.089H37.6506Z" fill="#29A1DC"/>
<path opacity="0.2" d="M37.4481 98.9907C37.4481 98.9907 33.9156 99.7926 32.7046 98.9907V98.089H37.6509L37.4481 98.9907Z" fill="white"/>
<path d="M35.7327 92.7482V98.1725C35.72 98.3867 35.6227 98.5872 35.4619 98.7305C35.3011 98.8739 35.0899 98.9483 34.8742 98.9378C34.6577 98.9483 34.4459 98.8733 34.285 98.7291C34.1241 98.5849 34.0273 98.3833 34.0156 98.1684V92.7482C34.0228 92.6334 34.054 92.5215 34.1072 92.4194C34.1605 92.3174 34.2347 92.2275 34.325 92.1557C34.4153 92.0838 34.5197 92.0315 34.6316 92.0021C34.7435 91.9726 34.8603 91.9668 34.9746 91.9849V91.9849C35.1735 91.9968 35.361 92.0813 35.5009 92.2222C35.6409 92.3631 35.7235 92.5504 35.7327 92.7482Z" fill="#29A1DC"/>
<path d="M45.1667 87.214L40.2204 87.3157L39.4131 88.4169V92.2271L40.4233 92.9293H45.1667L46.1769 91.8261V88.2174L45.1667 87.214Z" fill="#29A1DC"/>
<path opacity="0.2" d="M45.066 87.8164C45.066 87.8164 40.5233 88.5186 40.1196 87.8164L40.22 87.3157L45.0639 87.216L45.066 87.8164Z" fill="white"/>
<path d="M45.57 98.2437L46.3773 99.0456V102.856L45.57 103.658C45.57 103.658 42.644 104.661 40.7261 103.861L39.8184 102.96V99.1413L40.6257 98.2396L45.57 98.2437Z" fill="#29A1DC"/>
<path opacity="0.2" d="M45.3695 99.1413C45.3695 99.1413 41.8369 99.9432 40.626 99.1413V98.2396H45.5703L45.3695 99.1413Z" fill="white"/>
<path d="M43.6443 92.9029V98.3271C43.6327 98.5421 43.5358 98.7437 43.3749 98.8879C43.214 99.032 43.0022 99.1071 42.7858 99.0965C42.5694 99.1071 42.3575 99.032 42.1967 98.8879C42.0358 98.7437 41.9389 98.5421 41.9272 98.3271V92.9029C41.9344 92.7881 41.9656 92.6761 42.0189 92.5741C42.0721 92.4721 42.1463 92.3822 42.2366 92.3103C42.3269 92.2385 42.4314 92.1861 42.5432 92.1567C42.6551 92.1273 42.7719 92.1215 42.8862 92.1396V92.1396C43.0851 92.1514 43.2726 92.2359 43.4126 92.3768C43.5525 92.5178 43.6351 92.7051 43.6443 92.9029Z" fill="#29A1DC"/>
</g>
<g opacity="0.8">
<path d="M24.0106 119.902C24.0106 119.902 21.1072 118.925 19.7077 121.467C19.339 122.156 19.1513 122.927 19.1621 123.707C19.1728 124.487 19.3816 125.252 19.7692 125.931C20.6871 127.58 22.5784 129.719 26.1621 129.53C29.2028 129.369 30.213 127.063 30.4876 124.919C30.5926 124.115 30.4881 123.298 30.1842 122.546C29.8803 121.794 29.387 121.131 28.7516 120.623C28.1163 120.114 27.3601 119.775 26.5555 119.64C25.7508 119.505 24.9247 119.577 24.1561 119.849L24.0106 119.902Z" fill="#29A1DC"/>
<path opacity="0.1" d="M20.3859 126.157C19.9984 125.478 19.7896 124.713 19.7788 123.933C19.7681 123.153 19.9557 122.382 20.3244 121.693C21.7219 119.151 24.6274 120.128 24.6274 120.128L24.777 120.075C25.8839 119.677 27.1005 119.704 28.1886 120.15C27.5876 119.794 26.9144 119.575 26.2177 119.509C25.5211 119.443 24.8183 119.531 24.1602 119.768L24.0106 119.821C24.0106 119.821 21.1072 118.844 19.7077 121.386C19.339 122.075 19.1513 122.845 19.1621 123.626C19.1728 124.406 19.3816 125.171 19.7692 125.85C20.3839 126.934 21.4084 128.231 23.0476 128.937C21.9219 128.269 21.0016 127.307 20.3859 126.157V126.157Z" fill="white"/>
<path opacity="0.2" d="M22.5107 121.123C22.5107 121.123 23.5865 121.964 26.199 121.123Z" fill="black"/>
<path d="M22.2812 115.017C22.2812 115.017 24.1254 119.984 23.9737 121.282L25.4347 121.13C25.4347 121.13 22.9759 116.776 23.5906 115.023L22.2812 115.017Z" fill="#29A1DC"/>
<path opacity="0.2" d="M22.2812 115.017C22.2812 115.017 24.1254 119.984 23.9737 121.282L25.4347 121.13C25.4347 121.13 22.9759 116.776 23.5906 115.023L22.2812 115.017Z" fill="black"/>
<path d="M29.8134 115.424C29.8134 115.424 26.9078 113.949 25.6088 115.168C24.3097 116.387 24.1089 119.503 24.1089 119.503C24.1089 119.503 28.8462 120.153 29.8134 115.424Z" fill="#29A1DC"/>
<path opacity="0.1" d="M29.8134 115.424C29.8134 115.424 26.9078 113.949 25.6088 115.168C24.3097 116.387 24.1089 119.503 24.1089 119.503C24.1089 119.503 28.8462 120.153 29.8134 115.424Z" fill="white"/>
<path d="M24.1089 119.495C24.1089 119.495 24.8711 115.878 29.8134 115.424" stroke="#29A1DC" stroke-miterlimit="10"/>
</g>
<path d="M36.2675 124.398C36.2675 124.398 33.364 123.421 31.9645 125.964C31.5958 126.653 31.4081 127.423 31.4189 128.203C31.4296 128.983 31.6385 129.748 32.026 130.427C32.944 132.076 34.8352 134.215 38.4189 134.026C41.4597 133.865 42.4698 131.559 42.7444 129.416C42.8494 128.612 42.745 127.794 42.441 127.042C42.1371 126.29 41.6438 125.627 41.0085 125.119C40.3731 124.61 39.6169 124.272 38.8123 124.136C38.0077 124.001 37.1815 124.073 36.4129 124.345L36.2675 124.398Z" fill="#29A1DC"/>
<path opacity="0.1" d="M32.6491 130.655C32.2616 129.976 32.0527 129.211 32.042 128.431C32.0313 127.651 32.2189 126.881 32.5876 126.192C33.9851 123.649 36.8906 124.626 36.8906 124.626L37.0401 124.573C38.1471 124.175 39.3637 124.202 40.4518 124.649C39.8507 124.293 39.1776 124.073 38.4809 124.007C37.7842 123.941 37.0815 124.029 36.4234 124.266L36.2738 124.319C36.2738 124.319 33.3704 123.342 31.9709 125.884C31.6022 126.573 31.4145 127.344 31.4252 128.124C31.436 128.904 31.6448 129.669 32.0323 130.348C32.6471 131.433 33.6716 132.729 35.3108 133.435C34.1851 132.767 33.2648 131.805 32.6491 130.655Z" fill="white"/>
<path opacity="0.2" d="M34.7739 125.62C34.7739 125.62 35.8497 126.46 38.4622 125.62Z" fill="black"/>
<path d="M34.5425 119.509C34.5425 119.509 36.3866 124.476 36.235 125.774L37.6959 125.622C37.6959 125.622 35.2371 121.268 35.8518 119.515L34.5425 119.509Z" fill="#29A1DC"/>
<path opacity="0.2" d="M34.5425 119.509C34.5425 119.509 36.3866 124.476 36.235 125.774L37.6959 125.622C37.6959 125.622 35.2371 121.268 35.8518 119.515L34.5425 119.509Z" fill="black"/>
<path d="M42.0765 119.923C42.0765 119.923 39.171 118.447 37.8719 119.666C36.5729 120.885 36.3721 124.001 36.3721 124.001C36.3721 124.001 41.1094 124.649 42.0765 119.923Z" fill="#29A1DC"/>
<path opacity="0.1" d="M42.0765 119.923C42.0765 119.923 39.171 118.447 37.8719 119.666C36.5729 120.885 36.3721 124.001 36.3721 124.001C36.3721 124.001 41.1094 124.649 42.0765 119.923Z" fill="white"/>
<path d="M36.3721 124.001C36.3721 124.001 37.1343 120.385 42.0765 119.931" stroke="#29A1DC" stroke-miterlimit="10"/>
<path d="M12.909 112.609C12.909 112.609 13.1938 112.294 12.659 112.168V111.649H12.9807C12.9804 111.021 12.7634 110.413 12.3658 109.925C11.9683 109.438 11.4143 109.101 10.7965 108.97V108.341H10.8805V107.527H8.81095V108.341H8.87037V108.978C8.26075 109.116 7.71623 109.455 7.32608 109.94C6.93592 110.425 6.72328 111.028 6.723 111.649H7.00986V112.147C7.00986 112.147 6.32959 112.467 7.00986 113.037C7.69014 113.607 7.58359 114.032 7.58359 114.032C7.58359 114.032 7.29673 115.099 6.72505 115.241V125.164C6.72505 125.748 6.95885 126.309 7.37501 126.722C7.79117 127.136 8.3556 127.368 8.94414 127.368H10.6981C11.2849 127.366 11.8469 127.133 12.2612 126.72C12.6755 126.307 12.9085 125.749 12.909 125.166V115.241C12.909 115.241 11.907 114.494 12.0894 114.032C12.3272 113.539 12.6012 113.063 12.909 112.609V112.609Z" fill="#29A1DC"/>
</g>
<defs>
<clipPath id="clip0_123_345">
<rect width="209" height="136" fill="white"/>
</clipPath>
</defs>
</svg>
