<svg width="191" height="156" viewBox="0 0 191 156" fill="none" xmlns="http://www.w3.org/2000/svg">
<g clip-path="url(#clip0_123_256)">
<path d="M168.233 116.325H166.059V122.758H168.233V116.325Z" fill="#F2F2F2"/>
<path d="M179.26 121.273H155.035C153.234 121.273 151.774 119.819 151.774 118.025C151.774 116.231 153.234 114.777 155.035 114.777H179.26C181.061 114.777 182.521 116.231 182.521 118.025C182.521 119.819 181.061 121.273 179.26 121.273Z" fill="#F2F2F2"/>
<path d="M181.123 121.273C182.581 121.273 183.763 120.096 183.763 118.644V87.4002C183.763 85.948 182.581 84.7708 181.123 84.7708C179.665 84.7708 178.483 85.948 178.483 87.4002C170.465 93.5118 173.724 105.675 178.483 118.644C178.483 120.096 179.665 121.273 181.123 121.273V121.273Z" fill="#F2F2F2"/>
<path d="M177.887 107.541C177.528 109.14 176.853 110.403 176.005 111.399C174.278 113.434 171.832 114.358 169.902 114.777C168.168 115.154 166.852 115.123 166.852 115.123L158.701 115.793L152.26 116.321L145.788 116.853C146.157 118.398 146.508 120.173 146.843 122.071C146.881 122.298 146.922 122.528 146.963 122.758H133.819L133.599 122.071L132.248 117.9L129.508 111.938C129.008 110.966 128.757 109.906 128.757 108.838C128.757 108.128 128.871 107.42 129.095 106.734C129.098 106.724 129.098 106.713 129.101 106.703C129.629 105.117 130.931 103.902 132.544 103.418L134.491 102.831C140.012 101.547 147.749 99.5458 153.649 97.9943C158.577 96.6967 162.22 95.7081 162.22 95.7081L162.23 95.6395L163.25 88.6917L173.42 87.8027L176.725 87.5109C176.725 87.5109 176.653 87.8542 176.68 89.0865C176.68 89.162 176.68 89.241 176.684 89.3199C176.691 89.5602 176.701 89.8348 176.715 90.1403C176.718 90.2433 176.725 90.3497 176.732 90.4595C176.743 90.6724 176.756 90.8989 176.774 91.1426C176.774 91.1598 176.774 91.177 176.777 91.1941C176.794 91.4997 176.818 91.8326 176.849 92.1896C176.856 92.3372 176.87 92.4883 176.884 92.6427C176.949 93.4219 177.032 94.3144 177.139 95.3305C177.146 95.4335 177.156 95.5365 177.17 95.6395C177.184 95.8008 177.201 95.9621 177.218 96.1269C177.253 96.4152 177.284 96.7104 177.318 97.0194C177.321 97.0503 177.325 97.0777 177.328 97.1086C177.359 97.3798 177.394 97.6579 177.425 97.9462C177.463 98.2586 177.501 98.5778 177.542 98.9039C177.566 99.1236 177.594 99.3502 177.625 99.5836C177.639 99.6934 177.652 99.8067 177.666 99.92C177.683 100.04 177.697 100.164 177.714 100.287C177.742 100.507 177.769 100.734 177.801 100.964C177.866 101.475 177.938 102.004 178.011 102.553C178.276 104.499 178.2 106.15 177.887 107.541L177.887 107.541Z" fill="#2F2E41"/>
<path d="M177.886 107.541L175.222 108.687L161.062 114.777L158.701 115.793L152.904 118.285C153.07 119.153 153.246 120.011 153.435 120.856C153.525 121.264 153.614 121.669 153.711 122.071C153.766 122.301 153.818 122.528 153.876 122.758H142.145L142.056 122.071L141.714 119.383C141.035 118.779 140.636 117.622 140.394 116.393C140.153 115.168 140.067 113.86 140.008 112.954C140.008 112.944 140.008 112.93 140.005 112.92C139.909 111.244 143.193 110.132 144.506 109.089L146.119 108.557C149.451 106.253 154.403 102.766 159.197 99.3777C161.013 98.0938 162.809 96.8237 164.48 95.6395C169.677 91.9528 173.723 89.0728 173.723 89.0728L173.42 87.8027L176.725 87.5109C176.725 87.5109 176.652 87.8542 176.68 89.0865C176.68 89.162 176.68 89.241 176.684 89.3199C176.69 89.5636 176.701 89.8348 176.715 90.1403C176.718 90.2433 176.725 90.3497 176.732 90.4596C176.742 90.6724 176.756 90.899 176.773 91.1427C176.773 91.1598 176.773 91.177 176.777 91.1942C176.794 91.4997 176.818 91.8326 176.849 92.1896C176.856 92.3372 176.87 92.4883 176.883 92.6427C176.945 93.422 177.028 94.311 177.138 95.3305C177.145 95.4335 177.156 95.5365 177.169 95.6395C177.183 95.8008 177.2 95.9621 177.218 96.1269C177.252 96.4153 177.283 96.7139 177.318 97.0194C177.321 97.0503 177.325 97.0778 177.328 97.1086C177.359 97.3798 177.393 97.6579 177.424 97.9462C177.462 98.2586 177.5 98.5778 177.542 98.9039C177.569 99.1271 177.597 99.3536 177.624 99.5836C177.638 99.6935 177.652 99.8067 177.666 99.92C177.683 100.04 177.697 100.164 177.714 100.287C177.742 100.507 177.769 100.734 177.8 100.964C177.866 101.475 177.938 102.004 178.01 102.553C178.276 104.499 178.2 106.15 177.886 107.541V107.541Z" fill="#2F2E41"/>
<path d="M180.008 91.0372C180.549 93.3406 180.332 94.9196 180.118 97.1714C180.039 98.0022 180.311 99.1967 179.501 99.7562C178.808 100.227 153.888 100.003 153.658 98.0811C153.396 95.9082 153.906 93.6289 154.971 91.6689C156.897 88.1195 158 83.7737 158.565 80.6878C159.761 74.2034 157.066 70.6815 158.072 64.2144C158.245 63.1125 158.279 62.0689 158.238 61.07C158.1 57.5996 157.025 54.6544 157.366 51.6645C157.507 50.4356 157.886 49.1998 158.668 47.916C158.899 47.535 159.165 47.1506 159.471 46.7627C161.25 44.504 161.715 42.8014 164.803 42.8048C165.275 42.8048 165.778 42.7739 166.288 42.7499C167.105 42.7052 167.939 42.6744 168.676 42.8048C170.448 43.1172 170.055 44.2259 171.199 45.4411L171.64 45.8805C172.743 46.7455 173.698 47.4217 174.663 48.4653C176.599 50.5592 178.898 52.914 180.039 55.5297C180.811 57.3044 180.342 60.0162 180.321 61.9522C180.297 64.4409 179.525 66.5314 178.881 68.9034C178.319 70.963 178.171 73.1256 177.788 75.2298C177.295 77.9519 176.847 80.6363 176.62 83.379C176.444 85.5313 179.491 81.9716 179.498 84.1273C179.505 86.362 179.498 88.8747 180.008 91.0373L180.008 91.0372Z" fill="#3F3D56"/>
<path d="M136.84 49.5787L144.515 50.9472L144.341 55.4228L136.279 53.6885C136.06 53.8112 135.819 53.9046 135.56 53.9609C134.152 54.2674 132.761 53.3791 132.453 51.9767C132.146 50.5743 133.037 49.1889 134.445 48.8824C135.343 48.6869 136.233 48.9788 136.84 49.5787H136.84V49.5787Z" fill="#FFB6B6"/>
<path d="M167.577 60.0848C167.239 60.7714 166.715 61.3652 166.043 61.7977C165.051 62.4362 163.886 62.6113 162.807 62.3779C162.676 62.3504 162.232 62.2268 161.549 62.0278C161.432 61.9934 161.308 61.9591 161.177 61.9213C160.402 61.6982 159.392 61.403 158.237 61.07C157.093 60.7371 155.798 60.3629 154.457 59.9784L154.45 59.9819C154.043 59.8583 153.623 59.7381 153.206 59.618H153.199C150.08 58.7358 146.817 57.8364 144.439 57.2598C144.328 57.2289 143.756 57.7747 143.649 57.7472C143.484 57.706 143.453 57.0778 143.298 57.0401C142.964 56.9577 142.526 57.476 142.25 57.4074C141.247 57.1636 140.848 55.0388 140.848 55.0388L140.892 54.6818L141.396 50.391L141.402 50.3155L144.239 49.4264L145.183 50.336L146.493 49.7937L147.713 50.7033L150.204 50.9505L151.279 51.0604L151.352 51.0638L157.366 51.6645L159.137 51.843C158.996 51.129 158.885 50.4219 158.806 49.725C158.785 49.5294 158.765 49.3371 158.751 49.1449L158.748 49.1415C158.71 48.7296 158.685 48.3245 158.668 47.916C158.899 47.535 159.164 47.1505 159.471 46.7626C161.249 44.5039 161.715 42.8013 164.803 42.8048C165.275 42.8048 165.778 42.7739 166.288 42.7498L167.084 49.7731L167.959 57.4966L167.987 57.7472C168.077 58.571 167.928 59.3777 167.577 60.0848L167.577 60.0848Z" fill="#3F3D56"/>
<path d="M152.674 47.3515C152.281 47.07 151.778 47.0186 151.334 47.2142L137.941 53.0944C136.722 53.6299 135.343 53.726 134.061 53.3656L133.865 53.3107C134.422 48.3754 132.999 43.0643 130.205 37.4929C129.843 37.4448 129.481 37.541 129.188 37.7675C128.843 38.0353 128.65 38.4403 128.664 38.8797L129.085 54.3473L129.226 59.4826C126.172 63.127 125.067 66.4987 129.488 69.0975C129.502 69.5815 129.767 70.014 130.194 70.2475C130.622 70.4843 131.128 70.4774 131.549 70.2303L131.821 70.069L135.498 75.2008C135.743 75.1047 135.998 75.0566 136.256 75.0566C136.611 75.0566 136.966 75.1459 137.283 75.3278L143.972 79.1621L148.528 81.7744C148.935 82.0078 149.428 82.0181 149.845 81.8018C150.262 81.5822 150.531 81.1737 150.572 80.7068L150.7 79.1621L151.123 74.0818L151.82 65.6992L152.15 61.7001L152.202 61.1028L153.243 48.5701C153.284 48.0861 153.071 47.6296 152.674 47.3515V47.3515V47.3515Z" fill="#F2F2F2"/>
<path d="M153.707 49.0678C153.315 48.7864 152.811 48.7349 152.367 48.9305C147.522 52.6456 142.838 55.6236 138.975 54.8107C137.755 55.3462 136.376 55.4423 135.094 55.0819L134.898 55.027C135.455 50.0918 134.032 44.7806 131.238 39.2092C130.876 39.1612 130.514 39.2573 130.221 39.4838C129.877 39.7516 129.684 40.1566 129.697 40.596L130.118 56.0636L130.259 61.1989C127.205 64.8433 126.1 68.215 130.521 70.8138C130.535 71.2978 130.8 71.7304 131.228 71.9638C131.655 72.2006 132.161 72.1938 132.582 71.9466L132.854 71.7853L136.531 76.9171C136.776 76.821 137.031 76.773 137.289 76.773C137.644 76.773 137.999 76.8622 138.316 77.0441L145.006 80.8784L149.562 83.4907C149.968 83.7241 150.461 83.7344 150.878 83.5182C151.295 83.2985 151.564 82.89 151.605 82.4231L151.733 80.8784L152.157 75.7981L152.853 67.4155L153.184 63.4164L153.235 62.8191L154.276 50.2865C154.317 49.8025 154.104 49.3459 153.707 49.0679V49.0678V49.0678Z" fill="#E6E6E6"/>
<path d="M151.225 56.0297L140.947 58.5194L141.094 59.1205L151.372 56.6307L151.225 56.0297Z" fill="white"/>
<path d="M151.225 60.6699L140.947 63.1596L141.094 63.7606L151.372 61.2709L151.225 60.6699Z" fill="white"/>
<path d="M140.878 66.7445L140.865 67.3629L151.44 67.585L151.454 66.9665L140.878 66.7445Z" fill="white"/>
<path d="M140.897 71.1904L140.861 71.8079L151.421 72.4193L151.457 71.8018L140.897 71.1904Z" fill="white"/>
<path d="M140.366 75.6141L140.268 76.2249L150.711 77.8946L150.81 77.2838L140.366 75.6141Z" fill="white"/>
<path d="M108.761 80.879H188.402C189.086 80.879 189.642 82.4455 189.642 84.3779V92.1406C189.642 94.073 189.086 95.6395 188.402 95.6395H120.478C119.793 95.6395 119.238 94.073 119.238 92.1406L107.521 84.3779C107.521 82.4455 108.076 80.879 108.761 80.879H108.761V80.879Z" fill="#F2F2F2"/>
<path d="M165.959 31.3069C165.904 31.2107 165.846 31.1181 165.784 31.0288C165.725 30.9361 165.659 30.8469 165.594 30.7611C165.563 30.7164 165.532 30.6752 165.498 30.6375C165.187 30.2427 164.843 29.9235 164.491 29.7313C164.467 29.7175 164.443 29.7038 164.419 29.6935C164.364 29.6626 164.309 29.6386 164.25 29.618C164.143 29.5768 164.036 29.5459 163.926 29.5322C163.874 29.5253 163.823 29.5219 163.771 29.5219C163.733 29.5219 163.695 29.5253 163.657 29.5287C163.637 29.5322 163.612 29.5356 163.588 29.539C163.561 29.5425 163.53 29.5493 163.502 29.5562C163.471 29.5631 163.44 29.5734 163.413 29.5837C163.385 29.594 163.354 29.6042 163.326 29.618C163.295 29.6317 163.264 29.6454 163.237 29.6626C163.206 29.6798 163.178 29.6969 163.151 29.7141C163.12 29.7347 163.092 29.7553 163.064 29.7759C164.119 30.3697 165.153 31.0013 166.159 31.6638C166.097 31.5403 166.032 31.4236 165.959 31.3069V31.3069V31.3069Z" fill="#3F3D56"/>
<path d="M165.959 31.3069C165.904 31.2107 165.846 31.1181 165.784 31.0288C165.725 30.9361 165.659 30.8469 165.594 30.7611C165.563 30.7164 165.532 30.6752 165.498 30.6375C165.187 30.2427 164.843 29.9235 164.491 29.7313C164.467 29.7175 164.443 29.7038 164.419 29.6935C164.364 29.6626 164.309 29.6386 164.25 29.618C164.143 29.5768 164.036 29.5459 163.926 29.5322C163.874 29.5253 163.823 29.5219 163.771 29.5219C163.733 29.5219 163.695 29.5253 163.657 29.5287C163.637 29.5322 163.612 29.5356 163.588 29.539C163.561 29.5425 163.53 29.5493 163.502 29.5562C163.471 29.5631 163.44 29.5734 163.413 29.5837C163.385 29.594 163.354 29.6042 163.326 29.618C163.295 29.6317 163.264 29.6454 163.237 29.6626C163.206 29.6798 163.178 29.6969 163.151 29.7141C163.12 29.7347 163.092 29.7553 163.064 29.7759C164.119 30.3697 165.153 31.0013 166.159 31.6638C166.097 31.5403 166.032 31.4236 165.959 31.3069V31.3069V31.3069Z" fill="#3F3D56"/>
<path d="M183.18 22.1794H71.5869V22.8659H136.659C143.266 22.8659 149.589 24.0536 155.434 26.2299H155.438C156.241 26.5286 157.03 26.8444 157.812 27.1808C159.618 27.9497 161.369 28.8182 163.064 29.7759C164.119 30.3697 165.153 31.0013 166.159 31.6638C168.31 33.0747 170.35 34.6365 172.266 36.3357L172.269 36.3391C172.355 36.4112 172.438 36.4833 172.521 36.5623C183.442 46.3419 190.31 60.5258 190.31 76.3057V114.968C190.31 118.806 187.257 121.929 183.763 118.315C183.683 118.232 183.604 118.15 183.525 118.061H116.733V122.757H183.18C187.491 122.757 191 119.262 191 114.968V29.9681C191 25.6738 187.491 22.1794 183.18 22.1794H183.18V22.1794Z" fill="#3F3D56"/>
<path d="M165.959 31.3069C165.904 31.2107 165.846 31.1181 165.784 31.0288C165.725 30.9361 165.659 30.8469 165.594 30.7611C165.563 30.7164 165.532 30.6752 165.498 30.6375C165.187 30.2427 164.843 29.9235 164.491 29.7313C164.467 29.7175 164.443 29.7038 164.419 29.6935C164.364 29.6626 164.309 29.6386 164.25 29.618C164.143 29.5768 164.036 29.5459 163.926 29.5322C163.874 29.5253 163.823 29.5219 163.771 29.5219C163.733 29.5219 163.695 29.5253 163.657 29.5287C163.637 29.5322 163.612 29.5356 163.588 29.539C163.561 29.5425 163.53 29.5493 163.502 29.5562C163.471 29.5631 163.44 29.5734 163.413 29.5837C163.385 29.594 163.354 29.6042 163.326 29.618C163.295 29.6317 163.264 29.6454 163.237 29.6626C163.206 29.6798 163.178 29.6969 163.151 29.7141C163.12 29.7347 163.092 29.7553 163.064 29.7759C164.119 30.3697 165.153 31.0013 166.159 31.6638C166.097 31.5403 166.032 31.4236 165.959 31.3069V31.3069V31.3069Z" fill="#3F3D56"/>
<path d="M165.959 31.3069C165.904 31.2107 165.846 31.1181 165.784 31.0288C165.725 30.9361 165.659 30.8469 165.594 30.7611C165.563 30.7164 165.532 30.6752 165.498 30.6375C165.187 30.2427 164.843 29.9235 164.491 29.7313C164.467 29.7175 164.443 29.7038 164.419 29.6935C164.364 29.6626 164.309 29.6386 164.25 29.618C164.143 29.5768 164.036 29.5459 163.926 29.5322C163.874 29.5253 163.823 29.5219 163.771 29.5219C163.733 29.5219 163.695 29.5253 163.657 29.5287C163.637 29.5322 163.612 29.5356 163.588 29.539C163.561 29.5425 163.53 29.5493 163.502 29.5562C163.471 29.5631 163.44 29.5734 163.413 29.5837C163.385 29.594 163.354 29.6042 163.326 29.618C163.295 29.6317 163.264 29.6454 163.237 29.6626C163.206 29.6798 163.178 29.6969 163.151 29.7141C163.12 29.7347 163.092 29.7553 163.064 29.7759C164.119 30.3697 165.153 31.0013 166.159 31.6638C166.097 31.5403 166.032 31.4236 165.959 31.3069V31.3069V31.3069Z" fill="#3F3D56"/>
<path d="M165.959 31.3069C165.904 31.2107 165.846 31.1181 165.784 31.0288C165.725 30.9361 165.659 30.8469 165.594 30.7611C165.563 30.7164 165.532 30.6752 165.498 30.6375C165.187 30.2427 164.843 29.9235 164.491 29.7313C164.467 29.7175 164.443 29.7038 164.419 29.6935C164.364 29.6626 164.309 29.6386 164.25 29.618C164.143 29.5768 164.036 29.5459 163.926 29.5322C163.874 29.5253 163.823 29.5219 163.771 29.5219C163.733 29.5219 163.695 29.5253 163.657 29.5287C163.637 29.5322 163.612 29.5356 163.588 29.539C163.561 29.5425 163.53 29.5493 163.502 29.5562C163.471 29.5631 163.44 29.5734 163.413 29.5837C163.385 29.594 163.354 29.6042 163.326 29.618C163.295 29.6317 163.264 29.6454 163.237 29.6626C163.206 29.6798 163.178 29.6969 163.151 29.7141C163.12 29.7347 163.092 29.7553 163.064 29.7759C164.119 30.3697 165.153 31.0013 166.159 31.6638C166.097 31.5403 166.032 31.4236 165.959 31.3069V31.3069V31.3069Z" fill="#3F3D56"/>
<path d="M163.445 41.1436C163.647 41.1677 163.847 41.1858 164.047 41.1949C164.669 41.2289 165.283 41.1936 165.874 41.0936C167.672 40.8066 169.305 39.9585 170.565 38.7148C171.898 37.4024 172.809 35.6507 173.056 33.6566C173.633 28.9495 170.268 24.6617 165.543 24.0866C160.885 23.5163 156.639 26.7613 155.961 31.3603C155.95 31.4315 155.939 31.4997 155.932 31.5706C155.355 36.2807 158.716 40.5658 163.445 41.1436H163.445V41.1436Z" fill="#FFB6B6"/>
<path d="M154.018 31.0453C155.242 31.6482 157.242 29.7526 158.008 30.8432C158.132 30.6075 158.27 30.3796 158.406 30.164C158.529 29.9711 158.704 29.5594 158.908 29.4889C158.65 30.1074 158.707 30.945 158.974 31.6627C160.182 32.1121 161.762 31.1173 162.88 29.9406C164.635 28.0956 167.5 32.8268 166.823 35.2753C167.685 34.2265 169.556 34.818 170.19 36.0172C170.824 37.2135 169.753 38.1719 169.524 39.5062L171.253 39.2876C172.344 38.2295 172.267 36.4466 173.166 35.2203C174.666 33.168 175.247 31.0741 174.119 28.956C173.119 27.0833 173.025 24.6595 171.19 23.5798C171.992 23.1893 169.141 23.7993 169.902 22.5268C170.667 21.2568 166.589 21.1027 166.323 21.7831C165.158 20.394 163.983 19.4781 162.55 20.5912C161.142 21.6862 161.287 22.8373 159.634 22.7341C158.858 22.6862 158.943 24.127 158.482 24.7552C158.024 25.38 156.241 25.7811 156.155 25.7142C155.684 25.3474 154.082 28.4705 154.082 28.4705C154.082 28.4705 152.783 30.4342 154.018 31.0452H154.018V31.0453Z" fill="#2F2E41"/>
<path d="M132.386 1.20232H114.641C113.073 1.20232 111.798 2.47585 111.798 4.03771V21.7125C111.798 21.8705 111.812 22.0283 111.836 22.1794C111.877 22.4197 111.946 22.6497 112.043 22.8659C112.487 23.8545 113.487 24.5445 114.641 24.5445H132.386C133.54 24.5445 134.54 23.8545 134.984 22.8659C135.084 22.6497 135.153 22.4197 135.191 22.1794C135.219 22.0283 135.232 21.8705 135.232 21.7125V4.03772C135.232 2.47586 133.954 1.20233 132.386 1.20233L132.386 1.20232ZM134.609 22.8659C134.192 23.6657 133.354 24.2115 132.386 24.2115H114.641C113.673 24.2115 112.835 23.6657 112.418 22.8659C112.304 22.6531 112.222 22.4231 112.177 22.1794C112.146 22.0283 112.132 21.8705 112.132 21.7125V4.03772C112.132 3.99996 112.132 3.96562 112.139 3.9313V3.92787C112.194 2.59599 113.294 1.53531 114.641 1.53531H123.587C126.879 1.53531 129.842 2.93926 131.91 5.17737C131.921 5.19109 131.931 5.2014 131.941 5.21169L131.958 5.22885C133.365 6.7667 134.347 8.70271 134.722 10.8413C134.736 10.9237 134.753 11.0026 134.764 11.085C134.767 11.1022 134.767 11.1193 134.771 11.133C134.853 11.6789 134.895 12.2349 134.895 12.8013V21.7125C134.895 21.8705 134.881 22.0283 134.85 22.1794C134.805 22.4231 134.722 22.6531 134.609 22.8659V22.8659H134.609Z" fill="#E6E6E6"/>
<path d="M134.917 12.8751C134.917 6.60183 129.275 1.11435 123.053 0.142897C115.177 -1.08675 107.936 5.82676 108.978 12.9121C109.891 19.1191 120.587 28.1218 123.513 22.5665C126.861 16.2097 134.917 19.1483 134.917 12.8751V12.8751Z" fill="#29A1DC"/>
<path d="M125.875 7.89983H120.148C120.003 7.89983 119.886 8.01655 119.886 8.16071C119.886 8.30488 120.003 8.4216 120.148 8.4216H125.875C126.02 8.4216 126.137 8.30488 126.137 8.16071C126.137 8.01655 126.02 7.89983 125.875 7.89983Z" fill="white"/>
<path d="M125.875 13.4642H120.148C120.003 13.4642 119.886 13.5809 119.886 13.7216C119.886 13.8658 120.003 13.9859 120.148 13.9859H125.875C126.02 13.9859 126.137 13.8658 126.137 13.7216C126.137 13.5809 126.02 13.4642 125.875 13.4642Z" fill="white"/>
<path d="M128.949 10.6837H117.073C116.929 10.6837 116.812 10.8004 116.812 10.9446C116.812 11.0888 116.929 11.2055 117.073 11.2055H128.949C129.094 11.2055 129.211 11.0888 129.211 10.9446C129.211 10.8004 129.094 10.6837 128.949 10.6837Z" fill="white"/>
<path d="M150.518 61.5064L157.535 64.8908L156.153 69.1531L148.862 65.312C148.617 65.371 148.36 65.396 148.095 65.3805C146.657 65.2965 145.559 64.0666 145.643 62.6335C145.728 61.2005 146.962 60.1069 148.401 60.191C149.319 60.2446 150.096 60.7653 150.518 61.5064V61.5064V61.5064Z" fill="#FFB6B6"/>
<path d="M180.44 57.3097V57.3063C179.779 56.273 178.707 55.5075 177.408 55.2638L176.429 55.0785C174.017 59.5615 171.787 64.1407 171.37 69.6948L161.141 65.6957L160.68 65.5172L159.752 64.3124L158.343 64.4806L158.095 64.0549V64.0515L157.681 63.3546L154.711 63.4473L154.683 63.5125L154.68 63.516L153.232 67.0242L153.229 67.0276L153.032 67.5082L152.894 67.8411C152.894 67.8411 152.808 68.7886 153.018 69.5781V69.5849C153.122 69.9797 153.301 70.3333 153.601 70.5015C153.849 70.6388 154.411 70.2577 154.711 70.4259C154.848 70.5049 154.707 71.1228 154.855 71.2051C154.952 71.2601 155.648 70.8893 155.748 70.9443C156.541 71.3871 157.437 71.9089 158.391 72.4718C158.877 72.7602 159.377 73.0554 159.887 73.3643C165.201 76.5464 171.518 80.5489 172.042 80.8235C172.08 80.8441 172.118 80.8613 172.156 80.8784C173.107 81.3487 174.23 81.4654 175.316 81.1359C175.543 81.0672 175.76 80.9814 175.964 80.8784C176.339 80.6965 176.68 80.4596 176.977 80.1816C177.659 79.5568 178.124 78.7124 178.286 77.7616L181.105 60.5227C181.295 59.3624 181.03 58.2296 180.44 57.3097V57.3097Z" fill="#3F3D56"/>
<path d="M127.499 73.2781C127.175 71.9669 126.207 70.9954 125.077 70.7002C124.625 70.5766 124.146 70.5629 123.67 70.6796C123.16 70.8032 122.702 71.0606 122.333 71.4279C121.392 70.9885 120.083 70.9233 118.629 70.9233H116.216C113.363 70.9233 111.047 73.3262 111.047 76.0723C110.302 78.4889 111.223 80.1469 112.915 80.8781C113.835 81.2763 114.982 81.3998 116.216 81.2213H118.629C119.466 81.3792 120.266 81.2419 120.979 80.8781C122.237 80.2396 123.226 78.9008 123.664 77.2566C123.977 77.3665 124.305 77.4282 124.639 77.4282C124.859 77.4282 125.083 77.4008 125.304 77.3493C126.117 77.1502 126.793 76.6113 127.206 75.8355C127.613 75.07 127.716 74.1638 127.499 73.2781V73.2781ZM124.873 75.1695C124.635 75.6192 124.287 75.9625 123.867 76.1719C123.853 76.3092 123.832 76.4465 123.812 76.5804C123.967 76.6422 123.894 76.6387 123.763 76.6078C123.536 76.5529 123.133 76.4053 123.419 76.3366C123.574 76.2989 123.726 76.244 123.867 76.1719C123.943 75.4785 123.929 74.7508 123.798 74.0127C123.798 72.9623 123.481 72.2689 122.94 71.809C123.198 71.5858 123.498 71.4279 123.832 71.3456C124.001 71.3044 124.17 71.2838 124.336 71.2838C124.546 71.2838 124.746 71.2975 124.932 71.3318C125.735 71.4726 126.3 71.9428 126.555 72.9829C126.731 73.7038 125.201 74.5551 124.873 75.1695V75.1695Z" fill="#F2F2F2"/>
<path d="M82.7099 79.7372C82.7099 76.9911 80.394 74.5882 77.5405 74.5882H75.1281C73.7565 74.5882 72.5124 74.6466 71.5888 75.0207C71.5302 75.0448 71.4785 75.0688 71.4234 75.0928C71.0512 74.7255 70.5963 74.4681 70.0863 74.3445C69.1661 74.1214 68.2287 74.3788 67.4981 74.9692C66.9123 75.4395 66.4574 76.1226 66.2575 76.943C66.0404 77.8286 66.1437 78.7349 66.5504 79.5004C66.7606 79.8951 67.0363 80.2247 67.3672 80.4821C67.6842 80.7327 68.053 80.9146 68.4527 81.0142C68.6733 81.0657 68.8973 81.0931 69.1179 81.0931C69.4522 81.0931 69.7795 81.0313 70.0932 80.9215C70.3792 82.0028 70.9065 82.9502 71.5888 83.6539C72.5365 84.6322 73.7841 85.1402 75.1281 84.8862H77.5405C81.0488 85.3908 83.8575 83.4651 82.7099 79.7372L82.7099 79.7372ZM69.9587 77.6776C69.8278 78.4156 69.814 79.1434 69.8898 79.8368C70.0311 79.9088 70.1828 79.9638 70.3378 80.0015C70.7893 80.1114 69.5245 80.41 69.945 80.2453C69.9243 80.1114 69.9036 79.9741 69.8898 79.8368C69.6003 79.6926 69.3488 79.4866 69.142 79.2257C69.0455 79.1056 68.9593 78.9752 68.8835 78.8344C68.5561 78.22 67.026 77.3687 67.2017 76.6478C67.3775 75.9372 67.698 75.491 68.1391 75.237C68.1391 75.2335 68.1426 75.2335 68.1426 75.2335C68.4941 75.031 68.9214 74.9486 69.4177 74.9486C69.5866 74.9486 69.7554 74.9692 69.9243 75.0104C70.2586 75.0928 70.5584 75.2507 70.8169 75.4738C70.2758 75.9338 69.9588 76.6272 69.9588 77.6776H69.9587Z" fill="#F2F2F2"/>
<path d="M7.23129 111.204H86.8723C87.5572 111.204 88.1124 112.77 88.1124 114.703L77.7736 122.465C77.7736 124.398 77.2184 125.964 76.5336 125.964H7.23129C6.54641 125.964 5.99121 124.398 5.99121 122.465V114.703C5.99121 112.77 6.54641 111.204 7.23129 111.204Z" fill="#F2F2F2"/>
<path d="M40.1522 76.4626L41.5554 85.7596L36.3352 87.299L35.2028 77.4171C34.9762 77.2137 34.7751 76.9746 34.6098 76.7008C33.7104 75.2116 34.1933 73.278 35.6885 72.3822C37.1836 71.4863 39.1248 71.9673 40.0242 73.4566C40.5978 74.4064 40.607 75.5358 40.1522 76.4626H40.1522Z" fill="#FFB6B6"/>
<path d="M43.0469 89.6396C43.4191 93.8378 40.9137 92.0013 38.9424 96.0999C38.1946 97.6549 35.9752 97.4249 35.1515 98.846C33.8971 101.009 35.0516 110.72 32.8253 111.914C30.5887 113.116 29.5376 109.642 27.7697 107.853C26.0396 106.103 24.0132 106.789 22.5348 104.836C21.046 102.876 19.3608 101.129 17.872 99.179C17.841 99.1412 17.8134 99.1 17.7858 99.0623C17.1035 93.7142 14.8807 87.4152 15.8111 84.573C17.0415 84.1267 18.3683 83.8281 19.4056 83.8384C21.3148 83.8624 20.5084 84.8991 22.1488 85.7161C23.5273 86.4026 25.2298 89.9932 26.56 90.793C27.5077 91.3594 29.8477 95.8596 31.0712 95.4717C33.0734 94.8367 35.0447 85.6543 34.576 83.9723C34.1797 82.5683 32.2015 80.8108 32.1464 79.3965C32.143 79.345 32.143 79.2901 32.1464 79.2386C34.1349 79.9492 37.8293 78.1367 39.866 78.7923C41.3203 79.2626 43.0366 81.0305 43.1365 82.5374C43.2399 84.0821 42.9091 88.0915 43.0469 89.6396V89.6396Z" fill="#29A1DC"/>
<path d="M66.4847 73.8144C66.1229 73.3991 65.5818 73.2069 65.0373 73.303L49.0501 76.1486C47.6061 76.4095 46.1001 76.1555 44.8216 75.4381L42.4505 74.1096L38.0118 71.621L37.1502 71.1404L33.5385 69.1151L32.4047 68.4801C31.9705 68.2363 31.457 68.2123 31.0021 68.4183C30.5472 68.6208 30.2267 69.019 30.1233 69.503L29.0032 74.7172L28.9205 75.0914L28.2899 78.0332L26.7115 85.3619L26.4634 86.5256L26.3531 87.0302L25.5466 90.789L25.395 91.4824L23.2549 101.441L23.0688 102.302C22.9654 102.786 23.0895 103.274 23.4134 103.637C23.4479 103.682 23.4892 103.723 23.534 103.764C23.9441 104.142 24.5059 104.269 25.0366 104.108L25.4846 103.97L28.8585 102.951L36.5885 100.617L38.2427 100.116L40.276 99.5011C40.4896 99.4359 40.7067 99.405 40.9238 99.405C41.4925 99.405 42.0508 99.6178 42.4712 100.019L52.4653 109.487L52.9065 109.906C53.2924 110.273 53.8335 110.414 54.3504 110.283C54.795 110.173 55.1569 109.885 55.3567 109.487C55.3947 109.418 55.4257 109.346 55.4498 109.27L58.2447 100.895L58.7237 99.4599L60.2815 94.7915L60.4055 94.4208C67.2411 98.7694 66.133 85.0397 66.7845 75.3145C66.9603 74.7927 66.8466 74.2298 66.4847 73.8144L66.4847 73.8144Z" fill="#F2F2F2"/>
<path d="M64.4173 75.5307C64.0555 75.1154 63.5144 74.9232 62.9699 75.0193L46.9827 77.865C45.5387 78.1258 44.0327 77.8718 42.7542 77.1544L40.3832 75.826L35.9444 73.3373L35.0828 72.8567L31.4711 70.8314L30.3373 70.1964C29.9031 69.9527 29.3896 69.9286 28.9347 70.1346C28.4798 70.3371 28.1593 70.7353 28.0559 71.2193L26.9359 76.4335L26.8532 76.8077L26.2225 79.7495L24.6441 87.0783L24.396 88.2419L24.2857 88.7465L23.4792 92.5053L23.3276 93.1987L21.1875 103.157L21.0014 104.018C20.898 104.502 21.0221 104.99 21.346 105.354C21.3805 105.398 21.4218 105.44 21.4667 105.481C21.8768 105.858 22.4385 105.985 22.9692 105.824L23.4172 105.687L26.7911 104.667L34.5211 102.333L36.1753 101.832L38.2086 101.217C38.4222 101.152 38.6394 101.121 38.8565 101.121C39.4251 101.121 39.9834 101.334 40.4038 101.736L50.398 111.203L50.8391 111.622C51.2251 111.989 51.7661 112.13 52.2831 111.999C52.7276 111.89 53.0895 111.601 53.2894 111.203C53.3273 111.134 53.3583 111.062 53.3824 110.987L56.1773 102.611L56.6564 101.176L58.2141 96.5078L58.3381 96.1371C65.1737 100.486 64.0657 86.7561 64.7172 77.0308C64.8929 76.5091 64.7792 75.9461 64.4173 75.5308L64.4173 75.5307Z" fill="#E6E6E6"/>
<path d="M19.2969 105.612L19.6242 119.414L39.2636 118.875L35.2948 103.599L19.2969 105.612Z" fill="#FFB6B6"/>
<path d="M42.5679 153.082C42.8057 151.963 42.0406 152.869 41.5237 152.396L41.4823 152.355C40.9206 151.733 40.2141 151.455 40.2244 150.683C40.2348 149.91 38.8838 150.6 38.1257 149.845C37.9637 149.684 37.5019 149.372 36.8712 148.98C34.9103 147.765 31.3365 145.781 30.2648 145.187C30.0649 145.077 29.9511 145.015 29.9511 145.015C29.9511 145.015 29.9477 145.074 29.9374 145.187C29.8788 145.905 29.6375 148.812 29.3446 152.396C29.3274 152.622 29.3101 152.852 29.2895 153.082H16.5935C16.6072 152.849 16.6141 152.619 16.6176 152.396C16.6383 151.325 16.5487 150.326 16.3005 149.492C15.8525 147.992 15.4528 146.564 15.1391 145.187C13.9915 140.172 14.0053 135.826 17.1966 131.093C17.7859 130.221 17.8996 127.444 17.8996 127.444C17.8996 127.444 18.9852 128.515 19.2643 128.782C19.1954 128.71 19.0575 128.573 18.8301 128.346C17.5412 127.063 17.5825 126.675 18.2442 125.964C18.3614 125.841 18.4958 125.707 18.6474 125.556C19.6572 124.55 18.6474 125.556 18.1408 124.965C17.6377 124.371 18.899 122.785 18.899 122.785L18.42 120.396L18.1408 119.01L19.6055 118.756L23.5273 118.072L38.2911 115.505L38.5702 116.215L41.0722 122.555C41.6891 122.909 42.3335 124.299 42.9125 125.964C43.9946 129.071 44.8424 133.125 44.8424 133.125L61.157 152.396L61.3155 152.584C61.4534 152.746 61.5809 152.914 61.7015 153.082H42.5679H42.5679Z" fill="#2F2E41"/>
<path d="M21.0218 146.903H18.6094V153.082H21.0218V146.903Z" fill="#E6E6E6"/>
<path d="M6.3754 145.187H33.2562C35.2547 145.187 36.8748 146.801 36.8748 148.791C36.8748 150.782 35.2547 152.396 33.2562 152.396H6.3754C4.37692 152.396 2.75684 150.782 2.75684 148.791C2.75684 146.801 4.37692 145.187 6.3754 145.187Z" fill="#F2F2F2"/>
<path d="M4.30725 152.396H4.30724C2.68943 152.396 1.37793 151.089 1.37793 149.478V114.808C1.37793 113.196 2.68943 111.89 4.30724 111.89H4.30725C5.92507 111.89 7.23656 113.196 7.23656 114.808C16.1336 121.59 12.5174 135.087 7.23656 149.478C7.23656 151.089 5.92506 152.396 4.30725 152.396V152.396Z" fill="#F2F2F2"/>
<path d="M39.6317 114.293C39.0637 118.442 35.086 114.787 31.0849 114.097C27.363 113.459 22.938 119.926 18.9541 120.472C16.3798 120.825 18.4096 118.697 19.2988 109.487C19.4125 108.303 17.9616 100.453 17.7858 99.0623C17.1035 93.7142 14.8807 87.4152 15.8111 84.573C15.9697 84.0787 16.2247 83.6908 16.6003 83.4299C18.3683 82.1976 19.1575 81.2055 20.3464 79.4343C21.3527 77.9308 22.0833 76.7705 23.9581 76.6503C25.726 76.5371 27.7283 76.9215 29.4342 77.2923C31.2986 77.7007 29.1826 77.5566 29.6375 78.5933C29.8581 79.1013 30.2372 80.9755 30.6714 81.6827C31.9895 81.3058 33.4073 81.728 34.3021 82.7631C35.343 83.9673 36.2807 85.0731 36.9264 86.7905C37.8982 89.3581 35.4479 93.927 36.53 96.4432C37.5053 98.7156 35.1205 103.559 36.1854 105.368C37.5363 107.671 40.6655 106.741 39.6317 114.293V114.293H39.6317Z" fill="#29A1DC"/>
<path d="M47.6115 80.6326L47.5244 81.3135L59.1677 82.7916L59.2549 82.1107L47.6115 80.6326Z" fill="white"/>
<path d="M46.9768 84.0064L46.8896 84.6873L58.533 86.1654L58.6201 85.4845L46.9768 84.0064Z" fill="white"/>
<path d="M46.632 86.7525L46.5449 87.4334L58.1883 88.9115L58.2754 88.2307L46.632 86.7525Z" fill="white"/>
<path d="M29.6905 76.9832C33.6525 76.9832 36.8643 73.784 36.8643 69.8376C36.8643 65.8912 33.6525 62.692 29.6905 62.692C25.7285 62.692 22.5166 65.8912 22.5166 69.8376C22.5166 73.784 25.7285 76.9832 29.6905 76.9832Z" fill="#FFB6B6"/>
<path d="M64.1135 76.9992L56.334 80.5172L57.7315 85.2241L65.8237 81.2133C66.0903 81.2845 66.3716 81.3189 66.6618 81.3091C68.2403 81.2559 69.4766 79.9381 69.4232 78.3659C69.3698 76.7936 68.0469 75.5622 66.4684 75.6154C65.4617 75.6493 64.5961 76.1987 64.1135 76.9992L64.1135 76.9992V76.9992Z" fill="#FFB6B6"/>
<path d="M57.4366 79.5987L54.438 81.0767L49.0795 82.124L41.8152 85.0946L40.7134 85.5436L35.6294 84.5817L32.1092 83.9115L30.949 83.6921L26.7262 82.8901L25.8865 82.8378C25.6567 82.7725 25.4085 82.7102 25.1362 82.6547C24.3251 82.4844 23.3536 82.3554 22.3579 82.3054C22.0581 82.2907 21.7543 82.2824 21.4529 82.2848C18.8766 82.2913 16.4054 82.8975 16.3447 84.7282C16.2974 86.2251 16.597 87.6557 17.1739 88.9458C17.2618 89.1418 17.3537 89.3312 17.4533 89.52C18.6742 91.8342 20.8177 93.6113 23.4251 94.334C23.9938 94.4909 24.5827 94.5952 25.1889 94.6488L25.3147 94.6366L25.786 94.5953L26.5598 94.5268L27.9797 94.3992L39.1272 93.4023L40.4597 93.2836L41.6953 93.1716L41.7236 93.1584C43.3011 92.4844 47.6561 90.6237 52.052 88.698C56.0809 86.9311 57.7808 86.7136 58.9799 86.2456C59.218 86.1531 59.4353 86.0531 59.6488 85.9272C59.84 85.8109 63.3375 83.4342 63.3566 83.3863C63.4199 83.2392 63.3501 82.9278 63.1914 82.5175C62.7412 81.3353 61.5857 79.3715 61.0025 78.407L60.7366 77.9734L57.4366 79.5987H57.4366L57.4366 79.5987Z" fill="#29A1DC"/>
<path d="M7.81955 52.504C3.50093 52.504 0 55.9912 0 60.2928V145.293C0 146.933 0.513489 148.461 1.38885 149.717C2.18837 150.871 3.29462 151.797 4.58697 152.381H4.59732C5.58294 152.831 6.6685 153.081 7.81956 153.081H66.7264V148.385H8.16418C7.06827 152.395 6.34112 152.278 5.66219 152.062C4.84888 151.808 4.0976 151.41 3.44281 150.895C3.43591 150.895 3.43591 150.891 3.43591 150.888C2.56056 150.215 1.85754 149.347 1.3785 148.341C0.937371 147.417 0.689251 146.384 0.689251 145.293V89.1196C0.689251 69.2766 16.8389 53.1906 36.7605 53.1906H104.635V52.504H7.81955V52.504V52.504Z" fill="#3F3D56"/>
<path d="M37.871 66.0085C37.8675 66.7431 37.8641 68.1883 37.2265 68.5521L37.0611 68.4732C36.9508 68.4045 36.813 68.2981 36.6648 68.178C36.2099 67.8072 35.6309 67.2958 35.2346 67.2271C35.2139 66.6092 35.2312 65.9914 35.2932 65.3769C35.3104 65.2293 35.3276 65.0817 35.3483 64.9341C35.2897 65.0337 35.2346 65.1332 35.1795 65.2362C34.8521 65.8472 34.5833 66.4925 34.3868 67.155C33.732 67.1619 32.8567 67.0727 32.5017 67.6184C31.9882 68.4114 32.7223 70.1003 31.4713 70.8314C31.2059 70.9859 30.851 71.0992 30.3788 71.1507C30.8751 71.2296 31.5058 71.4699 31.8228 72.1015C32.4776 73.4059 33.0359 74.9163 32.7395 76.3065C32.6947 76.5125 32.6327 76.715 32.55 76.9141C32.0468 78.1224 30.882 78.8982 30.0273 79.8937C30.0101 79.9109 29.9963 79.928 29.9825 79.9452C29.3243 80.7278 29.1037 81.3697 29.1726 81.9773C29.2967 83.0929 30.3892 84.0884 31.5161 85.5851C31.9331 86.1412 30.689 89.028 31.0439 89.6253C31.4058 90.2226 31.5988 90.9778 31.3128 91.6163C31.006 92.2959 30.3168 92.598 29.5517 92.7147C27.3668 91.2215 25.4886 89.3198 24.6442 87.0783C23.9136 85.1422 23.9516 82.9591 25.2267 80.5631C24.0032 82.6707 23.5415 85.204 23.9412 87.6069C23.9516 87.6927 23.9653 87.7751 23.9826 87.8575C24.0446 88.1802 24.148 88.4719 24.2858 88.7465C24.9027 89.972 26.1847 90.7821 27.129 91.9115C26.7327 92.3097 26.0848 92.9173 25.4541 93.4768C24.9165 93.9573 24.3858 94.3967 24.0377 94.6405C23.8034 94.4242 23.5587 93.8921 23.3278 93.1987C23.2347 92.9207 23.1417 92.6152 23.0555 92.2959C22.5145 90.3633 22.0733 87.8712 21.9596 87.1057C21.646 87.6927 21.5564 89.3507 21.6012 91.0568C21.6081 91.3073 21.6184 91.5579 21.6288 91.8051C21.7287 93.9539 19.0579 95.0112 17.6518 93.3807C17.3623 93.0408 17.0659 92.6598 16.7627 92.2307C16.7247 90.5899 16.9591 88.9422 17.476 87.3872C17.4898 87.3426 17.4967 87.322 17.4967 87.3151C17.4278 87.4147 16.7041 89.2065 16.1354 90.5865C15.8425 91.2936 15.5909 91.8909 15.4841 92.1003C15.5909 91.4652 15.7943 90.6826 16.0079 89.9171C16.4939 88.1973 17.0418 86.5805 16.7006 87.0268C16.3526 87.4833 16.039 87.9708 15.7701 88.4788C15.2325 89.4777 14.8569 90.5659 14.6674 91.6849C14.6501 91.7845 14.6329 91.884 14.6225 91.987C14.3089 91.908 14.0057 91.7982 13.7162 91.654C12.8029 91.1838 12.3101 90.1986 12.2584 89.1722C12.1757 87.5657 12.8891 86.1103 14.3572 86.3368C14.9155 86.4226 15.1498 86.0931 15.1808 85.5542C15.2567 84.4385 14.4812 82.4201 14.0298 81.3354C13.8368 80.872 13.6369 80.3914 13.4646 79.9074C14.4192 78.6957 14.9258 77.1304 14.8155 75.5925C14.4881 76.7391 13.9057 77.8101 13.1234 78.7129C12.9546 77.9027 12.9408 77.0926 13.2406 76.3203C14.2435 73.7526 16.3836 74.8408 17.8965 72.534C19.6644 69.8394 19.144 68.432 20.171 65.3769C20.6121 64.0588 21.6564 62.9535 22.9522 62.4317C24.2479 61.9134 26.0951 58.6146 30.9923 62.236C31.0715 62.1639 31.1508 62.0953 31.2335 62.0335C32.6223 60.99 34.3317 61.6559 36.1617 61.8928C38.0985 62.1433 37.4574 61.776 38.5017 63.4203C38.8945 64.0416 37.8779 65.2739 37.871 66.0085V66.0085L37.871 66.0085Z" fill="#2F2E41"/>
<path d="M79.8288 42.0584C79.8288 42.0561 79.8276 42.055 79.8253 42.055C79.4428 41.6362 78.9327 41.3341 78.3572 41.2071H78.3538C78.1539 41.1625 77.9506 41.1385 77.7369 41.1385H59.9921C58.4241 41.1385 57.1455 42.412 57.1455 43.9738V61.6487C57.1455 63.2105 58.4241 64.4806 59.9921 64.4806H77.7369C79.3049 64.4806 80.58 63.2105 80.58 61.6487V43.9738C80.58 43.2358 80.2975 42.563 79.8288 42.0584V42.0584ZM80.2458 61.6487C80.2458 63.0286 79.1223 64.1477 77.7369 64.1477H59.9921C58.6067 64.1477 57.4832 63.0286 57.4832 61.6487V52.7375C57.4832 52.6585 57.4832 52.583 57.4867 52.504C57.497 52.0029 57.5384 51.5086 57.6142 51.0211C57.6245 50.9387 57.6418 50.8598 57.6555 50.7774C58.0312 48.6388 59.0134 46.7028 60.4195 45.165L60.4367 45.1478C62.5044 42.8891 65.482 41.4714 68.7904 41.4714H77.7369C79.1223 41.4714 80.2458 42.5939 80.2458 43.9739V61.6487V61.6487Z" fill="#E6E6E6"/>
<path d="M57.4609 52.8112C57.4609 46.5379 63.1025 41.0505 69.3246 40.079C77.2004 38.8494 84.4412 43.0167 83.3992 50.1021C82.4865 56.3091 71.7903 68.0579 68.8646 62.5026C65.5168 56.1458 57.4609 59.0845 57.4609 52.8112H57.4609H57.4609Z" fill="#29A1DC"/>
<path d="M72.2298 47.836H66.5022C66.3574 47.836 66.2402 47.9527 66.2402 48.0968C66.2402 48.241 66.3574 48.3577 66.5022 48.3577H72.2298C72.3746 48.3577 72.4917 48.241 72.4917 48.0968C72.4917 47.9527 72.3746 47.836 72.2298 47.836Z" fill="white"/>
<path d="M72.2298 53.4003H66.5022C66.3574 53.4003 66.2402 53.517 66.2402 53.6578C66.2402 53.8019 66.3574 53.9221 66.5022 53.9221H72.2298C72.3746 53.9221 72.4917 53.8019 72.4917 53.6578C72.4917 53.517 72.3746 53.4003 72.2298 53.4003Z" fill="white"/>
<path d="M75.3037 50.6198H63.4279C63.2832 50.6198 63.166 50.7366 63.166 50.8807C63.166 51.0249 63.2832 51.1416 63.4279 51.1416H75.3037C75.4485 51.1416 75.5656 51.0249 75.5656 50.8807C75.5656 50.7366 75.4485 50.6198 75.3037 50.6198Z" fill="white"/>
<path d="M17.535 14.7991C17.1548 14.7991 16.8457 15.107 16.8457 15.4857V26.1269C16.8457 26.5056 17.1548 26.8135 17.535 26.8135C17.9151 26.8135 18.2242 26.5056 18.2242 26.1269V15.4857C18.2242 15.107 17.9151 14.7991 17.535 14.7991Z" fill="#3F3D56"/>
<path d="M24.2903 25.0529C26.6624 25.0529 28.5854 23.1778 28.5854 20.8648C28.5854 18.5518 26.6624 16.6767 24.2903 16.6767C21.9181 16.6767 19.9951 18.5518 19.9951 20.8648C19.9951 23.1778 21.9181 25.0529 24.2903 25.0529Z" fill="#29A1DC"/>
<path d="M58.7227 19.432H35.6035C34.8104 19.432 34.165 18.7893 34.165 17.9993C34.165 17.2093 34.8104 16.5665 35.6035 16.5665H58.7227C59.5158 16.5665 60.1611 17.2093 60.1611 17.9993C60.1611 18.7893 59.5158 19.432 58.7227 19.432V19.432Z" fill="#F2F2F2"/>
<path d="M76.765 24.2814H35.6035C34.8104 24.2814 34.165 23.6386 34.165 22.8486C34.165 22.0586 34.8104 21.4159 35.6035 21.4159H76.765C77.5581 21.4159 78.2034 22.0586 78.2034 22.8486C78.2034 23.6386 77.5581 24.2814 76.765 24.2814Z" fill="#F2F2F2"/>
<path d="M74.6453 143.986C74.2652 143.986 73.9561 144.294 73.9561 144.672V155.313C73.9561 155.692 74.2652 156 74.6453 156C75.0254 156 75.3346 155.692 75.3346 155.313V144.672C75.3346 144.294 75.0254 143.986 74.6453 143.986Z" fill="#3F3D56"/>
<path d="M81.4006 154.239C83.7728 154.239 85.6958 152.364 85.6958 150.051C85.6958 147.738 83.7728 145.863 81.4006 145.863C79.0285 145.863 77.1055 147.738 77.1055 150.051C77.1055 152.364 79.0285 154.239 81.4006 154.239Z" fill="#29A1DC"/>
<path d="M115.833 148.619H92.7138C91.9207 148.619 91.2754 147.976 91.2754 147.186C91.2754 146.396 91.9207 145.753 92.7138 145.753H115.833C116.626 145.753 117.271 146.396 117.271 147.186C117.271 147.976 116.626 148.619 115.833 148.619Z" fill="#F2F2F2"/>
<path d="M133.875 153.468H92.7138C91.9207 153.468 91.2754 152.825 91.2754 152.035C91.2754 151.245 91.9207 150.602 92.7138 150.602H133.875C134.668 150.602 135.314 151.245 135.314 152.035C135.314 152.825 134.668 153.468 133.875 153.468Z" fill="#F2F2F2"/>
<path d="M34.8039 59.0589C35.6086 59.0589 36.261 58.3946 36.261 57.5751C36.261 56.7556 35.6086 56.0913 34.8039 56.0913C33.9991 56.0913 33.3467 56.7556 33.3467 57.5751C33.3467 58.3946 33.9991 59.0589 34.8039 59.0589Z" fill="#3F3D56"/>
<path d="M39.838 59.0589C40.6428 59.0589 41.2952 58.3946 41.2952 57.5751C41.2952 56.7556 40.6428 56.0913 39.838 56.0913C39.0333 56.0913 38.3809 56.7556 38.3809 57.5751C38.3809 58.3946 39.0333 59.0589 39.838 59.0589Z" fill="#3F3D56"/>
<path d="M44.8712 59.0589C45.676 59.0589 46.3284 58.3946 46.3284 57.5751C46.3284 56.7556 45.676 56.0913 44.8712 56.0913C44.0665 56.0913 43.4141 56.7556 43.4141 57.5751C43.4141 58.3946 44.0665 59.0589 44.8712 59.0589Z" fill="#3F3D56"/>
<path d="M135.913 29.781C136.718 29.781 137.37 29.1167 137.37 28.2973C137.37 27.4778 136.718 26.8135 135.913 26.8135C135.108 26.8135 134.456 27.4778 134.456 28.2973C134.456 29.1167 135.108 29.781 135.913 29.781Z" fill="#3F3D56"/>
<path d="M140.947 29.781C141.752 29.781 142.405 29.1167 142.405 28.2973C142.405 27.4778 141.752 26.8135 140.947 26.8135C140.143 26.8135 139.49 27.4778 139.49 28.2973C139.49 29.1167 140.143 29.781 140.947 29.781Z" fill="#3F3D56"/>
<path d="M145.981 29.781C146.785 29.781 147.438 29.1167 147.438 28.2973C147.438 27.4778 146.785 26.8135 145.981 26.8135C145.176 26.8135 144.523 27.4778 144.523 28.2973C144.523 29.1167 145.176 29.781 145.981 29.781Z" fill="#3F3D56"/>
</g>
<defs>
<clipPath id="clip0_123_256">
<rect width="191" height="156" fill="white"/>
</clipPath>
</defs>
</svg>

