<svg width="210" height="156" viewBox="0 0 210 156" fill="none" xmlns="http://www.w3.org/2000/svg">
<g clip-path="url(#clip0_123_7)">
<path opacity="0.1" d="M13.7449 61.1439H31.9965V86.1528H15.0794C15.0362 86.4114 14.9931 86.6681 14.9445 86.9266H31.9965V107.092C31.9678 107.092 31.939 107.07 31.912 107.06C31.4324 106.868 30.9528 106.665 30.4732 106.45C30.3706 106.403 30.2699 106.355 30.1656 106.309C29.686 106.082 29.2064 105.84 28.7268 105.586C28.5595 105.498 28.3922 105.405 28.2286 105.311C25.5659 103.818 23.146 101.924 21.0524 99.6959C20.9894 99.6363 20.9319 99.5712 20.8725 99.5152C20.5812 99.197 20.2952 98.8752 20.0182 98.5461C19.9139 98.425 19.8132 98.302 19.7107 98.1845C19.3833 97.7832 19.0668 97.3673 18.761 96.9497C18.7143 96.8864 18.6711 96.825 18.6261 96.7689C17.3736 95.0267 16.3349 93.1388 15.5326 91.1463C15.5075 91.0866 15.4841 91.0216 15.4607 90.9655C15.2125 90.3327 14.9877 89.6909 14.7934 89.0365C14.7107 88.7635 14.6298 88.4941 14.5614 88.2102C14.5362 88.1289 14.5165 88.0457 14.4949 87.9644C13.4841 83.9598 13.3672 79.798 13.3672 75.656C13.3672 75.1739 13.3672 74.6918 13.3672 74.2097C13.3816 72.5187 13.4014 70.8295 13.4265 69.1421C13.4361 68.7082 13.4451 68.2725 13.4535 67.835C13.4787 66.7273 13.5147 65.6173 13.5614 64.5048C13.5722 64.1974 13.5866 63.8883 13.6028 63.5827C13.61 63.4056 13.619 63.2284 13.6298 63.0512C13.6622 62.4112 13.7005 61.7754 13.7449 61.1439Z" fill="#29A1DC"/>
<path opacity="0.1" d="M31.9959 33.2983H21.9834C23.6117 30.7392 25.39 28.2797 27.3089 25.9328C28.7981 24.096 30.3664 22.3061 31.9959 20.5814V33.2983Z" fill="#29A1DC"/>
<path opacity="0.1" d="M31.9958 34.0685V60.3701H13.8018C13.8018 60.2941 13.8125 60.2164 13.8197 60.1405C13.8359 59.9326 13.8521 59.7264 13.8701 59.5185C13.8881 59.2763 13.9115 59.034 13.9348 58.7954C13.9582 58.5567 13.9816 58.2675 14.0104 58.0053C14.0392 57.7432 14.0625 57.4774 14.0913 57.2153C14.1201 56.9531 14.1489 56.691 14.1813 56.4306C14.2136 56.1703 14.2424 55.9063 14.2784 55.646C14.3053 55.4308 14.3323 55.2139 14.3629 54.9969C14.4043 54.6914 14.4474 54.3859 14.4924 54.0821C14.4924 54.0351 14.5068 53.9899 14.514 53.9447C14.8427 51.7215 15.2894 49.5175 15.8521 47.3422C16.443 45.0606 17.1974 42.825 18.1093 40.6529C19.0782 38.377 20.2132 36.1762 21.5049 34.0685H31.9958Z" fill="#29A1DC"/>
<path opacity="0.1" d="M36.3555 61.1439V86.1528H75.3407V61.1439H36.3555ZM36.3555 86.9266V108.405C36.5785 108.45 36.7979 108.495 37.0191 108.533C37.3159 108.591 37.6145 108.643 37.9184 108.689L38.0983 108.714C38.217 108.734 38.3375 108.75 38.458 108.764C38.7583 108.808 39.0587 108.84 39.3572 108.869C39.4975 108.884 39.6432 108.895 39.7853 108.907L40.1324 108.933C40.3213 108.947 40.5083 108.958 40.6954 108.965C40.8105 108.965 40.9256 108.974 41.0425 108.978C41.1594 108.981 41.2223 108.978 41.3159 108.978H41.6558C41.8105 108.978 41.9651 108.978 42.118 108.978H42.3158C42.4705 108.978 42.6252 108.978 42.7781 108.963H42.7871C42.895 108.963 43.0011 108.963 43.109 108.951C43.1396 108.952 43.1702 108.952 43.2007 108.951C43.2907 108.951 43.3806 108.951 43.4669 108.94C43.4873 108.938 43.5077 108.938 43.5281 108.94C43.7277 108.927 43.9291 108.911 44.1324 108.893C44.3356 108.875 44.5281 108.853 44.7313 108.831L45.1396 108.781C46.8079 108.546 48.4577 108.193 50.0766 107.725C53.715 106.705 57.2708 105.279 60.9074 104.236C65.6052 102.889 70.7994 102.225 75.3389 103.865V86.9266H36.3555ZM75.3407 33.2983V0.00361212C71.073 -0.0435876 66.8167 0.45765 62.6754 1.49515C52.8032 3.98827 43.9381 9.39576 36.3555 16.302V33.2965H38.3177V34.0684H36.3555V60.3701H75.3407V34.0684H46.3446V33.2947L75.3407 33.2983ZM125.427 22.0512C122.984 21.9644 120.556 21.1888 118.358 19.9866C114.161 17.6923 110.804 14.1452 107.056 11.1549C99.2686 4.92296 89.6104 1.16068 79.7022 0.227794V33.2983H135.351L135.49 33.1518L125.427 22.0512ZM130.497 21.1472L135.873 27.079V19.587C134.063 19.8166 132.488 20.3499 130.497 21.14V21.1472ZM135.873 113.738V86.9266H124.409C124.38 86.8127 124.348 86.697 124.312 86.5813C124.346 86.697 124.376 86.8127 124.407 86.9266H79.7022V106.315C80.1267 106.631 80.5457 106.966 80.9612 107.302C81.4096 107.671 81.8551 108.044 82.2975 108.421L82.7436 108.792C82.9576 108.972 83.1752 109.153 83.391 109.325C83.8239 109.676 84.2597 110.023 84.6986 110.366C84.918 110.54 85.1386 110.71 85.3604 110.878C88.8734 113.577 92.5788 116.012 96.4467 118.166C97.3136 118.652 98.1895 119.12 99.0708 119.578C99.6571 119.881 100.248 120.179 100.842 120.471C101.734 120.908 102.634 121.33 103.54 121.736C111.897 125.507 120.734 128.094 129.799 129.424C131.811 129.721 133.832 129.956 135.862 130.129V113.734H136.042L135.873 113.738ZM79.7022 34.0684V60.3701H135.873V34.0684H79.7022ZM79.7022 61.1402V86.1528H135.873V61.1439L79.7022 61.1402ZM140.232 19.5508V27.9215L147.092 20.3518C144.819 19.9745 142.532 19.7075 140.232 19.5508ZM140.232 61.1439V86.1528H194.863V61.1439H140.232ZM194.671 115.721L194.863 86.9266H140.232V130.42C143.751 130.567 147.275 130.524 150.79 130.291H150.851C152.53 130.183 154.2 130.029 155.863 129.829H155.901C164.776 128.79 173.454 126.46 181.662 122.911L194.671 115.721ZM205.403 65.2514C205.195 64.7693 204.982 64.2872 204.764 63.8051C204.358 62.9012 203.93 62.0225 203.487 61.1457H199.225V86.1528H210C209.991 79.0694 208.207 71.8377 205.403 65.2514ZM199.225 86.9266V111.695C202.259 108.772 204.825 105.425 206.671 101.6C208.892 96.9913 209.908 92.005 209.992 86.9248L199.225 86.9266ZM199.225 53.8561V60.3646H203.088C201.917 58.1273 200.627 55.9547 199.225 53.8561ZM162.175 24.4593C161.89 24.3491 161.604 24.2388 161.318 24.1339C158.303 23.0138 155.222 22.0827 152.092 21.3461L141.592 32.9276L141.387 33.15L141.522 33.2965H178.892C173.687 29.6962 168.075 26.7297 162.175 24.4593ZM179.989 34.0684H140.998L140.232 34.7717V60.3701H146.95H194.863V47.9677C190.531 42.7012 185.53 38.0282 179.989 34.0684Z" fill="#29A1DC"/>
<path opacity="0.1" d="M31.9958 47.3368V60.3701H13.8018C13.8018 60.2941 13.8125 60.2164 13.8197 60.1405C13.8359 59.9326 13.8521 59.7264 13.8701 59.5185C13.8881 59.2763 13.9115 59.034 13.9348 58.7954C13.9582 58.5567 13.9816 58.2675 14.0104 58.0053C14.0392 57.7432 14.0625 57.4774 14.0913 57.2153C14.1201 56.9531 14.1489 56.691 14.1813 56.4306C14.2136 56.1703 14.2424 55.9063 14.2784 55.646C14.3053 55.4308 14.3323 55.2139 14.3629 54.9969C14.4043 54.6914 14.4474 54.3859 14.4924 54.0821C14.4924 54.0351 14.5068 53.9899 14.514 53.9447C14.8427 51.7215 15.2894 49.5175 15.8521 47.3422L31.9958 47.3368Z" fill="#29A1DC"/>
<path opacity="0.1" d="M13.7449 61.1439H31.9965V86.1528H15.0794C15.0362 86.4114 14.9931 86.6681 14.9445 86.9266H31.9965V107.092C31.9678 107.092 31.939 107.07 31.912 107.06C31.4324 106.868 30.9528 106.665 30.4732 106.45C30.3706 106.403 30.2699 106.355 30.1656 106.309C29.686 106.082 29.2064 105.84 28.7268 105.586C28.5595 105.498 28.3922 105.405 28.2286 105.311C25.5659 103.818 23.146 101.924 21.0524 99.6959C20.9894 99.6363 20.9319 99.5712 20.8725 99.5152C20.5812 99.197 20.2952 98.8752 20.0182 98.5461C19.9139 98.425 19.8132 98.302 19.7107 98.1845C19.3833 97.7832 19.0668 97.3673 18.761 96.9497C18.7143 96.8864 18.6711 96.825 18.6261 96.7689C17.3736 95.0267 16.3349 93.1388 15.5326 91.1463C15.5075 91.0866 15.4841 91.0216 15.4607 90.9655C15.2125 90.3327 14.9877 89.6909 14.7934 89.0365C14.7107 88.7635 14.6298 88.4941 14.5614 88.2102C14.5362 88.1289 14.5165 88.0457 14.4949 87.9644C13.4841 83.9598 13.3672 79.798 13.3672 75.656C13.3672 75.1739 13.3672 74.6918 13.3672 74.2097C13.3816 72.5187 13.4014 70.8295 13.4265 69.1421C13.4361 68.7082 13.4451 68.2725 13.4535 67.835C13.4787 66.7273 13.5147 65.6173 13.5614 64.5048C13.5722 64.1974 13.5866 63.8883 13.6028 63.5827C13.61 63.4056 13.619 63.2284 13.6298 63.0512C13.6622 62.4112 13.7005 61.7754 13.7449 61.1439Z" fill="#29A1DC"/>
<path opacity="0.1" d="M50.0782 37.8361V60.3701H36.3535V37.8361H38.3103V30.2067H46.3426V37.8361H50.0782Z" fill="#29A1DC"/>
<path opacity="0.1" d="M50.0764 61.1421H36.3535V86.151H50.0764V61.1421Z" fill="#29A1DC"/>
<path opacity="0.1" d="M36.3555 86.9266H50.0784V107.718C48.4596 108.186 46.8098 108.538 45.1414 108.772C45.0047 108.792 44.8698 108.808 44.7331 108.822C44.5317 108.846 44.332 108.868 44.1324 108.886L43.5299 108.934H43.4687L43.2025 108.949H43.1108C43.0029 108.949 42.8968 108.962 42.7889 108.963H42.7799C42.6252 108.963 42.4723 108.974 42.3176 108.978H42.1198C41.9669 108.978 41.8141 108.978 41.6576 108.978H41.3195H41.0443C40.9274 108.978 40.8123 108.978 40.6954 108.963C40.5107 108.956 40.3237 108.945 40.1342 108.931L39.7871 108.905C39.6432 108.895 39.4993 108.88 39.3572 108.866C39.0551 108.839 38.7553 108.805 38.458 108.763L38.0983 108.712L37.9184 108.687C37.618 108.642 37.3195 108.591 37.0191 108.533C36.7961 108.493 36.5767 108.448 36.3555 108.401V86.9266Z" fill="#29A1DC"/>
<path opacity="0.1" d="M135.871 35.1749H124.555V60.3683H135.871V35.1749Z" fill="#29A1DC"/>
<path opacity="0.1" d="M135.873 61.1421V86.1528H79.7021V75.365H109.621V81.7288H124.554V61.1421H135.873Z" fill="#29A1DC"/>
<path opacity="0.1" d="M136.051 113.743C135.991 113.743 135.932 113.743 135.871 113.733V130.14C133.843 129.972 131.823 129.738 129.81 129.436C120.742 128.107 111.901 125.522 103.54 121.753C101.126 120.658 98.7619 119.466 96.4466 118.175C92.5799 116.02 88.8752 113.585 85.3622 110.887C84.4773 110.207 83.6056 109.512 82.7471 108.802C82.1518 108.307 81.5618 107.801 80.9611 107.311C80.5475 106.973 80.1284 106.638 79.7021 106.32V86.9266H124.407C124.374 86.8109 124.346 86.697 124.313 86.5813C124.347 86.697 124.38 86.8109 124.409 86.9266H135.873V113.731C135.932 113.733 135.991 113.738 136.051 113.743Z" fill="#29A1DC"/>
<path opacity="0.1" d="M165.387 33.2983H158.013V30.995H161.317V24.1339C161.603 24.24 161.889 24.3485 162.173 24.4594V30.995H165.385L165.387 33.2983Z" fill="#29A1DC"/>
<path opacity="0.1" d="M183.155 60.3701H146.95C146.954 60.3709 146.957 60.3709 146.961 60.3701H146.945H140.232V35.1767H142.135V53.7983H150.829V42.77H158.015V34.0685H165.389V42.7754H172.57V53.8037H183.157L183.155 60.3701Z" fill="#29A1DC"/>
<path opacity="0.1" d="M140.232 61.1439V86.1528H183.157V61.1439H140.232ZM194.802 115.589L194.863 95.7926H183.157V86.9338H140.232V130.42C143.751 130.567 147.276 130.524 150.79 130.291H150.851C152.53 130.183 154.201 130.029 155.864 129.829H155.901C164.776 128.79 173.454 126.46 181.662 122.911" fill="#29A1DC"/>
<path opacity="0.1" d="M199.98 86.9266H209.993C209.906 92.0051 208.892 96.9931 206.671 101.6C204.825 105.427 202.259 108.774 199.225 111.697V95.7872H199.98V86.9266Z" fill="#29A1DC"/>
<path opacity="0.1" d="M210 86.1528H199.98V65.2515H205.403C208.207 71.8377 209.991 79.0694 210 86.1528Z" fill="#29A1DC"/>
<path opacity="0.1" d="M135.872 42.1788H129.81V50.0776H135.872V42.1788Z" fill="#29A1DC"/>
<path opacity="0.1" d="M135.872 58.5513H129.81V60.3701H135.872V58.5513Z" fill="#29A1DC"/>
<path opacity="0.1" d="M135.872 61.1421H129.81V66.4483H135.872V61.1421Z" fill="#29A1DC"/>
<path opacity="0.1" d="M135.872 74.9238H129.81V82.8226H135.872V74.9238Z" fill="#29A1DC"/>
<path opacity="0.1" d="M135.872 91.2964H129.81V99.1952H135.872V91.2964Z" fill="#29A1DC"/>
<path opacity="0.1" d="M135.872 113.731C135.932 113.731 135.991 113.731 136.052 113.743C135.993 113.743 135.934 113.743 135.872 113.733V115.568H129.81V107.669H135.872V113.731Z" fill="#29A1DC"/>
<path opacity="0.1" d="M135.872 124.04V130.14C133.844 129.972 131.823 129.738 129.81 129.436V124.04H135.872Z" fill="#29A1DC"/>
<path opacity="0.1" d="M105.686 85.5725H79.7021V86.1528H105.686V85.5725Z" fill="#29A1DC"/>
<path opacity="0.1" d="M105.686 86.9248H79.7021V89.1485H105.686V86.9248Z" fill="#29A1DC"/>
<path opacity="0.1" d="M105.686 96.4381H79.7021V100.014H105.686V96.4381Z" fill="#29A1DC"/>
<path opacity="0.1" d="M105.687 107.304V110.88H85.363C84.4781 110.202 83.6064 109.507 82.7479 108.793C82.1508 108.3 81.5608 107.794 80.9619 107.304H105.687Z" fill="#29A1DC"/>
<path opacity="0.1" d="M105.686 118.167V121.753H103.541C101.127 120.658 98.7626 119.466 96.4473 118.175L105.686 118.167Z" fill="#29A1DC"/>
<path opacity="0.1" d="M155.905 63.5665H150.79V68.7082H155.905V63.5665Z" fill="#29A1DC"/>
<path opacity="0.1" d="M45.1541 39.6097H40.0391V44.7515H45.1541V39.6097Z" fill="#29A1DC"/>
<path opacity="0.1" d="M45.1541 51.5528H40.0391V56.6946H45.1541V51.5528Z" fill="#29A1DC"/>
<path opacity="0.1" d="M45.1541 63.496H40.0391V68.6377H45.1541V63.496Z" fill="#29A1DC"/>
<path opacity="0.1" d="M45.1541 75.4373H40.0391V80.579H45.1541V75.4373Z" fill="#29A1DC"/>
<path opacity="0.1" d="M45.1541 87.3804H40.0391V92.5221H45.1541V87.3804Z" fill="#29A1DC"/>
<path opacity="0.1" d="M45.1541 99.3235H40.0391V104.465H45.1541V99.3235Z" fill="#29A1DC"/>
<path opacity="0.1" d="M175.431 63.5665H170.316V68.7082H175.431V63.5665Z" fill="#29A1DC"/>
<path opacity="0.1" d="M155.905 76.249H150.79V81.3907H155.905V76.249Z" fill="#29A1DC"/>
<path opacity="0.1" d="M175.431 76.249H170.316V81.3907H175.431V76.249Z" fill="#29A1DC"/>
<path opacity="0.1" d="M155.905 88.9298H150.79V94.0715H155.905V88.9298Z" fill="#29A1DC"/>
<path opacity="0.1" d="M175.431 88.9298H170.316V94.0715H175.431V88.9298Z" fill="#29A1DC"/>
<path opacity="0.1" d="M155.905 101.612H150.79V106.754H155.905V101.612Z" fill="#29A1DC"/>
<path opacity="0.1" d="M175.431 101.612H170.316V106.754H175.431V101.612Z" fill="#29A1DC"/>
<path opacity="0.1" d="M155.905 114.295H150.79V119.437H155.905V114.295Z" fill="#29A1DC"/>
<path opacity="0.1" d="M175.431 114.295H170.316V119.437H175.431V114.295Z" fill="#29A1DC"/>
<path opacity="0.1" d="M150.79 130.291V126.976H155.903V129.82L150.79 130.291Z" fill="#29A1DC"/>
<path opacity="0.1" d="M14.4932 53.9393V56.8808H31.9966V53.9393H14.4932ZM16.236 56.6964H14.7971V54.1255H16.236V56.6964ZM17.9787 56.6964H16.5399V54.1255H17.9787V56.6964ZM19.7179 56.6964H18.2791V54.1255H19.7179V56.6964ZM21.4607 56.6964H20.0219V54.1255H21.4607V56.6964ZM23.2017 56.6964H21.7629V54.1255H23.2017V56.6964ZM24.9445 56.6964H23.5057V54.1255H24.9445V56.6964ZM26.6873 56.6964H25.2485V54.1255H26.6873V56.6964ZM28.4283 56.6964H26.9895V54.1255H28.4283V56.6964ZM30.1693 56.6964H28.7305V54.1255H30.1693V56.6964ZM31.9121 56.6964H30.4732V54.1255H31.9121V56.6964Z" fill="#29A1DC"/>
<path opacity="0.1" d="M14.4932 62.5016V65.4431H31.9966V62.5016H14.4932ZM16.236 65.2587H14.7971V62.6878H16.236V65.2587ZM17.9787 65.2587H16.5399V62.6878H17.9787V65.2587ZM19.7179 65.2587H18.2791V62.6878H19.7179V65.2587ZM21.4607 65.2587H20.0219V62.6878H21.4607V65.2587ZM23.2017 65.2587H21.7629V62.6878H23.2017V65.2587ZM24.9445 65.2587H23.5057V62.6878H24.9445V65.2587ZM26.6873 65.2587H25.2485V62.6878H26.6873V65.2587ZM28.4283 65.2587H26.9895V62.6878H28.4283V65.2587ZM30.1693 65.2587H28.7305V62.6878H30.1693V65.2587ZM31.9121 65.2587H30.4732V62.6878H31.9121V65.2587Z" fill="#29A1DC"/>
<path opacity="0.1" d="M14.4932 71.0657V74.0054H31.9966V71.0657H14.4932ZM16.236 73.8192H14.7971V71.2483H16.236V73.8192ZM17.9787 73.8192H16.5399V71.2483H17.9787V73.8192ZM19.7179 73.8192H18.2791V71.2483H19.7179V73.8192ZM21.4607 73.8192H20.0219V71.2483H21.4607V73.8192ZM23.2017 73.8192H21.7629V71.2483H23.2017V73.8192ZM24.9445 73.8192H23.5057V71.2483H24.9445V73.8192ZM26.6873 73.8192H25.2485V71.2483H26.6873V73.8192ZM28.4283 73.8192H26.9895V71.2483H28.4283V73.8192ZM30.1693 73.8192H28.7305V71.2483H30.1693V73.8192ZM31.9121 73.8192H30.4732V71.2483H31.9121V73.8192Z" fill="#29A1DC"/>
<path opacity="0.1" d="M14.4932 79.628V82.5677H31.9966V79.628H14.4932ZM16.236 82.3833H14.7971V79.8088H16.236V82.3833ZM17.9787 82.3833H16.5399V79.8088H17.9787V82.3833ZM19.7179 82.3833H18.2791V79.8088H19.7179V82.3833ZM21.4607 82.3833H20.0219V79.8088H21.4607V82.3833ZM23.2017 82.3833H21.7629V79.8088H23.2017V82.3833ZM24.9445 82.3833H23.5057V79.8088H24.9445V82.3833ZM26.6873 82.3833H25.2485V79.8088H26.6873V82.3833ZM28.4283 82.3833H26.9895V79.8088H28.4283V82.3833ZM30.1693 82.3833H28.7305V79.8088H30.1693V82.3833ZM31.9121 82.3833H30.4732V79.8088H31.9121V82.3833Z" fill="#29A1DC"/>
<path opacity="0.1" d="M14.5771 88.1867C14.6455 88.4652 14.7264 88.74 14.8092 89.013V88.373H16.248V90.942H15.4764C15.498 91.0035 15.5214 91.0668 15.5466 91.1228H32.0033V88.1867H14.5771ZM17.9944 90.942H16.5555V88.373H17.9944V90.942ZM19.7336 90.942H18.2947V88.373H19.7336V90.942ZM21.4764 90.942H20.0375V88.373H21.4764V90.942ZM23.2174 90.942H21.7785V88.373H23.2174V90.942ZM24.9602 90.942H23.5213V88.373H24.9602V90.942ZM26.7029 90.942H25.2641V88.373H26.7029V90.942ZM28.4439 90.942H27.0051V88.373H28.4439V90.942ZM30.1849 90.942H28.7461V88.373H30.1849V90.942ZM31.9277 90.942H30.4889V88.373H31.9277V90.942Z" fill="#29A1DC"/>
<path opacity="0.1" d="M18.6309 96.749C18.6776 96.8069 18.7208 96.872 18.7658 96.9298H19.7172V98.1646L20.0247 98.5262V96.9226H21.4636V99.5152H20.8718C20.9294 99.5748 20.9852 99.6381 21.0517 99.6959H31.9923V96.749H18.6309ZM23.21 99.5152H21.7711V96.9334H23.21V99.5152ZM24.9527 99.5152H23.5139V96.9334H24.9527V99.5152ZM26.6955 99.5152H25.2567V96.9334H26.6955V99.5152ZM28.4365 99.5152H26.9977V96.9334H28.4365V99.5152ZM30.1775 99.5152H28.7387V96.9334H30.1775V99.5152ZM31.9203 99.5152H30.4815V96.9334H31.9203V99.5152Z" fill="#29A1DC"/>
<path opacity="0.1" d="M28.2334 105.311C28.3989 105.405 28.5661 105.492 28.7334 105.584V105.494H30.1722V106.309C30.2765 106.355 30.3755 106.403 30.478 106.45V105.494H31.9168V107.06C31.9442 107.072 31.9724 107.082 32.0014 107.09V105.311H28.2334Z" fill="#29A1DC"/>
<path opacity="0.1" d="M135.871 113.731H136.051H135.871ZM124.312 86.5813C124.346 86.697 124.377 86.8127 124.408 86.9266C124.381 86.8127 124.348 86.697 124.312 86.5813ZM38.3184 33.2983V34.0684H46.3525V33.2946L38.3184 33.2983ZM135.873 113.731H136.053H135.873ZM124.312 86.5813C124.346 86.697 124.377 86.8127 124.408 86.9266C124.381 86.8127 124.348 86.697 124.312 86.5813ZM135.871 113.731H136.051H135.871ZM124.312 86.5813C124.346 86.697 124.377 86.8127 124.408 86.9266C124.381 86.8127 124.348 86.697 124.312 86.5813Z" fill="#29A1DC"/>
<path opacity="0.1" d="M158.17 156C167.848 156 175.695 154.733 175.695 153.171C175.695 151.608 167.848 150.341 158.17 150.341C148.491 150.341 140.645 151.608 140.645 153.171C140.645 154.733 148.491 156 158.17 156Z" fill="#29A1DC"/>
<path opacity="0.1" d="M79.1305 153.171C88.8093 153.171 96.6555 151.904 96.6555 150.341C96.6555 148.779 88.8093 147.512 79.1305 147.512C69.4517 147.512 61.6055 148.779 61.6055 150.341C61.6055 151.904 69.4517 153.171 79.1305 153.171Z" fill="#29A1DC"/>
<path d="M99.3064 75.5259C99.3021 75.5079 99.2927 75.4916 99.2794 75.4788C99.0114 75.2131 95.5942 70.3552 95.5942 70.3552C95.5942 70.3552 95.4143 69.8128 95.123 69.1077C95.2164 68.9862 95.2865 68.8483 95.3298 68.701C95.3455 68.6385 95.3569 68.5751 95.364 68.5111C95.364 68.4912 95.3783 68.475 95.3837 68.4551C95.4462 68.2099 95.44 67.9521 95.3658 67.7102C95.3458 67.7723 95.3211 67.8327 95.292 67.891C95.2244 67.6804 95.1339 67.4779 95.0222 67.2872C94.569 66.5025 93.9215 65.8408 93.4449 65.0761C92.7232 63.8879 92.4364 62.4838 92.6338 61.1059C92.6338 61.1764 92.6338 61.2487 92.6338 61.3192C92.6518 61.0459 92.6878 60.7741 92.7417 60.5057C92.8168 60.2001 92.9173 59.9013 93.042 59.6125C93.4701 58.6272 94.1625 57.7685 94.5834 56.7795C94.7246 56.446 94.8319 56.0989 94.9035 55.7436C95.0518 55.1502 95.1059 54.537 95.0636 53.9266C95.0636 54.0713 95.0402 54.2159 95.0186 54.3587C94.9732 52.8913 94.3836 51.4939 93.3658 50.441C91.8964 48.9567 89.7867 48.3799 87.7687 48.0762C86.9207 47.9767 86.1109 47.666 85.4126 47.1722C84.6374 46.6678 83.6356 46.5467 82.7292 46.657C81.6873 46.7702 80.7192 47.2513 79.9972 48.0147C79.0386 49.0742 78.6231 50.5747 77.5044 51.4679C76.8264 52.0102 75.9666 52.2633 75.1771 52.6322C74.3875 53.001 73.6411 53.5361 73.3875 54.328C73.3875 54.328 73.3875 54.3171 73.3875 54.3117V54.3569L73.3767 54.3858C73.1141 55.3223 73.6213 56.2751 73.8857 57.2098C74.1609 58.1771 74.1789 59.1985 74.1933 60.1983C74.2131 61.4205 74.231 62.6444 74.2113 63.8684C74.2023 64.3493 74.1861 64.8356 74.1501 65.3147C73.7244 65.4441 73.3109 65.6111 72.9145 65.8137C72.5116 66.0777 71.0045 67.7138 71.0045 67.7138L68.0566 79.035L68.0962 79.0802L68.0566 79.2339L68.2059 79.1996C68.6232 79.6515 69.8696 80.9388 71.2149 81.7415L71.3408 83.9616C71.3408 83.9616 71.4919 86.189 73.5296 87.1092C73.5764 87.8812 73.7221 91.0161 73.0476 92.2582C72.5806 93.1655 72.3609 94.1811 72.4109 95.2015C72.4109 95.2015 72.6465 97.0853 72.3785 98.076C72.222 98.7382 72.2103 99.4266 72.3444 100.094C72.3444 100.094 72.3444 100.312 72.3444 100.688C72.3444 102.693 72.3678 109.119 72.3444 109.846C72.3102 110.704 72.3444 123.405 72.3444 123.405C72.3444 123.405 72.1771 129.753 71.6411 131.472C71.1052 133.191 71.2401 138.884 71.2401 138.884C71.2401 138.884 70.9037 145.666 72.0926 147.004C72.0926 147.063 72.0818 147.125 72.08 147.185C72.08 147.212 72.08 147.242 72.08 147.27C72.0656 147.785 72.1645 148.333 72.6052 148.501C73.5044 148.848 74.6933 149.889 74.9181 150.188C75.1429 150.486 76.4505 151.229 78.1555 151.03C79.2236 150.909 80.2985 150.86 81.3731 150.882C81.3731 150.882 82.0457 150.759 81.8281 149.918C81.6878 149.394 81.1626 148.588 80.7885 148.058C80.8569 148.076 80.9234 148.09 80.9864 148.103L81.0511 148.116H81.1015C81.129 148.117 81.1567 148.117 81.1842 148.116H81.2202C81.2537 148.118 81.2874 148.118 81.3209 148.116C81.7724 148.072 83.4558 148.861 83.7561 149.381C84.0565 149.902 85.1159 150.298 85.9144 150.397C86.3892 150.455 87.587 150.357 88.5924 150.227C89.0987 150.175 89.6002 150.083 90.0924 149.952C90.3298 149.862 90.3802 149.573 90.3119 149.247C90.2311 148.834 90.0114 148.461 89.6896 148.192C89.3982 147.984 89.0133 147.436 88.7291 146.988L88.6536 146.866C89.1554 146.385 90.0618 144.813 90.337 144.487C90.6716 144.091 89.7975 129.612 89.7975 129.612V122.353L91.1374 115.483L92.0744 111.847L92.8784 106.358C92.8784 106.358 94.2848 99.9472 93.8514 99.3181C93.8514 99.3054 93.4917 92.7047 93.114 91.1192C92.9503 90.4123 92.9917 88.8213 93.0888 87.2737C93.1903 87.1724 93.2611 87.0442 93.2929 86.904C93.3247 86.7638 93.3163 86.6174 93.2687 86.4818C93.2418 86.3892 93.2069 86.299 93.1643 86.2125C93.1643 86.1854 93.1643 86.1564 93.1643 86.1293C93.9413 85.77 94.7532 85.4925 95.587 85.3013C96.9269 85.0373 96.5924 84.3431 96.5924 84.3431C96.5924 84.3431 96.8945 83.7483 97.0942 83.3849C97.2938 83.0215 97.1283 79.8142 97.0942 79.5503C97.0816 79.4436 96.9988 78.8542 96.9035 78.1853C97.3334 77.878 97.8927 77.4965 98.5024 77.1349C99.6625 76.4443 99.4017 75.7157 99.3064 75.5259ZM81.8245 121.362C81.8245 121.362 80.8191 123.94 81.222 124.6C81.6249 125.26 81.1554 127.71 81.1554 127.71L80.8191 131.345C80.8191 131.345 79.8821 138.089 80.2166 139.674C80.4792 140.918 80.5763 144.634 80.6069 146.183C80.5839 146.192 80.5616 146.203 80.5403 146.216L80.4954 146.239C80.6501 145.63 80.5853 144.397 79.8173 141.916L79.7526 131.671C79.7526 131.671 79.6339 119.836 80.5637 118.513C81.4936 117.189 81.8227 114.942 81.8227 114.942C81.8227 114.942 81.6213 118.184 81.49 119.042C81.3587 119.901 81.8245 121.362 81.8245 121.362ZM79.9522 146.828C79.9432 146.85 79.9324 146.872 79.9252 146.892L79.8749 146.827C79.9006 146.829 79.9264 146.83 79.9522 146.828Z" fill="url(#paint0_linear_123_7)"/>
<path d="M90.2061 150.889C89.6863 151.09 86.868 151.431 86.0802 151.336C85.2924 151.24 84.2493 150.838 83.9525 150.314C83.6558 149.79 81.9921 148.998 81.5461 149.049C81.3632 149.054 81.1808 149.028 81.0065 148.973C80.6988 148.879 80.3982 148.763 80.1072 148.625C80.0666 148.398 80.0733 148.164 80.127 147.938C80.1374 147.893 80.1506 147.848 80.1666 147.805C80.2716 147.508 80.4887 147.265 80.7709 147.129L80.8356 147.098C80.9603 147.044 81.0906 147.004 81.2241 146.978C82.6378 146.705 88.4705 147.253 88.4705 147.253C88.4705 147.253 88.6341 147.548 88.859 147.913C89.1395 148.365 89.5208 148.917 89.8086 149.124C90.1274 149.398 90.3437 149.773 90.4219 150.188C90.4902 150.508 90.4399 150.8 90.2061 150.889Z" fill="white"/>
<path opacity="0.1" d="M90.2057 150.889C89.686 151.09 86.8694 151.431 86.0817 151.336C85.2939 151.24 84.2508 150.837 83.9522 150.314C83.6536 149.792 81.9936 148.998 81.5475 149.049C81.1015 149.099 80.1087 148.625 80.1087 148.625C80.1087 148.625 79.954 147.902 80.4037 147.409L81.3029 148.051C81.3029 148.051 83.7094 148.801 84.1554 149.497C84.6015 150.193 85.4144 150.582 86.5889 150.652C87.4666 150.71 89.4827 150.367 90.427 150.195C90.4899 150.508 90.4413 150.8 90.2057 150.889Z" fill="black"/>
<path d="M81.596 151.811C80.5351 151.79 79.474 151.84 78.4198 151.961C76.7309 152.16 75.4414 151.419 75.2165 151.113C74.9917 150.808 73.8281 149.775 72.9342 149.414C72.4971 149.244 72.3946 148.691 72.4144 148.174C72.4144 148.146 72.4144 148.116 72.4144 148.089C72.431 147.761 72.4792 147.436 72.5583 147.118L79.5564 146.968L80.1625 147.794L80.2561 147.92L80.6248 148.425C80.6248 148.425 80.792 148.645 81.0115 148.967C81.382 149.51 81.8999 150.31 82.0384 150.84C82.2596 151.688 81.596 151.811 81.596 151.811Z" fill="white"/>
<path opacity="0.1" d="M81.596 151.811C80.5351 151.79 79.474 151.84 78.4198 151.961C76.7327 152.16 75.4414 151.419 75.2183 151.113C74.9953 150.808 73.8281 149.766 72.9342 149.417C72.4971 149.247 72.3946 148.694 72.4144 148.177C72.9144 148.295 73.9648 148.595 74.3766 149.117C74.9162 149.815 75.882 150.988 77.2543 151.063C78.3622 151.122 81.06 150.923 82.0492 150.844C82.2614 151.688 81.596 151.811 81.596 151.811Z" fill="black"/>
<path opacity="0.1" d="M80.7641 147.121C80.6832 147.725 80.4332 147.888 80.2533 147.924C80.2094 147.933 80.1642 147.933 80.1202 147.924C80.0966 147.922 80.0731 147.919 80.0501 147.913C80.0501 147.913 73.766 149.309 72.4962 148.179C72.4639 148.15 72.4339 148.118 72.4062 148.085C72.4228 147.757 72.471 147.432 72.5501 147.114L79.5483 146.964L80.1544 147.79C80.2594 147.494 80.4765 147.251 80.7587 147.114L80.7641 147.121Z" fill="black"/>
<path opacity="0.1" d="M88.8568 147.906C88.7165 148.061 88.5996 148.15 88.5259 148.119C88.195 147.985 85.4828 147.521 84.6213 147.92C83.7598 148.32 80.8443 147.985 80.8443 147.985C80.8443 147.985 80.8443 147.638 80.8281 147.082C80.9528 147.027 81.0831 146.987 81.2166 146.962C82.6303 146.689 88.463 147.237 88.463 147.237C88.463 147.237 88.6338 147.541 88.8568 147.906Z" fill="black"/>
<path d="M92.9614 107.011L92.1665 112.532L91.242 116.191L89.9183 123.109V130.431C89.9183 130.431 90.778 144.999 90.4471 145.397C90.1161 145.794 88.8589 148.06 88.528 147.928C88.1971 147.796 85.4849 147.329 84.6234 147.727C83.7619 148.125 80.8464 147.794 80.8464 147.794C80.8464 147.794 80.7799 142.14 80.4489 140.544C80.118 138.948 81.0443 132.163 81.0443 132.163L81.3752 128.505C81.3752 128.505 81.8392 126.043 81.4417 125.377C81.0442 124.712 82.037 122.123 82.037 122.123C82.037 122.123 81.5748 120.657 81.7079 119.793C81.841 118.929 82.037 115.669 82.037 115.669C82.037 115.669 81.7079 117.932 80.7889 119.261C79.8698 120.59 79.9867 132.499 79.9867 132.499L80.0515 142.804C81.7079 148.26 80.0515 147.727 80.0515 147.727C80.0515 147.727 73.7673 149.124 72.4976 147.993C71.2278 146.861 71.5911 139.738 71.5911 139.738C71.5911 139.738 71.4598 134.018 71.9886 132.289C72.5173 130.561 72.6846 124.173 72.6846 124.173C72.6846 124.173 72.6504 111.4 72.6846 110.538C72.7098 109.815 72.6846 103.341 72.6846 101.318C72.6846 100.942 72.6846 100.719 72.6846 100.719L73.4436 98.8245L82.4363 97.6928H86.7384C86.7384 97.6928 93.2132 99.2223 93.8823 99.8822C93.8965 99.8932 93.9087 99.9066 93.9182 99.9219C94.3517 100.56 92.9614 107.011 92.9614 107.011Z" fill="#29A1DC"/>
<path opacity="0.1" d="M82.042 136.013C82.042 136.013 84.0204 140.803 84.9538 141.135C85.8873 141.468 82.042 136.013 82.042 136.013Z" fill="black"/>
<path opacity="0.1" d="M82.7744 143.064C82.7744 143.064 89.4542 143.397 89.3877 144.129C89.3211 144.861 82.7744 143.064 82.7744 143.064Z" fill="black"/>
<path opacity="0.1" d="M73.8379 141.15C74.1023 141.401 78.9332 141.873 78.5357 142.332C78.1382 142.791 74.2354 143.684 74.2354 143.684L73.8379 141.15Z" fill="black"/>
<path opacity="0.1" d="M73.0439 132.888C73.0439 133.086 74.0367 139.273 74.3029 139.539C74.5691 139.805 76.7508 140.07 76.7508 140.07L73.0439 132.888Z" fill="black"/>
<path d="M80.2473 48.3239C79.2995 49.3888 78.8894 50.8984 77.7851 51.7987C77.1143 52.3411 76.2654 52.5996 75.4848 52.9684C74.7042 53.3373 73.9308 53.8995 73.6988 54.7348C73.4398 55.6749 73.9398 56.6349 74.2024 57.575C74.474 58.5477 74.4902 59.5637 74.5064 60.5816C74.5244 61.8128 74.5441 63.044 74.5226 64.2752C74.4902 66.1934 74.3319 68.2002 73.3193 69.8255C76.9758 70.9952 80.8642 71.1543 84.6987 71.3044C85.4356 71.3572 86.1759 71.3384 86.9092 71.2483C87.5446 71.121 88.1731 70.9611 88.7922 70.7692C90.0164 70.4436 91.2778 70.2813 92.544 70.2865C93.0961 70.2865 93.6591 70.3209 94.1915 70.1762C94.7238 70.0316 95.2364 69.661 95.3803 69.1258C95.508 68.6449 95.321 68.1333 95.0764 67.7012C94.6303 66.9129 93.9972 66.2548 93.5188 65.4774C93.0304 64.6563 92.7407 63.7313 92.6729 62.777C92.6051 61.8227 92.7612 60.8658 93.1285 59.9832C93.553 58.9906 94.2364 58.1264 94.6537 57.1321C95.0811 56.0645 95.1947 54.896 94.9811 53.7654C94.7675 52.6348 94.2357 51.5895 93.4487 50.7537C91.9972 49.2604 89.9145 48.6819 87.9217 48.3745C87.0826 48.2749 86.2821 47.964 85.5944 47.4706C84.83 46.9643 83.839 46.8414 82.9434 46.9535C81.9101 47.0699 80.953 47.5563 80.2473 48.3239Z" fill="#3F3D56"/>
<g opacity="0.1">
<path d="M93.1849 58.94C92.8182 59.8112 92.6611 60.757 92.7263 61.7007C92.7666 61.0259 92.9217 60.363 93.1849 59.7409C93.6076 58.7484 94.291 57.8842 94.7083 56.8898C95.0494 56.0595 95.1929 55.1606 95.1274 54.2647C95.0903 54.8927 94.9486 55.5099 94.7083 56.0907C94.291 57.0851 93.6076 57.9475 93.1849 58.94Z" fill="black"/>
<path d="M74.5605 60.3357C74.5713 61.0444 74.582 61.7549 74.5838 62.4636C74.5838 61.4874 74.5749 60.5129 74.5605 59.5384C74.5461 58.5278 74.5281 57.5045 74.2565 56.53C74.0767 55.9117 73.8105 55.2844 73.7169 54.6607C73.5569 55.5465 74.0119 56.4451 74.2565 57.3292C74.5281 58.2946 74.5461 59.3251 74.5605 60.3357Z" fill="black"/>
<path d="M94.2529 69.1421C93.7134 69.2885 93.1594 69.256 92.6073 69.2524C91.342 69.2443 90.0812 69.4036 88.8573 69.7261C88.2381 69.9172 87.6096 70.0765 86.9742 70.2034C86.2404 70.295 85.4995 70.3143 84.762 70.2612C81.057 70.1148 77.2998 69.9575 73.7513 68.8926C73.646 69.129 73.5258 69.3585 73.3916 69.5796C77.048 70.7475 80.9365 70.9084 84.7692 71.0585C85.5067 71.1116 86.2476 71.0922 86.9814 71.0006C87.6145 70.875 88.2406 70.7163 88.8573 70.5252C90.0786 70.2015 91.337 70.0404 92.6001 70.0461C93.1522 70.0461 93.7134 70.0804 94.2457 69.934C94.7781 69.7875 95.2907 69.4205 95.4346 68.8854C95.4952 68.6375 95.489 68.3779 95.4166 68.1333C95.2565 68.6395 94.7619 68.992 94.2529 69.1421Z" fill="black"/>
</g>
<path d="M88.9259 66.9997C88.7928 67.2998 88.2317 69.8924 88.0986 70.1581C87.9655 70.4239 87.2389 74.6779 87.1724 74.9166C87.1058 75.1552 82.3828 73.9186 82.3828 73.9186L79.5393 71.5231L76.6167 68.5997C76.6167 68.5997 76.5304 65.962 78.6832 65.1159C78.8295 65.0581 78.9798 65.011 79.1329 64.9748C81.7443 64.3439 81.4818 56.3619 81.4818 56.3619L86.8414 58.6887C86.8414 58.6887 85.8486 63.3459 85.8828 64.2444C85.8918 64.5464 86.1274 64.7344 86.4349 64.8483C86.9105 64.9843 87.4055 65.0381 87.899 65.0074C87.899 65.0074 89.059 66.7014 88.9259 66.9997Z" fill="#FBBEBE"/>
<path d="M98.5203 75.7464L99.2811 75.9471C99.2811 75.9471 99.8441 76.8077 98.5203 77.6086C97.6798 78.1218 96.873 78.6889 96.1049 79.3062L92.193 80.5031L91.4395 78.1257L95.0797 75.3487L98.5203 75.7464Z" fill="#29A1DC"/>
<path opacity="0.1" d="M98.5203 75.7464L99.2811 75.9471C99.2811 75.9471 99.8441 76.8077 98.5203 77.6086C97.6798 78.1218 96.873 78.6889 96.1049 79.3062L92.193 80.5031L91.4395 78.1257L95.0797 75.3487L98.5203 75.7464Z" fill="black"/>
<path d="M69.9727 78.0425L68.4512 79.5394C68.4512 79.5394 71.1958 82.7322 73.3072 82.9311C75.4187 83.13 76.7802 80.5031 76.7802 80.5031L74.9529 77.6104L69.9727 78.0425Z" fill="#29A1DC"/>
<path opacity="0.1" d="M69.9727 78.0425L68.4512 79.5394C68.4512 79.5394 71.1958 82.7322 73.3072 82.9311C75.4187 83.13 76.7802 80.5031 76.7802 80.5031L74.9529 77.6104L69.9727 78.0425Z" fill="black"/>
<path opacity="0.1" d="M84.4259 61.5778C87.3492 61.5778 89.719 59.1956 89.719 56.2571C89.719 53.3185 87.3492 50.9363 84.4259 50.9363C81.5026 50.9363 79.1328 53.3185 79.1328 56.2571C79.1328 59.1956 81.5026 61.5778 84.4259 61.5778Z" fill="black"/>
<path d="M84.4259 61.1782C87.3492 61.1782 89.719 58.796 89.719 55.8575C89.719 52.919 87.3492 50.5368 84.4259 50.5368C81.5026 50.5368 79.1328 52.919 79.1328 55.8575C79.1328 58.796 81.5026 61.1782 84.4259 61.1782Z" fill="#FBBEBE"/>
<path opacity="0.1" d="M93.9216 100.526C92.7164 100.664 91.5292 100.932 90.3803 101.323C88.4019 101.985 72.8984 101.334 72.6826 101.323C72.6826 100.947 72.6826 100.725 72.6826 100.725L73.4416 98.83L82.4343 97.6982H86.7365C86.7365 97.6982 93.2112 99.2277 93.8803 99.8876C93.9073 100.285 93.9216 100.526 93.9216 100.526Z" fill="black"/>
<path opacity="0.1" d="M88.9259 66.9997C88.7928 67.2998 88.2317 69.8924 88.0986 70.1582C87.9655 70.4239 87.2389 74.678 87.1724 74.9166C87.1058 75.1552 82.3828 73.9186 82.3828 73.9186L79.5393 71.5231L76.6167 68.5997C76.6167 68.5997 76.5304 65.962 78.6832 65.1159L84.0285 71.2935L86.4349 64.8483C86.9105 64.9843 87.4055 65.0381 87.899 65.0074C87.899 65.0074 89.059 66.7014 88.9259 66.9997Z" fill="black"/>
<path d="M84.028 71.4924L78.5568 65.1647C78.2366 64.9592 77.8705 64.8369 77.4916 64.8088C77.1127 64.7807 76.7328 64.8477 76.386 65.0038C75.1612 65.5371 73.6396 65.9692 73.2421 66.235C72.8447 66.5007 71.3555 68.1459 71.3555 68.1459L75.7907 79.8088L73.8375 87.4907C73.8375 87.4907 74.136 91.4157 73.3752 92.8457C72.912 93.7601 72.695 94.7805 72.7457 95.8053C72.7457 95.8053 72.9778 97.7018 72.7134 98.698C72.5589 99.364 72.5472 100.056 72.6792 100.726C72.6792 100.726 88.3967 101.392 90.3805 100.726C91.5291 100.334 92.7164 100.067 93.9218 99.9292C93.9218 99.9292 93.5621 93.276 93.2024 91.6796C92.8427 90.0832 93.501 83.9978 93.501 83.9978L93.0711 77.4784L95.6502 70.7891C95.6502 70.7891 94.2528 66.5007 92.7959 66.0686C92.7959 66.0686 90.1503 65.4359 89.5873 65.1376C89.0244 64.8393 87.3697 64.5717 87.3697 64.5717L86.501 64.8646L84.028 71.4924Z" fill="#29A1DC"/>
<path opacity="0.1" d="M91.6615 77.2583L80.1486 76.4714C79.8573 76.4514 79.605 76.6727 79.5852 76.9656L78.3492 95.2376C78.3294 95.5305 78.5495 95.7841 78.8409 95.804L90.3538 96.5909C90.6451 96.6109 90.8974 96.3896 90.9172 96.0967L92.1532 77.8247C92.173 77.5318 91.9529 77.2782 91.6615 77.2583Z" fill="black"/>
<path d="M92.058 76.8615L80.5451 76.0745C80.2538 76.0546 80.0015 76.2759 79.9817 76.5688L78.7457 94.8408C78.7259 95.1337 78.946 95.3873 79.2374 95.4072L90.7503 96.1941C91.0416 96.214 91.2939 95.9927 91.3137 95.6999L92.5497 77.4278C92.5695 77.1349 92.3494 76.8814 92.058 76.8615Z" fill="#3F3D56"/>
<path d="M91.678 78.2937L80.7285 77.5453L79.6033 94.1795L90.5527 94.9279L91.678 78.2937Z" fill="white"/>
<path opacity="0.1" d="M90.6961 82.5395L81.752 81.9102L81.5775 84.416L90.5216 85.0453L90.6961 82.5395Z" fill="black"/>
<path opacity="0.1" d="M90.3725 92.4973L88.9531 92.4003L88.8648 93.7062L90.2842 93.8033L90.3725 92.4973Z" fill="black"/>
<path opacity="0.1" d="M88.9726 89.3456L81.707 88.849L81.6187 90.1549L88.8842 90.6515L88.9726 89.3456Z" fill="black"/>
<path d="M90.323 77.6718L82.7578 77.1547L82.622 79.1623L90.1872 79.6794L90.323 77.6718Z" fill="#3F3D56"/>
<path opacity="0.1" d="M90.323 77.6718L82.7578 77.1547L82.622 79.1623L90.1872 79.6794L90.323 77.6718Z" fill="black"/>
<path opacity="0.1" d="M84.6895 100.159C84.6895 100.159 84.6229 110.005 82.042 115.658C82.042 115.658 85.1535 108.208 85.1535 107.909C85.1535 107.611 86.8729 104.483 86.4125 103.552C85.952 102.621 84.6895 100.159 84.6895 100.159Z" fill="black"/>
<path opacity="0.1" d="M84.8302 54.5269C84.7313 53.6554 84.9436 52.777 85.4291 52.0482C85.3714 52.7787 85.5769 53.5056 86.0081 54.0964C86.4393 54.6872 87.0675 55.1024 87.778 55.2663C87.7174 55.2134 87.6741 55.1433 87.6539 55.0652C87.6337 54.9871 87.6374 54.9047 87.6647 54.8288C88.0334 55.2482 88.3158 55.7454 88.7331 56.1142C89.1503 56.483 89.7762 56.7036 90.2672 56.4415C90.9345 56.0799 90.9417 55.1271 90.769 54.3859C90.3985 52.8073 89.6383 51.348 88.5586 50.1427C88.2892 49.7783 87.9396 49.4817 87.537 49.2759C87.1345 49.0701 86.69 48.9609 86.2385 48.9567C85.2169 48.8771 84.1558 48.9675 83.2403 49.4285C82.7251 49.7111 82.2426 50.05 81.8015 50.4392L79.2835 52.5038C79.0412 52.6793 78.8338 52.8988 78.672 53.151C78.5639 53.3619 78.4991 53.5925 78.4814 53.829C78.417 54.5052 78.5415 55.186 78.8408 55.795C79.14 56.404 79.6023 56.9171 80.1756 57.2767C80.1635 56.7423 80.3097 56.2163 80.5957 55.7656C80.8816 55.3149 81.2945 54.9599 81.7817 54.7456C81.858 54.8098 81.9198 54.8896 81.9629 54.9797C82.006 55.0698 82.0295 55.1681 82.0317 55.2681L82.5623 54.3172C82.6412 54.1441 82.7655 53.996 82.922 53.8887C83.2493 53.7079 83.6576 53.9212 83.9363 54.1761C84.2151 54.431 84.4867 54.7492 84.8608 54.789L84.8752 53.3734" fill="black"/>
<path d="M84.8298 54.328C84.7306 53.4559 84.9429 52.5769 85.4287 51.8475C85.2668 53.2939 86.3514 54.7872 87.7794 55.0656C87.7187 55.0132 87.6754 54.9434 87.6551 54.8655C87.6349 54.7877 87.6387 54.7055 87.6661 54.6299C88.0348 55.0494 88.3172 55.5447 88.7344 55.9153C89.1517 56.286 89.7776 56.5047 90.2686 56.2408C90.9359 55.8792 90.9431 54.9264 90.7704 54.187C90.3999 52.6084 89.6397 51.1491 88.56 49.9438C88.225 49.5333 87.8028 49.2034 87.3244 48.9784C86.9781 48.8496 86.6141 48.7752 86.2453 48.7578C85.2237 48.6782 84.1625 48.7668 83.2471 49.2279C82.7322 49.5117 82.2498 49.8512 81.8082 50.2403L79.2903 52.3049C79.0476 52.4799 78.8401 52.6995 78.6788 52.9522C78.5705 53.163 78.5056 53.3936 78.4881 53.6301C78.4239 54.3061 78.5485 54.9866 78.8477 55.5953C79.147 56.204 79.6092 56.7168 80.1823 57.076C80.1707 56.5417 80.3171 56.0159 80.603 55.5653C80.889 55.1147 81.3015 54.7596 81.7885 54.5449C81.8645 54.6093 81.9261 54.6892 81.9692 54.7792C82.0123 54.8693 82.0359 54.9675 82.0385 55.0674L82.5672 54.1201C82.6457 53.9467 82.7701 53.7985 82.9269 53.6916C83.2543 53.5108 83.6625 53.7241 83.9413 53.9791C84.2201 54.234 84.4917 54.5504 84.8658 54.5919L84.8802 53.1745" fill="#3F3D56"/>
<path d="M87.3377 87.8884C86.8754 87.6534 79.2316 88.852 79.2316 88.852C79.2316 88.852 77.9726 88.4905 74.9295 87.9878C71.8864 87.4852 71.6921 84.495 71.6921 84.495L71.3594 78.5089L72.3863 77.605L76.7856 80.4976C76.7856 80.4976 76.8539 81.9602 76.7856 82.2242C76.7424 82.405 76.6273 82.6201 76.6381 82.7666C76.6414 82.8062 76.6577 82.8437 76.6844 82.8731C76.711 82.9025 76.7466 82.9223 76.7856 82.9293C77.0841 83.0052 81.1525 83.6669 81.1525 83.6669C81.1525 83.6669 90.5822 83.0179 92.9329 86.2107C93.1192 86.445 93.2601 86.7124 93.3484 86.9989C93.9311 89.1811 87.7567 88.0963 87.3377 87.8884Z" fill="#FBBEBE"/>
<path opacity="0.1" d="M93.3535 87.0116C92.9938 87.1725 92.7708 87.2882 92.7708 87.2882C92.7708 87.2882 89.3967 87.1888 87.5011 86.4981C85.6054 85.8075 83.3015 85.9304 83.3015 85.9304C83.3015 85.9304 75.4023 84.5637 76.6271 82.7792C76.6304 82.8189 76.6467 82.8563 76.6733 82.8858C76.7 82.9152 76.7356 82.9349 76.7745 82.9419C77.0731 83.0179 81.1414 83.6796 81.1414 83.6796C81.1414 83.6796 90.5712 83.0305 92.9219 86.2233C93.1139 86.4564 93.2604 86.7238 93.3535 87.0116Z" fill="black"/>
<path d="M96.634 76.4786C96.634 76.4786 97.0981 79.7709 97.1304 80.0384C97.1628 80.306 97.3301 83.5295 97.1304 83.8965C96.9308 84.2635 96.634 84.8602 96.634 84.8602C96.634 84.8602 96.965 85.558 95.6412 85.8256C94.3175 86.0932 92.7636 86.8886 92.7636 86.8886C92.7636 86.8886 89.3877 86.7892 87.5028 86.0914C85.618 85.3935 83.3014 85.5255 83.3014 85.5255C83.3014 85.5255 73.2745 83.7953 77.5767 81.6836C81.8788 79.572 84.9219 82.4321 84.9219 82.4321L89.7186 82.1338C89.7186 82.1338 91.5064 81.0346 92.0028 81.1358C92.3533 81.1807 92.7093 81.123 93.028 80.9695L93.0621 77.4766L96.634 76.4786Z" fill="#FBBEBE"/>
<path opacity="0.1" d="M72.3109 68.3972L71.3505 68.3466L68.4404 79.7365C68.4404 79.7365 71.5825 78.9374 72.9368 79.7365C74.2911 80.5356 76.7749 80.7001 76.7749 80.7001L75.8486 71.6208L72.3109 68.3972Z" fill="black"/>
<path d="M72.3109 68.1966L71.3505 68.1459L68.4404 79.5358C68.4404 79.5358 71.5825 78.7367 72.9368 79.5358C74.2911 80.3349 76.7749 80.4995 76.7749 80.4995L75.8486 71.4201L72.3109 68.1966Z" fill="#29A1DC"/>
<path opacity="0.1" d="M94.3191 70.6915L95.641 70.9916C95.641 70.9916 99.0169 75.873 99.2813 76.146C99.5457 76.419 98.0223 77.4115 97.3946 77.4115C96.7669 77.4115 93.6896 77.7731 92.7957 78.6084C91.9019 79.4436 92.2742 75.2402 92.2742 75.1444C92.2742 75.0486 93.3839 72.3964 93.3839 72.3964L94.3191 70.6915Z" fill="black"/>
<path d="M94.3191 70.4926L95.641 70.7909C95.641 70.7909 99.0169 75.6813 99.2813 75.9471C99.5457 76.2129 98.0223 77.2127 97.3946 77.2127C96.7669 77.2127 93.6896 77.5742 92.7957 78.4095C91.9019 79.2448 92.2742 75.0413 92.2742 74.9455C92.2742 74.8497 93.3911 72.1884 93.3911 72.1884L94.3191 70.4926Z" fill="#29A1DC"/>
<g opacity="0.1">
<path d="M85.4201 51.8638C85.4123 51.7252 85.4153 51.5861 85.4291 51.448C85.1553 51.861 84.9669 52.3252 84.8752 52.813V53.2324C84.8752 53.2324 84.8752 53.2234 84.8752 53.2179V53.3174C84.8752 53.6103 84.8752 53.9049 84.8662 54.1978H84.841V54.3334C84.841 54.2864 84.841 54.2412 84.832 54.1942C84.4723 54.1364 84.2151 53.8326 83.9471 53.5904C83.6791 53.3481 83.2601 53.1167 82.9327 53.3029C82.7759 53.4098 82.6515 53.558 82.573 53.7314L82.0388 54.6787C82.0365 54.5791 82.013 54.481 81.9699 54.3912C81.9267 54.3014 81.865 54.2219 81.7889 54.1581C81.3016 54.3723 80.8888 54.7274 80.6028 55.178C80.3168 55.6287 80.1706 56.1547 80.1827 56.6891C79.6913 56.3796 79.2803 55.957 78.9835 55.4562C78.6867 54.9555 78.5127 54.3909 78.4759 53.8091C78.4447 54.4587 78.5864 55.1049 78.8864 55.6811C79.1864 56.2572 79.6339 56.7425 80.1827 57.0869C80.1711 56.5526 80.3175 56.0268 80.6034 55.5762C80.8894 55.1256 81.3019 54.7705 81.7889 54.5558C81.8649 54.6202 81.9265 54.7 81.9696 54.7901C82.0127 54.8802 82.0363 54.9784 82.0388 55.0783L82.5676 54.1309C82.6461 53.9576 82.7705 53.8093 82.9273 53.7025C83.2547 53.5217 83.6629 53.735 83.9417 53.9899C84.2205 54.2448 84.4921 54.5612 84.8662 54.6028C84.8662 54.14 84.871 53.6784 84.8806 53.2179C84.9688 52.7349 85.1522 52.2745 85.4201 51.8638Z" fill="black"/>
<path d="M84.8126 53.6844C84.8216 53.5614 84.836 53.4385 84.854 53.3228L84.8737 52.8238C84.8197 53.1072 84.7991 53.3961 84.8126 53.6844Z" fill="black"/>
<path d="M90.2687 55.8412C89.7777 56.1052 89.1518 55.8846 88.7346 55.5158C88.3173 55.147 88.0349 54.6498 87.6662 54.2304C87.6389 54.3063 87.6352 54.3887 87.6554 54.4668C87.6756 54.5449 87.7189 54.615 87.7795 54.6679C87.7436 54.6679 87.7094 54.6498 87.6752 54.6408C88.0349 55.0566 88.3209 55.5447 88.7346 55.9063C89.1482 56.2679 89.7777 56.4957 90.2687 56.2317C90.7597 55.9678 90.9 55.3495 90.8568 54.7474C90.8245 55.2211 90.6554 55.6315 90.2687 55.8412Z" fill="black"/>
<path d="M87.6648 54.6371C87.0634 54.4724 86.5264 54.1267 86.1258 53.6466C85.7253 53.1664 85.4804 52.5746 85.4238 51.9506C85.3213 53.3698 86.386 54.7926 87.7799 55.0656C87.7205 55.0138 87.6779 54.9453 87.6574 54.869C87.6369 54.7927 87.6395 54.712 87.6648 54.6371Z" fill="black"/>
</g>
<path d="M174.038 84.1858C174.038 84.1858 173.329 84.0864 173.329 83.0504C173.329 82.0145 172.822 80.0746 172.822 80.0746C172.822 80.0746 172.383 76.6992 171.777 76.1641C171.171 75.6289 170.392 72.4867 170.392 72.4867C170.392 72.4867 170.259 70.7819 169.987 70.4149C169.716 70.0479 169.349 69.1493 168.808 67.8675C168.266 66.5857 166.014 65.707 166.014 65.707C166.014 65.707 161.934 63.3278 160.777 62.5522C160.671 62.4879 160.572 62.4128 160.482 62.328C160.281 62.0641 159.403 62.0587 159.403 62.0587C159.311 61.4747 159.223 60.8058 159.194 60.2001C159.194 60.135 159.194 60.0699 159.194 60.0049C160.484 59.2386 161.455 58.0305 161.93 56.6024C161.952 56.5337 161.97 56.4632 161.989 56.3926C162.068 56.3682 162.141 56.3271 162.203 56.2723C162.265 56.2175 162.315 56.15 162.349 56.0744C162.452 55.8412 162.455 55.57 162.585 55.3513C162.736 55.0946 163.023 54.9572 163.25 54.7655C163.822 54.2756 163.97 53.453 163.943 52.7063C163.925 52.0988 163.827 51.4878 163.865 50.8857C163.865 50.8351 163.865 50.7845 163.876 50.7338C163.887 50.6453 163.899 50.5531 163.916 50.4663C164.004 50.0179 164.196 49.5949 164.304 49.1501C164.412 48.7054 164.423 48.2046 164.171 47.8213C163.802 47.259 163.034 47.1469 162.36 47.0981C161.595 47.033 160.921 47.1162 160.423 46.478C160.194 46.1447 159.937 45.8325 159.653 45.5451C159.552 45.4511 158.574 44.8491 158.574 44.8111C157.617 44.3637 156.531 44.2796 155.516 44.5743C155.007 44.7225 154.531 44.9648 154.015 45.0859C152.907 45.3499 151.63 45.0642 150.687 45.7024C150.162 46.064 149.847 46.6407 149.552 47.1994C149.313 47.6598 149.069 48.1208 148.822 48.5824C148.423 49.3399 148.02 50.1101 147.853 50.949C147.818 51.1322 147.796 51.3177 147.786 51.504C147.786 51.5709 147.786 51.6378 147.786 51.7047C147.786 51.7336 147.786 51.7626 147.786 51.7915C147.786 51.853 147.786 51.9144 147.797 51.9723C147.808 52.0301 147.797 52.0464 147.81 52.0844C147.822 52.1223 147.826 52.2073 147.837 52.2652C147.847 52.323 147.869 52.4261 147.891 52.5038C147.891 52.5382 147.912 52.5707 147.923 52.605C147.934 52.6394 147.962 52.7262 147.986 52.7858C148.009 52.8455 148.011 52.8491 148.025 52.8798C148.052 52.9431 148.085 53.0046 148.117 53.0606C148.132 53.0841 148.142 53.1077 148.157 53.1312C148.206 53.2158 148.261 53.2967 148.322 53.3734C148.705 53.8561 149.274 54.1635 149.693 54.6155C149.693 54.6335 149.693 54.6516 149.693 54.6697C149.693 54.7185 149.693 54.7673 149.693 54.8179C149.718 55.826 149.989 56.8126 150.48 57.6917C150.972 58.5708 151.669 59.3159 152.513 59.862C152.513 59.9307 152.522 60.0012 152.525 60.0718C152.56 60.6078 152.554 61.1458 152.506 61.6808C152.432 61.5943 152.34 61.5254 152.237 61.4791C152.134 61.4328 152.022 61.4103 151.908 61.4132C151.831 61.4094 151.754 61.4161 151.678 61.4331L151.662 61.4205V61.4367C151.266 61.5344 150.779 61.9484 150.313 63.1253C150.313 63.1253 148.896 64.7308 147.817 64.6639C146.738 64.597 144.006 66.3362 144.006 66.3362C144.006 66.3362 141.34 68.0736 140.768 69.8454C140.449 70.8503 140.065 71.8334 139.619 72.7887L136.315 79.6081L135.709 85.0319C135.709 85.0319 136.045 87.4382 135.979 87.8071C135.912 88.1759 137.362 91.4844 137.362 91.4844C137.362 91.4844 142.151 99.9418 144.108 100.376L144.248 100.278C144.333 100.321 144.421 100.354 144.513 100.376L144.916 100.092C144.941 100.41 144.93 100.729 144.883 101.045C144.615 101.882 144.986 107.331 145.457 108.399C145.928 109.468 145.761 123.479 145.761 123.479L145.695 124.714C145.695 124.714 145.695 124.754 145.711 124.822L145.695 125.115L145.743 125.141C145.793 125.533 145.777 125.932 145.695 126.319C145.525 126.862 145.457 128.393 145.457 128.393C145.457 128.393 144.108 137.049 144.748 138.789C145.389 140.528 145.93 142.433 145.93 142.433C145.93 142.433 146.605 144.603 145.962 144.964C145.32 145.326 143.502 145.968 143.873 146.87C144.214 147.705 145.511 149.943 145.704 150.271L145.687 150.451L145.423 153.332C145.466 153.712 145.568 154.083 145.727 154.431C146.016 155.06 146.578 155.709 147.65 155.638C147.829 155.626 148.036 155.606 148.239 155.579C150.198 155.313 152.608 154.434 152.608 154.434C152.483 154.355 152.369 154.259 152.268 154.151C152.172 154.057 152.096 153.944 152.044 153.82C151.992 153.696 151.966 153.562 151.968 153.427C151.997 152.901 151.02 150.404 150.775 149.788L150.72 149.651C150.72 149.651 152.946 147.309 152.576 145.237C152.576 145.237 150.112 143.791 150.923 142.996C151.734 142.2 153.184 139.922 153.184 139.922C153.184 139.922 153.25 131.398 153.184 130.127C153.114 129.243 153.156 128.354 153.308 127.48C153.335 127.35 153.367 127.222 153.401 127.093C154.524 127.263 155.658 127.35 156.793 127.352C157.208 127.352 157.628 127.343 158.052 127.326C158.052 127.447 158.058 127.577 158.069 127.717C158.162 129.829 158.336 133.533 158.479 134.909C158.68 136.879 159.793 142.197 159.793 142.197C159.793 142.197 157.669 143.565 160.164 146.944C160.164 146.944 160.164 148.166 159.998 148.345C159.822 148.925 159.679 149.515 159.572 150.112C159.468 150.746 159.425 151.392 159.594 151.724C159.998 152.523 162.426 152.458 162.426 152.458C162.446 152.454 162.466 152.451 162.486 152.449C162.944 152.401 163.407 152.444 163.849 152.578C164.29 152.711 164.7 152.932 165.056 153.227C165.979 153.972 169.478 153.646 171.376 153.407C172.119 153.312 172.615 153.227 172.615 153.227C172.639 153.142 172.648 153.054 172.64 152.966C172.621 152.498 172.255 151.471 169.781 150.555C169.781 150.555 167.453 148.982 167.486 147.611H167.434H167.166C167.335 147.606 167.453 147.606 167.453 147.606C167.453 147.606 166.541 144.263 166.914 143.99C167.286 143.717 166.171 140.013 166.171 140.013C166.171 140.013 165.532 133.793 165.496 133.359C165.499 132.985 165.556 132.614 165.666 132.257L165.496 128.845C165.496 128.845 165.464 127.711 165.496 127.343C165.493 127.023 165.468 126.703 165.421 126.386C165.405 126.26 165.389 126.128 165.371 125.998C166.243 125.775 166.809 125.571 166.809 125.571L166.709 113.702C167.45 112.256 167.586 109.081 167.583 106.832C167.583 105.385 167.518 104.315 167.518 104.315L168.531 102.654C168.531 102.654 168.764 100.665 168.394 100.229C168.23 100.032 168.304 99.8279 168.439 99.6598C168.51 99.6013 168.585 99.5481 168.664 99.5007C168.655 99.4881 168.647 99.4748 168.64 99.4609C168.711 99.4015 168.786 99.3477 168.865 99.3C168.865 99.3 168.505 98.7396 168.827 98.5027C169.13 98.7088 169.399 98.8733 169.604 98.9909C169.59 99.1228 169.576 99.1988 169.576 99.1988L169.662 99.018C169.86 99.1301 169.98 99.1988 169.98 99.1988C169.98 99.1988 171.567 96.0223 171.532 95.5558C171.498 95.0894 172.612 93.1151 172.612 93.1151C172.612 93.1151 172.746 92.0774 173.354 91.6435C173.962 91.2096 173.826 88.0656 173.826 88.0656C173.826 88.0656 173.995 86.4276 174.399 85.7605C174.804 85.0934 174.038 84.1858 174.038 84.1858ZM143.686 82.7919L143.716 83.5494C143.536 83.2583 143.407 83.0504 143.407 83.0504L143.686 82.7919Z" fill="url(#paint1_linear_123_7)"/>
<path d="M170.074 97.8248L169.686 99.488C169.686 99.488 166.574 97.888 166.015 95.8632C165.455 93.8383 166.952 93.0663 166.952 93.0663L169.853 94.2993L170.074 97.8248Z" fill="white"/>
<path opacity="0.1" d="M170.074 97.8248L169.686 99.488C169.686 99.488 166.574 97.888 166.015 95.8632C165.455 93.8383 166.952 93.0663 166.952 93.0663L169.853 94.2993L170.074 97.8248Z" fill="black"/>
<path d="M152.612 154.433C152.612 154.433 149.734 155.496 147.756 155.629C146.705 155.7 146.153 155.053 145.869 154.429C145.714 154.085 145.614 153.719 145.57 153.344L145.831 150.479L145.968 148.955L150.171 147.855L150.766 149.687L150.822 149.824C151.059 150.437 152.02 152.921 151.991 153.44C151.989 153.574 152.014 153.707 152.064 153.832C152.114 153.956 152.189 154.069 152.284 154.163C152.382 154.267 152.492 154.357 152.612 154.433Z" fill="white"/>
<path d="M172.259 152.975C172.267 153.063 172.258 153.151 172.234 153.236C172.234 153.236 166.08 154.266 164.821 153.236C164.467 152.935 164.054 152.711 163.61 152.579C163.165 152.448 162.698 152.411 162.238 152.471C162.238 152.471 159.857 152.536 159.459 151.748C159.294 151.417 159.337 150.775 159.439 150.144C159.544 149.551 159.683 148.964 159.857 148.387L159.952 148.311L160.519 147.853L167.152 147.656H167.202C167.17 149.02 169.452 150.583 169.452 150.583C171.882 151.487 172.24 152.509 172.259 152.975Z" fill="white"/>
<path opacity="0.1" d="M172.261 152.975C172.268 153.063 172.259 153.151 172.234 153.236C172.234 153.236 166.08 154.266 164.823 153.236C164.468 152.934 164.056 152.711 163.611 152.579C163.166 152.447 162.698 152.411 162.238 152.471C162.238 152.471 159.855 152.536 159.458 151.748C159.294 151.417 159.335 150.775 159.438 150.142C160.355 150.235 161.803 150.464 162.371 151.014C163.231 151.845 164.688 152.677 165.58 152.744C166.285 152.787 170.477 152.921 172.261 152.975Z" fill="black"/>
<path opacity="0.1" d="M152.612 154.433C152.612 154.433 149.734 155.496 147.756 155.629C146.705 155.7 146.153 155.053 145.869 154.429C146.603 154.677 147.619 154.935 148.153 154.698C148.786 154.414 151.031 154.234 152.29 154.156C152.385 154.262 152.493 154.355 152.612 154.433Z" fill="black"/>
<path d="M156.881 68.757C154.507 67.8296 151.453 64.7651 152.216 63.3333C152.384 62.9716 152.485 62.5818 152.513 62.1834C152.562 61.6424 152.569 61.0984 152.534 60.5563C152.481 59.6678 152.374 58.7834 152.216 57.9077C152.216 57.9077 159.628 58.0758 159.196 59.1732C159.07 59.4968 159.049 60.0555 159.085 60.6792C159.121 61.303 159.209 62.0135 159.302 62.6119C159.43 63.4309 159.561 64.0582 159.561 64.0582C159.561 64.0582 159.106 64.6964 158.842 64.7308C158.577 64.7651 160.288 70.0858 156.881 68.757Z" fill="#CF6F80"/>
<path opacity="0.1" d="M150.815 149.815L150.759 149.877C148.544 147.183 145.864 150.542 145.864 150.542L145.824 150.47L145.961 148.945L150.164 147.846L150.759 149.678L150.815 149.815Z" fill="black"/>
<path opacity="0.1" d="M167.205 147.846C167.205 147.846 165.586 147.814 164.723 148.58C163.86 149.347 159.687 148.745 159.867 148.58C159.919 148.497 159.951 148.402 159.96 148.304L160.527 147.846L167.16 147.649C167.185 147.776 167.205 147.846 167.205 147.846Z" fill="black"/>
<path d="M153.573 126.692C153.452 126.992 153.361 127.302 153.299 127.619C153.149 128.488 153.108 129.372 153.175 130.252C153.242 131.517 153.175 139.998 153.175 139.998C153.175 139.998 151.753 142.26 150.958 143.057C150.163 143.854 152.576 145.286 152.576 145.286C152.936 147.349 150.756 149.678 150.756 149.678C148.54 146.984 145.861 150.341 145.861 150.341C145.861 150.341 144.404 147.81 144.04 146.906C143.677 146.002 145.463 145.378 146.091 145.01C146.718 144.641 146.058 142.479 146.058 142.479C146.058 142.479 145.53 140.582 144.9 138.852C144.271 137.122 145.594 128.511 145.594 128.511C145.594 128.511 145.663 126.979 145.826 126.446C145.908 126.061 145.925 125.665 145.875 125.274C145.864 125.142 145.852 125.034 145.843 124.958C145.834 124.882 145.826 124.85 145.826 124.85L145.852 124.806L146.751 123.121C146.751 123.121 154.004 125.631 153.573 126.692Z" fill="#29A1DC"/>
<path d="M167.206 147.647C167.206 147.647 165.587 147.613 164.724 148.371C163.86 149.128 159.688 148.537 159.868 148.371C160.047 148.204 160.031 146.975 160.031 146.975C157.583 143.614 159.672 142.251 159.672 142.251C159.672 142.251 158.58 136.963 158.382 135.001C158.244 133.632 158.073 129.939 157.981 127.847C157.941 126.943 157.918 126.319 157.918 126.319L159.9 125.923L160.157 125.873L164.981 124.898C164.981 124.898 165.114 125.802 165.204 126.542C165.249 126.857 165.274 127.176 165.278 127.495C165.247 127.856 165.278 128.99 165.278 128.99L165.443 132.381C165.336 132.737 165.281 133.107 165.278 133.479C165.312 133.913 165.939 140.098 165.939 140.098C165.939 140.098 167.031 143.789 166.659 144.055C166.287 144.321 167.206 147.647 167.206 147.647Z" fill="#29A1DC"/>
<path opacity="0.1" d="M159.197 59.1787C159.071 59.5023 159.049 60.0609 159.085 60.6847C158.093 61.2856 156.951 61.5929 155.793 61.5711C154.634 61.5494 153.505 61.1995 152.535 60.5617C152.482 59.6733 152.375 58.7888 152.217 57.9131C152.217 57.9131 159.629 58.0813 159.197 59.1787Z" fill="black"/>
<path d="M162.058 55.1868C162.077 56.8271 161.448 58.4081 160.308 59.5819C159.168 60.7556 157.61 61.4261 155.979 61.4458C154.347 61.4654 152.774 60.8327 151.606 59.6867C150.439 58.5407 149.772 56.9754 149.752 55.335C149.752 55.2844 149.752 55.2374 149.752 55.1868C149.752 53.5459 150.4 51.9723 151.555 50.8121C152.709 49.6519 154.274 49.0001 155.907 49.0001C157.539 49.0001 159.104 49.6519 160.259 50.8121C161.413 51.9723 162.061 53.5459 162.061 55.1868H162.058Z" fill="#CF6F80"/>
<path opacity="0.1" d="M156.881 68.757C154.507 67.8295 151.453 64.7651 152.216 63.3332C152.384 62.9716 152.485 62.5818 152.513 62.1834L155.763 64.87L157.773 66.5278L159.302 62.6173C159.43 63.4363 159.561 64.0636 159.561 64.0636C159.561 64.0636 159.106 64.7018 158.842 64.7362C158.577 64.7705 160.288 70.0858 156.881 68.757Z" fill="black"/>
<path d="M165.286 80.6296L162.572 126.46L159.032 126.694L149.865 100.119L151.369 68.569L151.687 61.9032L155.763 65.2677L157.773 66.9256L159.347 62.8993L162.273 65.463L165.286 80.6296Z" fill="#29A1DC"/>
<path opacity="0.1" d="M153.572 126.692C153.452 126.992 153.36 127.302 153.299 127.619C150.721 127.22 148.217 126.435 145.871 125.289L145.822 125.264L145.838 124.972V124.821L146.738 123.136C146.738 123.136 154.004 125.631 153.572 126.692Z" fill="black"/>
<path opacity="0.1" d="M159.959 127.627C159.301 127.74 158.637 127.816 157.97 127.856C157.931 126.952 157.907 126.328 157.907 126.328L159.9 125.923L159.959 127.627Z" fill="black"/>
<path opacity="0.1" d="M165.211 126.542C163.932 126.876 161.955 127.252 160.189 127.017L160.164 125.873L164.988 124.898C164.988 124.898 165.115 125.795 165.211 126.542Z" fill="black"/>
<path opacity="0.1" d="M160.157 127.227C152.783 128.493 146.03 124.864 146.03 124.864L146.095 123.635C146.095 123.635 146.262 109.697 145.798 108.629C145.334 107.56 144.972 102.149 145.235 101.323C145.497 100.497 144.276 88.0222 144.276 88.0222L144.078 82.96L136.832 80.0005L140.069 73.2153C140.507 72.2642 140.883 71.286 141.195 70.2865C141.758 68.5238 144.372 66.7936 144.372 66.7936C144.372 66.7936 147.051 65.0652 148.111 65.1303C149.17 65.1954 150.559 63.6008 150.559 63.6008C151.584 60.9739 152.512 62.1545 152.512 62.1545C152.512 62.281 152.512 62.1545 152.461 62.5432C152.102 65.4268 158.278 74.5387 158.366 74.7014L158.961 89.1033L159.557 107.329L160.157 127.227Z" fill="black"/>
<path d="M159.959 127.227C152.585 128.493 145.829 124.864 145.829 124.864L145.896 123.635C145.896 123.635 146.061 109.697 145.597 108.629C145.133 107.56 144.772 102.144 145.036 101.31C145.301 100.477 144.072 88.015 144.072 88.015L143.872 82.9528L136.628 79.9932L139.865 73.2081C140.301 72.2572 140.678 71.2796 140.991 70.2811C141.554 68.5238 144.176 66.7918 144.176 66.7918C144.176 66.7918 146.856 65.0634 147.914 65.1285C148.971 65.1936 150.367 63.6008 150.367 63.6008C151.394 60.9739 152.525 62.1545 152.525 62.1545C152.525 62.281 152.417 62.3353 152.475 62.5432C153.266 65.34 158.094 74.5387 158.182 74.7014L158.777 89.1033L159.36 107.338L159.959 127.227Z" fill="white"/>
<path opacity="0.1" d="M157.972 75.1082C157.179 74.7756 152.977 69.9538 152.977 69.9538V68.8564C152.824 68.4949 151.914 68.7154 151.179 68.9685L151.495 62.3027L151.855 62.6028C152.641 65.3979 157.885 74.9473 157.972 75.1082Z" fill="black"/>
<path d="M158.171 74.7105C157.376 74.376 153.175 69.5561 153.175 69.5561V68.4569C153.022 68.0953 152.113 68.3159 151.376 68.569L151.687 61.9104L152.047 62.2087C152.84 65.0001 158.083 74.5478 158.171 74.7105Z" fill="white"/>
<path opacity="0.1" d="M146.03 98.7558C146.129 98.7558 151.157 98.2243 151.157 98.2243C151.157 98.2243 154.202 104.245 154.003 105.707C153.803 107.17 153.441 108.468 152.217 108.238C150.992 108.009 145.625 108.419 145.625 108.419L146.03 98.7558Z" fill="black"/>
<path d="M145.829 98.3563C145.93 98.3563 150.959 97.8248 150.959 97.8248C150.959 97.8248 154.002 103.854 153.804 105.3C153.606 106.747 153.241 108.061 152.018 107.832C150.795 107.602 145.425 108.012 145.425 108.012L145.829 98.3563Z" fill="white"/>
<path d="M149.619 95.5377C149.619 95.5377 154.234 98.0326 154.333 98.792C154.432 99.5513 151.984 98.4593 151.455 98.3255C151.107 98.2424 150.753 98.1868 150.396 98.1592L146.869 98.255L149.619 95.5377Z" fill="#CF6F80"/>
<path opacity="0.1" d="M156.682 75.4192C156.95 75.4192 157.167 75.2007 157.167 74.9311C157.167 74.6615 156.95 74.4429 156.682 74.4429C156.414 74.4429 156.196 74.6615 156.196 74.9311C156.196 75.2007 156.414 75.4192 156.682 75.4192Z" fill="black"/>
<path d="M156.682 75.2203C156.95 75.2203 157.167 75.0018 157.167 74.7322C157.167 74.4626 156.95 74.244 156.682 74.244C156.414 74.244 156.196 74.4626 156.196 74.7322C156.196 75.0018 156.414 75.2203 156.682 75.2203Z" fill="#3F3D56"/>
<path opacity="0.1" d="M157.576 96.5502C157.845 96.5502 158.062 96.3316 158.062 96.062C158.062 95.7924 157.845 95.5739 157.576 95.5739C157.308 95.5739 157.091 95.7924 157.091 96.062C157.091 96.3316 157.308 96.5502 157.576 96.5502Z" fill="black"/>
<path d="M157.576 96.3495C157.845 96.3495 158.062 96.1309 158.062 95.8613C158.062 95.5918 157.845 95.3732 157.576 95.3732C157.308 95.3732 157.091 95.5918 157.091 95.8613C157.091 96.1309 157.308 96.3495 157.576 96.3495Z" fill="#3F3D56"/>
<path opacity="0.1" d="M157.167 85.9847C157.435 85.9847 157.653 85.7661 157.653 85.4965C157.653 85.2269 157.435 85.0084 157.167 85.0084C156.899 85.0084 156.682 85.2269 156.682 85.4965C156.682 85.7661 156.899 85.9847 157.167 85.9847Z" fill="black"/>
<path d="M157.167 85.7858C157.435 85.7858 157.653 85.5673 157.653 85.2977C157.653 85.0281 157.435 84.8095 157.167 84.8095C156.899 84.8095 156.682 85.0281 156.682 85.2977C156.682 85.5673 156.899 85.7858 157.167 85.7858Z" fill="#3F3D56"/>
<path d="M168.362 98.058C168.362 98.058 168.692 98.557 168.362 98.7811C168.031 99.0053 168.394 99.5802 168.394 99.5802C168.394 99.5802 167.568 100.065 167.932 100.504C168.295 100.943 168.065 102.916 168.065 102.916L167.072 104.577C167.072 104.577 167.131 105.642 167.135 107.081C167.135 109.327 167.004 112.483 166.277 113.922L166.374 125.73C166.374 125.73 162.898 127.008 159.988 126.618L159.556 107.671C159.556 107.671 160.185 96.9262 160.417 94.8652C160.553 93.7952 160.608 92.7164 160.583 91.638C160.583 91.638 160.484 88.4127 160.151 86.9176C160.151 86.9176 159.791 80.4308 159.756 78.6355C159.739 77.7767 159.784 75.2709 159.835 72.8881C159.89 70.2829 159.953 67.8259 159.953 67.8259L159.297 62.6028C159.297 62.6028 159.953 62.5378 160.151 62.8017C160.24 62.8849 160.336 62.9594 160.439 63.0241C161.574 63.7943 165.577 66.1626 165.577 66.1626C165.577 66.1626 167.793 67.0485 168.324 68.3177C168.854 69.5868 169.223 70.4872 169.48 70.8488C169.737 71.2104 169.878 72.9098 169.878 72.9098C169.878 72.9098 170.64 76.0375 171.236 76.5672C171.831 77.0969 172.259 80.4597 172.259 80.4597L166.998 84.6179C166.998 84.6179 166.536 91.535 166.437 91.8026C166.338 92.0701 168.362 98.058 168.362 98.058Z" fill="white"/>
<path d="M168.562 98.058C168.562 98.058 168.891 98.557 168.562 98.7811C168.233 99.0053 168.592 99.5802 168.592 99.5802C168.592 99.5802 167.767 100.065 168.13 100.504C168.493 100.943 168.263 102.916 168.263 102.916L167.274 104.577C167.274 104.577 167.333 105.642 167.339 107.081C167.339 109.327 167.207 112.483 166.481 113.922L166.58 125.73C166.58 125.73 163.103 127.008 160.193 126.618L159.763 107.671C159.763 107.671 160.391 96.9262 160.625 94.8652C160.761 93.7952 160.815 92.7164 160.788 91.6381C160.788 91.6381 160.689 88.4127 160.359 86.9176C160.359 86.9176 159.999 80.4308 159.961 78.6355C159.945 77.7767 159.99 75.271 160.04 72.8881C160.096 70.2829 160.159 67.8259 160.159 67.8259L159.292 62.5323C159.292 62.5323 160.159 62.5323 160.359 62.8017C160.446 62.8859 160.543 62.9605 160.646 63.0241C161.779 63.7943 165.783 66.1626 165.783 66.1626C165.783 66.1626 167.993 67.0485 168.533 68.3177C169.072 69.5869 169.432 70.4872 169.689 70.8488C169.947 71.2104 170.087 72.9098 170.087 72.9098C170.087 72.9098 170.849 76.0375 171.445 76.5672C172.04 77.097 172.47 80.4597 172.47 80.4597L167.209 84.6179C167.209 84.6179 166.747 91.535 166.646 91.8026C166.546 92.0702 168.562 98.058 168.562 98.058Z" fill="white"/>
<path opacity="0.1" d="M162.262 69.3609L162.738 70.753L160.236 73.284C160.292 70.6788 160.355 68.2219 160.355 68.2219L159.488 62.9301C159.488 62.9301 160.355 62.9301 160.555 63.1995C160.643 63.2837 160.739 63.3582 160.843 63.4218L162.968 69.585L162.262 69.3609Z" fill="black"/>
<path d="M162.058 68.9613L162.534 70.3516L160.034 72.8827C160.088 70.2775 160.153 67.8205 160.153 67.8205L159.284 62.5269C159.284 62.5269 160.153 62.5269 160.351 62.7963C160.439 62.88 160.535 62.9545 160.638 63.0187L162.777 69.1873L162.058 68.9613Z" fill="white"/>
<path opacity="0.1" d="M162.058 55.1868C162.058 55.8382 161.956 56.4856 161.755 57.105C161.722 57.1107 161.687 57.1094 161.654 57.1013C161.62 57.0933 161.589 57.0785 161.561 57.058C161.513 55.4308 160.718 53.9013 159.737 52.6014C159.462 52.2094 159.128 51.8619 158.748 51.5709C158.364 51.2808 157.885 51.1448 157.407 51.1895C156.867 51.2636 156.39 51.6324 155.845 51.6794C155.126 51.7391 154.482 51.2383 153.768 51.2148C153.478 51.2172 153.191 51.282 152.928 51.4049C152.665 51.5277 152.43 51.7058 152.241 51.9271C151.866 52.3722 151.587 52.8914 151.423 53.4512C151.14 54.3006 150.986 55.188 150.966 56.0835C150.957 56.5897 150.908 57.2243 150.441 57.4087C150.476 57.0367 150.434 56.6613 150.317 56.3065C150.201 55.9517 150.012 55.6251 149.763 55.3477L149.752 55.335C149.752 55.2844 149.752 55.2374 149.752 55.1868C149.752 53.5459 150.4 51.9723 151.555 50.8121C152.709 49.6519 154.274 49.0001 155.907 49.0001C157.539 49.0001 159.104 49.6519 160.259 50.8121C161.413 51.9723 162.061 53.5459 162.061 55.1868H162.058Z" fill="black"/>
<path d="M158.461 45.3643C157.526 44.9224 156.463 44.8388 155.472 45.1293C154.974 45.2776 154.504 45.518 153.999 45.6391C152.92 45.9013 151.661 45.6174 150.734 46.252C150.22 46.6136 149.911 47.1849 149.623 47.7418L148.904 49.1176C148.511 49.8715 148.116 50.638 147.952 51.4679C147.788 52.2977 147.887 53.227 148.411 53.8959C148.79 54.3804 149.355 54.686 149.769 55.1434C150.017 55.4222 150.206 55.7498 150.322 56.1055C150.438 56.4611 150.48 56.8371 150.445 57.2098C150.912 57.029 150.959 56.3908 150.97 55.8846C150.99 54.9891 151.144 54.1018 151.427 53.2523C151.591 52.6925 151.87 52.1734 152.245 51.7282C152.434 51.5067 152.669 51.3283 152.932 51.2052C153.195 51.082 153.482 51.0169 153.772 51.0141C154.492 51.0394 155.137 51.5402 155.849 51.4787C156.389 51.4335 156.867 51.0647 157.411 50.9906C157.89 50.945 158.368 51.0811 158.752 51.3721C159.133 51.6621 159.466 52.0097 159.74 52.4026C160.722 53.7043 161.519 55.2265 161.565 56.8591C161.769 57.0073 162.062 56.8121 162.162 56.5807C162.263 56.3493 162.267 56.0781 162.394 55.8575C162.542 55.6026 162.824 55.4652 163.045 55.2735C163.607 54.7872 163.747 53.9682 163.725 53.2252C163.704 52.4821 163.56 51.7282 163.7 50.9978C163.785 50.5513 163.975 50.13 164.08 49.6871C164.184 49.2441 164.197 48.747 163.95 48.3655C163.59 47.8068 162.833 47.6947 162.173 47.6423C161.423 47.5772 160.752 47.6604 160.274 47.0258C160.049 46.6951 159.796 46.3842 159.519 46.0965C159.42 46.0007 158.461 45.4041 158.461 45.3643Z" fill="#512E4E"/>
<path opacity="0.1" d="M138.907 83.4898L137.029 79.9987L136.434 85.3863C136.434 85.3863 136.765 87.7799 136.698 88.147C136.631 88.514 138.054 91.8044 138.054 91.8044C138.054 91.8044 142.754 100.22 144.673 100.652L151.147 95.9951L149.428 93.8003C149.428 93.8003 148.833 93.5671 148.683 93.8003C148.683 93.8003 145.489 88.2789 145.16 87.8812C144.831 87.4834 144.894 86.6825 144.894 86.6825C144.894 86.6825 144.398 86.151 144.563 85.652C144.728 85.153 143.613 83.4247 143.613 83.4247L144.639 82.461L138.907 83.4898Z" fill="black"/>
<path d="M137.128 79.5991L136.631 79.9987L136.036 85.3863C136.036 85.3863 136.367 87.7799 136.301 88.147C136.234 88.514 137.658 91.8044 137.658 91.8044C137.658 91.8044 142.356 100.22 144.275 100.652L150.761 95.9951L149.04 93.8003C149.04 93.8003 148.444 93.5671 148.295 93.8003C148.295 93.8003 145.103 88.2789 144.772 87.8812C144.441 87.4834 144.507 86.6825 144.507 86.6825C144.507 86.6825 144.011 86.151 144.176 85.652C144.342 85.153 143.216 83.4247 143.216 83.4247L144.241 82.461L137.128 79.5991Z" fill="white"/>
<path opacity="0.1" d="M167.932 100.712C168.291 101.151 168.065 103.126 168.065 103.126L167.072 104.776C167.072 104.776 167.131 105.843 167.135 107.282L165.466 107.806C165.315 107.854 165.155 107.864 164.999 107.836C164.843 107.809 164.696 107.744 164.57 107.648C164.444 107.552 164.343 107.427 164.274 107.283C164.206 107.14 164.173 106.982 164.178 106.823L164.468 97.4939L168.362 98.989C168.031 99.2205 168.394 99.7881 168.394 99.7881C168.394 99.7881 167.568 100.273 167.932 100.712Z" fill="black"/>
<path d="M168.13 100.513C168.49 100.951 168.263 102.925 168.263 102.925L167.274 104.577C167.274 104.577 167.334 105.642 167.339 107.081L165.639 107.615C165.492 107.661 165.335 107.671 165.183 107.645C165.03 107.618 164.887 107.555 164.763 107.461C164.64 107.367 164.541 107.245 164.474 107.105C164.408 106.964 164.376 106.81 164.38 106.655L164.67 97.2932L168.562 98.792C168.229 99.0234 168.593 99.5911 168.593 99.5911C168.593 99.5911 167.767 100.074 168.13 100.513Z" fill="white"/>
<path d="M169.421 96.062C169.421 96.062 169.157 97.7597 168.495 97.8591C167.833 97.9585 167.537 100.605 166.876 100.513C166.216 100.421 166.653 98.0507 166.677 97.5915C166.7 97.1323 165.957 95.2304 166.511 94.7983C167.065 94.3662 168.828 94.7983 168.828 94.7983L169.421 96.062Z" fill="#CF6F80"/>
<path opacity="0.1" d="M170.82 82.9908L172.066 80.4597C172.066 80.4597 172.565 82.3887 172.565 83.4193C172.565 84.4498 173.259 84.551 173.259 84.551C173.259 84.551 174.02 85.455 173.619 86.1149C173.218 86.7748 173.057 88.4091 173.057 88.4091C173.057 88.4091 173.189 91.535 172.593 91.9671C171.998 92.3992 171.865 93.4315 171.865 93.4315C171.865 93.4315 170.773 95.3931 170.808 95.8596C170.842 96.326 169.286 99.4844 169.286 99.4844C169.286 99.4844 170.047 95.5594 165.613 93.8636C165.613 93.8636 165.579 92.533 165.91 92.1678C166.241 91.8026 166.757 91.6254 166.433 89.7886C166.11 87.9517 166.34 85.737 166.34 85.2941C166.34 84.8511 167.333 82.0904 167.333 82.0904L170.82 82.9908Z" fill="black"/>
<path d="M171.375 80.0981L172.464 80.4597C172.464 80.4597 172.963 82.3887 172.963 83.4192C172.963 84.4497 173.657 84.551 173.657 84.551C173.657 84.551 174.418 85.455 174.017 86.1148C173.615 86.7747 173.454 88.4091 173.454 88.4091C173.454 88.4091 173.587 91.535 172.991 91.9671C172.396 92.3992 172.272 93.4315 172.272 93.4315C172.272 93.4315 171.18 95.3931 171.214 95.8595C171.249 96.326 169.691 99.4844 169.691 99.4844C169.691 99.4844 170.452 95.5594 166.018 93.8636C166.018 93.8636 165.986 92.533 166.317 92.1678C166.648 91.8026 167.164 91.6254 166.84 89.7885C166.517 87.9517 166.747 85.737 166.747 85.294C166.747 84.8511 167.74 82.0904 167.74 82.0904L171.375 80.0981Z" fill="white"/>
<path opacity="0.1" d="M147.296 145.702C147.296 145.702 149.033 144.605 150.174 145.402C151.314 146.199 147.296 145.702 147.296 145.702Z" fill="black"/>
<path opacity="0.1" d="M160.799 142.309C160.799 142.309 162.337 142.11 163.628 143.507C164.919 144.905 160.799 142.309 160.799 142.309Z" fill="black"/>
<g opacity="0.1">
<path d="M163.045 54.8758C162.824 55.0693 162.54 55.2048 162.392 55.4598C162.266 55.6785 162.263 55.9497 162.162 56.1829C162.061 56.4162 161.768 56.6096 161.563 56.4613C161.516 54.8342 160.72 53.3065 159.74 52.0048C159.465 51.6125 159.132 51.2655 158.752 50.9761C158.367 50.6846 157.888 50.5479 157.409 50.5928C156.869 50.667 156.394 51.0358 155.849 51.0828C155.13 51.1424 154.484 50.6417 153.77 50.6182C153.48 50.6204 153.194 50.6851 152.931 50.808C152.668 50.9309 152.434 51.109 152.245 51.3305C151.87 51.7756 151.591 52.2948 151.427 52.8546C151.144 53.704 150.99 54.5914 150.97 55.4869C150.959 55.9913 150.912 56.6204 150.448 56.8085C150.459 56.9426 150.459 57.0775 150.448 57.2116C150.918 57.0308 150.964 56.3926 150.975 55.8864C150.995 54.9909 151.149 54.1036 151.432 53.2541C151.596 52.6943 151.875 52.1752 152.25 51.73C152.439 51.5086 152.673 51.3303 152.936 51.2072C153.199 51.084 153.485 51.0188 153.776 51.0159C154.495 51.0412 155.142 51.542 155.855 51.4805C156.394 51.4353 156.873 51.0665 157.414 50.9924C157.893 50.9469 158.373 51.0829 158.758 51.3739C159.138 51.6639 159.471 52.0115 159.745 52.4044C160.725 53.7061 161.522 55.2284 161.569 56.8609C161.774 57.0092 162.067 56.8139 162.168 56.5825C162.268 56.3511 162.272 56.0799 162.398 55.8593C162.545 55.6044 162.829 55.467 163.051 55.2754C163.612 54.789 163.752 53.97 163.73 53.227C163.73 53.2035 163.73 53.1818 163.73 53.1583C163.695 53.8055 163.524 54.4618 163.045 54.8758Z" fill="black"/>
<path d="M149.766 54.7492C149.354 54.2918 148.79 53.9845 148.41 53.5C148.09 53.0723 147.907 52.5562 147.887 52.0211C147.83 52.6902 148.016 53.3572 148.41 53.8995C148.79 54.384 149.354 54.6896 149.766 55.147C150.164 55.5942 150.403 56.1613 150.446 56.7597C150.473 56.3958 150.427 56.0302 150.31 55.6848C150.193 55.3393 150.008 55.0211 149.766 54.7492Z" fill="black"/>
<path d="M164.08 49.2893C163.974 49.7323 163.785 50.1535 163.698 50.6001C163.647 50.902 163.628 51.2088 163.643 51.5149C163.649 51.342 163.667 51.1698 163.698 50.9996C163.785 50.5531 163.974 50.1318 164.08 49.6889C164.141 49.4444 164.161 49.1915 164.139 48.9404C164.127 49.058 164.108 49.1746 164.08 49.2893Z" fill="black"/>
</g>
<path opacity="0.1" d="M23.8717 151.663C33.5505 151.663 41.3967 150.396 41.3967 148.833C41.3967 147.271 33.5505 146.004 23.8717 146.004C14.1929 146.004 6.34668 147.271 6.34668 148.833C6.34668 150.396 14.1929 151.663 23.8717 151.663Z" fill="#29A1DC"/>
<path d="M24.4373 94.6302H23.3096V120.153H24.4373V94.6302Z" fill="#535461"/>
<path d="M31.5252 120.077L31.4532 121.226L31.3543 122.854L31.3129 123.53L31.2122 125.157L31.1691 125.833L31.0701 127.46L29.9317 145.914C29.8831 146.708 29.5351 147.453 28.9586 147.998C28.3821 148.543 27.6205 148.846 26.8292 148.846H20.9174C20.1238 148.846 19.3603 148.541 18.7833 147.994C18.2064 147.446 17.8599 146.697 17.8149 145.901L16.6764 127.448L16.5775 125.82L16.5361 125.144L16.4336 123.517L16.3922 122.841L16.2933 121.214L16.2214 120.064C16.2089 119.844 16.2412 119.623 16.3163 119.415C16.3914 119.208 16.5076 119.018 16.6581 118.857C16.8085 118.696 16.9899 118.568 17.1912 118.48C17.3926 118.392 17.6096 118.346 17.8293 118.345H29.9191C30.1397 118.346 30.3576 118.392 30.5597 118.481C30.7617 118.571 30.9435 118.7 31.0939 118.862C31.2443 119.024 31.3601 119.216 31.4343 119.425C31.5085 119.634 31.5394 119.855 31.5252 120.077Z" fill="#3F3D56"/>
<path d="M31.4528 121.225L31.352 122.848H16.3917L16.291 121.225H31.4528Z" fill="#9D9CB5"/>
<path d="M31.3112 123.524L31.2122 125.148H16.5343L16.4336 123.524H31.3112Z" fill="#9D9CB5"/>
<path d="M31.1686 125.826L31.0697 127.448H16.6759L16.5752 125.826H31.1686Z" fill="#9D9CB5"/>
<path d="M14.577 104.198C21.1453 108.974 23.8808 116.445 23.8808 116.445C23.8808 116.445 15.9672 116.172 9.39716 111.395C2.82708 106.618 0.0878906 99.1536 0.0878906 99.1536C0.0878906 99.1536 8.00149 99.4211 14.577 104.198Z" fill="#29A1DC"/>
<path d="M0.0878906 99.1536C0.0878906 99.1536 8.30185 103.737 10.9367 107.531C13.5716 111.326 23.8737 116.448 23.8737 116.448" stroke="#535461" stroke-width="2" stroke-miterlimit="10"/>
<path d="M18.8088 94.5759C22.3843 97.1739 23.8735 101.24 23.8735 101.24C23.8735 101.24 19.557 101.092 15.9905 98.4937C12.424 95.8957 10.9258 91.8279 10.9258 91.8279C10.9258 91.8279 15.2351 91.9761 18.8088 94.5759Z" fill="#29A1DC"/>
<path d="M10.9258 91.8279C10.9258 91.8279 15.397 94.3228 16.8322 96.3875C18.2674 98.4521 23.8735 101.24 23.8735 101.24" stroke="#535461" stroke-width="2" stroke-miterlimit="10"/>
<path d="M29.0685 101.034C24.9624 105.57 24.0938 111.498 24.0938 111.498C24.0938 111.498 29.8833 110.07 33.9858 105.532C38.0882 100.994 38.9605 95.0677 38.9605 95.0677C38.9605 95.0677 33.1746 96.4978 29.0685 101.034Z" fill="#29A1DC"/>
<path d="M38.9641 95.0695C38.9641 95.0695 33.6152 99.7194 32.2555 102.923C30.8958 106.127 24.0938 111.498 24.0938 111.498" stroke="#535461" stroke-width="2" stroke-miterlimit="10"/>
</g>
<defs>
<linearGradient id="paint0_linear_123_7" x1="83.7274" y1="151.063" x2="83.7274" y2="46.6281" gradientUnits="userSpaceOnUse">
<stop stop-color="#808080" stop-opacity="0.25"/>
<stop offset="0.54" stop-color="#808080" stop-opacity="0.12"/>
<stop offset="1" stop-color="#808080" stop-opacity="0.1"/>
</linearGradient>
<linearGradient id="paint1_linear_123_7" x1="155.104" y1="155.635" x2="155.104" y2="44.3862" gradientUnits="userSpaceOnUse">
<stop stop-color="#808080" stop-opacity="0.25"/>
<stop offset="0.54" stop-color="#808080" stop-opacity="0.12"/>
<stop offset="1" stop-color="#808080" stop-opacity="0.1"/>
</linearGradient>
<clipPath id="clip0_123_7">
<rect width="210" height="156" fill="white"/>
</clipPath>
</defs>
</svg>
