<svg width="911" height="954" viewBox="0 0 911 954" fill="none" xmlns="http://www.w3.org/2000/svg">
<path d="M394.862 0C205.937 27.3608 111.384 148.204 108.092 273.012C103.79 434.871 90.8301 481.741 64.7554 504.931C42.9314 524.467 -4.83773 539.857 0.397954 561.233C7.03327 588.283 70.6908 609.555 66.2846 622.769C61.8783 635.983 37.7735 666.815 42.076 673.345C46.3786 679.874 64.0814 699.747 64.0814 699.747C64.0814 699.747 51.8476 721.485 53.0917 728.248C57.5757 753.121 77.4558 754.157 77.4558 760.687C77.4558 767.216 72.894 845.8 97.3358 872.332C130.461 908.269 292.922 891.013 303.938 910.808C307.541 917.286 311.377 934.127 314.928 954H910.932V0H394.862Z" fill="white"/>
<path d="M178.67 304.724C178.67 304.724 135.411 238.731 206.896 193.182C206.896 193.182 199.457 75.9141 323.532 71.8462C323.532 71.8462 376.822 1.52696 469.509 41.9204C469.509 41.9204 499.679 3.65156 547.682 11.6318C595.684 19.612 606.622 56.5076 606.622 56.5076C606.622 56.5076 712.01 37.2825 730.568 139.212C730.568 139.212 798.632 179.968 783.521 269.746C769.084 355.429 675.93 353.59 675.93 353.59C675.93 353.59 647.885 454.379 536.199 402.456C536.199 402.456 502.375 440.284 432.263 394.061C432.263 394.061 366.766 445.518 284.239 379.292C284.317 379.292 178.048 405.824 178.67 304.724Z" fill="#E4FBD6"/>
<path d="M251.815 226.45C251.815 226.45 277.216 180.719 314.28 214.143C351.345 247.567 269.803 327.369 269.803 327.369C269.803 327.369 173.28 293.375 185.462 246.815C199.899 191.834 251.815 226.45 251.815 226.45Z" fill="#7DBA58"/>
<path d="M717.168 253.19C717.168 253.19 730.309 244.458 735.597 258.553C740.884 272.648 707.993 282.779 707.993 282.779C707.993 282.779 686.869 260.289 696.562 249.511C708.045 236.737 717.168 253.19 717.168 253.19Z" fill="#E4FBD6"/>
<path d="M426.276 316.644C439.145 316.644 449.577 306.216 449.577 293.352C449.577 280.487 439.145 270.059 426.276 270.059C413.407 270.059 402.975 280.487 402.975 293.352C402.975 306.216 413.407 316.644 426.276 316.644Z" fill="#7DBA58"/>
<path d="M431.228 280.783H421.586V308.481H431.228V280.783Z" fill="#FEFEFE"/>
<path d="M440.273 299.414V289.775H412.566V299.414H440.273Z" fill="#FEFEFE"/>
<path d="M274.209 443.421C275.978 446.902 276.674 450.829 276.211 454.705C275.747 458.582 274.145 462.234 271.605 465.2C269.066 468.166 265.703 470.313 261.943 471.37C258.183 472.426 254.194 472.344 250.481 471.134C246.768 469.925 243.496 467.642 241.081 464.574C238.665 461.506 237.213 457.791 236.909 453.899C236.606 450.006 237.463 446.111 239.373 442.706C241.284 439.301 244.161 436.538 247.642 434.767C249.954 433.59 252.476 432.881 255.063 432.679C257.65 432.477 260.252 432.787 262.719 433.591C265.186 434.394 267.471 435.676 269.443 437.363C271.414 439.05 273.034 441.108 274.209 443.421Z" fill="#E4FBD6"/>
<path d="M255.54 440.789L248.24 444.502L258.89 465.423L266.19 461.71L255.54 440.789Z" fill="#FEFEFE"/>
<path d="M269.558 451.471L265.844 444.174L244.915 454.82L248.629 462.117L269.558 451.471Z" fill="#FEFEFE"/>
<path d="M509.866 487.701C509.866 487.701 449.423 654.094 513.806 717.677L606.441 643.886L509.866 487.701Z" fill="#EBEBEB"/>
<path d="M509.866 487.701C509.866 487.701 449.423 654.094 513.806 717.677L606.441 643.886L509.866 487.701Z" fill="#D7E2D0"/>
<path d="M483.091 348.642C482.754 372.713 502.893 367.349 498.798 397.327C494.703 427.305 465.103 452.437 495.273 483.451C525.443 514.465 609.318 498.997 638.58 512.626C667.843 526.254 723.414 521.668 743.19 487.726C762.967 453.785 724.01 445.442 727.95 421.32C731.89 397.197 786.968 312.628 700.994 331.62C631.323 347.01 628.42 285.319 585.161 278.997C557.661 275.007 483.895 289.516 483.091 348.642Z" fill="#132905"/>
<path d="M729.039 812.92L639.255 768.873C639.255 768.873 637.234 637.484 629.743 633.909C622.252 630.333 584.695 634.868 584.695 634.868C584.695 634.868 604.394 789.342 616.446 796.674L616.058 797.322L716.495 830.072L719.812 865.543L745.731 818.413L729.039 812.92Z" fill="#FFBAB7"/>
<path opacity="0.16" d="M636.275 681.791L593.016 693.658C596.8 718.324 601.413 745.97 605.975 766.464C617.166 766.688 628.331 765.301 639.126 762.345C638.867 747.732 638.037 711.898 636.275 681.791Z" fill="#2D122D"/>
<path d="M574.612 632.406L566.37 868.782L570.5 885H516.5L546.5 866.5L524.173 634.246L574.612 632.406Z" fill="#FFBAB7"/>
<path opacity="0.16" d="M532.027 710.292L536.252 751.384C547.254 755.741 558.569 759.258 570.103 761.904L572.28 699.254L532.027 710.292Z" fill="#2D122D"/>
<path opacity="0.16" d="M634.874 629.972C633.234 625.314 631.16 620.82 628.679 616.551L520.181 612.172C520.181 612.172 519.844 619.297 519.43 630.309C544.416 632.718 604.03 639.507 634.874 629.972Z" fill="#1B1444"/>
<path d="M511.999 887.021C511.999 887.021 528.691 868.601 543.96 862.351C543.96 862.351 565.291 877.215 571.84 866.547L573.766 887.173L511.999 887.021Z" fill="#132905"/>
<path d="M721.081 871.944C721.081 871.944 713.669 852.926 715.146 836.499C715.146 836.499 729.764 830.437 725.721 808.75L749.644 817.197L721.081 871.944Z" fill="#132905"/>
<path d="M518.265 591.339C518.265 591.339 499.577 712.234 508.26 746.798C508.26 746.798 516.036 733.687 546.828 737.418C577.62 741.149 578.657 759.908 613.388 754.286C648.12 748.663 688.554 727.132 688.554 727.132L629.718 586.623L518.265 591.339Z" fill="#345620"/>
<path opacity="0.16" d="M518.264 591.34C518.264 591.34 516.994 599.632 515.258 612.483C529.539 615.644 564.012 622.588 574.561 618.494C574.561 618.494 609.448 703.66 673.054 734.751C682.489 730.45 688.606 727.238 688.606 727.238L629.769 586.729L518.264 591.34Z" fill="#2D122D"/>
<path d="M568.729 409.581C539 407.223 513.314 425.749 511.318 451.037L515.206 598.386C554.422 624.607 660.354 602.894 655.999 592.608L626.114 462.826C631.117 426.733 598.433 411.913 568.729 409.581Z" fill="#58863C"/>
<path opacity="0.16" d="M512.639 501.304L515.101 594.346L559.63 581.236C562.677 591.254 566.25 601.105 570.335 610.747C612.946 611.265 658.797 599.373 655.868 592.61L634.951 501.926L574.43 479.307L512.639 501.304Z" fill="#2D122D"/>
<path d="M592.547 419.531C592.547 419.531 549.444 448.576 556.001 519.75C562.559 590.925 605.662 705.109 689.044 726.744L748.088 645.258C748.088 645.258 661.881 622.794 626.268 432.641C626.268 432.641 615.019 409.219 592.547 419.531Z" fill="#EBF5E4"/>
<path d="M625.335 456.063C603.797 442.953 590.655 455.131 590.655 455.131C581.763 474.445 569.846 492.217 555.354 507.779C555.354 511.614 555.613 515.552 556.001 519.75C557.939 539.265 561.732 558.551 567.328 577.347C638.036 538.897 641.794 466.064 625.335 456.063Z" fill="#D7E2D0"/>
<path d="M550.664 426.993C554.007 431.683 559.269 436.476 563.234 436.346C567.874 436.191 572.643 430.439 574.509 425.594L573.887 407.949L550.016 408.778L550.664 426.993Z" fill="#FFBAB7"/>
<path d="M550.664 426.993C554.007 431.683 559.269 436.476 563.234 436.346C567.874 436.191 572.643 430.439 574.509 425.594L573.887 407.949L550.016 408.778L550.664 426.993Z" fill="url(#paint0_linear_932_2)"/>
<path opacity="0.16" d="M550.249 415.411C557.454 417.277 566.319 418.002 574.095 414.193L573.887 407.949L550.016 408.778L550.249 415.411Z" fill="#2D122D"/>
<path d="M562.145 283.196L554.11 283.325C525.599 283.818 502.997 304.261 503.438 328.979L503.568 336.752H503.697C503.386 349.447 504.371 363.439 504.371 363.439L511.11 363.283C513.235 385.98 534.074 403.962 559.709 404.273C586.742 404.609 608.955 385.177 609.577 360.796H613.543C615.176 357.531 614.813 344.291 614.243 334.057L614.528 334.212V327.243C613.983 302.317 590.578 282.781 562.145 283.196Z" fill="#132905"/>
<path d="M536.148 369.241C536.117 372.189 535.211 375.062 533.546 377.496C531.88 379.929 529.53 381.814 526.792 382.912C524.054 384.009 521.052 384.27 518.166 383.66C515.28 383.051 512.639 381.599 510.579 379.489C508.519 377.379 507.132 374.705 506.593 371.806C506.054 368.907 506.388 365.913 507.552 363.204C508.716 360.494 510.658 358.191 513.133 356.586C515.607 354.981 518.502 354.146 521.452 354.187C523.406 354.211 525.336 354.619 527.132 355.388C528.928 356.158 530.554 357.273 531.919 358.671C533.284 360.069 534.36 361.722 535.085 363.535C535.811 365.349 536.172 367.287 536.148 369.241Z" fill="#FFBAB7"/>
<g style="mix-blend-mode:multiply" opacity="0.26">
<path d="M508.828 370.537C507.714 374.268 510.746 378.465 515.619 379.942C520.492 381.419 525.365 379.553 526.479 375.822C527.594 372.091 524.535 367.894 519.663 366.443C514.79 364.992 509.943 366.806 508.828 370.537Z" fill="#ED8A8D"/>
</g>
<path d="M623.132 369.475C623.101 372.422 622.197 375.294 620.532 377.727C618.868 380.16 616.519 382.045 613.783 383.144C611.046 384.242 608.045 384.504 605.16 383.897C602.274 383.29 599.634 381.841 597.573 379.733C595.511 377.625 594.122 374.954 593.58 372.056C593.038 369.159 593.368 366.166 594.528 363.456C595.689 360.746 597.627 358.441 600.098 356.833C602.569 355.225 605.462 354.385 608.41 354.421C612.356 354.476 616.12 356.09 618.879 358.911C621.638 361.732 623.167 365.53 623.132 369.475Z" fill="#FFBAB7"/>
<g style="mix-blend-mode:multiply" opacity="0.26">
<path d="M602.527 376.393C603.927 380.02 608.904 381.575 613.647 379.657C618.39 377.74 621.137 373.413 619.738 369.786C618.338 366.158 613.362 364.604 608.618 366.495C603.875 368.387 601.128 372.739 602.527 376.393Z" fill="#ED8A8D"/>
</g>
<path d="M511.68 366.883C513.635 365.907 515.894 365.729 517.978 366.386C520.063 367.044 521.81 368.486 522.851 370.407" stroke="#ED8885" stroke-linecap="round" stroke-linejoin="round"/>
<path d="M616.291 367.323C616.291 367.323 606.623 364.188 602.139 371.132" stroke="#ED8885" stroke-linecap="round" stroke-linejoin="round"/>
<path d="M566.811 308.328L555.355 308.198C550.144 308.136 544.971 309.102 540.133 311.038C535.295 312.975 530.886 315.846 527.158 319.486C523.429 323.126 520.455 327.465 518.404 332.254C516.354 337.044 515.267 342.19 515.206 347.4L514.973 366.599C514.894 372.56 515.992 378.478 518.204 384.014C520.415 389.551 523.698 394.597 527.863 398.864C532.028 403.13 536.993 406.534 542.476 408.881C547.958 411.227 553.85 412.469 559.813 412.537C565.775 412.612 571.694 411.512 577.231 409.3C582.768 407.088 587.814 403.807 592.082 399.644C596.349 395.481 599.755 390.519 602.103 385.04C604.451 379.561 605.697 373.673 605.768 367.713L606.001 348.488C606.066 343.279 605.104 338.107 603.17 333.27C601.235 328.432 598.367 324.023 594.727 320.293C591.088 316.564 586.75 313.588 581.96 311.535C577.17 309.482 572.022 308.392 566.811 308.328Z" fill="#FFBAB7"/>
<path d="M515.206 347.399C515.206 347.399 540.581 326.309 544.054 306.902C544.054 306.902 552.374 330.454 568.314 335.999C584.255 341.544 606.467 353.488 609.578 360.691C609.578 360.691 631.376 308.871 582.155 296.513C532.934 284.154 504.372 306.099 515.206 347.399Z" fill="#132905"/>
<path d="M563.623 382.92C561.074 384.282 558.181 384.869 555.302 384.606C552.424 384.344 549.685 383.244 547.424 381.443" stroke="#ED8885" stroke-width="0.75" stroke-linecap="round" stroke-linejoin="round"/>
<path d="M540.348 357.452C541.062 358.167 541.464 359.136 541.464 360.147C541.464 361.157 541.062 362.127 540.348 362.841C539.633 363.556 538.663 363.957 537.652 363.957C536.641 363.957 535.671 363.556 534.956 362.841C534.241 362.127 533.84 361.157 533.84 360.147C533.84 359.136 534.241 358.167 534.956 357.452C535.671 356.737 536.641 356.336 537.652 356.336C538.663 356.336 539.633 356.737 540.348 357.452Z" fill="#2D122D"/>
<path d="M574.093 356.83C574.805 357.548 575.202 358.52 575.197 359.53C575.192 360.541 574.785 361.508 574.067 362.22C573.349 362.931 572.377 363.328 571.366 363.323C570.355 363.318 569.387 362.912 568.676 362.194C567.964 361.476 567.567 360.504 567.572 359.494C567.577 358.483 567.983 357.516 568.702 356.804C569.42 356.093 570.392 355.696 571.403 355.701C572.414 355.706 573.382 356.112 574.093 356.83Z" fill="#2D122D"/>
<path opacity="0.16" d="M531.846 335.014L530.188 335.506C530.752 335.383 531.306 335.218 531.846 335.014Z" fill="#2D122D"/>
<path d="M553.488 358.723L553.722 369.268L558.413 369.164" stroke="#ED8885" stroke-width="0.75" stroke-linecap="round" stroke-linejoin="round"/>
<path d="M533.686 338.512C531.819 339.057 530.124 340.073 528.762 341.461C527.4 342.849 526.418 344.564 525.91 346.441C525.91 346.441 545.116 340.067 545.22 338.953C545.22 338.253 539.207 336.724 533.738 338.512" fill="#132905"/>
<path d="M585.214 348.021C585.214 348.021 565.93 341.802 565.827 340.688C565.723 339.574 581.586 336.154 585.214 348.021Z" fill="#132905"/>
<path d="M464.714 428.006C464.714 428.006 529.875 373.206 566.836 445.495C603.797 517.783 433.585 591.859 433.585 591.859C433.585 591.859 306.581 484.256 352.043 420.544C405.852 345.276 464.714 428.006 464.714 428.006Z" fill="#7DBA58"/>
<path d="M453.699 577.478C450.407 569.835 442.191 568.747 434.052 571.882C425.913 575.017 420.937 581.209 424.229 588.827C425.979 592.585 429.108 595.526 432.968 597.041C436.829 598.556 441.124 598.527 444.964 596.963C446.849 596.3 448.58 595.261 450.051 593.909C451.521 592.557 452.701 590.919 453.519 589.096C454.336 587.273 454.773 585.303 454.804 583.306C454.835 581.308 454.459 579.326 453.699 577.478Z" fill="#FFBAB7"/>
<path d="M425.007 570.016L436.334 581.339L432.264 585.484L420.938 574.136C420.321 573.6 419.94 572.843 419.876 572.029C419.813 571.214 420.074 570.407 420.601 569.783C421.221 569.24 422.028 568.961 422.851 569.004C423.674 569.048 424.448 569.411 425.007 570.016Z" fill="#FFBAB7"/>
<path d="M420.134 575.094L433.741 583.333L430.787 588.515L417.179 580.224C416.81 580.051 416.481 579.803 416.213 579.496C415.945 579.189 415.744 578.829 415.624 578.44C415.503 578.051 415.465 577.641 415.512 577.236C415.558 576.831 415.689 576.44 415.896 576.089C416.102 575.738 416.38 575.433 416.711 575.195C417.042 574.957 417.419 574.791 417.818 574.707C418.217 574.623 418.629 574.624 419.028 574.708C419.426 574.792 419.803 574.959 420.134 575.197V575.094Z" fill="#FFBAB7"/>
<path d="M417.257 581.883L431.953 587.842L429.879 593.335L415.183 587.376C414.399 587.12 413.748 586.566 413.369 585.834C412.991 585.102 412.916 584.25 413.161 583.463C413.496 582.712 414.115 582.124 414.882 581.828C415.65 581.532 416.504 581.551 417.257 581.883Z" fill="#FFBAB7"/>
<path d="M431.486 566.546L442.423 577.739L438.406 581.755L427.468 570.588C426.862 570.054 426.492 569.302 426.438 568.496C426.385 567.69 426.653 566.896 427.183 566.287C427.795 565.766 428.584 565.502 429.386 565.551C430.189 565.599 430.941 565.956 431.486 566.546Z" fill="#FFBAB7"/>
<path d="M612.195 454.95C616.706 458.163 619.926 462.875 621.28 468.244C622.633 473.613 622.031 479.288 619.582 484.254C603.408 516.538 557.661 580.768 445.638 595.537L443.279 574.524C443.279 574.524 540.995 544.702 577.748 463.967C579.19 460.891 581.292 458.171 583.903 455.998C586.514 453.825 589.572 452.253 592.859 451.392C596.145 450.532 599.581 450.405 602.923 451.019C606.264 451.634 609.43 452.976 612.195 454.95Z" fill="#FFBAB7"/>
<path d="M472.62 592.817L456.68 562.839C456.68 562.839 544.805 530.063 582.232 447.644C582.232 447.644 595.347 435.467 616.912 448.577C638.477 461.687 625.336 582.505 472.62 592.817Z" fill="#EBF5E4"/>
<defs>
<linearGradient id="paint0_linear_932_2" x1="563.376" y1="392.773" x2="567.242" y2="428.191" gradientUnits="userSpaceOnUse">
<stop stop-color="#EF9593"/>
<stop offset="0.99" stop-color="#EF9593" stop-opacity="0"/>
</linearGradient>
</defs>
</svg>
