<svg width="257" height="40" viewBox="0 0 257 40" fill="none" xmlns="http://www.w3.org/2000/svg">
<path d="M13.339 19.6646V38.9844H4.09137V5.98456L1.53467 1.62938V1.01509H12.4142L26.1222 22.4565V1.01509H35.3696V38.9844H26.1222L13.339 19.6646Z" fill="#29A1DC"/>
<path d="M42.7656 1.01492H52.0132V38.9844H42.7656V1.01492Z" fill="#29A1DC"/>
<path d="M84.0524 38.0347C81.7135 39.0402 79.048 39.5986 76.2736 39.5986C65.4485 39.5986 57.2349 31.1108 57.2349 19.9995C57.2349 8.8877 65.4485 0.400608 76.2736 0.400608C79.048 0.400608 81.7135 0.958862 84.0524 1.96383V12.8524C82.2576 11.1212 79.5376 9.89318 76.2736 9.89318C70.834 9.89318 66.7544 14.4716 66.7544 19.9995C66.7544 25.5835 70.834 30.1059 76.2736 30.1059C79.5376 30.1059 82.3662 28.8778 84.0524 27.2581V38.0347Z" fill="#29A1DC"/>
<path d="M93.0548 6.18079C85.4001 14.0381 85.3615 26.0011 93.0162 33.8586C100.671 41.7155 112.325 41.6759 119.98 33.8186L118.821 27.625L113.248 26.909C109.44 30.818 103.402 31.0942 99.5554 27.1461C95.7474 23.2372 95.978 16.9992 99.786 13.0902C103.633 9.14189 109.671 8.94467 113.479 12.8537C116.297 15.7456 116.927 19.8237 115.551 23.3505L121.341 24.3963L122.493 30.6959C127.524 23.035 126.716 13.0161 120.019 6.14114C116.201 2.22215 111.389 0.267742 106.573 0.268085C101.734 0.268433 96.8912 2.24284 93.0548 6.18079Z" fill="url(#paint0_linear_404_171)"/>
<path d="M144.811 38.9844L139.479 12.6847L135.019 38.9844H128.818L135.345 1.01492H142.526L148.618 30.8876L164.937 1.01492H172.716L166.188 38.9844H159.987L164.502 12.6847L150.196 38.9844H144.811Z" fill="#29A1DC"/>
<path d="M175.216 38.9844L181.744 1.01492H201.654L200.62 7.10142H186.857L185.225 16.8166H197.9L196.812 22.9029H184.137L182.451 32.898H196.159L195.126 38.9844H175.216Z" fill="#29A1DC"/>
<path d="M214.109 7.15728H205.024L206.058 1.01492H230.428L229.394 7.15728H220.31L214.87 38.9844H208.669L214.109 7.15728Z" fill="#29A1DC"/>
<path d="M238.042 23.5174H247.562L245.222 9.33496L238.042 23.5174ZM248.541 29.6037H234.941L230.209 38.9844H223.028L242.938 1.01509H249.846L256.7 38.9844H250.064L248.541 29.6037Z" fill="#29A1DC"/>
<defs>
<linearGradient id="paint0_linear_404_171" x1="106.517" y1="5.91266" x2="106.517" y2="45.7571" gradientUnits="userSpaceOnUse">
<stop stop-color="#7DBA56"/>
<stop offset="0.935057" stop-color="#29A1DC"/>
<stop offset="1" stop-color="#29A1DC"/>
</linearGradient>
</defs>
</svg>