<svg width="40" height="40" viewBox="0 0 52 52" fill="none" xmlns="http://www.w3.org/2000/svg">
<path d="M41.1667 4.33333H39V2.16667C39 0.970667 38.0315 0 36.8333 0C35.6352 0 34.6667 0.970667 34.6667 2.16667V4.33333H17.3333V2.16667C17.3333 0.970667 16.3648 0 15.1667 0C13.9685 0 13 0.970667 13 2.16667V4.33333H10.8333C4.85983 4.33333 0 9.19317 0 15.1667V41.1667C0 47.1402 4.85983 52 10.8333 52H41.1667C47.1402 52 52 47.1402 52 41.1667V15.1667C52 9.19317 47.1402 4.33333 41.1667 4.33333ZM10.8333 8.66667H41.1667C44.7503 8.66667 47.6667 11.583 47.6667 15.1667V17.3333H4.33333V15.1667C4.33333 11.583 7.24967 8.66667 10.8333 8.66667ZM41.1667 47.6667H10.8333C7.24967 47.6667 4.33333 44.7503 4.33333 41.1667V21.6667H47.6667V41.1667C47.6667 44.7503 44.7503 47.6667 41.1667 47.6667ZM38.636 28.496C39.468 29.3562 39.442 30.7298 38.5818 31.5597L28.3118 41.457C27.1137 42.6552 25.48 43.3333 23.7445 43.3333C22.009 43.3333 20.3753 42.6573 19.149 41.4288L14.2697 36.8962C13.3943 36.0815 13.3423 34.71 14.157 33.8347C14.976 32.9572 16.3453 32.9095 17.2185 33.722L22.1542 38.3088C23.0923 39.2405 24.4573 39.1798 25.272 38.3652L35.5723 28.4375C36.4347 27.6077 37.804 27.6337 38.636 28.4938V28.496Z" fill="black"/>
</svg>