<svg width="35" height="35" viewBox="0 0 45 45" fill="none" xmlns="http://www.w3.org/2000/svg">
<path d="M13.125 26.25C13.125 26.7473 12.9275 27.2242 12.5758 27.5758C12.2242 27.9275 11.7473 28.125 11.25 28.125H9.375C8.87772 28.125 8.40081 27.9275 8.04918 27.5758C7.69754 27.2242 7.5 26.7473 7.5 26.25C7.5 25.7527 7.69754 25.2758 8.04918 24.9242C8.40081 24.5725 8.87772 24.375 9.375 24.375H11.25C11.7473 24.375 12.2242 24.5725 12.5758 24.9242C12.9275 25.2758 13.125 25.7527 13.125 26.25ZM20.625 24.375H18.75C18.2527 24.375 17.7758 24.5725 17.4242 24.9242C17.0725 25.2758 16.875 25.7527 16.875 26.25C16.875 26.7473 17.0725 27.2242 17.4242 27.5758C17.7758 27.9275 18.2527 28.125 18.75 28.125H20.625C21.1223 28.125 21.5992 27.9275 21.9508 27.5758C22.3025 27.2242 22.5 26.7473 22.5 26.25C22.5 25.7527 22.3025 25.2758 21.9508 24.9242C21.5992 24.5725 21.1223 24.375 20.625 24.375ZM11.25 31.875H9.375C8.87772 31.875 8.40081 32.0725 8.04918 32.4242C7.69754 32.7758 7.5 33.2527 7.5 33.75C7.5 34.2473 7.69754 34.7242 8.04918 35.0758C8.40081 35.4275 8.87772 35.625 9.375 35.625H11.25C11.7473 35.625 12.2242 35.4275 12.5758 35.0758C12.9275 34.7242 13.125 34.2473 13.125 33.75C13.125 33.2527 12.9275 32.7758 12.5758 32.4242C12.2242 32.0725 11.7473 31.875 11.25 31.875ZM20.625 31.875H18.75C18.2527 31.875 17.7758 32.0725 17.4242 32.4242C17.0725 32.7758 16.875 33.2527 16.875 33.75C16.875 34.2473 17.0725 34.7242 17.4242 35.0758C17.7758 35.4275 18.2527 35.625 18.75 35.625H20.625C21.1223 35.625 21.5992 35.4275 21.9508 35.0758C22.3025 34.7242 22.5 34.2473 22.5 33.75C22.5 33.2527 22.3025 32.7758 21.9508 32.4242C21.5992 32.0725 21.1223 31.875 20.625 31.875ZM11.25 9.375H9.375C8.87772 9.375 8.40081 9.57254 8.04918 9.92418C7.69754 10.2758 7.5 10.7527 7.5 11.25C7.5 11.7473 7.69754 12.2242 8.04918 12.5758C8.40081 12.9275 8.87772 13.125 9.375 13.125H11.25C11.7473 13.125 12.2242 12.9275 12.5758 12.5758C12.9275 12.2242 13.125 11.7473 13.125 11.25C13.125 10.7527 12.9275 10.2758 12.5758 9.92418C12.2242 9.57254 11.7473 9.375 11.25 9.375ZM20.625 9.375H18.75C18.2527 9.375 17.7758 9.57254 17.4242 9.92418C17.0725 10.2758 16.875 10.7527 16.875 11.25C16.875 11.7473 17.0725 12.2242 17.4242 12.5758C17.7758 12.9275 18.2527 13.125 18.75 13.125H20.625C21.1223 13.125 21.5992 12.9275 21.9508 12.5758C22.3025 12.2242 22.5 11.7473 22.5 11.25C22.5 10.7527 22.3025 10.2758 21.9508 9.92418C21.5992 9.57254 21.1223 9.375 20.625 9.375ZM11.25 16.875H9.375C8.87772 16.875 8.40081 17.0725 8.04918 17.4242C7.69754 17.7758 7.5 18.2527 7.5 18.75C7.5 19.2473 7.69754 19.7242 8.04918 20.0758C8.40081 20.4275 8.87772 20.625 9.375 20.625H11.25C11.7473 20.625 12.2242 20.4275 12.5758 20.0758C12.9275 19.7242 13.125 19.2473 13.125 18.75C13.125 18.2527 12.9275 17.7758 12.5758 17.4242C12.2242 17.0725 11.7473 16.875 11.25 16.875ZM20.625 16.875H18.75C18.2527 16.875 17.7758 17.0725 17.4242 17.4242C17.0725 17.7758 16.875 18.2527 16.875 18.75C16.875 19.2473 17.0725 19.7242 17.4242 20.0758C17.7758 20.4275 18.2527 20.625 18.75 20.625H20.625C21.1223 20.625 21.5992 20.4275 21.9508 20.0758C22.3025 19.7242 22.5 19.2473 22.5 18.75C22.5 18.2527 22.3025 17.7758 21.9508 17.4242C21.5992 17.0725 21.1223 16.875 20.625 16.875ZM45 18.75V35.625C44.997 38.1105 44.0083 40.4933 42.2508 42.2508C40.4933 44.0083 38.1105 44.997 35.625 45H9.375C6.88951 44.997 4.50667 44.0083 2.74916 42.2508C0.991654 40.4933 0.00297723 38.1105 0 35.625L0 9.375C0.00297723 6.88951 0.991654 4.50667 2.74916 2.74916C4.50667 0.991654 6.88951 0.00297723 9.375 0L20.625 0C23.1105 0.00297723 25.4933 0.991654 27.2508 2.74916C29.0083 4.50667 29.997 6.88951 30 9.375H35.625C38.1105 9.37798 40.4933 10.3667 42.2508 12.1242C44.0083 13.8817 44.997 16.2645 45 18.75ZM9.375 41.25H26.25V9.375C26.25 7.88316 25.6574 6.45242 24.6025 5.39752C23.5476 4.34263 22.1168 3.75 20.625 3.75H9.375C7.88316 3.75 6.45242 4.34263 5.39752 5.39752C4.34263 6.45242 3.75 7.88316 3.75 9.375V35.625C3.75 37.1168 4.34263 38.5476 5.39752 39.6025C6.45242 40.6574 7.88316 41.25 9.375 41.25ZM41.25 18.75C41.25 17.2582 40.6574 15.8274 39.6025 14.7725C38.5476 13.7176 37.1168 13.125 35.625 13.125H30V41.25H35.625C37.1168 41.25 38.5476 40.6574 39.6025 39.6025C40.6574 38.5476 41.25 37.1168 41.25 35.625V18.75ZM35.625 24.375C35.2542 24.375 34.8916 24.485 34.5833 24.691C34.275 24.897 34.0346 25.1899 33.8927 25.5325C33.7508 25.8751 33.7137 26.2521 33.786 26.6158C33.8584 26.9795 34.0369 27.3136 34.2992 27.5758C34.5614 27.838 34.8955 28.0166 35.2592 28.089C35.6229 28.1613 35.9999 28.1242 36.3425 27.9823C36.6851 27.8404 36.978 27.6 37.184 27.2917C37.39 26.9834 37.5 26.6208 37.5 26.25C37.5 25.7527 37.3025 25.2758 36.9508 24.9242C36.5992 24.5725 36.1223 24.375 35.625 24.375ZM35.625 31.875C35.2542 31.875 34.8916 31.985 34.5833 32.191C34.275 32.397 34.0346 32.6899 33.8927 33.0325C33.7508 33.3751 33.7137 33.7521 33.786 34.1158C33.8584 34.4795 34.0369 34.8136 34.2992 35.0758C34.5614 35.3381 34.8955 35.5166 35.2592 35.589C35.6229 35.6613 35.9999 35.6242 36.3425 35.4823C36.6851 35.3404 36.978 35.1 37.184 34.7917C37.39 34.4834 37.5 34.1208 37.5 33.75C37.5 33.2527 37.3025 32.7758 36.9508 32.4242C36.5992 32.0725 36.1223 31.875 35.625 31.875ZM35.625 16.875C35.2542 16.875 34.8916 16.985 34.5833 17.191C34.275 17.397 34.0346 17.6899 33.8927 18.0325C33.7508 18.3751 33.7137 18.7521 33.786 19.1158C33.8584 19.4795 34.0369 19.8136 34.2992 20.0758C34.5614 20.338 34.8955 20.5166 35.2592 20.589C35.6229 20.6613 35.9999 20.6242 36.3425 20.4823C36.6851 20.3404 36.978 20.1 37.184 19.7917C37.39 19.4834 37.5 19.1208 37.5 18.75C37.5 18.2527 37.3025 17.7758 36.9508 17.4242C36.5992 17.0725 36.1223 16.875 35.625 16.875Z" fill="black"/>
</svg>