<svg width="35" height="35" viewBox="0 0 43 54" fill="none" xmlns="http://www.w3.org/2000/svg">
<path d="M18.1052 26.6431C18.7054 26.6431 19.2811 26.8771 19.7055 27.2934C20.1299 27.7098 20.3684 28.2745 20.3684 28.8634C20.3684 29.4522 20.1299 30.017 19.7055 30.4334C19.2811 30.8497 18.7054 31.0837 18.1052 31.0837H11.3158C10.7155 31.0837 10.1399 30.8497 9.71546 30.4334C9.29104 30.017 9.0526 29.4522 9.0526 28.8634C9.0526 28.2745 9.29104 27.7098 9.71546 27.2934C10.1399 26.8771 10.7155 26.6431 11.3158 26.6431H18.1052ZM31.6841 19.9823C31.6841 19.3935 31.4457 18.8288 31.0212 18.4124C30.5968 17.996 30.0212 17.7621 29.421 17.7621H11.3158C10.7155 17.7621 10.1399 17.996 9.71546 18.4124C9.29104 18.8288 9.0526 19.3935 9.0526 19.9823C9.0526 20.5712 9.29104 21.1359 9.71546 21.5523C10.1399 21.9687 10.7155 22.2026 11.3158 22.2026H29.421C30.0212 22.2026 30.5968 21.9687 31.0212 21.5523C31.4457 21.1359 31.6841 20.5712 31.6841 19.9823ZM11.3158 13.3216H29.421C30.0212 13.3216 30.5968 13.0876 31.0212 12.6713C31.4457 12.2549 31.6841 11.6902 31.6841 11.1013C31.6841 10.5125 31.4457 9.94772 31.0212 9.53134C30.5968 9.11496 30.0212 8.88104 29.421 8.88104H11.3158C10.7155 8.88104 10.1399 9.11496 9.71546 9.53134C9.29104 9.94772 9.0526 10.5125 9.0526 11.1013C9.0526 11.6902 9.29104 12.2549 9.71546 12.6713C10.1399 13.0876 10.7155 13.3216 11.3158 13.3216ZM38.4736 43.1708V51.681C38.4737 51.9977 38.3781 52.3074 38.1988 52.5708C38.0195 52.8342 37.7646 53.0395 37.4664 53.1607C37.1681 53.2819 36.8399 53.3136 36.5233 53.2518C36.2066 53.19 35.9158 53.0374 35.6876 52.8134L33.9473 51.1082L32.2069 52.8134C31.9787 53.0374 31.6879 53.19 31.3712 53.2518C31.0546 53.3136 30.7264 53.2819 30.4281 53.1607C30.1299 53.0395 29.875 52.8342 29.6957 52.5708C29.5164 52.3074 29.4208 51.9977 29.421 51.681V43.1708C27.695 42.1979 26.3453 40.6924 25.5823 38.8887C24.8192 37.085 24.6855 35.0844 25.202 33.1984C25.7185 31.3124 26.8562 29.6469 28.4379 28.4613C30.0197 27.2756 31.9567 26.6364 33.9473 26.6431C34.7123 26.6525 35.4729 26.7585 36.2104 26.9584V11.1013C36.2104 9.33476 35.4951 7.64056 34.2218 6.39142C32.9486 5.14228 31.2216 4.44052 29.421 4.44052H11.3158C9.51508 4.44052 7.78816 5.14228 6.51489 6.39142C5.24162 7.64056 4.5263 9.33476 4.5263 11.1013V37.7444C4.5263 39.511 5.24162 41.2052 6.51489 42.4543C7.78816 43.7035 9.51508 44.4052 11.3158 44.4052H22.6315C23.2317 44.4052 23.8074 44.6391 24.2318 45.0555C24.6562 45.4719 24.8947 46.0366 24.8947 46.6255C24.8947 47.2143 24.6562 47.7791 24.2318 48.1954C23.8074 48.6118 23.2317 48.8457 22.6315 48.8457H11.3158C8.31573 48.8422 5.43961 47.6715 3.31828 45.5904C1.19694 43.5092 0.00359356 40.6876 0 37.7444V11.1013C0.00359356 8.15814 1.19694 5.33653 3.31828 3.25539C5.43961 1.17426 8.31573 0.00352546 11.3158 0L29.421 0C32.421 0.00352546 35.2971 1.17426 37.4184 3.25539C39.5398 5.33653 40.7331 8.15814 40.7367 11.1013V29.7115C41.6232 30.6882 42.2759 31.847 42.6469 33.1032C43.0178 34.3593 43.0978 35.6809 42.8808 36.9713C42.6638 38.2616 42.1554 39.488 41.3929 40.5607C40.6303 41.6334 39.6329 42.5252 38.4736 43.1708ZM38.4736 35.5242C38.4736 34.6459 38.2081 33.7874 37.7107 33.0572C37.2134 32.3269 36.5065 31.7578 35.6794 31.4217C34.8523 31.0856 33.9422 30.9976 33.0642 31.169C32.1862 31.3403 31.3797 31.7632 30.7467 32.3843C30.1137 33.0053 29.6826 33.7965 29.5079 34.6579C29.3333 35.5193 29.4229 36.4121 29.7655 37.2235C30.1081 38.0349 30.6882 38.7284 31.4326 39.2163C32.1769 39.7043 33.052 39.9647 33.9473 39.9647C35.1477 39.9647 36.299 39.4969 37.1478 38.6641C37.9967 37.8313 38.4736 36.7019 38.4736 35.5242Z" fill="black"/>
</svg>